<?xml version="1.0" encoding="UTF-8"?>
<svg width="580px" height="180px" viewBox="0 0 580 180" version="1.1" xmlns="http://www.w3.org/2000/svg" xmlns:xlink="http://www.w3.org/1999/xlink">
    <title>Untitled</title>
    <g id="Page-1" stroke="none" stroke-width="1" fill="none" fill-rule="evenodd">
        <g id="vClusterpro_orange" transform="translate(0.204938, 0.870000)">
            <g id="Group" transform="translate(194.755062, 6.850000)" fill="#F27405" fill-rule="nonzero">
                <path d="M20.92,84.33 C17.42,77.49 13.85,69.51 10.23,60.32 C6.61,51.13 3.22,41.13 -2.84217094e-14,30.33 L16.2,30.33 C16.89,32.97 17.69,35.9 18.61,39 C19.53,42.1 20.51,45.26 21.48,48.42 C22.46,51.58 23.49,54.68 24.47,57.73 C25.45,60.77 26.42,63.47 27.4,65.95 C28.32,63.48 29.24,60.72 30.27,57.73 C31.3,54.74 32.34,51.64 33.31,48.42 C34.29,45.26 35.26,42.1 36.18,39 C37.1,35.9 37.9,32.97 38.59,30.33 L54.5,30.33 C51.28,41.13 47.84,51.13 44.27,60.32 C40.65,69.51 37.09,77.5 33.64,84.33 L20.89,84.33 L20.92,84.33 Z" id="Path"></path>
                <path d="M107.76,69.71 C107.01,69.98 106.2,70.23 105.31,70.46 C103.87,70.84 102.22,71.17 100.36,71.44 C98.5,71.72 96.41,71.85 94.07,71.85 C90.36,71.85 87.19,71.25 84.58,70.05 C81.97,68.85 79.85,67.21 78.24,65.15 C76.62,63.09 75.46,60.63 74.73,57.78 C74.01,54.93 73.65,53.47 73.65,50.17 C73.65,46.04 74.2,42.54 75.3,39.65 C76.4,36.76 77.86,34.41 79.68,32.59 C81.5,30.77 83.6,29.44 85.97,28.62 C88.34,27.8 90.77,27.38 93.24,27.38 C96.95,27.38 100.27,27.79 103.19,28.62 C103.6,28.74 103.99,28.86 104.39,28.99 L107.94,15.3 C106.14,14.75 104.06,14.26 101.7,13.83 C99.22,13.38 96.47,13.16 93.45,13.16 C88.22,13.16 83.38,13.98 78.91,15.64 C74.44,17.29 70.59,19.71 67.36,22.91 C64.13,26.11 61.59,30.03 59.73,34.67 C57.87,39.31 56.94,44.59 56.94,50.5 C56.94,62.4 59.98,69.95 66.07,76.41 C72.15,82.87 81.01,86.1 92.63,86.1 C98.06,86.1 102.84,85.55 106.97,84.45 C109.77,83.71 112.12,82.9 114.07,82.02 L107.77,69.72 L107.76,69.71 Z" id="Path"></path>
                <path d="M139.93,71.06 C139.47,71.12 139.24,71.12 138.61,71.12 C137.86,71.12 137.17,70.95 136.43,70.72 C136.2,70.66 136.03,70.61 135.86,70.49 C134.71,69.97 133.85,69.34 133.27,68.59 C132.7,67.84 132.29,66.87 132.06,65.72 C131.83,64.57 131.72,63.31 131.72,61.93 L131.72,-2.84217094e-14 L115.98,7.81 L115.98,65.03 C115.98,68.02 116.27,70.66 116.9,73.02 C117.47,75.38 118.62,77.39 120.29,79.05 C121.96,80.72 124.2,81.98 127.07,82.9 C129.37,83.65 132.3,84.11 135.74,84.28 L137.92,84.39 L138.21,84.39 C141.08,84.39 142.92,84.22 145.22,83.47 C145.74,83.3 146.25,83.13 146.71,82.9 L139.93,71.07 L139.93,71.06 Z" id="Path"></path>
                <path d="M193.36,82.5 C190.77,83.25 187.39,83.94 183.31,84.63 C179.23,85.26 174.87,85.61 170.38,85.61 C165.89,85.61 161.99,84.98 158.95,83.77 C155.91,82.56 153.49,80.84 151.71,78.6 C149.93,76.36 148.67,73.72 147.92,70.67 C147.17,67.57 146.77,64.18 146.77,60.5 L146.77,30.34 L162.05,30.34 L162.05,58.55 C162.05,63.49 162.68,67.05 164,69.24 C165.32,71.42 167.73,72.51 171.3,72.51 C172.39,72.51 173.54,72.45 174.8,72.34 C176.01,72.23 177.1,72.11 178.07,72 L178.07,30.35 L193.35,30.35 L193.35,82.51 L193.36,82.5 Z" id="Path"></path>
                <path d="M290.33,57.74 C290.33,52.97 291.08,48.78 292.51,45.16 C294,41.54 295.9,38.55 298.31,36.2 C300.72,33.79 303.48,32.01 306.58,30.74 C309.68,29.53 312.9,28.9 316.17,28.9 C323.81,28.9 329.9,31.26 334.32,35.91 C338.74,40.62 340.98,47.51 340.98,56.59 C340.98,57.45 340.92,58.43 340.87,59.52 C340.81,60.55 340.76,61.53 340.64,62.33 L305.94,62.33 C306.28,65.49 307.78,67.96 310.36,69.8 C312.95,71.64 316.45,72.56 320.82,72.56 C323.63,72.56 326.39,72.33 329.09,71.81 C331.79,71.29 333.97,70.66 335.7,69.91 L337.77,82.32 C336.97,82.72 335.87,83.12 334.5,83.53 C333.12,83.93 331.63,84.28 329.9,84.62 C328.23,84.91 326.45,85.19 324.5,85.37 C322.6,85.6 320.65,85.66 318.76,85.66 C313.88,85.66 309.68,84.91 306.06,83.48 C302.44,82.04 299.51,80.09 297.16,77.56 C294.8,75.09 293.08,72.1 291.93,68.66 C290.9,65.39 290.32,61.71 290.32,57.74 L290.33,57.74 Z M326.29,51.88 C326.23,50.56 326,49.29 325.6,48.09 C325.2,46.88 324.62,45.79 323.88,44.82 C323.08,43.84 322.1,43.1 320.89,42.46 C319.68,41.83 318.19,41.54 316.41,41.54 C314.63,41.54 313.25,41.83 311.99,42.4 C310.78,42.97 309.75,43.78 308.89,44.7 C308.09,45.68 307.45,46.77 306.99,48.03 C306.53,49.29 306.24,50.56 306.01,51.88 C306.01,51.88 326.29,51.88 326.29,51.88 L326.29,51.88 Z" id="Shape"></path>
                <path d="M382.25,43.89 C380.87,43.55 379.26,43.2 377.42,42.8 C375.58,42.4 373.57,42.23 371.45,42.23 C370.47,42.23 369.32,42.29 368,42.46 C366.68,42.63 365.64,42.8 364.96,43.03 L364.96,84.28 L349.68,84.28 L349.68,33.15 C352.44,32.17 355.65,31.31 359.39,30.45 C363.12,29.59 367.26,29.19 371.86,29.19 C372.66,29.19 373.7,29.25 374.85,29.36 C376,29.47 377.15,29.59 378.35,29.76 C379.5,29.93 380.65,30.16 381.85,30.39 C383,30.62 384.03,30.91 384.84,31.25 L382.25,43.89 Z" id="Path"></path>
                <path d="M291.19,80.26 L284.64,69.46 C283.15,70.03 281.54,70.44 279.7,70.78 C277.92,71.12 276.14,71.24 274.47,71.24 C270.97,71.24 268.61,70.26 267.46,68.25 C266.31,66.3 265.74,63.65 265.74,60.32 L265.74,42.8 L284.64,42.8 L284.64,29.7 L265.74,29.7 L265.74,10.63 L250,19.07 L250,60.55 C250,64.17 250.34,67.44 250.98,70.37 C251.67,73.36 252.82,75.83 254.54,77.95 C256.21,80.02 258.5,81.63 261.32,82.83 C264.13,83.98 267.7,84.55 272.01,84.55 C275.4,84.55 278.27,84.26 280.57,83.69 C281.49,83.46 282.41,83.23 283.27,82.94 C286.03,82.25 290.11,81.04 291.2,80.24 L291.19,80.26 Z" id="Path"></path>
                <path d="M242.59,63.65 C242.07,61.93 241.21,60.38 239.95,59 C238.69,57.62 236.96,56.3 234.78,55.09 C232.6,53.88 229.84,52.68 226.45,51.41 C224.78,50.78 223.46,50.2 222.37,49.69 C221.34,49.17 220.47,48.71 219.84,48.25 C219.21,47.79 218.81,47.33 218.63,46.87 C218.4,46.41 218.34,45.84 218.34,45.2 C218.34,42.56 220.75,41.18 225.52,41.18 C228.11,41.18 230.46,41.41 232.53,41.93 C234.6,42.39 236.55,42.96 238.33,43.6 L240.97,31.71 C239.19,31.02 236.78,30.39 233.79,29.81 C230.8,29.23 227.64,28.95 224.37,28.95 C217.82,28.95 212.65,30.44 208.86,33.37 C205.07,36.3 203.23,40.32 203.23,45.38 C203.23,47.97 203.63,50.21 204.38,52.04 C205.13,53.88 206.22,55.49 207.54,56.81 C208.92,58.13 210.58,59.28 212.54,60.26 C214.49,61.24 216.68,62.16 219.03,63.02 C222.13,64.17 224.37,65.2 225.92,66.18 C227.41,67.1 228.16,68.19 228.16,69.4 C228.16,70.95 227.59,72.04 226.44,72.56 C225.29,73.13 223.28,73.36 220.47,73.36 C217.83,73.36 215.07,73.07 212.37,72.5 C209.61,71.93 206.97,71.12 204.38,70.09 L204.38,70.09 C203.46,69.69 202.37,69.23 201.79,68.88 L201.79,82.5 C203,83.07 205.24,83.71 208.4,84.57 C211.56,85.37 215.58,85.78 220.35,85.78 C227.65,85.78 233.33,84.4 237.35,81.7 C241.37,78.94 243.38,74.92 243.38,69.64 C243.32,67.34 243.09,65.33 242.58,63.67 L242.59,63.65 Z" id="Path"></path>
            </g>
            <rect id="Rectangle" fill="#F27405" fill-rule="nonzero" x="196.645062" y="118.55" width="131.39" height="59.72" rx="9.97"></rect>
            <g id="Group" transform="translate(216.555062, 133.230000)" fill="#FFFFFF" fill-rule="nonzero">
                <path d="M6.76,27.17 C6.76,28.16 6.43,28.96 5.77,29.58 C5.11,30.2 4.31,30.51 3.38,30.51 C2.45,30.51 1.62,30.2 0.97,29.58 C0.32,28.96 -5.68434189e-14,28.16 -5.68434189e-14,27.17 C-5.68434189e-14,26.18 0.32,25.37 0.97,24.74 C1.62,24.11 2.42,23.79 3.38,23.79 C4.34,23.79 5.1,24.11 5.77,24.74 C6.44,25.37 6.76,26.18 6.76,27.17 Z" id="Path"></path>
                <path d="M20.79,0.38 C25.04,0.38 28.3,1.16 30.57,2.7 C32.84,4.25 33.97,6.67 33.97,9.97 C33.97,11.69 33.67,13.16 33.06,14.39 C32.45,15.61 31.57,16.62 30.42,17.39 C29.27,18.16 27.86,18.74 26.19,19.1 C24.53,19.47 22.63,19.65 20.49,19.65 L17.83,19.65 L17.83,29.96 L12.51,29.96 L12.51,1.1 C13.75,0.82 15.12,0.63 16.63,0.53 C18.14,0.43 19.52,0.38 20.79,0.38 L20.79,0.38 Z M21.17,4.99 C19.82,4.99 18.71,5.03 17.83,5.12 L17.83,15.09 L20.41,15.09 C22.97,15.09 24.95,14.73 26.33,14.01 C27.71,13.29 28.4,11.93 28.4,9.93 C28.4,8.97 28.22,8.17 27.85,7.52 C27.48,6.87 26.98,6.37 26.33,6 C25.68,5.63 24.91,5.37 24.03,5.22 C23.14,5.07 22.19,4.99 21.18,4.99 L21.17,4.99 Z" id="Shape"></path>
                <path d="M46.9,0.38 C51.13,0.38 54.36,1.16 56.6,2.7 C58.84,4.25 59.96,6.62 59.96,9.8 C59.96,13.77 58,16.46 54.09,17.87 C54.63,18.52 55.23,19.31 55.91,20.24 C56.59,21.17 57.28,22.18 57.98,23.26 C58.68,24.34 59.36,25.46 60.01,26.6 C60.66,27.74 61.24,28.86 61.74,29.96 L55.78,29.96 C55.24,28.95 54.67,27.93 54.05,26.9 C53.43,25.87 52.8,24.87 52.17,23.9 C51.54,22.93 50.91,22.01 50.29,21.15 C49.67,20.29 49.09,19.52 48.56,18.85 C48.17,18.88 47.83,18.89 47.55,18.89 L44.17,18.89 L44.17,29.96 L38.85,29.96 L38.85,1.1 C40.15,0.82 41.53,0.63 42.99,0.53 C44.45,0.43 45.76,0.38 46.92,0.38 L46.9,0.38 Z M47.28,4.99 C46.15,4.99 45.11,5.03 44.15,5.12 L44.15,14.58 L46.47,14.58 C47.76,14.58 48.91,14.51 49.89,14.37 C50.88,14.23 51.7,13.98 52.36,13.61 C53.02,13.24 53.52,12.75 53.86,12.13 C54.2,11.51 54.37,10.72 54.37,9.76 C54.37,8.86 54.2,8.1 53.86,7.48 C53.52,6.86 53.04,6.37 52.4,6 C51.76,5.63 51.01,5.37 50.14,5.22 C49.27,5.07 48.31,4.99 47.27,4.99 L47.28,4.99 Z" id="Shape"></path>
                <path d="M92.7,15.3 C92.7,17.81 92.33,20.02 91.58,21.93 C90.83,23.85 89.82,25.44 88.54,26.73 C87.26,28.02 85.76,28.98 84.04,29.62 C82.32,30.27 80.49,30.59 78.55,30.59 C76.61,30.59 74.77,30.27 73.04,29.62 C71.31,28.97 69.8,28.01 68.52,26.73 C67.24,25.45 66.22,23.85 65.46,21.93 C64.7,20.01 64.32,17.8 64.32,15.3 C64.32,12.8 64.7,10.59 65.46,8.69 C66.22,6.79 67.26,5.19 68.57,3.89 C69.88,2.6 71.39,1.62 73.11,0.97 C74.83,0.32 76.64,2.84217094e-14 78.56,2.84217094e-14 C80.48,2.84217094e-14 82.29,0.32 84.01,0.97 C85.73,1.62 87.23,2.59 88.51,3.89 C89.79,5.19 90.81,6.78 91.57,8.69 C92.33,10.6 92.71,12.8 92.71,15.3 L92.7,15.3 Z M69.84,15.3 C69.84,16.91 70.04,18.36 70.43,19.67 C70.82,20.98 71.39,22.09 72.14,23.01 C72.89,23.93 73.79,24.64 74.87,25.14 C75.94,25.65 77.15,25.9 78.5,25.9 C79.85,25.9 81.02,25.65 82.09,25.14 C83.16,24.63 84.07,23.92 84.82,23.01 C85.57,22.09 86.14,20.98 86.53,19.67 C86.92,18.36 87.12,16.9 87.12,15.3 C87.12,13.7 86.92,12.24 86.53,10.93 C86.14,9.62 85.57,8.51 84.82,7.59 C84.07,6.67 83.16,5.96 82.09,5.46 C81.02,4.95 79.82,4.7 78.5,4.7 C77.18,4.7 75.94,4.95 74.87,5.46 C73.8,5.97 72.89,6.69 72.14,7.62 C71.39,8.55 70.82,9.66 70.43,10.96 C70.03,12.26 69.84,13.71 69.84,15.31 L69.84,15.3 Z" id="Shape"></path>
            </g>
            <path d="M115.855062,110.99 L93.7450621,72.59 L135.115062,0 L178.995062,0.2 L115.855062,111 L115.855062,111 L115.855062,110.99 Z M86.1250621,48.17 L107.905062,9.57 L25.9250621,9.57 C6.11506213,9.57 -6.35493787,30.92 3.37506213,48.17 L86.1150621,48.17 L86.1250621,48.17 Z M69.0550621,67.28 L25.1750621,67.48 L88.3150621,178.28 L110.425062,139.88 L69.0550621,67.29 L69.0550621,67.29 L69.0550621,67.28 Z" id="Shape" fill="#F27405"></path>
        </g>
    </g>
</svg>