<svg viewBox="0 0 1000 470" xmlns="http://www.w3.org/2000/svg" role="img" aria-label="Confidential compute architecture with vCluster, vMetal, vNode, and a confidential container runtime">
  <defs>
    <style><![CDATA[
      @import url('https://fonts.googleapis.com/css2?family=Inter:wght@400;500;600&display=swap');
      text { font-family: 'Inter', -apple-system, BlinkMacSystemFont, sans-serif; }
    ]]></style>

    <marker id="confidential-compute-arrow" markerWidth="10" markerHeight="7" refX="9" refY="3.5" orient="auto">
      <polygon points="0 0, 10 3.5, 0 7" fill="#050B24"/>
    </marker>

    <marker id="confidential-compute-arrow-orange" markerWidth="10" markerHeight="7" refX="9" refY="3.5" orient="auto">
      <polygon points="0 0, 10 3.5, 0 7" fill="#FF6600"/>
    </marker>
  </defs>

  <rect x="30" y="30" width="940" height="410" rx="8" fill="#F8F9FB" stroke="#E6E7E9" stroke-width="1.5"/>
  <text x="50" y="58" font-size="12" font-weight="500" fill="#828592">Confidential compute platform layers</text>

  <rect x="65" y="88" width="185" height="70" rx="8" fill="#FFF7F2" stroke="#FF6600" stroke-width="2"/>
  <text x="157.5" y="116" font-size="14" font-weight="600" fill="#050B24" text-anchor="middle">vCluster</text>
  <text x="157.5" y="138" font-size="11" fill="#828592" text-anchor="middle">tenant Kubernetes API</text>

  <rect x="315" y="88" width="185" height="70" rx="8" fill="#FFF7F2" stroke="#FF6600" stroke-width="2"/>
  <text x="407.5" y="116" font-size="14" font-weight="600" fill="#050B24" text-anchor="middle">Auto Nodes</text>
  <text x="407.5" y="138" font-size="11" fill="#828592" text-anchor="middle">selects node type</text>

  <rect x="565" y="88" width="185" height="70" rx="8" fill="white" stroke="#B4B6BD" stroke-width="1.5"/>
  <text x="657.5" y="116" font-size="14" font-weight="500" fill="#050B24" text-anchor="middle">Private Node</text>
  <text x="657.5" y="138" font-size="11" fill="#828592" text-anchor="middle">dedicated tenant compute</text>

  <rect x="315" y="205" width="185" height="70" rx="8" fill="white" stroke="#B4B6BD" stroke-width="1.5"/>
  <text x="407.5" y="233" font-size="14" font-weight="500" fill="#050B24" text-anchor="middle">vMetal</text>
  <text x="407.5" y="255" font-size="11" fill="#828592" text-anchor="middle">provisions bare metal</text>

  <rect x="565" y="205" width="185" height="70" rx="8" fill="white" stroke="#B4B6BD" stroke-width="1.5"/>
  <text x="657.5" y="233" font-size="14" font-weight="500" fill="#050B24" text-anchor="middle">vNode</text>
  <text x="657.5" y="255" font-size="11" fill="#828592" text-anchor="middle">tenant workload isolation</text>

  <rect x="790" y="205" width="145" height="70" rx="8" fill="white" stroke="#B4B6BD" stroke-width="1.5"/>
  <text x="862.5" y="230" font-size="14" font-weight="500" fill="#050B24" text-anchor="middle">Kata / CoCo</text>
  <text x="862.5" y="252" font-size="11" fill="#828592" text-anchor="middle">RuntimeClass</text>

  <rect x="565" y="325" width="185" height="70" rx="8" fill="#F4F6F8" stroke="#B4B6BD" stroke-width="1.5"/>
  <text x="657.5" y="353" font-size="14" font-weight="500" fill="#050B24" text-anchor="middle">TDX or SEV-SNP</text>
  <text x="657.5" y="375" font-size="11" fill="#828592" text-anchor="middle">hardware-backed TEE</text>

  <rect x="790" y="325" width="145" height="70" rx="8" fill="#F4F6F8" stroke="#B4B6BD" stroke-width="1.5"/>
  <text x="862.5" y="353" font-size="14" font-weight="500" fill="#050B24" text-anchor="middle">Attestation</text>
  <text x="862.5" y="375" font-size="11" fill="#828592" text-anchor="middle">verification service</text>

  <line x1="250" y1="123" x2="313" y2="123" stroke="#050B24" stroke-width="1.5" marker-end="url(#confidential-compute-arrow)"/>
  <text x="281.5" y="113" font-size="11" fill="#828592" text-anchor="middle">requests</text>

  <line x1="500" y1="123" x2="563" y2="123" stroke="#050B24" stroke-width="1.5" marker-end="url(#confidential-compute-arrow)"/>
  <text x="531.5" y="113" font-size="11" fill="#828592" text-anchor="middle">provisions</text>

  <path d="M 407.5 205 C 407.5 166 565 166 616 158" stroke="#FF6600" stroke-width="1.5" fill="none" marker-end="url(#confidential-compute-arrow-orange)"/>
  <text x="493" y="185" font-size="11" fill="#FF6600" text-anchor="middle">prepares and joins</text>

  <line x1="657.5" y1="158" x2="657.5" y2="203" stroke="#050B24" stroke-width="1.5" marker-end="url(#confidential-compute-arrow)"/>
  <text x="698" y="183" font-size="11" fill="#828592">runs workloads</text>

  <line x1="750" y1="240" x2="788" y2="240" stroke="#050B24" stroke-width="1.5" marker-end="url(#confidential-compute-arrow)"/>
  <text x="769" y="230" font-size="11" fill="#828592" text-anchor="middle">uses</text>

  <path d="M 862.5 275 C 862.5 308 712 302 679 325" stroke="#050B24" stroke-width="1.5" fill="none" marker-end="url(#confidential-compute-arrow)"/>
  <text x="760" y="303" font-size="11" fill="#828592" text-anchor="middle">executes on</text>

  <line x1="862.5" y1="325" x2="862.5" y2="277" stroke="#050B24" stroke-width="1.5" marker-end="url(#confidential-compute-arrow)"/>
  <text x="903" y="304" font-size="11" fill="#828592">verifies</text>
</svg>
