<svg viewBox="0 0 1000 530" xmlns="http://www.w3.org/2000/svg" role="img" aria-label="Confidential compute architecture with vCluster, private nodes, optional vMetal and vNode, and separate Confidential VM and pod-level runtime paths">
  <defs>
    <style><![CDATA[
      text { font-family: 'Inter', -apple-system, BlinkMacSystemFont, sans-serif; }
    ]]></style>

    <marker id="confidential-compute-arrow" markerWidth="10" markerHeight="7" refX="9" refY="3.5" orient="auto">
      <polygon points="0 0, 10 3.5, 0 7" fill="#050B24"/>
    </marker>

    <marker id="confidential-compute-arrow-orange" markerWidth="10" markerHeight="7" refX="9" refY="3.5" orient="auto">
      <polygon points="0 0, 10 3.5, 0 7" fill="#FF6600"/>
    </marker>

  </defs>

  <rect x="30" y="30" width="940" height="480" rx="8" fill="#F8F9FB" stroke="#E6E7E9" stroke-width="1.5"/>
  <text x="50" y="58" font-size="12" font-weight="500" fill="#828592">Confidential compute with private nodes</text>

  <rect x="65" y="88" width="185" height="70" rx="8" fill="#FFF7F2" stroke="#FF6600" stroke-width="2"/>
  <text x="157.5" y="116" font-size="14" font-weight="600" fill="#050B24" text-anchor="middle">vCluster</text>
  <text x="157.5" y="138" font-size="11" fill="#828592" text-anchor="middle">tenant Kubernetes API</text>

  <rect x="315" y="88" width="185" height="70" rx="8" fill="#FFF7F2" stroke="#FF6600" stroke-width="2"/>
  <text x="407.5" y="116" font-size="14" font-weight="600" fill="#050B24" text-anchor="middle">Auto nodes</text>
  <text x="407.5" y="138" font-size="11" fill="#828592" text-anchor="middle">selects node type</text>

  <rect x="565" y="88" width="185" height="70" rx="8" fill="white" stroke="#B4B6BD" stroke-width="1.5"/>
  <text x="657.5" y="116" font-size="14" font-weight="500" fill="#050B24" text-anchor="middle">Private node</text>
  <text x="657.5" y="138" font-size="11" fill="#828592" text-anchor="middle">tenant worker capacity</text>

  <rect x="315" y="197" width="185" height="62" rx="8" fill="white" stroke="#B4B6BD" stroke-width="1.5" stroke-dasharray="5 4"/>
  <text x="407.5" y="222" font-size="14" font-weight="500" fill="#050B24" text-anchor="middle">vMetal</text>
  <text x="407.5" y="243" font-size="11" fill="#828592" text-anchor="middle">optional bare metal prep</text>

  <rect x="790" y="197" width="145" height="62" rx="8" fill="white" stroke="#B4B6BD" stroke-width="1.5" stroke-dasharray="5 4"/>
  <text x="862.5" y="222" font-size="14" font-weight="500" fill="#050B24" text-anchor="middle">vNode</text>
  <text x="862.5" y="243" font-size="11" fill="#828592" text-anchor="middle">optional isolation</text>

  <rect x="65" y="310" width="405" height="145" rx="8" fill="white" stroke="#B4B6BD" stroke-width="1.5"/>
  <text x="87" y="338" font-size="14" font-weight="600" fill="#050B24">Confidential VM path</text>
  <text x="87" y="360" font-size="11" fill="#828592">TEE covers the whole private node VM</text>
  <rect x="87" y="383" width="150" height="45" rx="8" fill="#F4F6F8" stroke="#B4B6BD" stroke-width="1.2"/>
  <text x="162" y="411" font-size="12" font-weight="500" fill="#050B24" text-anchor="middle">Standard containers</text>
  <rect x="255" y="383" width="175" height="45" rx="8" fill="#F4F6F8" stroke="#B4B6BD" stroke-width="1.2"/>
  <text x="342.5" y="402" font-size="12" font-weight="500" fill="#050B24" text-anchor="middle">Bootstrap attestation</text>
  <text x="342.5" y="418" font-size="10" fill="#828592" text-anchor="middle">before node joins</text>
  <text x="87" y="443" font-size="11" fill="#828592">No RuntimeClass required</text>

  <rect x="530" y="310" width="405" height="145" rx="8" fill="white" stroke="#B4B6BD" stroke-width="1.5"/>
  <text x="552" y="338" font-size="14" font-weight="600" fill="#050B24">Pod-level runtime path</text>
  <text x="552" y="360" font-size="11" fill="#828592">Each pod runs in a TEE-backed pod VM</text>
  <rect x="552" y="383" width="150" height="45" rx="8" fill="#F4F6F8" stroke="#B4B6BD" stroke-width="1.2"/>
  <text x="627" y="402" font-size="12" font-weight="500" fill="#050B24" text-anchor="middle">Kata / CoCo</text>
  <text x="627" y="418" font-size="10" fill="#828592" text-anchor="middle">RuntimeClass</text>
  <rect x="720" y="383" width="175" height="45" rx="8" fill="#F4F6F8" stroke="#B4B6BD" stroke-width="1.2"/>
  <text x="807.5" y="402" font-size="12" font-weight="500" fill="#050B24" text-anchor="middle">Pod attestation</text>
  <text x="807.5" y="418" font-size="10" fill="#828592" text-anchor="middle">quote verification</text>
  <text x="552" y="443" font-size="11" fill="#828592">RuntimeClass and attestation verification required</text>

  <rect x="347.5" y="472" width="305" height="34" rx="8" fill="#FFF7F2" stroke="#FF6600" stroke-width="1.5"/>
  <text x="500" y="494" font-size="12" font-weight="600" fill="#050B24" text-anchor="middle">Hardware-backed TEE</text>

  <line x1="250" y1="123" x2="313" y2="123" stroke="#050B24" stroke-width="1.5" marker-end="url(#confidential-compute-arrow)"/>
  <text x="281.5" y="102" font-size="11" fill="#828592" text-anchor="middle">
    <tspan x="281.5" dy="0">requests</tspan>
    <tspan x="281.5" dy="13">capacity</tspan>
  </text>

  <line x1="500" y1="123" x2="563" y2="123" stroke="#050B24" stroke-width="1.5" marker-end="url(#confidential-compute-arrow)"/>
  <text x="531.5" y="113" font-size="11" fill="#828592" text-anchor="middle">adds node</text>

  <path d="M 407.5 197 C 407.5 172 565 174 616 158" stroke="#FF6600" stroke-width="1.5" fill="none" marker-end="url(#confidential-compute-arrow-orange)"/>
  <text x="538" y="184" font-size="11" fill="#FF6600" text-anchor="middle">prepares and joins node</text>

  <line x1="657.5" y1="158" x2="657.5" y2="203" stroke="#050B24" stroke-width="1.5" marker-end="url(#confidential-compute-arrow)"/>

  <rect x="575" y="205" width="165" height="46" rx="8" fill="#F4F6F8" stroke="#B4B6BD" stroke-width="1.5"/>
  <text x="657.5" y="225" font-size="11" font-weight="500" fill="#050B24" text-anchor="middle">
    <tspan x="657.5" dy="0">Choose</tspan>
    <tspan x="657.5" dy="14">runtime path</tspan>
  </text>

  <line x1="740" y1="228" x2="790" y2="228" stroke="#828592" stroke-width="1.5" stroke-dasharray="5 4"/>

  <path d="M 657.5 251 C 570 288 430 302 267.5 308" stroke="#050B24" stroke-width="1.5" fill="none" marker-end="url(#confidential-compute-arrow)"/>
  <path d="M 657.5 251 C 700 288 722 302 732.5 308" stroke="#050B24" stroke-width="1.5" fill="none" marker-end="url(#confidential-compute-arrow)"/>

  <line x1="267.5" y1="455" x2="408" y2="472" stroke="#050B24" stroke-width="1.5" marker-end="url(#confidential-compute-arrow)"/>
  <line x1="732.5" y1="455" x2="592" y2="472" stroke="#050B24" stroke-width="1.5" marker-end="url(#confidential-compute-arrow)"/>
</svg>
