<svg width="420" height="187" viewBox="0 0 420 187" fill="none" xmlns="http://www.w3.org/2000/svg">
<g clip-path="url(#clip0_31154_46718)">
<mask id="path-1-inside-1_31154_46718" fill="white">
<path d="M161 134.991C161 129.387 165.543 124.844 171.148 124.844H409.852C415.457 124.844 420 129.387 420 134.991V176.696C420 182.3 415.457 186.844 409.852 186.844H171.148C165.543 186.844 161 182.3 161 176.696V134.991Z"/>
</mask>
<path d="M161 134.991C161 129.387 165.543 124.844 171.148 124.844H409.852C415.457 124.844 420 129.387 420 134.991V176.696C420 182.3 415.457 186.844 409.852 186.844H171.148C165.543 186.844 161 182.3 161 176.696V134.991Z" stroke="#9B9DA7" stroke-width="2.84264" stroke-dasharray="2.84 2.84" mask="url(#path-1-inside-1_31154_46718)"/>
<rect x="0.71066" y="125.554" width="140.579" height="60.5787" rx="9.43699" stroke="#9B9DA7" stroke-width="1.42132" stroke-dasharray="2.84 2.84"/>
<rect x="0.71066" y="15.7107" width="418.579" height="98.5787" rx="12.0812" stroke="#326CE3" stroke-width="1.42132"/>
<rect x="16.7107" y="36.7107" width="387.579" height="58.5787" rx="9.43699" stroke="#FF6600" stroke-width="1.42132" stroke-dasharray="2.84 2.84"/>
<rect x="17.6872" y="143.098" width="107.384" height="31.8838" rx="4.97462" stroke="#808080" stroke-width="1.42132"/>
<path d="M30.5082 164.54L27.6817 154.203H28.9537L31.1139 162.622H31.2149L33.4155 154.203H34.8287L37.0293 162.622H37.1303L39.2905 154.203H40.5625L37.736 164.54H36.4439L34.1625 156.303H34.0817L31.8003 164.54H30.5082ZM44.3883 164.701C43.6884 164.701 43.0743 164.535 42.546 164.202C42.0211 163.869 41.6106 163.402 41.3145 162.804C41.0218 162.205 40.8754 161.505 40.8754 160.704C40.8754 159.896 41.0218 159.191 41.3145 158.589C41.6106 157.987 42.0211 157.519 42.546 157.186C43.0743 156.853 43.6884 156.686 44.3883 156.686C45.0882 156.686 45.7006 156.853 46.2255 157.186C46.7538 157.519 47.1643 157.987 47.4571 158.589C47.7532 159.191 47.9012 159.896 47.9012 160.704C47.9012 161.505 47.7532 162.205 47.4571 162.804C47.1643 163.402 46.7538 163.869 46.2255 164.202C45.7006 164.535 45.0882 164.701 44.3883 164.701ZM44.3883 163.631C44.92 163.631 45.3574 163.495 45.7006 163.222C46.0438 162.95 46.2979 162.592 46.4627 162.147C46.6276 161.703 46.7101 161.222 46.7101 160.704C46.7101 160.186 46.6276 159.703 46.4627 159.255C46.2979 158.808 46.0438 158.446 45.7006 158.17C45.3574 157.894 44.92 157.756 44.3883 157.756C43.8567 157.756 43.4192 157.894 43.076 158.17C42.7328 158.446 42.4787 158.808 42.3139 159.255C42.149 159.703 42.0665 160.186 42.0665 160.704C42.0665 161.222 42.149 161.703 42.3139 162.147C42.4787 162.592 42.7328 162.95 43.076 163.222C43.4192 163.495 43.8567 163.631 44.3883 163.631ZM49.7195 164.54V156.787H50.8703V157.958H50.9511C51.0924 157.575 51.3481 157.263 51.7182 157.024C52.0884 156.785 52.5056 156.666 52.97 156.666C53.0575 156.666 53.1668 156.668 53.298 156.671C53.4293 156.674 53.5285 156.679 53.5958 156.686V157.898C53.5555 157.887 53.4629 157.872 53.3182 157.852C53.1769 157.829 53.0272 157.817 52.869 157.817C52.4922 157.817 52.1557 157.896 51.8596 158.054C51.5668 158.209 51.3346 158.424 51.163 158.7C50.9948 158.973 50.9107 159.284 50.9107 159.634V164.54H49.7195ZM56.1182 161.713L56.098 160.239H56.3403L59.7321 156.787H61.2059L57.592 160.441H57.4911L56.1182 161.713ZM55.0078 164.54V154.203H56.199V164.54H55.0078ZM59.934 164.54L56.9056 160.704L57.7535 159.876L61.4482 164.54H59.934ZM65.6702 164.701C64.9232 164.701 64.2789 164.536 63.7371 164.207C63.1987 163.874 62.7832 163.409 62.4904 162.814C62.2011 162.215 62.0564 161.518 62.0564 160.724C62.0564 159.93 62.2011 159.23 62.4904 158.624C62.7832 158.015 63.1903 157.541 63.7119 157.201C64.2368 156.858 64.8492 156.686 65.5491 156.686C65.9529 156.686 66.3516 156.753 66.7453 156.888C67.139 157.023 67.4974 157.241 67.8204 157.544C68.1434 157.844 68.4008 158.241 68.5926 158.735C68.7844 159.23 68.8803 159.839 68.8803 160.563V161.067H62.9043V160.038H67.669C67.669 159.6 67.5815 159.21 67.4065 158.867C67.2349 158.523 66.9893 158.253 66.6696 158.054C66.3533 157.855 65.9798 157.756 65.5491 157.756C65.0747 157.756 64.6641 157.874 64.3176 158.11C63.9743 158.342 63.7102 158.645 63.5251 159.018C63.3401 159.392 63.2475 159.792 63.2475 160.219V160.906C63.2475 161.491 63.3485 161.988 63.5504 162.395C63.7556 162.798 64.04 163.106 64.4034 163.318C64.7668 163.527 65.1891 163.631 65.6702 163.631C65.9832 163.631 66.2658 163.588 66.5182 163.5C66.7739 163.409 66.9943 163.275 67.1794 163.096C67.3644 162.915 67.5075 162.689 67.6084 162.42L68.7592 162.743C68.638 163.133 68.4345 163.476 68.1485 163.773C67.8624 164.065 67.5091 164.294 67.0885 164.459C66.6679 164.621 66.1952 164.701 65.6702 164.701ZM70.6923 164.54V156.787H71.8431V157.958H71.9238C72.0652 157.575 72.3209 157.263 72.691 157.024C73.0612 156.785 73.4784 156.666 73.9428 156.666C74.0302 156.666 74.1396 156.668 74.2708 156.671C74.4021 156.674 74.5013 156.679 74.5686 156.686V157.898C74.5282 157.887 74.4357 157.872 74.291 157.852C74.1497 157.829 74 157.817 73.8418 157.817C73.465 157.817 73.1285 157.896 72.8324 158.054C72.5396 158.209 72.3074 158.424 72.1358 158.7C71.9676 158.973 71.8835 159.284 71.8835 159.634V164.54H70.6923ZM88.3364 154.203V164.54H87.125L81.4923 156.424H81.3913V164.54H80.1396V154.203H81.3509L87.0039 162.339H87.1049V154.203H88.3364ZM93.8291 164.701C93.1292 164.701 92.5151 164.535 91.9869 164.202C91.4619 163.869 91.0514 163.402 90.7553 162.804C90.4626 162.205 90.3162 161.505 90.3162 160.704C90.3162 159.896 90.4626 159.191 90.7553 158.589C91.0514 157.987 91.4619 157.519 91.9869 157.186C92.5151 156.853 93.1292 156.686 93.8291 156.686C94.529 156.686 95.1414 156.853 95.6663 157.186C96.1946 157.519 96.6051 157.987 96.8979 158.589C97.194 159.191 97.342 159.896 97.342 160.704C97.342 161.505 97.194 162.205 96.8979 162.804C96.6051 163.402 96.1946 163.869 95.6663 164.202C95.1414 164.535 94.529 164.701 93.8291 164.701ZM93.8291 163.631C94.3608 163.631 94.7982 163.495 95.1414 163.222C95.4846 162.95 95.7387 162.592 95.9036 162.147C96.0684 161.703 96.1509 161.222 96.1509 160.704C96.1509 160.186 96.0684 159.703 95.9036 159.255C95.7387 158.808 95.4846 158.446 95.1414 158.17C94.7982 157.894 94.3608 157.756 93.8291 157.756C93.2975 157.756 92.86 157.894 92.5168 158.17C92.1736 158.446 91.9196 158.808 91.7547 159.255C91.5898 159.703 91.5074 160.186 91.5074 160.704C91.5074 161.222 91.5898 161.703 91.7547 162.147C91.9196 162.592 92.1736 162.95 92.5168 163.222C92.86 163.495 93.2975 163.631 93.8291 163.631ZM102.088 164.701C101.442 164.701 100.871 164.538 100.377 164.212C99.8821 163.882 99.4951 163.418 99.2158 162.819C98.9366 162.216 98.7969 161.505 98.7969 160.684C98.7969 159.869 98.9366 159.163 99.2158 158.564C99.4951 157.965 99.8838 157.502 100.382 157.176C100.88 156.849 101.455 156.686 102.108 156.686C102.613 156.686 103.011 156.77 103.304 156.939C103.6 157.103 103.826 157.292 103.98 157.504C104.139 157.712 104.261 157.884 104.349 158.019H104.45V154.203H105.641V164.54H104.49V163.349H104.349C104.261 163.49 104.137 163.668 103.975 163.884C103.814 164.096 103.583 164.286 103.284 164.454C102.984 164.619 102.586 164.701 102.088 164.701ZM102.249 163.631C102.727 163.631 103.131 163.507 103.461 163.258C103.79 163.005 104.041 162.657 104.213 162.213C104.384 161.765 104.47 161.249 104.47 160.663C104.47 160.085 104.386 159.578 104.218 159.144C104.049 158.707 103.8 158.367 103.471 158.125C103.141 157.879 102.734 157.756 102.249 157.756C101.745 157.756 101.324 157.886 100.987 158.145C100.654 158.401 100.404 158.749 100.235 159.19C100.071 159.627 99.9881 160.118 99.9881 160.663C99.9881 161.215 100.072 161.717 100.24 162.168C100.412 162.615 100.664 162.972 100.998 163.238C101.334 163.5 101.751 163.631 102.249 163.631ZM111.239 164.701C110.492 164.701 109.847 164.536 109.305 164.207C108.767 163.874 108.351 163.409 108.059 162.814C107.769 162.215 107.625 161.518 107.625 160.724C107.625 159.93 107.769 159.23 108.059 158.624C108.351 158.015 108.759 157.541 109.28 157.201C109.805 156.858 110.417 156.686 111.117 156.686C111.521 156.686 111.92 156.753 112.314 156.888C112.707 157.023 113.066 157.241 113.389 157.544C113.712 157.844 113.969 158.241 114.161 158.735C114.353 159.23 114.449 159.839 114.449 160.563V161.067H108.473V160.038H113.237C113.237 159.6 113.15 159.21 112.975 158.867C112.803 158.523 112.558 158.253 112.238 158.054C111.922 157.855 111.548 157.756 111.117 157.756C110.643 157.756 110.232 157.874 109.886 158.11C109.543 158.342 109.278 158.645 109.093 159.018C108.908 159.392 108.816 159.792 108.816 160.219V160.906C108.816 161.491 108.917 161.988 109.119 162.395C109.324 162.798 109.608 163.106 109.972 163.318C110.335 163.527 110.757 163.631 111.239 163.631C111.551 163.631 111.834 163.588 112.086 163.5C112.342 163.409 112.563 163.275 112.748 163.096C112.933 162.915 113.076 162.689 113.177 162.42L114.327 162.743C114.206 163.133 114.003 163.476 113.717 163.773C113.431 164.065 113.077 164.294 112.657 164.459C112.236 164.621 111.763 164.701 111.239 164.701Z" fill="#808080"/>
<rect x="109.371" width="200.698" height="31.2132" rx="5.68528" fill="#326CE3"/>
<path d="M161.967 14.0001H160.715C160.641 13.6401 160.512 13.3238 160.326 13.0512C160.145 12.7786 159.923 12.5498 159.66 12.3648C159.401 12.1763 159.113 12.035 158.797 11.9408C158.481 11.8466 158.151 11.7995 157.808 11.7995C157.182 11.7995 156.615 11.9576 156.107 12.2739C155.602 12.5902 155.2 13.0562 154.901 13.672C154.605 14.2878 154.456 15.0432 154.456 15.9383C154.456 16.8333 154.605 17.5887 154.901 18.2045C155.2 18.8203 155.602 19.2863 156.107 19.6026C156.615 19.9189 157.182 20.077 157.808 20.077C158.151 20.077 158.481 20.0299 158.797 19.9357C159.113 19.8415 159.401 19.7019 159.66 19.5168C159.923 19.3284 160.145 19.0979 160.326 18.8253C160.512 18.5494 160.641 18.2331 160.715 17.8764H161.967C161.873 18.4047 161.701 18.8775 161.452 19.2947C161.203 19.712 160.893 20.0669 160.523 20.3597C160.153 20.6491 159.738 20.8695 159.277 21.0209C158.819 21.1723 158.329 21.248 157.808 21.248C156.926 21.248 156.142 21.0327 155.456 20.602C154.769 20.1713 154.229 19.5589 153.836 18.7647C153.442 17.9706 153.245 17.0285 153.245 15.9383C153.245 14.848 153.442 13.9059 153.836 13.1118C154.229 12.3177 154.769 11.7053 155.456 11.2746C156.142 10.8438 156.926 10.6285 157.808 10.6285C158.329 10.6285 158.819 10.7042 159.277 10.8556C159.738 11.007 160.153 11.2291 160.523 11.5219C160.893 11.8112 161.203 12.1646 161.452 12.5818C161.701 12.9957 161.873 13.4684 161.967 14.0001ZM166.978 21.2682C166.278 21.2682 165.664 21.1016 165.135 20.7685C164.61 20.4354 164.2 19.9694 163.904 19.3704C163.611 18.7715 163.465 18.0716 163.465 17.2707C163.465 16.4632 163.611 15.7582 163.904 15.1559C164.2 14.5536 164.61 14.0859 165.135 13.7528C165.664 13.4197 166.278 13.2531 166.978 13.2531C167.677 13.2531 168.29 13.4197 168.815 13.7528C169.343 14.0859 169.754 14.5536 170.046 15.1559C170.342 15.7582 170.49 16.4632 170.49 17.2707C170.49 18.0716 170.342 18.7715 170.046 19.3704C169.754 19.9694 169.343 20.4354 168.815 20.7685C168.29 21.1016 167.677 21.2682 166.978 21.2682ZM166.978 20.1982C167.509 20.1982 167.947 20.0619 168.29 19.7893C168.633 19.5168 168.887 19.1584 169.052 18.7143C169.217 18.2701 169.299 17.7889 169.299 17.2707C169.299 16.7526 169.217 16.2697 169.052 15.8222C168.887 15.3746 168.633 15.0129 168.29 14.737C167.947 14.4611 167.509 14.3231 166.978 14.3231C166.446 14.3231 166.008 14.4611 165.665 14.737C165.322 15.0129 165.068 15.3746 164.903 15.8222C164.738 16.2697 164.656 16.7526 164.656 17.2707C164.656 17.7889 164.738 18.2701 164.903 18.7143C165.068 19.1584 165.322 19.5168 165.665 19.7893C166.008 20.0619 166.446 20.1982 166.978 20.1982ZM173.5 16.443V21.1067H172.309V13.354H173.46V14.5654H173.56C173.742 14.1717 174.018 13.8554 174.388 13.6165C174.758 13.3742 175.236 13.2531 175.822 13.2531C176.347 13.2531 176.806 13.3608 177.2 13.5761C177.593 13.7881 177.899 14.1111 178.118 14.5452C178.337 14.9759 178.446 15.521 178.446 16.1805V21.1067H177.255V16.2613C177.255 15.6522 177.097 15.1778 176.781 14.8379C176.464 14.4947 176.03 14.3231 175.478 14.3231C175.098 14.3231 174.758 14.4056 174.459 14.5704C174.163 14.7353 173.929 14.9759 173.757 15.2922C173.586 15.6085 173.5 15.9921 173.5 16.443ZM183.995 13.354V14.3635H179.977V13.354H183.995ZM181.148 11.4966H182.339V18.8859C182.339 19.2224 182.388 19.4747 182.485 19.643C182.586 19.8079 182.714 19.9189 182.869 19.9761C183.027 20.0299 183.194 20.0569 183.369 20.0569C183.5 20.0569 183.608 20.0501 183.692 20.0367C183.776 20.0198 183.843 20.0064 183.894 19.9963L184.136 21.0663C184.055 21.0966 183.942 21.1269 183.798 21.1572C183.653 21.1908 183.47 21.2076 183.248 21.2076C182.911 21.2076 182.581 21.1353 182.258 20.9906C181.939 20.8459 181.673 20.6255 181.461 20.3294C181.252 20.0333 181.148 19.6598 181.148 19.2089V11.4966ZM185.786 21.1067V13.354H186.937V14.525H187.018C187.159 14.1414 187.415 13.8302 187.785 13.5913C188.155 13.3524 188.572 13.2329 189.037 13.2329C189.124 13.2329 189.234 13.2346 189.365 13.238C189.496 13.2413 189.595 13.2464 189.663 13.2531V14.4644C189.622 14.4543 189.53 14.4392 189.385 14.419C189.244 14.3955 189.094 14.3837 188.936 14.3837C188.559 14.3837 188.222 14.4628 187.926 14.6209C187.634 14.7757 187.401 14.991 187.23 15.267C187.062 15.5395 186.977 15.8508 186.977 16.2007V21.1067H185.786ZM193.988 21.2682C193.288 21.2682 192.674 21.1016 192.146 20.7685C191.621 20.4354 191.21 19.9694 190.914 19.3704C190.622 18.7715 190.475 18.0716 190.475 17.2707C190.475 16.4632 190.622 15.7582 190.914 15.1559C191.21 14.5536 191.621 14.0859 192.146 13.7528C192.674 13.4197 193.288 13.2531 193.988 13.2531C194.688 13.2531 195.3 13.4197 195.825 13.7528C196.354 14.0859 196.764 14.5536 197.057 15.1559C197.353 15.7582 197.501 16.4632 197.501 17.2707C197.501 18.0716 197.353 18.7715 197.057 19.3704C196.764 19.9694 196.354 20.4354 195.825 20.7685C195.3 21.1016 194.688 21.2682 193.988 21.2682ZM193.988 20.1982C194.52 20.1982 194.957 20.0619 195.3 19.7893C195.644 19.5168 195.898 19.1584 196.063 18.7143C196.227 18.2701 196.31 17.7889 196.31 17.2707C196.31 16.7526 196.227 16.2697 196.063 15.8222C195.898 15.3746 195.644 15.0129 195.3 14.737C194.957 14.4611 194.52 14.3231 193.988 14.3231C193.457 14.3231 193.019 14.4611 192.676 14.737C192.333 15.0129 192.079 15.3746 191.914 15.8222C191.749 16.2697 191.666 16.7526 191.666 17.2707C191.666 17.7889 191.749 18.2701 191.914 18.7143C192.079 19.1584 192.333 19.5168 192.676 19.7893C193.019 20.0619 193.457 20.1982 193.988 20.1982ZM200.511 10.7698V21.1067H199.319V10.7698H200.511ZM206.851 21.1067V10.7698H210.344C211.155 10.7698 211.818 10.9162 212.333 11.2089C212.851 11.4983 213.234 11.8903 213.483 12.385C213.732 12.8796 213.857 13.4314 213.857 14.0405C213.857 14.6495 213.732 15.203 213.483 15.701C213.238 16.199 212.857 16.5961 212.343 16.8922C211.828 17.1849 211.168 17.3313 210.364 17.3313H207.861V16.2209H210.324C210.879 16.2209 211.325 16.125 211.661 15.9332C211.998 15.7414 212.242 15.4823 212.393 15.1559C212.548 14.8262 212.625 14.4543 212.625 14.0405C212.625 13.6266 212.548 13.2565 212.393 12.9301C212.242 12.6037 211.996 12.3479 211.656 12.1629C211.316 11.9744 210.865 11.8802 210.304 11.8802H208.103V21.1067H206.851ZM216.903 10.7698V21.1067H215.712V10.7698H216.903ZM221.366 21.2884C220.875 21.2884 220.429 21.1959 220.028 21.0108C219.628 20.8224 219.31 20.5515 219.075 20.1982C218.839 19.8415 218.721 19.4108 218.721 18.9061C218.721 18.4619 218.809 18.1019 218.984 17.8259C219.159 17.5467 219.392 17.3279 219.685 17.1698C219.978 17.0116 220.301 16.8939 220.654 16.8165C221.011 16.7357 221.369 16.6718 221.729 16.6247C222.2 16.5641 222.582 16.5187 222.875 16.4884C223.171 16.4548 223.387 16.3992 223.521 16.3219C223.659 16.2445 223.728 16.1099 223.728 15.9181V15.8777C223.728 15.3797 223.592 14.9927 223.319 14.7168C223.05 14.4409 222.641 14.3029 222.093 14.3029C221.524 14.3029 221.078 14.4274 220.755 14.6764C220.432 14.9254 220.205 15.1913 220.074 15.4739L218.943 15.0701C219.145 14.599 219.414 14.2323 219.751 13.9698C220.091 13.704 220.461 13.5189 220.861 13.4146C221.265 13.3069 221.662 13.2531 222.052 13.2531C222.301 13.2531 222.587 13.2834 222.91 13.3439C223.237 13.4011 223.551 13.5206 223.854 13.7023C224.161 13.884 224.415 14.1582 224.616 14.525C224.818 14.8918 224.919 15.3831 224.919 15.9988V21.1067H223.728V20.0569H223.668C223.587 20.2251 223.452 20.4051 223.264 20.5969C223.075 20.7887 222.825 20.9519 222.512 21.0865C222.199 21.2211 221.817 21.2884 221.366 21.2884ZM221.548 20.2184C222.019 20.2184 222.416 20.1258 222.739 19.9408C223.065 19.7557 223.311 19.5168 223.476 19.224C223.644 18.9313 223.728 18.6234 223.728 18.3004V17.2102C223.678 17.2707 223.567 17.3263 223.395 17.3767C223.227 17.4238 223.032 17.4659 222.81 17.5029C222.591 17.5366 222.377 17.5669 222.169 17.5938C221.963 17.6173 221.797 17.6375 221.669 17.6543C221.359 17.6947 221.07 17.7603 220.801 17.8512C220.535 17.9387 220.32 18.0716 220.155 18.2499C219.993 18.4249 219.912 18.6638 219.912 18.9666C219.912 19.3805 220.065 19.6934 220.372 19.9054C220.681 20.1141 221.073 20.2184 221.548 20.2184ZM228.285 16.443V21.1067H227.093V13.354H228.244V14.5654H228.345C228.527 14.1717 228.803 13.8554 229.173 13.6165C229.543 13.3742 230.021 13.2531 230.606 13.2531C231.131 13.2531 231.591 13.3608 231.984 13.5761C232.378 13.7881 232.684 14.1111 232.903 14.5452C233.122 14.9759 233.231 15.521 233.231 16.1805V21.1067H232.04V16.2613C232.04 15.6522 231.882 15.1778 231.565 14.8379C231.249 14.4947 230.815 14.3231 230.263 14.3231C229.883 14.3231 229.543 14.4056 229.244 14.5704C228.947 14.7353 228.714 14.9759 228.542 15.2922C228.37 15.6085 228.285 15.9921 228.285 16.443ZM238.658 21.2682C237.911 21.2682 237.267 21.1033 236.725 20.7736C236.187 20.4404 235.771 19.9761 235.478 19.3805C235.189 18.7816 235.044 18.085 235.044 17.2909C235.044 16.4968 235.189 15.7969 235.478 15.1913C235.771 14.5822 236.178 14.1078 236.7 13.7679C237.225 13.4247 237.837 13.2531 238.537 13.2531C238.941 13.2531 239.339 13.3204 239.733 13.455C240.127 13.5896 240.485 13.8083 240.808 14.1111C241.131 14.4106 241.389 14.8077 241.58 15.3023C241.772 15.7969 241.868 16.406 241.868 17.1294V17.6341H235.892V16.6045H240.657C240.657 16.1671 240.569 15.7767 240.394 15.4335C240.223 15.0903 239.977 14.8194 239.657 14.6209C239.341 14.4224 238.968 14.3231 238.537 14.3231C238.062 14.3231 237.652 14.4409 237.305 14.6764C236.962 14.9086 236.698 15.2114 236.513 15.5849C236.328 15.9584 236.235 16.3589 236.235 16.7862V17.4726C236.235 18.0581 236.336 18.5544 236.538 18.9616C236.743 19.3654 237.028 19.6733 237.391 19.8852C237.755 20.0939 238.177 20.1982 238.658 20.1982C238.971 20.1982 239.254 20.1544 239.506 20.0669C239.762 19.9761 239.982 19.8415 240.167 19.6632C240.352 19.4815 240.495 19.256 240.596 18.9868L241.747 19.3099C241.626 19.7002 241.422 20.0434 241.136 20.3395C240.85 20.6322 240.497 20.8611 240.076 21.0259C239.656 21.1874 239.183 21.2682 238.658 21.2682ZM256.157 14.0001H254.905C254.831 13.6401 254.702 13.3238 254.517 13.0512C254.335 12.7786 254.113 12.5498 253.85 12.3648C253.591 12.1763 253.304 12.035 252.987 11.9408C252.671 11.8466 252.341 11.7995 251.998 11.7995C251.372 11.7995 250.805 11.9576 250.297 12.2739C249.792 12.5902 249.39 13.0562 249.091 13.672C248.795 14.2878 248.647 15.0432 248.647 15.9383C248.647 16.8333 248.795 17.5887 249.091 18.2045C249.39 18.8203 249.792 19.2863 250.297 19.6026C250.805 19.9189 251.372 20.077 251.998 20.077C252.341 20.077 252.671 20.0299 252.987 19.9357C253.304 19.8415 253.591 19.7019 253.85 19.5168C254.113 19.3284 254.335 19.0979 254.517 18.8253C254.702 18.5494 254.831 18.2331 254.905 17.8764H256.157C256.063 18.4047 255.891 18.8775 255.642 19.2947C255.393 19.712 255.084 20.0669 254.713 20.3597C254.343 20.6491 253.928 20.8695 253.467 21.0209C253.009 21.1723 252.52 21.248 251.998 21.248C251.116 21.248 250.332 21.0327 249.646 20.602C248.96 20.1713 248.42 19.5589 248.026 18.7647C247.632 17.9706 247.435 17.0285 247.435 15.9383C247.435 14.848 247.632 13.9059 248.026 13.1118C248.42 12.3177 248.96 11.7053 249.646 11.2746C250.332 10.8438 251.116 10.6285 251.998 10.6285C252.52 10.6285 253.009 10.7042 253.467 10.8556C253.928 11.007 254.343 11.2291 254.713 11.5219C255.084 11.8112 255.393 12.1646 255.642 12.5818C255.891 12.9957 256.063 13.4684 256.157 14.0001ZM259.209 10.7698V21.1067H258.018V10.7698H259.209ZM266.277 17.937V13.354H267.468V21.1067H266.277V19.7944H266.196C266.014 20.1881 265.732 20.5229 265.348 20.7988C264.965 21.0714 264.48 21.2076 263.895 21.2076C263.41 21.2076 262.979 21.1016 262.602 20.8897C262.226 20.6743 261.929 20.3513 261.714 19.9206C261.499 19.4865 261.391 18.9397 261.391 18.2802V13.354H262.582V18.1994C262.582 18.7647 262.74 19.2156 263.057 19.5521C263.376 19.8886 263.783 20.0569 264.278 20.0569C264.574 20.0569 264.875 19.9811 265.182 19.8297C265.491 19.6783 265.75 19.4461 265.959 19.1332C266.171 18.8203 266.277 18.4215 266.277 17.937ZM275.141 15.0903L274.071 15.3931C274.004 15.2148 273.905 15.0415 273.773 14.8733C273.645 14.7017 273.471 14.5603 273.248 14.4493C273.026 14.3383 272.742 14.2827 272.395 14.2827C271.921 14.2827 271.526 14.3921 271.209 14.6108C270.896 14.8262 270.74 15.1004 270.74 15.4335C270.74 15.7296 270.848 15.9635 271.063 16.1351C271.278 16.3067 271.615 16.4497 272.072 16.5641L273.223 16.8468C273.916 17.015 274.433 17.2724 274.773 17.619C275.113 17.9622 275.282 18.4047 275.282 18.9464C275.282 19.3906 275.155 19.7877 274.899 20.1376C274.647 20.4876 274.293 20.7635 273.839 20.9654C273.385 21.1673 272.856 21.2682 272.254 21.2682C271.463 21.2682 270.809 21.0966 270.291 20.7534C269.773 20.4102 269.444 19.9088 269.306 19.2493L270.437 18.9666C270.545 19.3839 270.748 19.6968 271.048 19.9054C271.351 20.1141 271.746 20.2184 272.234 20.2184C272.789 20.2184 273.23 20.1006 273.556 19.8651C273.886 19.6261 274.051 19.3401 274.051 19.007C274.051 18.7378 273.957 18.5124 273.768 18.3307C273.58 18.1456 273.29 18.0076 272.9 17.9168L271.608 17.614C270.898 17.4457 270.377 17.1849 270.043 16.8316C269.714 16.475 269.549 16.0291 269.549 15.4941C269.549 15.0567 269.672 14.6697 269.917 14.3332C270.166 13.9967 270.504 13.7326 270.932 13.5408C271.362 13.349 271.85 13.2531 272.395 13.2531C273.163 13.2531 273.765 13.4213 274.202 13.7578C274.643 14.0943 274.956 14.5385 275.141 15.0903ZM280.447 13.354V14.3635H276.429V13.354H280.447ZM277.6 11.4966H278.792V18.8859C278.792 19.2224 278.84 19.4747 278.938 19.643C279.039 19.8079 279.167 19.9189 279.322 19.9761C279.48 20.0299 279.646 20.0569 279.821 20.0569C279.953 20.0569 280.06 20.0501 280.144 20.0367C280.228 20.0198 280.296 20.0064 280.346 19.9963L280.588 21.0663C280.508 21.0966 280.395 21.1269 280.25 21.1572C280.106 21.1908 279.922 21.2076 279.7 21.2076C279.364 21.2076 279.034 21.1353 278.711 20.9906C278.391 20.8459 278.125 20.6255 277.913 20.3294C277.705 20.0333 277.6 19.6598 277.6 19.2089V11.4966ZM285.406 21.2682C284.659 21.2682 284.015 21.1033 283.473 20.7736C282.935 20.4404 282.519 19.9761 282.226 19.3805C281.937 18.7816 281.792 18.085 281.792 17.2909C281.792 16.4968 281.937 15.7969 282.226 15.1913C282.519 14.5822 282.926 14.1078 283.448 13.7679C283.973 13.4247 284.585 13.2531 285.285 13.2531C285.689 13.2531 286.087 13.3204 286.481 13.455C286.875 13.5896 287.233 13.8083 287.556 14.1111C287.879 14.4106 288.137 14.8077 288.328 15.3023C288.52 15.7969 288.616 16.406 288.616 17.1294V17.6341H282.64V16.6045H287.405C287.405 16.1671 287.317 15.7767 287.142 15.4335C286.971 15.0903 286.725 14.8194 286.405 14.6209C286.089 14.4224 285.716 14.3231 285.285 14.3231C284.811 14.3231 284.4 14.4409 284.053 14.6764C283.71 14.9086 283.446 15.2114 283.261 15.5849C283.076 15.9584 282.983 16.3589 282.983 16.7862V17.4726C282.983 18.0581 283.084 18.5544 283.286 18.9616C283.491 19.3654 283.776 19.6733 284.139 19.8852C284.503 20.0939 284.925 20.1982 285.406 20.1982C285.719 20.1982 286.002 20.1544 286.254 20.0669C286.51 19.9761 286.73 19.8415 286.915 19.6632C287.1 19.4815 287.243 19.256 287.344 18.9868L288.495 19.3099C288.374 19.7002 288.17 20.0434 287.884 20.3395C287.598 20.6322 287.245 20.8611 286.824 21.0259C286.404 21.1874 285.931 21.2682 285.406 21.2682ZM290.428 21.1067V13.354H291.579V14.525H291.66C291.801 14.1414 292.057 13.8302 292.427 13.5913C292.797 13.3524 293.214 13.2329 293.679 13.2329C293.766 13.2329 293.875 13.2346 294.007 13.238C294.138 13.2413 294.237 13.2464 294.304 13.2531V14.4644C294.264 14.4543 294.172 14.4392 294.027 14.419C293.886 14.3955 293.736 14.3837 293.578 14.3837C293.201 14.3837 292.864 14.4628 292.568 14.6209C292.275 14.7757 292.043 14.991 291.872 15.267C291.703 15.5395 291.619 15.8508 291.619 16.2007V21.1067H290.428Z" fill="white"/>
<path d="M131.29 2.68945L141.311 7.5153L143.786 18.3589L136.851 27.0547H125.729L118.794 18.3589L121.269 7.5153L131.29 2.68945Z" fill="white"/>
<path d="M128.969 18.6284C128.969 18.4354 128.684 18.2425 128.494 18.2425C128.494 18.2425 128.494 18.2425 128.4 18.2425L125.458 18.725C125.932 19.9795 126.786 21.041 127.83 21.7165L128.969 18.918C128.969 18.8215 128.969 18.7249 128.969 18.6284ZM128.02 16.5054C128.115 16.5054 128.21 16.5054 128.305 16.3124C128.494 16.1194 128.4 15.8299 128.305 15.6369L126.122 13.6103C125.458 14.6718 125.173 16.0229 125.268 17.3739L128.115 16.5054H128.02ZM129.349 14.1893C129.349 14.1893 129.538 14.2858 129.633 14.2858C129.918 14.2858 130.108 14.0928 130.108 13.8033L130.298 10.8117C130.108 10.8117 129.918 10.8117 129.728 10.9082C128.589 11.1977 127.64 11.6803 126.881 12.4523L129.349 14.1893ZM131.911 13.8033C131.911 13.8998 131.911 13.9963 132.006 14.0928C132.196 14.2858 132.48 14.3823 132.67 14.0928L135.043 12.3558C134.094 11.4873 132.955 10.8117 131.626 10.7152L131.816 13.7068L131.911 13.8033ZM130.203 17.3739L131.057 17.7599L131.911 17.3739L132.101 16.5054L131.531 15.8299H130.582L130.013 16.5054L130.203 17.3739ZM135.992 13.6103L133.809 15.6369C133.809 15.6369 133.714 15.8299 133.619 15.9264C133.619 16.2159 133.714 16.5054 133.999 16.5054L136.846 17.3739C136.846 16.6984 136.846 16.1194 136.751 15.4439C136.561 14.7683 136.371 14.1893 135.992 13.6103ZM144.533 19.2075L142.16 8.88167C142.065 8.30265 141.686 7.91666 141.211 7.62715L131.721 2.99499C131.436 2.89849 131.152 2.802 130.867 2.802C130.582 2.802 130.393 2.80198 130.203 2.99499L120.713 7.62715C120.238 7.82015 119.858 8.30265 119.764 8.88167L117.391 19.2075C117.296 19.69 117.391 20.1725 117.676 20.5585C117.676 20.5585 117.676 20.655 117.771 20.7515L124.319 29.0508C124.698 29.4368 125.173 29.7263 125.742 29.7263H136.276C136.846 29.7263 137.32 29.4368 137.7 29.0508L144.248 20.7515C144.628 20.3655 144.723 19.7865 144.628 19.2075H144.533ZM140.927 19.0145C140.927 19.304 140.547 19.497 140.167 19.4005C140.167 19.4005 140.072 19.4005 139.977 19.4005C139.788 19.4005 139.598 19.304 139.503 19.2075C139.123 19.111 138.839 18.918 138.554 18.918C138.364 18.918 138.364 18.918 138.269 19.0145C138.269 19.0145 138.079 19.0145 137.985 19.0145C137.415 20.7515 136.276 22.1991 134.758 23.1641V23.3571C134.758 23.4536 134.758 23.5501 134.758 23.7431C134.853 24.0326 135.043 24.3221 135.232 24.6116C135.327 24.8046 135.422 24.9011 135.517 25.0941C135.517 25.0941 135.517 25.1907 135.517 25.2872C135.707 25.5767 135.517 25.9627 135.232 26.0592C134.948 26.1557 134.568 26.0592 134.473 25.7697C134.473 25.7697 134.473 25.6732 134.473 25.5767C134.473 25.3837 134.378 25.1906 134.283 25.0941C134.189 24.7081 134.094 24.4186 133.904 24.1291C133.904 24.0326 133.714 23.9361 133.619 23.9361C133.619 23.9361 133.619 23.7431 133.524 23.7431C133.24 23.8396 132.86 23.9361 132.575 24.0326C131.152 24.4186 129.633 24.2257 128.305 23.7431V23.9361C128.115 23.9361 128.02 23.9361 127.925 24.0326C127.735 24.3221 127.64 24.7081 127.451 25.0941C127.451 25.2872 127.451 25.4802 127.261 25.5767C127.261 25.5767 127.261 25.6732 127.261 25.7697C127.071 26.0592 126.786 26.2522 126.502 26.0592C126.217 25.9627 126.122 25.5767 126.217 25.2872C126.217 25.2872 126.217 25.1906 126.217 25.0941C126.217 24.9011 126.407 24.8046 126.502 24.6116C126.691 24.2256 126.881 23.9361 126.976 23.6466C126.976 23.6466 126.976 23.4536 126.976 23.3571V23.0676C125.553 22.1991 124.414 20.7516 123.844 18.918H123.56C123.56 18.918 123.37 18.918 123.275 18.918C122.99 18.918 122.706 19.111 122.326 19.2075C122.136 19.2075 122.041 19.4005 121.851 19.4005C121.851 19.4005 121.757 19.4005 121.662 19.4005C121.282 19.4005 120.997 19.304 120.902 19.0145C120.902 18.725 121.092 18.4354 121.377 18.3389C121.377 18.3389 121.472 18.3389 121.567 18.3389C121.757 18.3389 121.946 18.3389 122.136 18.3389C122.516 18.3389 122.895 18.3389 123.18 18.1459C123.18 18.1459 123.37 17.9529 123.465 17.8564H123.655C123.37 15.9264 123.844 14.0928 124.793 12.6453L124.604 12.4523C124.604 12.4523 124.604 12.2593 124.509 12.1628C124.319 11.9698 124.034 11.7767 123.655 11.5837C123.465 11.5837 123.37 11.3907 123.18 11.2942C123.18 11.2942 123.18 11.2942 123.085 11.2942C122.8 11.1012 122.706 10.7152 122.99 10.4257C123.085 10.3292 123.275 10.2327 123.465 10.2327C123.56 10.2327 123.749 10.2327 123.844 10.4257C123.844 10.4257 123.844 10.4257 123.939 10.5222C124.129 10.6187 124.224 10.8117 124.319 10.9082C124.604 11.1977 124.793 11.3907 125.078 11.5837C125.173 11.5837 125.268 11.5837 125.458 11.5837C125.458 11.5837 125.553 11.6803 125.647 11.7768C126.596 10.7152 127.83 9.94319 129.349 9.65368C129.728 9.65368 130.013 9.5572 130.393 9.4607V9.17117C130.393 9.17117 130.582 8.97818 130.582 8.88167C130.582 8.59216 130.582 8.20615 130.582 7.82013C130.582 7.62713 130.582 7.43412 130.582 7.24111C130.582 7.24111 130.582 7.14463 130.582 7.04812C130.582 6.66211 130.867 6.37259 131.152 6.37259C131.436 6.37259 131.721 6.66211 131.721 7.04812C131.721 7.04812 131.721 7.14461 131.721 7.24111C131.721 7.43412 131.721 7.62713 131.721 7.82013C131.721 8.20615 131.721 8.59216 131.721 8.88167C131.721 9.07468 131.816 9.07467 131.911 9.17117C131.911 9.17117 131.911 9.36419 131.911 9.4607C133.714 9.6537 135.422 10.4257 136.561 11.7768L136.751 11.5837C136.751 11.5837 136.941 11.5837 137.13 11.5837C137.415 11.3907 137.605 11.1977 137.89 10.9082C137.985 10.8117 138.079 10.6187 138.269 10.5222C138.269 10.5222 138.269 10.5222 138.364 10.4257C138.649 10.2327 139.028 10.2327 139.218 10.4257C139.408 10.7152 139.313 11.1012 139.123 11.2942C139.123 11.2942 139.123 11.2943 139.028 11.3908C138.839 11.4873 138.744 11.5837 138.554 11.6803C138.174 11.8733 137.89 12.0663 137.7 12.2593C137.605 12.3558 137.605 12.4523 137.605 12.5488C137.605 12.5488 137.51 12.6453 137.415 12.7418C137.89 13.5138 138.269 14.2858 138.459 15.2509C138.649 16.1194 138.649 17.0844 138.554 17.953H138.744C138.744 18.0495 138.839 18.2425 139.028 18.2425C139.313 18.2425 139.693 18.339 140.072 18.4355C140.262 18.4355 140.452 18.4355 140.642 18.4355C140.642 18.4355 140.737 18.4355 140.832 18.4355C141.211 18.4355 141.401 18.8214 141.306 19.111L140.927 19.0145ZM133.524 18.2425C133.524 18.2425 133.524 18.2425 133.429 18.2425C133.429 18.2425 133.334 18.2425 133.24 18.2425C132.955 18.339 132.86 18.6285 132.955 18.918L134.094 21.7165C135.232 21.041 135.992 19.9795 136.466 18.725L133.524 18.2425ZM131.436 19.7865C131.436 19.7865 131.342 19.5935 131.247 19.5935H131.057C130.867 19.5935 130.677 19.69 130.677 19.883L129.254 22.4886C130.203 22.8746 131.342 22.8746 132.48 22.6816C132.67 22.6816 132.86 22.5851 133.05 22.4886L131.626 19.883L131.436 19.7865Z" fill="#326CE3"/>
<rect x="177.797" y="143.751" width="105.693" height="31.8838" rx="4.97462" stroke="#808080" stroke-width="1.42132"/>
<path d="M189.774 165.193L186.947 154.856H188.219L190.38 163.275H190.48L192.681 154.856H194.094L196.295 163.275H196.396L198.556 154.856H199.828L197.002 165.193H195.709L193.428 156.955H193.347L191.066 165.193H189.774ZM203.654 165.354C202.954 165.354 202.34 165.188 201.812 164.854C201.287 164.521 200.876 164.055 200.58 163.456C200.287 162.857 200.141 162.158 200.141 161.357C200.141 160.549 200.287 159.844 200.58 159.242C200.876 158.64 201.287 158.172 201.812 157.839C202.34 157.506 202.954 157.339 203.654 157.339C204.354 157.339 204.966 157.506 205.491 157.839C206.019 158.172 206.43 158.64 206.723 159.242C207.019 159.844 207.167 160.549 207.167 161.357C207.167 162.158 207.019 162.857 206.723 163.456C206.43 164.055 206.019 164.521 205.491 164.854C204.966 165.188 204.354 165.354 203.654 165.354ZM203.654 164.284C204.186 164.284 204.623 164.148 204.966 163.875C205.309 163.603 205.563 163.244 205.728 162.8C205.893 162.356 205.976 161.875 205.976 161.357C205.976 160.838 205.893 160.356 205.728 159.908C205.563 159.461 205.309 159.099 204.966 158.823C204.623 158.547 204.186 158.409 203.654 158.409C203.122 158.409 202.685 158.547 202.342 158.823C201.998 159.099 201.744 159.461 201.579 159.908C201.415 160.356 201.332 160.838 201.332 161.357C201.332 161.875 201.415 162.356 201.579 162.8C201.744 163.244 201.998 163.603 202.342 163.875C202.685 164.148 203.122 164.284 203.654 164.284ZM208.985 165.193V157.44H210.136V158.611H210.217C210.358 158.227 210.614 157.916 210.984 157.677C211.354 157.438 211.771 157.319 212.236 157.319C212.323 157.319 212.432 157.321 212.564 157.324C212.695 157.327 212.794 157.332 212.861 157.339V158.55C212.821 158.54 212.729 158.525 212.584 158.505C212.443 158.481 212.293 158.47 212.135 158.47C211.758 158.47 211.421 158.549 211.125 158.707C210.832 158.862 210.6 159.077 210.429 159.353C210.26 159.625 210.176 159.937 210.176 160.287V165.193H208.985ZM215.384 162.366L215.364 160.892H215.606L218.998 157.44H220.472L216.858 161.094H216.757L215.384 162.366ZM214.273 165.193V154.856H215.465V165.193H214.273ZM219.2 165.193L216.171 161.357L217.019 160.529L220.714 165.193H219.2ZM224.936 165.354C224.189 165.354 223.544 165.189 223.003 164.86C222.464 164.526 222.049 164.062 221.756 163.466C221.467 162.868 221.322 162.171 221.322 161.377C221.322 160.583 221.467 159.883 221.756 159.277C222.049 158.668 222.456 158.194 222.978 157.854C223.502 157.511 224.115 157.339 224.815 157.339C225.219 157.339 225.617 157.406 226.011 157.541C226.405 157.676 226.763 157.894 227.086 158.197C227.409 158.497 227.666 158.894 227.858 159.388C228.05 159.883 228.146 160.492 228.146 161.215V161.72H222.17V160.69H226.935C226.935 160.253 226.847 159.863 226.672 159.519C226.501 159.176 226.255 158.905 225.935 158.707C225.619 158.508 225.245 158.409 224.815 158.409C224.34 158.409 223.93 158.527 223.583 158.762C223.24 158.995 222.976 159.297 222.791 159.671C222.606 160.044 222.513 160.445 222.513 160.872V161.559C222.513 162.144 222.614 162.64 222.816 163.048C223.021 163.451 223.306 163.759 223.669 163.971C224.032 164.18 224.455 164.284 224.936 164.284C225.249 164.284 225.531 164.24 225.784 164.153C226.04 164.062 226.26 163.927 226.445 163.749C226.63 163.567 226.773 163.342 226.874 163.073L228.025 163.396C227.904 163.786 227.7 164.129 227.414 164.425C227.128 164.718 226.775 164.947 226.354 165.112C225.934 165.273 225.461 165.354 224.936 165.354ZM229.958 165.193V157.44H231.109V158.611H231.189C231.331 158.227 231.587 157.916 231.957 157.677C232.327 157.438 232.744 157.319 233.208 157.319C233.296 157.319 233.405 157.321 233.536 157.324C233.668 157.327 233.767 157.332 233.834 157.339V158.55C233.794 158.54 233.701 158.525 233.557 158.505C233.415 158.481 233.266 158.47 233.107 158.47C232.731 158.47 232.394 158.549 232.098 158.707C231.805 158.862 231.573 159.077 231.401 159.353C231.233 159.625 231.149 159.937 231.149 160.287V165.193H229.958ZM247.602 154.856V165.193H246.391L240.758 157.077H240.657V165.193H239.405V154.856H240.617L246.27 162.992H246.37V154.856H247.602ZM253.095 165.354C252.395 165.354 251.781 165.188 251.252 164.854C250.728 164.521 250.317 164.055 250.021 163.456C249.728 162.857 249.582 162.158 249.582 161.357C249.582 160.549 249.728 159.844 250.021 159.242C250.317 158.64 250.728 158.172 251.252 157.839C251.781 157.506 252.395 157.339 253.095 157.339C253.795 157.339 254.407 157.506 254.932 157.839C255.46 158.172 255.871 158.64 256.163 159.242C256.46 159.844 256.608 160.549 256.608 161.357C256.608 162.158 256.46 162.857 256.163 163.456C255.871 164.055 255.46 164.521 254.932 164.854C254.407 165.188 253.795 165.354 253.095 165.354ZM253.095 164.284C253.626 164.284 254.064 164.148 254.407 163.875C254.75 163.603 255.004 163.244 255.169 162.8C255.334 162.356 255.416 161.875 255.416 161.357C255.416 160.838 255.334 160.356 255.169 159.908C255.004 159.461 254.75 159.099 254.407 158.823C254.064 158.547 253.626 158.409 253.095 158.409C252.563 158.409 252.126 158.547 251.782 158.823C251.439 159.099 251.185 159.461 251.02 159.908C250.855 160.356 250.773 160.838 250.773 161.357C250.773 161.875 250.855 162.356 251.02 162.8C251.185 163.244 251.439 163.603 251.782 163.875C252.126 164.148 252.563 164.284 253.095 164.284ZM261.353 165.354C260.707 165.354 260.137 165.191 259.642 164.865C259.148 164.535 258.761 164.07 258.481 163.471C258.202 162.869 258.063 162.158 258.063 161.336C258.063 160.522 258.202 159.816 258.481 159.217C258.761 158.618 259.149 158.155 259.647 157.829C260.145 157.502 260.721 157.339 261.374 157.339C261.878 157.339 262.277 157.423 262.57 157.591C262.866 157.756 263.091 157.945 263.246 158.157C263.404 158.365 263.527 158.537 263.615 158.672H263.716V154.856H264.907V165.193H263.756V164.001H263.615C263.527 164.143 263.403 164.321 263.241 164.536C263.08 164.748 262.849 164.939 262.55 165.107C262.25 165.272 261.851 165.354 261.353 165.354ZM261.515 164.284C261.993 164.284 262.396 164.16 262.726 163.911C263.056 163.658 263.307 163.31 263.478 162.866C263.65 162.418 263.736 161.902 263.736 161.316C263.736 160.738 263.652 160.231 263.483 159.797C263.315 159.36 263.066 159.02 262.736 158.778C262.407 158.532 261.999 158.409 261.515 158.409C261.01 158.409 260.59 158.539 260.253 158.798C259.92 159.053 259.669 159.402 259.501 159.842C259.336 160.28 259.254 160.771 259.254 161.316C259.254 161.868 259.338 162.37 259.506 162.82C259.678 163.268 259.93 163.625 260.263 163.89C260.6 164.153 261.017 164.284 261.515 164.284ZM270.504 165.354C269.757 165.354 269.113 165.189 268.571 164.86C268.033 164.526 267.617 164.062 267.324 163.466C267.035 162.868 266.89 162.171 266.89 161.377C266.89 160.583 267.035 159.883 267.324 159.277C267.617 158.668 268.024 158.194 268.546 157.854C269.071 157.511 269.683 157.339 270.383 157.339C270.787 157.339 271.186 157.406 271.579 157.541C271.973 157.676 272.331 157.894 272.654 158.197C272.977 158.497 273.235 158.894 273.427 159.388C273.618 159.883 273.714 160.492 273.714 161.215V161.72H267.738V160.69H272.503C272.503 160.253 272.415 159.863 272.24 159.519C272.069 159.176 271.823 158.905 271.504 158.707C271.187 158.508 270.814 158.409 270.383 158.409C269.909 158.409 269.498 158.527 269.151 158.762C268.808 158.995 268.544 159.297 268.359 159.671C268.174 160.044 268.081 160.445 268.081 160.872V161.559C268.081 162.144 268.182 162.64 268.384 163.048C268.59 163.451 268.874 163.759 269.237 163.971C269.601 164.18 270.023 164.284 270.504 164.284C270.817 164.284 271.1 164.24 271.352 164.153C271.608 164.062 271.828 163.927 272.013 163.749C272.198 163.567 272.341 163.342 272.442 163.073L273.593 163.396C273.472 163.786 273.268 164.129 272.982 164.425C272.696 164.718 272.343 164.947 271.922 165.112C271.502 165.273 271.029 165.354 270.504 165.354Z" fill="#808080"/>
<rect x="298.441" y="143.751" width="105.693" height="31.8838" rx="4.97462" stroke="#808080" stroke-width="1.42132"/>
<path d="M310.418 165.193L307.592 154.856H308.864L311.024 163.275H311.125L313.326 154.856H314.739L316.939 163.275H317.04L319.201 154.856H320.473L317.646 165.193H316.354L314.073 156.955H313.992L311.71 165.193H310.418ZM324.298 165.354C323.599 165.354 322.984 165.188 322.456 164.854C321.931 164.521 321.521 164.055 321.225 163.456C320.932 162.857 320.786 162.158 320.786 161.357C320.786 160.549 320.932 159.844 321.225 159.242C321.521 158.64 321.931 158.172 322.456 157.839C322.984 157.506 323.599 157.339 324.298 157.339C324.998 157.339 325.611 157.506 326.136 157.839C326.664 158.172 327.074 158.64 327.367 159.242C327.663 159.844 327.811 160.549 327.811 161.357C327.811 162.158 327.663 162.857 327.367 163.456C327.074 164.055 326.664 164.521 326.136 164.854C325.611 165.188 324.998 165.354 324.298 165.354ZM324.298 164.284C324.83 164.284 325.268 164.148 325.611 163.875C325.954 163.603 326.208 163.244 326.373 162.8C326.538 162.356 326.62 161.875 326.62 161.357C326.62 160.838 326.538 160.356 326.373 159.908C326.208 159.461 325.954 159.099 325.611 158.823C325.268 158.547 324.83 158.409 324.298 158.409C323.767 158.409 323.329 158.547 322.986 158.823C322.643 159.099 322.389 159.461 322.224 159.908C322.059 160.356 321.977 160.838 321.977 161.357C321.977 161.875 322.059 162.356 322.224 162.8C322.389 163.244 322.643 163.603 322.986 163.875C323.329 164.148 323.767 164.284 324.298 164.284ZM329.63 165.193V157.44H330.78V158.611H330.861C331.003 158.227 331.258 157.916 331.628 157.677C331.999 157.438 332.416 157.319 332.88 157.319C332.968 157.319 333.077 157.321 333.208 157.324C333.339 157.327 333.439 157.332 333.506 157.339V158.55C333.466 158.54 333.373 158.525 333.228 158.505C333.087 158.481 332.937 158.47 332.779 158.47C332.402 158.47 332.066 158.549 331.77 158.707C331.477 158.862 331.245 159.077 331.073 159.353C330.905 159.625 330.821 159.937 330.821 160.287V165.193H329.63ZM336.028 162.366L336.008 160.892H336.25L339.642 157.44H341.116L337.502 161.094H337.401L336.028 162.366ZM334.918 165.193V154.856H336.109V165.193H334.918ZM339.844 165.193L336.816 161.357L337.664 160.529L341.358 165.193H339.844ZM345.58 165.354C344.833 165.354 344.189 165.189 343.647 164.86C343.109 164.526 342.693 164.062 342.401 163.466C342.111 162.868 341.967 162.171 341.967 161.377C341.967 160.583 342.111 159.883 342.401 159.277C342.693 158.668 343.1 158.194 343.622 157.854C344.147 157.511 344.759 157.339 345.459 157.339C345.863 157.339 346.262 157.406 346.655 157.541C347.049 157.676 347.408 157.894 347.731 158.197C348.054 158.497 348.311 158.894 348.503 159.388C348.695 159.883 348.79 160.492 348.79 161.215V161.72H342.814V160.69H347.579C347.579 160.253 347.492 159.863 347.317 159.519C347.145 159.176 346.899 158.905 346.58 158.707C346.263 158.508 345.89 158.409 345.459 158.409C344.985 158.409 344.574 158.527 344.228 158.762C343.885 158.995 343.62 159.297 343.435 159.671C343.25 160.044 343.158 160.445 343.158 160.872V161.559C343.158 162.144 343.259 162.64 343.461 163.048C343.666 163.451 343.95 163.759 344.314 163.971C344.677 164.18 345.099 164.284 345.58 164.284C345.893 164.284 346.176 164.24 346.428 164.153C346.684 164.062 346.904 163.927 347.09 163.749C347.275 163.567 347.418 163.342 347.519 163.073L348.669 163.396C348.548 163.786 348.345 164.129 348.059 164.425C347.773 164.718 347.419 164.947 346.999 165.112C346.578 165.273 346.105 165.354 345.58 165.354ZM350.602 165.193V157.44H351.753V158.611H351.834C351.975 158.227 352.231 157.916 352.601 157.677C352.971 157.438 353.389 157.319 353.853 157.319C353.94 157.319 354.05 157.321 354.181 157.324C354.312 157.327 354.411 157.332 354.479 157.339V158.55C354.438 158.54 354.346 158.525 354.201 158.505C354.06 158.481 353.91 158.47 353.752 158.47C353.375 158.47 353.039 158.549 352.743 158.707C352.45 158.862 352.218 159.077 352.046 159.353C351.878 159.625 351.794 159.937 351.794 160.287V165.193H350.602ZM368.247 154.856V165.193H367.035L361.402 157.077H361.301V165.193H360.05V154.856H361.261L366.914 162.992H367.015V154.856H368.247ZM373.739 165.354C373.039 165.354 372.425 165.188 371.897 164.854C371.372 164.521 370.962 164.055 370.665 163.456C370.373 162.857 370.226 162.158 370.226 161.357C370.226 160.549 370.373 159.844 370.665 159.242C370.962 158.64 371.372 158.172 371.897 157.839C372.425 157.506 373.039 157.339 373.739 157.339C374.439 157.339 375.052 157.506 375.576 157.839C376.105 158.172 376.515 158.64 376.808 159.242C377.104 159.844 377.252 160.549 377.252 161.357C377.252 162.158 377.104 162.857 376.808 163.456C376.515 164.055 376.105 164.521 375.576 164.854C375.052 165.188 374.439 165.354 373.739 165.354ZM373.739 164.284C374.271 164.284 374.708 164.148 375.052 163.875C375.395 163.603 375.649 163.244 375.814 162.8C375.979 162.356 376.061 161.875 376.061 161.357C376.061 160.838 375.979 160.356 375.814 159.908C375.649 159.461 375.395 159.099 375.052 158.823C374.708 158.547 374.271 158.409 373.739 158.409C373.208 158.409 372.77 158.547 372.427 158.823C372.084 159.099 371.83 159.461 371.665 159.908C371.5 160.356 371.418 160.838 371.418 161.357C371.418 161.875 371.5 162.356 371.665 162.8C371.83 163.244 372.084 163.603 372.427 163.875C372.77 164.148 373.208 164.284 373.739 164.284ZM381.998 165.354C381.352 165.354 380.782 165.191 380.287 164.865C379.792 164.535 379.405 164.07 379.126 163.471C378.847 162.869 378.707 162.158 378.707 161.336C378.707 160.522 378.847 159.816 379.126 159.217C379.405 158.618 379.794 158.155 380.292 157.829C380.79 157.502 381.365 157.339 382.018 157.339C382.523 157.339 382.922 157.423 383.214 157.591C383.51 157.756 383.736 157.945 383.891 158.157C384.049 158.365 384.172 158.537 384.259 158.672H384.36V154.856H385.551V165.193H384.4V164.001H384.259C384.172 164.143 384.047 164.321 383.886 164.536C383.724 164.748 383.494 164.939 383.194 165.107C382.895 165.272 382.496 165.354 381.998 165.354ZM382.159 164.284C382.637 164.284 383.041 164.16 383.371 163.911C383.701 163.658 383.951 163.31 384.123 162.866C384.294 162.418 384.38 161.902 384.38 161.316C384.38 160.738 384.296 160.231 384.128 159.797C383.96 159.36 383.711 159.02 383.381 158.778C383.051 158.532 382.644 158.409 382.159 158.409C381.655 158.409 381.234 158.539 380.898 158.798C380.564 159.053 380.314 159.402 380.146 159.842C379.981 160.28 379.898 160.771 379.898 161.316C379.898 161.868 379.982 162.37 380.151 162.82C380.322 163.268 380.575 163.625 380.908 163.89C381.244 164.153 381.661 164.284 382.159 164.284ZM391.149 165.354C390.402 165.354 389.757 165.189 389.216 164.86C388.677 164.526 388.262 164.062 387.969 163.466C387.679 162.868 387.535 162.171 387.535 161.377C387.535 160.583 387.679 159.883 387.969 159.277C388.262 158.668 388.669 158.194 389.19 157.854C389.715 157.511 390.328 157.339 391.028 157.339C391.431 157.339 391.83 157.406 392.224 157.541C392.617 157.676 392.976 157.894 393.299 158.197C393.622 158.497 393.879 158.894 394.071 159.388C394.263 159.883 394.359 160.492 394.359 161.215V161.72H388.383V160.69H393.147C393.147 160.253 393.06 159.863 392.885 159.519C392.713 159.176 392.468 158.905 392.148 158.707C391.832 158.508 391.458 158.409 391.028 158.409C390.553 158.409 390.143 158.527 389.796 158.762C389.453 158.995 389.189 159.297 389.004 159.671C388.818 160.044 388.726 160.445 388.726 160.872V161.559C388.726 162.144 388.827 162.64 389.029 163.048C389.234 163.451 389.518 163.759 389.882 163.971C390.245 164.18 390.667 164.284 391.149 164.284C391.462 164.284 391.744 164.24 391.997 164.153C392.252 164.062 392.473 163.927 392.658 163.749C392.843 163.567 392.986 163.342 393.087 163.073L394.238 163.396C394.116 163.786 393.913 164.129 393.627 164.425C393.341 164.718 392.988 164.947 392.567 165.112C392.146 165.273 391.674 165.354 391.149 165.354Z" fill="#808080"/>
<path d="M242 106.642H240.934V107.708H242V106.642ZM351 106.642H352.066V105.576H351V106.642ZM351 142.5L357.154 131.84H344.846L351 142.5ZM242 99.5H240.934V106.642H242H243.066V99.5H242ZM242 106.642V107.708H351V106.642V105.576H242V106.642ZM351 106.642H349.934V132.906H351H352.066V106.642H351Z" fill="#9B9DA7"/>
<path d="M242 106.592H243.066V107.658H242V106.592ZM230 106.592H228.934V105.526H230V106.592ZM230 142.5L223.846 131.84H236.154L230 142.5ZM242 90.5H243.066V106.592H242H240.934V90.5H242ZM242 106.592V107.658H230V106.592V105.526H242V106.592ZM230 106.592H231.066V132.906H230H228.934V106.592H230Z" fill="#9B9DA7"/>
<path d="M50 142L56.1545 131.34L43.8455 131.34L50 142ZM50 83L48.934 83L48.934 132.406L50 132.406L51.066 132.406L51.066 83L50 83Z" fill="#9B9DA7"/>
<path d="M196.314 49.2891C199.847 49.2891 202.711 52.1532 202.711 55.6855V77.3145C202.711 80.8468 199.847 83.7109 196.314 83.7109H51.2891V49.2891H196.314Z" fill="#FF6600" stroke="white" stroke-width="1.42132"/>
<path d="M70.873 53.9092V78.7578L49.5 91.1787L28.127 78.7578V53.9092L49.5 41.4883L70.873 53.9092Z" fill="#FF6600" stroke="white" stroke-width="1.42132"/>
<path fill-rule="evenodd" clip-rule="evenodd" d="M58.9636 58.6153L54.7395 66.1725L52.7385 69.7552L50.293 65.4448L53.1276 60.4626C53.1276 60.4066 53.1832 60.2947 53.2388 60.2387C53.9613 59.0072 55.2397 58.2235 56.7404 58.1675C56.796 58.1675 56.8516 58.1675 56.9071 58.1675C56.9627 58.1675 57.0183 58.1675 57.0739 58.1675C57.7408 58.1675 58.4078 58.3914 58.9636 58.6713V58.6153Z" fill="white"/>
<path fill-rule="evenodd" clip-rule="evenodd" d="M51.5761 58.9512L49.1305 63.2616H43.2389C41.8494 63.2616 40.5154 62.5338 39.7373 61.4143C39.7373 61.3583 39.6261 61.2463 39.5705 61.1903C39.2371 60.5186 39.0703 59.7909 39.0703 59.0631H51.6873L51.5761 58.9512Z" fill="white"/>
<path fill-rule="evenodd" clip-rule="evenodd" d="M51.4631 72.7781C51.4631 74.4015 50.5738 75.745 49.2954 76.5287L45.1268 69.0835L43.0703 65.4448H47.9615L50.9073 70.6509C51.0184 70.8748 51.1296 71.0987 51.1852 71.2666C51.3519 71.7145 51.4631 72.2183 51.4631 72.7781Z" fill="white"/>
<path d="M89.8011 62.8597L86.7909 71H85.519L82.5088 62.8597H83.8655L86.1125 69.3465H86.1973L88.4444 62.8597H89.8011ZM100.355 63.5381H99.0411C98.9633 63.16 98.8273 62.8279 98.633 62.5417C98.4422 62.2556 98.209 62.0153 97.9334 61.821C97.6614 61.6231 97.3593 61.4747 97.0272 61.3758C96.6951 61.2769 96.3488 61.2274 95.9885 61.2274C95.3313 61.2274 94.736 61.3935 94.2025 61.7256C93.6725 62.0577 93.2503 62.547 92.9359 63.1936C92.6249 63.8402 92.4695 64.6333 92.4695 65.5731C92.4695 66.513 92.6249 67.3061 92.9359 67.9527C93.2503 68.5993 93.6725 69.0886 94.2025 69.4207C94.736 69.7528 95.3313 69.9189 95.9885 69.9189C96.3488 69.9189 96.6951 69.8694 97.0272 69.7705C97.3593 69.6716 97.6614 69.5249 97.9334 69.3306C98.209 69.1328 98.4422 68.8907 98.633 68.6046C98.8273 68.3148 98.9633 67.9827 99.0411 67.6082H100.355C100.256 68.1629 100.076 68.6593 99.8148 69.0974C99.5534 69.5355 99.2283 69.9083 98.8397 70.2156C98.451 70.5195 98.0147 70.7509 97.5307 70.9099C97.0502 71.0689 96.5361 71.1484 95.9885 71.1484C95.0628 71.1484 94.2396 70.9223 93.5188 70.47C92.7981 70.0178 92.231 69.3748 91.8176 68.541C91.4043 67.7071 91.1976 66.7179 91.1976 65.5731C91.1976 64.4284 91.4043 63.4391 91.8176 62.6053C92.231 61.7715 92.7981 61.1285 93.5188 60.6763C94.2396 60.224 95.0628 59.9979 95.9885 59.9979C96.5361 59.9979 97.0502 60.0774 97.5307 60.2364C98.0147 60.3954 98.451 60.6286 98.8397 60.9359C99.2283 61.2398 99.5534 61.6108 99.8148 62.0489C100.076 62.4834 100.256 62.9798 100.355 63.5381ZM103.56 60.1463V71H102.31V60.1463H103.56ZM110.981 67.6718V62.8597H112.232V71H110.981V69.6221H110.896C110.706 70.0355 110.409 70.387 110.006 70.6767C109.603 70.9629 109.095 71.106 108.48 71.106C107.971 71.106 107.519 70.9947 107.123 70.7721C106.727 70.546 106.416 70.2068 106.19 69.7546C105.964 69.2988 105.851 68.7247 105.851 68.0322V62.8597H107.102V67.9474C107.102 68.541 107.268 69.0144 107.6 69.3677C107.936 69.721 108.363 69.8977 108.883 69.8977C109.193 69.8977 109.51 69.8182 109.831 69.6592C110.156 69.5002 110.428 69.2564 110.647 68.9278C110.87 68.5993 110.981 68.1806 110.981 67.6718ZM120.289 64.6828L119.165 65.0008C119.095 64.8135 118.99 64.6316 118.853 64.4549C118.718 64.2747 118.535 64.1263 118.301 64.0097C118.068 63.8932 117.77 63.8349 117.406 63.8349C116.908 63.8349 116.492 63.9497 116.16 64.1793C115.832 64.4055 115.667 64.6934 115.667 65.0432C115.667 65.3541 115.78 65.5996 116.007 65.7798C116.233 65.96 116.586 66.1102 117.067 66.2303L118.275 66.5271C119.003 66.7037 119.545 66.974 119.902 67.3379C120.259 67.6983 120.437 68.1629 120.437 68.7317C120.437 69.1981 120.303 69.615 120.034 69.9825C119.769 70.3499 119.398 70.6396 118.921 70.8516C118.444 71.0636 117.89 71.1696 117.257 71.1696C116.427 71.1696 115.74 70.9894 115.196 70.629C114.652 70.2686 114.307 69.7422 114.162 69.0497L115.349 68.7529C115.463 69.191 115.676 69.5196 115.991 69.7387C116.309 69.9577 116.724 70.0673 117.236 70.0673C117.819 70.0673 118.282 69.9436 118.625 69.6963C118.971 69.4454 119.144 69.1451 119.144 68.7953C119.144 68.5127 119.045 68.276 118.847 68.0852C118.649 67.8909 118.346 67.746 117.936 67.6506L116.579 67.3326C115.833 67.156 115.286 66.8822 114.936 66.5112C114.59 66.1367 114.417 65.6685 114.417 65.1068C114.417 64.6475 114.546 64.2412 114.804 63.8879C115.065 63.5345 115.42 63.2572 115.869 63.0558C116.321 62.8544 116.833 62.7537 117.406 62.7537C118.211 62.7537 118.844 62.9304 119.303 63.2837C119.766 63.637 120.094 64.1034 120.289 64.6828ZM125.86 62.8597V63.9196H121.641V62.8597H125.86ZM122.871 60.9094H124.122V68.6681C124.122 69.0215 124.173 69.2864 124.275 69.4631C124.381 69.6362 124.516 69.7528 124.678 69.8129C124.844 69.8694 125.019 69.8977 125.203 69.8977C125.341 69.8977 125.454 69.8906 125.542 69.8765C125.63 69.8588 125.701 69.8447 125.754 69.8341L126.008 70.9576C125.924 70.9894 125.805 71.0212 125.653 71.053C125.501 71.0883 125.309 71.106 125.076 71.106C124.722 71.106 124.376 71.03 124.037 70.8781C123.701 70.7262 123.422 70.4948 123.2 70.1839C122.981 69.8729 122.871 69.4808 122.871 69.0073V60.9094ZM131.067 71.1696C130.283 71.1696 129.606 70.9965 129.037 70.6502C128.472 70.3004 128.036 69.8129 127.728 69.1875C127.424 68.5586 127.272 67.8273 127.272 66.9935C127.272 66.1596 127.424 65.4248 127.728 64.7888C128.036 64.1493 128.463 63.6511 129.011 63.2943C129.562 62.9339 130.205 62.7537 130.94 62.7537C131.364 62.7537 131.782 62.8244 132.196 62.9657C132.609 63.107 132.985 63.3367 133.325 63.6547C133.664 63.9691 133.934 64.386 134.135 64.9054C134.337 65.4248 134.438 66.0642 134.438 66.8239V67.3538H128.163V66.2727H133.166C133.166 65.8134 133.074 65.4036 132.89 65.0432C132.71 64.6828 132.452 64.3984 132.116 64.1899C131.784 63.9815 131.392 63.8773 130.94 63.8773C130.442 63.8773 130.011 64.0009 129.647 64.2482C129.286 64.492 129.009 64.81 128.815 65.2022C128.62 65.5943 128.523 66.0148 128.523 66.4635V67.1842C128.523 67.799 128.629 68.3201 128.841 68.7476C129.057 69.1716 129.355 69.4949 129.737 69.7175C130.118 69.9365 130.562 70.0461 131.067 70.0461C131.396 70.0461 131.692 70.0001 131.957 69.9083C132.226 69.8129 132.457 69.6716 132.652 69.4843C132.846 69.2935 132.996 69.0568 133.102 68.7741L134.31 69.1133C134.183 69.5232 133.969 69.8835 133.669 70.1945C133.369 70.5018 132.998 70.7421 132.556 70.9152C132.115 71.0848 131.618 71.1696 131.067 71.1696ZM136.34 71V62.8597H137.548V64.0892H137.633C137.782 63.6865 138.05 63.3597 138.439 63.1088C138.827 62.8579 139.266 62.7325 139.753 62.7325C139.845 62.7325 139.96 62.7343 140.098 62.7378C140.235 62.7414 140.34 62.7467 140.41 62.7537V64.0256C140.368 64.015 140.271 63.9991 140.119 63.9779C139.97 63.9532 139.813 63.9408 139.647 63.9408C139.251 63.9408 138.898 64.0239 138.587 64.1899C138.28 64.3525 138.036 64.5786 137.856 64.8683C137.679 65.1545 137.591 65.4813 137.591 65.8487V71H136.34ZM146.26 71V60.1463H149.927C150.779 60.1463 151.475 60.3 152.015 60.6074C152.559 60.9112 152.962 61.3228 153.224 61.8422C153.485 62.3615 153.616 62.941 153.616 63.5805C153.616 64.22 153.485 64.8012 153.224 65.3241C152.966 65.847 152.566 66.2639 152.026 66.5748C151.485 66.8822 150.793 67.0359 149.948 67.0359H147.32V65.8699H149.906C150.489 65.8699 150.957 65.7692 151.31 65.5678C151.664 65.3665 151.92 65.0944 152.079 64.7517C152.241 64.4055 152.323 64.015 152.323 63.5805C152.323 63.1459 152.241 62.7573 152.079 62.4145C151.92 62.0718 151.662 61.8033 151.305 61.609C150.948 61.4111 150.475 61.3122 149.885 61.3122H147.574V71H146.26ZM158.783 71.1696C158.048 71.1696 157.403 70.9947 156.848 70.6449C156.297 70.2951 155.866 69.8058 155.555 69.1769C155.248 68.548 155.094 67.8131 155.094 66.9723C155.094 66.1243 155.248 65.3841 155.555 64.7517C155.866 64.1193 156.297 63.6282 156.848 63.2784C157.403 62.9286 158.048 62.7537 158.783 62.7537C159.518 62.7537 160.161 62.9286 160.712 63.2784C161.267 63.6282 161.698 64.1193 162.005 64.7517C162.316 65.3841 162.471 66.1243 162.471 66.9723C162.471 67.8131 162.316 68.548 162.005 69.1769C161.698 69.8058 161.267 70.2951 160.712 70.6449C160.161 70.9947 159.518 71.1696 158.783 71.1696ZM158.783 70.0461C159.341 70.0461 159.8 69.903 160.161 69.6168C160.521 69.3306 160.788 68.9543 160.961 68.488C161.134 68.0216 161.221 67.5164 161.221 66.9723C161.221 66.4282 161.134 65.9212 160.961 65.4513C160.788 64.9813 160.521 64.6015 160.161 64.3118C159.8 64.0221 159.341 63.8773 158.783 63.8773C158.225 63.8773 157.765 64.0221 157.405 64.3118C157.045 64.6015 156.778 64.9813 156.605 65.4513C156.432 65.9212 156.345 66.4282 156.345 66.9723C156.345 67.5164 156.432 68.0216 156.605 68.488C156.778 68.9543 157.045 69.3306 157.405 69.6168C157.765 69.903 158.225 70.0461 158.783 70.0461ZM167.454 71.1696C166.776 71.1696 166.177 70.9982 165.658 70.6555C165.138 70.3093 164.732 69.8217 164.439 69.1928C164.146 68.5604 163.999 67.8131 163.999 66.9511C163.999 66.096 164.146 65.3541 164.439 64.7252C164.732 64.0963 165.14 63.6105 165.663 63.2678C166.186 62.9251 166.79 62.7537 167.476 62.7537C168.006 62.7537 168.424 62.8421 168.732 63.0187C169.043 63.1918 169.279 63.3897 169.442 63.6123C169.608 63.8313 169.737 64.0115 169.829 64.1528H169.935V60.1463H171.185V71H169.977V69.7493H169.829C169.737 69.8977 169.606 70.0849 169.436 70.311C169.267 70.5336 169.025 70.7333 168.71 70.9099C168.396 71.083 167.977 71.1696 167.454 71.1696ZM167.624 70.0461C168.126 70.0461 168.55 69.9153 168.896 69.6539C169.242 69.3889 169.505 69.0232 169.686 68.5569C169.866 68.087 169.956 67.5446 169.956 66.9299C169.956 66.3222 169.868 65.7904 169.691 65.3347C169.514 64.8754 169.253 64.5185 168.907 64.2641C168.56 64.0062 168.133 63.8773 167.624 63.8773C167.094 63.8773 166.652 64.0133 166.299 64.2853C165.949 64.5538 165.686 64.9195 165.509 65.3824C165.336 65.8417 165.25 66.3575 165.25 66.9299C165.25 67.5093 165.338 68.0357 165.515 68.5092C165.695 68.9791 165.96 69.3536 166.31 69.6327C166.663 69.9083 167.101 70.0461 167.624 70.0461ZM178.462 71H177.084L181.069 60.1463H182.426L186.411 71H185.033L181.79 61.8634H181.705L178.462 71ZM178.971 66.7603H184.525V67.9262H178.971V66.7603Z" fill="white"/>
<path d="M388.314 48.6221C391.847 48.6221 394.711 51.4862 394.711 55.0186V76.6475C394.711 80.1798 391.847 83.0439 388.314 83.0439H243.289V48.6221H388.314Z" fill="#FF6600" stroke="white" stroke-width="1.42132"/>
<path d="M262.873 53.2422V78.0908L241.5 90.5117L220.127 78.0908V53.2422L241.5 40.8213L262.873 53.2422Z" fill="#FF6600" stroke="white" stroke-width="1.42132"/>
<path fill-rule="evenodd" clip-rule="evenodd" d="M250.964 57.9483L246.739 65.5055L244.739 69.0882L242.293 64.7778L245.128 59.7956C245.128 59.7397 245.183 59.6277 245.239 59.5717C245.961 58.3402 247.24 57.5565 248.74 57.5005C248.796 57.5005 248.852 57.5005 248.907 57.5005C248.963 57.5005 249.018 57.5005 249.074 57.5005C249.741 57.5005 250.408 57.7244 250.964 58.0043V57.9483Z" fill="white"/>
<path fill-rule="evenodd" clip-rule="evenodd" d="M243.576 58.2842L241.131 62.5946H235.239C233.849 62.5946 232.515 61.8668 231.737 60.7473C231.737 60.6913 231.626 60.5793 231.571 60.5233C231.237 59.8516 231.07 59.1239 231.07 58.3961H243.687L243.576 58.2842Z" fill="white"/>
<path fill-rule="evenodd" clip-rule="evenodd" d="M243.463 72.1111C243.463 73.7345 242.574 75.078 241.295 75.8617L237.127 68.4165L235.07 64.7778H239.961L242.907 69.9839C243.018 70.2078 243.13 70.4317 243.185 70.5997C243.352 71.0475 243.463 71.5513 243.463 72.1111Z" fill="white"/>
<path d="M283.791 62.8706L280.784 71H279.514L276.508 62.8706H277.863L280.107 69.3487H280.192L282.436 62.8706H283.791ZM294.331 63.5481H293.018C292.941 63.1705 292.805 62.8389 292.611 62.5531C292.42 62.2673 292.187 62.0273 291.912 61.8333C291.64 61.6357 291.339 61.4875 291.007 61.3887C290.675 61.2899 290.33 61.2405 289.97 61.2405C289.313 61.2405 288.719 61.4064 288.186 61.738C287.657 62.0697 287.235 62.5584 286.921 63.2041C286.611 63.8498 286.455 64.6419 286.455 65.5804C286.455 66.519 286.611 67.3111 286.921 67.9568C287.235 68.6025 287.657 69.0912 288.186 69.4228C288.719 69.7545 289.313 69.9203 289.97 69.9203C290.33 69.9203 290.675 69.8709 291.007 69.7721C291.339 69.6733 291.64 69.5269 291.912 69.3328C292.187 69.1353 292.42 68.8936 292.611 68.6078C292.805 68.3184 292.941 67.9868 293.018 67.6128H294.331C294.232 68.1667 294.052 68.6625 293.791 69.1C293.53 69.5375 293.205 69.9097 292.817 70.2167C292.429 70.5201 291.993 70.7512 291.51 70.91C291.03 71.0688 290.517 71.1482 289.97 71.1482C289.045 71.1482 288.223 70.9224 287.503 70.4707C286.784 70.0191 286.217 69.3769 285.804 68.5443C285.392 67.7116 285.185 66.7236 285.185 65.5804C285.185 64.4372 285.392 63.4493 285.804 62.6166C286.217 61.7839 286.784 61.1417 287.503 60.6901C288.223 60.2385 289.045 60.0126 289.97 60.0126C290.517 60.0126 291.03 60.092 291.51 60.2508C291.993 60.4096 292.429 60.6425 292.817 60.9494C293.205 61.2529 293.53 61.6233 293.791 62.0609C294.052 62.4949 294.232 62.9906 294.331 63.5481ZM297.531 60.1608V71H296.282V60.1608H297.531ZM304.942 67.6763V62.8706H306.191V71H304.942V69.6239H304.858C304.667 70.0368 304.371 70.3878 303.969 70.6772C303.566 70.963 303.058 71.1059 302.444 71.1059C301.936 71.1059 301.485 70.9947 301.089 70.7724C300.694 70.5466 300.384 70.2079 300.158 69.7562C299.932 69.3011 299.819 68.7277 299.819 68.0362V62.8706H301.068V67.9515C301.068 68.5443 301.234 69.0171 301.566 69.3699C301.901 69.7227 302.328 69.8991 302.847 69.8991C303.157 69.8991 303.473 69.8198 303.794 69.661C304.118 69.5022 304.39 69.2587 304.609 68.9306C304.831 68.6025 304.942 68.1844 304.942 67.6763ZM314.237 64.6913L313.115 65.0088C313.045 64.8218 312.941 64.6401 312.803 64.4637C312.669 64.2837 312.486 64.1355 312.253 64.0191C312.02 63.9027 311.722 63.8445 311.358 63.8445C310.861 63.8445 310.446 63.9591 310.115 64.1885C309.786 64.4143 309.622 64.7019 309.622 65.0512C309.622 65.3617 309.735 65.6069 309.961 65.7868C310.187 65.9668 310.54 66.1167 311.02 66.2367L312.226 66.5331C312.953 66.7095 313.495 66.9794 313.851 67.3428C314.207 67.7027 314.386 68.1667 314.386 68.7348C314.386 69.2005 314.252 69.6169 313.983 69.9838C313.719 70.3508 313.348 70.6401 312.872 70.8518C312.396 71.0635 311.842 71.1694 311.21 71.1694C310.381 71.1694 309.695 70.9894 309.151 70.6295C308.608 70.2696 308.264 69.7439 308.119 69.0523L309.305 68.756C309.418 69.1935 309.631 69.5216 309.945 69.7404C310.263 69.9591 310.677 70.0685 311.189 70.0685C311.771 70.0685 312.233 69.945 312.576 69.698C312.921 69.4475 313.094 69.1476 313.094 68.7983C313.094 68.516 312.995 68.2796 312.798 68.0891C312.6 67.895 312.297 67.7504 311.888 67.6551L310.533 67.3375C309.788 67.1611 309.241 66.8877 308.892 66.5172C308.546 66.1432 308.373 65.6757 308.373 65.1147C308.373 64.656 308.502 64.2502 308.76 63.8974C309.021 63.5445 309.375 63.2676 309.823 63.0665C310.275 62.8653 310.787 62.7648 311.358 62.7648C312.163 62.7648 312.794 62.9412 313.253 63.294C313.715 63.6469 314.043 64.1126 314.237 64.6913ZM319.801 62.8706V63.9291H315.588V62.8706H319.801ZM316.816 60.923H318.065V68.6713C318.065 69.0241 318.116 69.2887 318.219 69.4652C318.325 69.638 318.459 69.7545 318.621 69.8145C318.787 69.8709 318.961 69.8991 319.145 69.8991C319.283 69.8991 319.395 69.8921 319.484 69.878C319.572 69.8603 319.642 69.8462 319.695 69.8356L319.949 70.9577C319.865 70.9894 319.747 71.0212 319.595 71.0529C319.443 71.0882 319.251 71.1059 319.018 71.1059C318.665 71.1059 318.319 71.03 317.981 70.8783C317.645 70.7266 317.367 70.4954 317.144 70.1849C316.926 69.8744 316.816 69.4828 316.816 69.01V60.923ZM325.001 71.1694C324.218 71.1694 323.542 70.9965 322.974 70.6507C322.41 70.3014 321.974 69.8145 321.667 69.1899C321.363 68.5619 321.212 67.8315 321.212 66.9988C321.212 66.1661 321.363 65.4322 321.667 64.7971C321.974 64.1585 322.401 63.661 322.948 63.3046C323.498 62.9447 324.14 62.7648 324.874 62.7648C325.298 62.7648 325.716 62.8353 326.128 62.9765C326.541 63.1176 326.917 63.347 327.256 63.6645C327.595 63.9785 327.864 64.3949 328.066 64.9136C328.267 65.4322 328.367 66.0709 328.367 66.8295V67.3587H322.101V66.279H327.097C327.097 65.8203 327.005 65.4111 326.822 65.0512C326.642 64.6913 326.384 64.4072 326.049 64.1991C325.717 63.9909 325.326 63.8868 324.874 63.8868C324.377 63.8868 323.946 64.0103 323.583 64.2573C323.223 64.5007 322.946 64.8183 322.752 65.2099C322.558 65.6016 322.461 66.0215 322.461 66.4696V67.1894C322.461 67.8033 322.567 68.3237 322.778 68.7507C322.994 69.1741 323.292 69.4969 323.673 69.7192C324.054 69.938 324.497 70.0473 325.001 70.0473C325.329 70.0473 325.626 70.0015 325.89 69.9097C326.158 69.8145 326.39 69.6733 326.584 69.4863C326.778 69.2958 326.928 69.0594 327.034 68.7771L328.24 69.1158C328.113 69.5251 327.9 69.885 327.6 70.1955C327.3 70.5025 326.929 70.7424 326.488 70.9153C326.047 71.0847 325.552 71.1694 325.001 71.1694ZM330.267 71V62.8706H331.474V64.0985H331.559C331.707 63.6963 331.975 63.3699 332.363 63.1194C332.751 62.8689 333.189 62.7436 333.676 62.7436C333.767 62.7436 333.882 62.7454 334.02 62.7489C334.157 62.7524 334.261 62.7577 334.332 62.7648V64.035C334.29 64.0244 334.193 64.0085 334.041 63.9874C333.893 63.9627 333.736 63.9503 333.57 63.9503C333.175 63.9503 332.822 64.0332 332.511 64.1991C332.204 64.3614 331.961 64.5872 331.781 64.8765C331.605 65.1623 331.516 65.4887 331.516 65.8556V71H330.267ZM340.174 71V60.1608H343.836C344.686 60.1608 345.381 60.3143 345.921 60.6213C346.465 60.9247 346.867 61.3358 347.128 61.8545C347.389 62.3731 347.52 62.9518 347.52 63.5904C347.52 64.2291 347.389 64.8095 347.128 65.3317C346.87 65.8539 346.472 66.2702 345.932 66.5807C345.392 66.8877 344.701 67.0412 343.857 67.0412H341.232V65.8768H343.815C344.397 65.8768 344.865 65.7762 345.217 65.5751C345.57 65.374 345.826 65.1023 345.985 64.7601C346.147 64.4143 346.228 64.0244 346.228 63.5904C346.228 63.1564 346.147 62.7683 345.985 62.4261C345.826 62.0838 345.568 61.8156 345.212 61.6216C344.856 61.424 344.383 61.3252 343.794 61.3252H341.486V71H340.174ZM352.68 71.1694C351.946 71.1694 351.302 70.9947 350.748 70.6454C350.198 70.2961 349.767 69.8074 349.457 69.1794C349.15 68.5513 348.996 67.8174 348.996 66.9777C348.996 66.1308 349.15 65.3917 349.457 64.7601C349.767 64.1285 350.198 63.638 350.748 63.2887C351.302 62.9394 351.946 62.7648 352.68 62.7648C353.414 62.7648 354.056 62.9394 354.606 63.2887C355.16 63.638 355.591 64.1285 355.898 64.7601C356.208 65.3917 356.364 66.1308 356.364 66.9777C356.364 67.8174 356.208 68.5513 355.898 69.1794C355.591 69.8074 355.16 70.2961 354.606 70.6454C354.056 70.9947 353.414 71.1694 352.68 71.1694ZM352.68 70.0473C353.237 70.0473 353.696 69.9044 354.056 69.6186C354.416 69.3328 354.682 68.9571 354.855 68.4913C355.028 68.0256 355.115 67.521 355.115 66.9777C355.115 66.4343 355.028 65.928 354.855 65.4587C354.682 64.9894 354.416 64.6101 354.056 64.3208C353.696 64.0315 353.237 63.8868 352.68 63.8868C352.122 63.8868 351.664 64.0315 351.304 64.3208C350.944 64.6101 350.678 64.9894 350.505 65.4587C350.332 65.928 350.245 66.4343 350.245 66.9777C350.245 67.521 350.332 68.0256 350.505 68.4913C350.678 68.9571 350.944 69.3328 351.304 69.6186C351.664 69.9044 352.122 70.0473 352.68 70.0473ZM361.34 71.1694C360.662 71.1694 360.064 70.9982 359.546 70.656C359.027 70.3102 358.621 69.8233 358.328 69.1952C358.036 68.5637 357.889 67.8174 357.889 66.9565C357.889 66.1026 358.036 65.3617 358.328 64.7336C358.621 64.1056 359.029 63.6204 359.551 63.2782C360.073 62.9359 360.677 62.7648 361.361 62.7648C361.89 62.7648 362.308 62.853 362.615 63.0294C362.926 63.2023 363.162 63.3999 363.325 63.6222C363.49 63.8409 363.619 64.0209 363.711 64.162H363.817V60.1608H365.066V71H363.859V69.751H363.711C363.619 69.8991 363.489 70.0862 363.319 70.312C363.15 70.5343 362.908 70.7336 362.594 70.91C362.28 71.0829 361.862 71.1694 361.34 71.1694ZM361.509 70.0473C362.01 70.0473 362.434 69.9168 362.779 69.6557C363.125 69.3911 363.388 69.0259 363.568 68.5601C363.748 68.0909 363.838 67.5493 363.838 66.9353C363.838 66.3284 363.75 65.7974 363.573 65.3423C363.397 64.8836 363.136 64.5272 362.79 64.2732C362.444 64.0156 362.017 63.8868 361.509 63.8868C360.98 63.8868 360.539 64.0226 360.186 64.2943C359.837 64.5625 359.574 64.9277 359.398 65.3899C359.225 65.8486 359.138 66.3637 359.138 66.9353C359.138 67.514 359.226 68.0397 359.403 68.5125C359.583 68.9818 359.847 69.3558 360.197 69.6345C360.55 69.9097 360.987 70.0473 361.509 70.0473ZM371.888 71V60.1608H375.677C376.433 60.1608 377.055 60.2914 377.546 60.5525C378.036 60.8101 378.401 61.1576 378.641 61.5951C378.881 62.0291 379.001 62.5107 379.001 63.04C379.001 63.5057 378.918 63.8903 378.752 64.1938C378.59 64.4972 378.375 64.7371 378.107 64.9136C377.842 65.09 377.555 65.2205 377.244 65.3052V65.4111C377.576 65.4322 377.909 65.5487 378.244 65.7604C378.58 65.9721 378.86 66.2755 379.086 66.6707C379.312 67.0659 379.425 67.5493 379.425 68.1208C379.425 68.6642 379.301 69.1529 379.054 69.5869C378.807 70.0209 378.417 70.3649 377.884 70.6189C377.352 70.873 376.658 71 375.804 71H371.888ZM373.201 69.8356H375.804C376.662 69.8356 377.27 69.6698 377.63 69.3381C377.994 69.0029 378.176 68.5972 378.176 68.1208C378.176 67.7539 378.082 67.4152 377.895 67.1047C377.708 66.7907 377.442 66.5401 377.096 66.3531C376.75 66.1626 376.341 66.0673 375.868 66.0673H373.201V69.8356ZM373.201 64.9241H375.635C376.03 64.9241 376.387 64.8465 376.704 64.6913C377.025 64.536 377.279 64.3173 377.466 64.035C377.657 63.7527 377.752 63.4211 377.752 63.04C377.752 62.5637 377.586 62.1597 377.255 61.828C376.923 61.4928 376.397 61.3252 375.677 61.3252H373.201V64.9241Z" fill="white"/>
</g>
<defs>
<clipPath id="clip0_31154_46718">
<rect width="420" height="187" fill="white"/>
</clipPath>
</defs>
</svg>
