<svg width="420" height="187" viewBox="0 0 420 187" fill="none" xmlns="http://www.w3.org/2000/svg">
<g clip-path="url(#clip0_31154_46738)">
<mask id="path-1-inside-1_31154_46738" fill="white">
<path d="M161 134.991C161 129.387 165.543 124.844 171.148 124.844H409.852C415.457 124.844 420 129.387 420 134.991V176.696C420 182.3 415.457 186.844 409.852 186.844H171.148C165.543 186.844 161 182.3 161 176.696V134.991Z"/>
</mask>
<path d="M161 134.991C161 129.387 165.543 124.844 171.148 124.844H409.852C415.457 124.844 420 129.387 420 134.991V176.696C420 182.3 415.457 186.844 409.852 186.844H171.148C165.543 186.844 161 182.3 161 176.696V134.991Z" stroke="#9B9DA7" stroke-width="2.84264" stroke-dasharray="2.84 2.84" mask="url(#path-1-inside-1_31154_46738)"/>
<rect x="0.71066" y="125.554" width="140.579" height="60.5787" rx="9.43699" stroke="#9B9DA7" stroke-width="1.42132" stroke-dasharray="2.84 2.84"/>
<rect x="17.6872" y="143.098" width="107.384" height="31.8838" rx="4.97462" stroke="#808080" stroke-width="1.42132"/>
<path d="M30.5082 164.54L27.6817 154.203H28.9537L31.1139 162.622H31.2149L33.4155 154.203H34.8287L37.0293 162.622H37.1303L39.2905 154.203H40.5625L37.736 164.54H36.4439L34.1625 156.303H34.0817L31.8003 164.54H30.5082ZM44.3883 164.701C43.6884 164.701 43.0743 164.535 42.546 164.202C42.0211 163.869 41.6106 163.402 41.3145 162.804C41.0218 162.205 40.8754 161.505 40.8754 160.704C40.8754 159.896 41.0218 159.191 41.3145 158.589C41.6106 157.987 42.0211 157.519 42.546 157.186C43.0743 156.853 43.6884 156.686 44.3883 156.686C45.0882 156.686 45.7006 156.853 46.2255 157.186C46.7538 157.519 47.1643 157.987 47.4571 158.589C47.7532 159.191 47.9012 159.896 47.9012 160.704C47.9012 161.505 47.7532 162.205 47.4571 162.804C47.1643 163.402 46.7538 163.869 46.2255 164.202C45.7006 164.535 45.0882 164.701 44.3883 164.701ZM44.3883 163.631C44.92 163.631 45.3574 163.495 45.7006 163.222C46.0438 162.95 46.2979 162.592 46.4627 162.147C46.6276 161.703 46.7101 161.222 46.7101 160.704C46.7101 160.186 46.6276 159.703 46.4627 159.255C46.2979 158.808 46.0438 158.446 45.7006 158.17C45.3574 157.894 44.92 157.756 44.3883 157.756C43.8567 157.756 43.4192 157.894 43.076 158.17C42.7328 158.446 42.4787 158.808 42.3139 159.255C42.149 159.703 42.0665 160.186 42.0665 160.704C42.0665 161.222 42.149 161.703 42.3139 162.147C42.4787 162.592 42.7328 162.95 43.076 163.222C43.4192 163.495 43.8567 163.631 44.3883 163.631ZM49.7195 164.54V156.787H50.8703V157.958H50.9511C51.0924 157.575 51.3481 157.263 51.7182 157.024C52.0884 156.785 52.5056 156.666 52.97 156.666C53.0575 156.666 53.1668 156.668 53.298 156.671C53.4293 156.674 53.5285 156.679 53.5958 156.686V157.898C53.5555 157.887 53.4629 157.872 53.3182 157.852C53.1769 157.829 53.0272 157.817 52.869 157.817C52.4922 157.817 52.1557 157.896 51.8596 158.054C51.5668 158.209 51.3346 158.424 51.163 158.7C50.9948 158.973 50.9107 159.284 50.9107 159.634V164.54H49.7195ZM56.1182 161.713L56.098 160.239H56.3403L59.7321 156.787H61.2059L57.592 160.441H57.4911L56.1182 161.713ZM55.0078 164.54V154.203H56.199V164.54H55.0078ZM59.934 164.54L56.9056 160.704L57.7535 159.876L61.4482 164.54H59.934ZM65.6702 164.701C64.9232 164.701 64.2789 164.536 63.7371 164.207C63.1987 163.874 62.7832 163.409 62.4904 162.814C62.2011 162.215 62.0564 161.518 62.0564 160.724C62.0564 159.93 62.2011 159.23 62.4904 158.624C62.7832 158.015 63.1903 157.541 63.7119 157.201C64.2368 156.858 64.8492 156.686 65.5491 156.686C65.9529 156.686 66.3516 156.753 66.7453 156.888C67.139 157.023 67.4974 157.241 67.8204 157.544C68.1434 157.844 68.4008 158.241 68.5926 158.735C68.7844 159.23 68.8803 159.839 68.8803 160.563V161.067H62.9043V160.038H67.669C67.669 159.6 67.5815 159.21 67.4065 158.867C67.2349 158.523 66.9893 158.253 66.6696 158.054C66.3533 157.855 65.9798 157.756 65.5491 157.756C65.0747 157.756 64.6641 157.874 64.3176 158.11C63.9743 158.342 63.7102 158.645 63.5251 159.018C63.3401 159.392 63.2475 159.792 63.2475 160.219V160.906C63.2475 161.491 63.3485 161.988 63.5504 162.395C63.7556 162.798 64.04 163.106 64.4034 163.318C64.7668 163.527 65.1891 163.631 65.6702 163.631C65.9832 163.631 66.2658 163.588 66.5182 163.5C66.7739 163.409 66.9943 163.275 67.1794 163.096C67.3644 162.915 67.5075 162.689 67.6084 162.42L68.7592 162.743C68.638 163.133 68.4345 163.476 68.1485 163.773C67.8624 164.065 67.5091 164.294 67.0885 164.459C66.6679 164.621 66.1952 164.701 65.6702 164.701ZM70.6923 164.54V156.787H71.8431V157.958H71.9238C72.0652 157.575 72.3209 157.263 72.691 157.024C73.0612 156.785 73.4784 156.666 73.9428 156.666C74.0302 156.666 74.1396 156.668 74.2708 156.671C74.4021 156.674 74.5013 156.679 74.5686 156.686V157.898C74.5282 157.887 74.4357 157.872 74.291 157.852C74.1497 157.829 74 157.817 73.8418 157.817C73.465 157.817 73.1285 157.896 72.8324 158.054C72.5396 158.209 72.3074 158.424 72.1358 158.7C71.9676 158.973 71.8835 159.284 71.8835 159.634V164.54H70.6923ZM88.3364 154.203V164.54H87.125L81.4923 156.424H81.3913V164.54H80.1396V154.203H81.3509L87.0039 162.339H87.1049V154.203H88.3364ZM93.8291 164.701C93.1292 164.701 92.5151 164.535 91.9869 164.202C91.4619 163.869 91.0514 163.402 90.7553 162.804C90.4626 162.205 90.3162 161.505 90.3162 160.704C90.3162 159.896 90.4626 159.191 90.7553 158.589C91.0514 157.987 91.4619 157.519 91.9869 157.186C92.5151 156.853 93.1292 156.686 93.8291 156.686C94.529 156.686 95.1414 156.853 95.6663 157.186C96.1946 157.519 96.6051 157.987 96.8979 158.589C97.194 159.191 97.342 159.896 97.342 160.704C97.342 161.505 97.194 162.205 96.8979 162.804C96.6051 163.402 96.1946 163.869 95.6663 164.202C95.1414 164.535 94.529 164.701 93.8291 164.701ZM93.8291 163.631C94.3608 163.631 94.7982 163.495 95.1414 163.222C95.4846 162.95 95.7387 162.592 95.9036 162.147C96.0684 161.703 96.1509 161.222 96.1509 160.704C96.1509 160.186 96.0684 159.703 95.9036 159.255C95.7387 158.808 95.4846 158.446 95.1414 158.17C94.7982 157.894 94.3608 157.756 93.8291 157.756C93.2975 157.756 92.86 157.894 92.5168 158.17C92.1736 158.446 91.9196 158.808 91.7547 159.255C91.5898 159.703 91.5074 160.186 91.5074 160.704C91.5074 161.222 91.5898 161.703 91.7547 162.147C91.9196 162.592 92.1736 162.95 92.5168 163.222C92.86 163.495 93.2975 163.631 93.8291 163.631ZM102.088 164.701C101.442 164.701 100.871 164.538 100.377 164.212C99.8821 163.882 99.4951 163.418 99.2158 162.819C98.9366 162.216 98.7969 161.505 98.7969 160.684C98.7969 159.869 98.9366 159.163 99.2158 158.564C99.4951 157.965 99.8838 157.502 100.382 157.176C100.88 156.849 101.455 156.686 102.108 156.686C102.613 156.686 103.011 156.77 103.304 156.939C103.6 157.103 103.826 157.292 103.98 157.504C104.139 157.712 104.261 157.884 104.349 158.019H104.45V154.203H105.641V164.54H104.49V163.349H104.349C104.261 163.49 104.137 163.668 103.975 163.884C103.814 164.096 103.583 164.286 103.284 164.454C102.984 164.619 102.586 164.701 102.088 164.701ZM102.249 163.631C102.727 163.631 103.131 163.507 103.461 163.258C103.79 163.005 104.041 162.657 104.213 162.213C104.384 161.765 104.47 161.249 104.47 160.663C104.47 160.085 104.386 159.578 104.218 159.144C104.049 158.707 103.8 158.367 103.471 158.125C103.141 157.879 102.734 157.756 102.249 157.756C101.745 157.756 101.324 157.886 100.987 158.145C100.654 158.401 100.404 158.749 100.235 159.19C100.071 159.627 99.9881 160.118 99.9881 160.663C99.9881 161.215 100.072 161.717 100.24 162.168C100.412 162.615 100.664 162.972 100.998 163.238C101.334 163.5 101.751 163.631 102.249 163.631ZM111.239 164.701C110.492 164.701 109.847 164.536 109.305 164.207C108.767 163.874 108.351 163.409 108.059 162.814C107.769 162.215 107.625 161.518 107.625 160.724C107.625 159.93 107.769 159.23 108.059 158.624C108.351 158.015 108.759 157.541 109.28 157.201C109.805 156.858 110.417 156.686 111.117 156.686C111.521 156.686 111.92 156.753 112.314 156.888C112.707 157.023 113.066 157.241 113.389 157.544C113.712 157.844 113.969 158.241 114.161 158.735C114.353 159.23 114.449 159.839 114.449 160.563V161.067H108.473V160.038H113.237C113.237 159.6 113.15 159.21 112.975 158.867C112.803 158.523 112.558 158.253 112.238 158.054C111.922 157.855 111.548 157.756 111.117 157.756C110.643 157.756 110.232 157.874 109.886 158.11C109.543 158.342 109.278 158.645 109.093 159.018C108.908 159.392 108.816 159.792 108.816 160.219V160.906C108.816 161.491 108.917 161.988 109.119 162.395C109.324 162.798 109.608 163.106 109.972 163.318C110.335 163.527 110.757 163.631 111.239 163.631C111.551 163.631 111.834 163.588 112.086 163.5C112.342 163.409 112.563 163.275 112.748 163.096C112.933 162.915 113.076 162.689 113.177 162.42L114.327 162.743C114.206 163.133 114.003 163.476 113.717 163.773C113.431 164.065 113.077 164.294 112.657 164.459C112.236 164.621 111.763 164.701 111.239 164.701Z" fill="#808080"/>
<rect x="177.797" y="143.751" width="105.693" height="31.8838" rx="4.97462" stroke="#808080" stroke-width="1.42132"/>
<path d="M189.774 165.193L186.947 154.856H188.219L190.38 163.275H190.48L192.681 154.856H194.094L196.295 163.275H196.396L198.556 154.856H199.828L197.002 165.193H195.709L193.428 156.955H193.347L191.066 165.193H189.774ZM203.654 165.354C202.954 165.354 202.34 165.188 201.812 164.854C201.287 164.521 200.876 164.055 200.58 163.456C200.287 162.857 200.141 162.158 200.141 161.357C200.141 160.549 200.287 159.844 200.58 159.242C200.876 158.64 201.287 158.172 201.812 157.839C202.34 157.506 202.954 157.339 203.654 157.339C204.354 157.339 204.966 157.506 205.491 157.839C206.019 158.172 206.43 158.64 206.723 159.242C207.019 159.844 207.167 160.549 207.167 161.357C207.167 162.158 207.019 162.857 206.723 163.456C206.43 164.055 206.019 164.521 205.491 164.854C204.966 165.188 204.354 165.354 203.654 165.354ZM203.654 164.284C204.186 164.284 204.623 164.148 204.966 163.875C205.309 163.603 205.563 163.244 205.728 162.8C205.893 162.356 205.976 161.875 205.976 161.357C205.976 160.838 205.893 160.356 205.728 159.908C205.563 159.461 205.309 159.099 204.966 158.823C204.623 158.547 204.186 158.409 203.654 158.409C203.122 158.409 202.685 158.547 202.342 158.823C201.998 159.099 201.744 159.461 201.579 159.908C201.415 160.356 201.332 160.838 201.332 161.357C201.332 161.875 201.415 162.356 201.579 162.8C201.744 163.244 201.998 163.603 202.342 163.875C202.685 164.148 203.122 164.284 203.654 164.284ZM208.985 165.193V157.44H210.136V158.611H210.217C210.358 158.227 210.614 157.916 210.984 157.677C211.354 157.438 211.771 157.319 212.236 157.319C212.323 157.319 212.432 157.321 212.564 157.324C212.695 157.327 212.794 157.332 212.861 157.339V158.55C212.821 158.54 212.729 158.525 212.584 158.505C212.443 158.481 212.293 158.47 212.135 158.47C211.758 158.47 211.421 158.549 211.125 158.707C210.832 158.862 210.6 159.077 210.429 159.353C210.26 159.625 210.176 159.937 210.176 160.287V165.193H208.985ZM215.384 162.366L215.364 160.892H215.606L218.998 157.44H220.472L216.858 161.094H216.757L215.384 162.366ZM214.273 165.193V154.856H215.465V165.193H214.273ZM219.2 165.193L216.171 161.357L217.019 160.529L220.714 165.193H219.2ZM224.936 165.354C224.189 165.354 223.544 165.189 223.003 164.86C222.464 164.526 222.049 164.062 221.756 163.466C221.467 162.868 221.322 162.171 221.322 161.377C221.322 160.583 221.467 159.883 221.756 159.277C222.049 158.668 222.456 158.194 222.978 157.854C223.502 157.511 224.115 157.339 224.815 157.339C225.219 157.339 225.617 157.406 226.011 157.541C226.405 157.676 226.763 157.894 227.086 158.197C227.409 158.497 227.666 158.894 227.858 159.388C228.05 159.883 228.146 160.492 228.146 161.215V161.72H222.17V160.69H226.935C226.935 160.253 226.847 159.863 226.672 159.519C226.501 159.176 226.255 158.905 225.935 158.707C225.619 158.508 225.245 158.409 224.815 158.409C224.34 158.409 223.93 158.527 223.583 158.762C223.24 158.995 222.976 159.297 222.791 159.671C222.606 160.044 222.513 160.445 222.513 160.872V161.559C222.513 162.144 222.614 162.64 222.816 163.048C223.021 163.451 223.306 163.759 223.669 163.971C224.032 164.18 224.455 164.284 224.936 164.284C225.249 164.284 225.531 164.24 225.784 164.153C226.04 164.062 226.26 163.927 226.445 163.749C226.63 163.567 226.773 163.342 226.874 163.073L228.025 163.396C227.904 163.786 227.7 164.129 227.414 164.425C227.128 164.718 226.775 164.947 226.354 165.112C225.934 165.273 225.461 165.354 224.936 165.354ZM229.958 165.193V157.44H231.109V158.611H231.189C231.331 158.227 231.587 157.916 231.957 157.677C232.327 157.438 232.744 157.319 233.208 157.319C233.296 157.319 233.405 157.321 233.536 157.324C233.668 157.327 233.767 157.332 233.834 157.339V158.55C233.794 158.54 233.701 158.525 233.557 158.505C233.415 158.481 233.266 158.47 233.107 158.47C232.731 158.47 232.394 158.549 232.098 158.707C231.805 158.862 231.573 159.077 231.401 159.353C231.233 159.625 231.149 159.937 231.149 160.287V165.193H229.958ZM247.602 154.856V165.193H246.391L240.758 157.077H240.657V165.193H239.405V154.856H240.617L246.27 162.992H246.37V154.856H247.602ZM253.095 165.354C252.395 165.354 251.781 165.188 251.252 164.854C250.728 164.521 250.317 164.055 250.021 163.456C249.728 162.857 249.582 162.158 249.582 161.357C249.582 160.549 249.728 159.844 250.021 159.242C250.317 158.64 250.728 158.172 251.252 157.839C251.781 157.506 252.395 157.339 253.095 157.339C253.795 157.339 254.407 157.506 254.932 157.839C255.46 158.172 255.871 158.64 256.163 159.242C256.46 159.844 256.608 160.549 256.608 161.357C256.608 162.158 256.46 162.857 256.163 163.456C255.871 164.055 255.46 164.521 254.932 164.854C254.407 165.188 253.795 165.354 253.095 165.354ZM253.095 164.284C253.626 164.284 254.064 164.148 254.407 163.875C254.75 163.603 255.004 163.244 255.169 162.8C255.334 162.356 255.416 161.875 255.416 161.357C255.416 160.838 255.334 160.356 255.169 159.908C255.004 159.461 254.75 159.099 254.407 158.823C254.064 158.547 253.626 158.409 253.095 158.409C252.563 158.409 252.126 158.547 251.782 158.823C251.439 159.099 251.185 159.461 251.02 159.908C250.855 160.356 250.773 160.838 250.773 161.357C250.773 161.875 250.855 162.356 251.02 162.8C251.185 163.244 251.439 163.603 251.782 163.875C252.126 164.148 252.563 164.284 253.095 164.284ZM261.353 165.354C260.707 165.354 260.137 165.191 259.642 164.865C259.148 164.535 258.761 164.07 258.481 163.471C258.202 162.869 258.063 162.158 258.063 161.336C258.063 160.522 258.202 159.816 258.481 159.217C258.761 158.618 259.149 158.155 259.647 157.829C260.145 157.502 260.721 157.339 261.374 157.339C261.878 157.339 262.277 157.423 262.57 157.591C262.866 157.756 263.091 157.945 263.246 158.157C263.404 158.365 263.527 158.537 263.615 158.672H263.716V154.856H264.907V165.193H263.756V164.001H263.615C263.527 164.143 263.403 164.321 263.241 164.536C263.08 164.748 262.849 164.939 262.55 165.107C262.25 165.272 261.851 165.354 261.353 165.354ZM261.515 164.284C261.993 164.284 262.396 164.16 262.726 163.911C263.056 163.658 263.307 163.31 263.478 162.866C263.65 162.418 263.736 161.902 263.736 161.316C263.736 160.738 263.652 160.231 263.483 159.797C263.315 159.36 263.066 159.02 262.736 158.778C262.407 158.532 261.999 158.409 261.515 158.409C261.01 158.409 260.59 158.539 260.253 158.798C259.92 159.053 259.669 159.402 259.501 159.842C259.336 160.28 259.254 160.771 259.254 161.316C259.254 161.868 259.338 162.37 259.506 162.82C259.678 163.268 259.93 163.625 260.263 163.89C260.6 164.153 261.017 164.284 261.515 164.284ZM270.504 165.354C269.757 165.354 269.113 165.189 268.571 164.86C268.033 164.526 267.617 164.062 267.324 163.466C267.035 162.868 266.89 162.171 266.89 161.377C266.89 160.583 267.035 159.883 267.324 159.277C267.617 158.668 268.024 158.194 268.546 157.854C269.071 157.511 269.683 157.339 270.383 157.339C270.787 157.339 271.186 157.406 271.579 157.541C271.973 157.676 272.331 157.894 272.654 158.197C272.977 158.497 273.235 158.894 273.427 159.388C273.618 159.883 273.714 160.492 273.714 161.215V161.72H267.738V160.69H272.503C272.503 160.253 272.415 159.863 272.24 159.519C272.069 159.176 271.823 158.905 271.504 158.707C271.187 158.508 270.814 158.409 270.383 158.409C269.909 158.409 269.498 158.527 269.151 158.762C268.808 158.995 268.544 159.297 268.359 159.671C268.174 160.044 268.081 160.445 268.081 160.872V161.559C268.081 162.144 268.182 162.64 268.384 163.048C268.59 163.451 268.874 163.759 269.237 163.971C269.601 164.18 270.023 164.284 270.504 164.284C270.817 164.284 271.1 164.24 271.352 164.153C271.608 164.062 271.828 163.927 272.013 163.749C272.198 163.567 272.341 163.342 272.442 163.073L273.593 163.396C273.472 163.786 273.268 164.129 272.982 164.425C272.696 164.718 272.343 164.947 271.922 165.112C271.502 165.273 271.029 165.354 270.504 165.354Z" fill="#808080"/>
<rect x="298.441" y="143.751" width="105.693" height="31.8838" rx="4.97462" stroke="#808080" stroke-width="1.42132"/>
<path d="M310.418 165.193L307.592 154.856H308.864L311.024 163.275H311.125L313.326 154.856H314.739L316.939 163.275H317.04L319.201 154.856H320.473L317.646 165.193H316.354L314.073 156.955H313.992L311.71 165.193H310.418ZM324.298 165.354C323.599 165.354 322.984 165.188 322.456 164.854C321.931 164.521 321.521 164.055 321.225 163.456C320.932 162.857 320.786 162.158 320.786 161.357C320.786 160.549 320.932 159.844 321.225 159.242C321.521 158.64 321.931 158.172 322.456 157.839C322.984 157.506 323.599 157.339 324.298 157.339C324.998 157.339 325.611 157.506 326.136 157.839C326.664 158.172 327.074 158.64 327.367 159.242C327.663 159.844 327.811 160.549 327.811 161.357C327.811 162.158 327.663 162.857 327.367 163.456C327.074 164.055 326.664 164.521 326.136 164.854C325.611 165.188 324.998 165.354 324.298 165.354ZM324.298 164.284C324.83 164.284 325.268 164.148 325.611 163.875C325.954 163.603 326.208 163.244 326.373 162.8C326.538 162.356 326.62 161.875 326.62 161.357C326.62 160.838 326.538 160.356 326.373 159.908C326.208 159.461 325.954 159.099 325.611 158.823C325.268 158.547 324.83 158.409 324.298 158.409C323.767 158.409 323.329 158.547 322.986 158.823C322.643 159.099 322.389 159.461 322.224 159.908C322.059 160.356 321.977 160.838 321.977 161.357C321.977 161.875 322.059 162.356 322.224 162.8C322.389 163.244 322.643 163.603 322.986 163.875C323.329 164.148 323.767 164.284 324.298 164.284ZM329.63 165.193V157.44H330.78V158.611H330.861C331.003 158.227 331.258 157.916 331.628 157.677C331.999 157.438 332.416 157.319 332.88 157.319C332.968 157.319 333.077 157.321 333.208 157.324C333.339 157.327 333.439 157.332 333.506 157.339V158.55C333.466 158.54 333.373 158.525 333.228 158.505C333.087 158.481 332.937 158.47 332.779 158.47C332.402 158.47 332.066 158.549 331.77 158.707C331.477 158.862 331.245 159.077 331.073 159.353C330.905 159.625 330.821 159.937 330.821 160.287V165.193H329.63ZM336.028 162.366L336.008 160.892H336.25L339.642 157.44H341.116L337.502 161.094H337.401L336.028 162.366ZM334.918 165.193V154.856H336.109V165.193H334.918ZM339.844 165.193L336.816 161.357L337.664 160.529L341.358 165.193H339.844ZM345.58 165.354C344.833 165.354 344.189 165.189 343.647 164.86C343.109 164.526 342.693 164.062 342.401 163.466C342.111 162.868 341.967 162.171 341.967 161.377C341.967 160.583 342.111 159.883 342.401 159.277C342.693 158.668 343.1 158.194 343.622 157.854C344.147 157.511 344.759 157.339 345.459 157.339C345.863 157.339 346.262 157.406 346.655 157.541C347.049 157.676 347.408 157.894 347.731 158.197C348.054 158.497 348.311 158.894 348.503 159.388C348.695 159.883 348.79 160.492 348.79 161.215V161.72H342.814V160.69H347.579C347.579 160.253 347.492 159.863 347.317 159.519C347.145 159.176 346.899 158.905 346.58 158.707C346.263 158.508 345.89 158.409 345.459 158.409C344.985 158.409 344.574 158.527 344.228 158.762C343.885 158.995 343.62 159.297 343.435 159.671C343.25 160.044 343.158 160.445 343.158 160.872V161.559C343.158 162.144 343.259 162.64 343.461 163.048C343.666 163.451 343.95 163.759 344.314 163.971C344.677 164.18 345.099 164.284 345.58 164.284C345.893 164.284 346.176 164.24 346.428 164.153C346.684 164.062 346.904 163.927 347.09 163.749C347.275 163.567 347.418 163.342 347.519 163.073L348.669 163.396C348.548 163.786 348.345 164.129 348.059 164.425C347.773 164.718 347.419 164.947 346.999 165.112C346.578 165.273 346.105 165.354 345.58 165.354ZM350.602 165.193V157.44H351.753V158.611H351.834C351.975 158.227 352.231 157.916 352.601 157.677C352.971 157.438 353.389 157.319 353.853 157.319C353.94 157.319 354.05 157.321 354.181 157.324C354.312 157.327 354.411 157.332 354.479 157.339V158.55C354.438 158.54 354.346 158.525 354.201 158.505C354.06 158.481 353.91 158.47 353.752 158.47C353.375 158.47 353.039 158.549 352.743 158.707C352.45 158.862 352.218 159.077 352.046 159.353C351.878 159.625 351.794 159.937 351.794 160.287V165.193H350.602ZM368.247 154.856V165.193H367.035L361.402 157.077H361.301V165.193H360.05V154.856H361.261L366.914 162.992H367.015V154.856H368.247ZM373.739 165.354C373.039 165.354 372.425 165.188 371.897 164.854C371.372 164.521 370.962 164.055 370.665 163.456C370.373 162.857 370.226 162.158 370.226 161.357C370.226 160.549 370.373 159.844 370.665 159.242C370.962 158.64 371.372 158.172 371.897 157.839C372.425 157.506 373.039 157.339 373.739 157.339C374.439 157.339 375.052 157.506 375.576 157.839C376.105 158.172 376.515 158.64 376.808 159.242C377.104 159.844 377.252 160.549 377.252 161.357C377.252 162.158 377.104 162.857 376.808 163.456C376.515 164.055 376.105 164.521 375.576 164.854C375.052 165.188 374.439 165.354 373.739 165.354ZM373.739 164.284C374.271 164.284 374.708 164.148 375.052 163.875C375.395 163.603 375.649 163.244 375.814 162.8C375.979 162.356 376.061 161.875 376.061 161.357C376.061 160.838 375.979 160.356 375.814 159.908C375.649 159.461 375.395 159.099 375.052 158.823C374.708 158.547 374.271 158.409 373.739 158.409C373.208 158.409 372.77 158.547 372.427 158.823C372.084 159.099 371.83 159.461 371.665 159.908C371.5 160.356 371.418 160.838 371.418 161.357C371.418 161.875 371.5 162.356 371.665 162.8C371.83 163.244 372.084 163.603 372.427 163.875C372.77 164.148 373.208 164.284 373.739 164.284ZM381.998 165.354C381.352 165.354 380.782 165.191 380.287 164.865C379.792 164.535 379.405 164.07 379.126 163.471C378.847 162.869 378.707 162.158 378.707 161.336C378.707 160.522 378.847 159.816 379.126 159.217C379.405 158.618 379.794 158.155 380.292 157.829C380.79 157.502 381.365 157.339 382.018 157.339C382.523 157.339 382.922 157.423 383.214 157.591C383.51 157.756 383.736 157.945 383.891 158.157C384.049 158.365 384.172 158.537 384.259 158.672H384.36V154.856H385.551V165.193H384.4V164.001H384.259C384.172 164.143 384.047 164.321 383.886 164.536C383.724 164.748 383.494 164.939 383.194 165.107C382.895 165.272 382.496 165.354 381.998 165.354ZM382.159 164.284C382.637 164.284 383.041 164.16 383.371 163.911C383.701 163.658 383.951 163.31 384.123 162.866C384.294 162.418 384.38 161.902 384.38 161.316C384.38 160.738 384.296 160.231 384.128 159.797C383.96 159.36 383.711 159.02 383.381 158.778C383.051 158.532 382.644 158.409 382.159 158.409C381.655 158.409 381.234 158.539 380.898 158.798C380.564 159.053 380.314 159.402 380.146 159.842C379.981 160.28 379.898 160.771 379.898 161.316C379.898 161.868 379.982 162.37 380.151 162.82C380.322 163.268 380.575 163.625 380.908 163.89C381.244 164.153 381.661 164.284 382.159 164.284ZM391.149 165.354C390.402 165.354 389.757 165.189 389.216 164.86C388.677 164.526 388.262 164.062 387.969 163.466C387.679 162.868 387.535 162.171 387.535 161.377C387.535 160.583 387.679 159.883 387.969 159.277C388.262 158.668 388.669 158.194 389.19 157.854C389.715 157.511 390.328 157.339 391.028 157.339C391.431 157.339 391.83 157.406 392.224 157.541C392.617 157.676 392.976 157.894 393.299 158.197C393.622 158.497 393.879 158.894 394.071 159.388C394.263 159.883 394.359 160.492 394.359 161.215V161.72H388.383V160.69H393.147C393.147 160.253 393.06 159.863 392.885 159.519C392.713 159.176 392.468 158.905 392.148 158.707C391.832 158.508 391.458 158.409 391.028 158.409C390.553 158.409 390.143 158.527 389.796 158.762C389.453 158.995 389.189 159.297 389.004 159.671C388.818 160.044 388.726 160.445 388.726 160.872V161.559C388.726 162.144 388.827 162.64 389.029 163.048C389.234 163.451 389.518 163.759 389.882 163.971C390.245 164.18 390.667 164.284 391.149 164.284C391.462 164.284 391.744 164.24 391.997 164.153C392.252 164.062 392.473 163.927 392.658 163.749C392.843 163.567 392.986 163.342 393.087 163.073L394.238 163.396C394.116 163.786 393.913 164.129 393.627 164.425C393.341 164.718 392.988 164.947 392.567 165.112C392.146 165.273 391.674 165.354 391.149 165.354Z" fill="#808080"/>
<rect x="9.70971" y="2.5747" width="191.581" height="97.5806" rx="9.42434" fill="white" stroke="#326CE3" stroke-width="1.41941"/>
<rect x="0.709707" y="11.7097" width="191.581" height="98.5806" rx="9.42434" fill="white" stroke="#326CE3" stroke-width="1.41941"/>
<rect x="226.71" y="2.5747" width="192.581" height="97.5806" rx="9.42434" fill="white" stroke="#326CE3" stroke-width="1.41941"/>
<rect x="218.71" y="11.7097" width="192.581" height="98.5806" rx="9.42434" fill="white" stroke="#326CE3" stroke-width="1.41941"/>
<path d="M34.1044 29.3204H32.8543C32.7804 28.9609 32.651 28.645 32.4662 28.3728C32.2847 28.1006 32.0629 27.8721 31.8008 27.6873C31.5421 27.4991 31.2548 27.358 30.9389 27.2639C30.623 27.1698 30.2937 27.1227 29.951 27.1227C29.3259 27.1227 28.7597 27.2807 28.2523 27.5965C27.7482 27.9124 27.3467 28.3778 27.0476 28.9928C26.7519 29.6077 26.604 30.3621 26.604 31.256C26.604 32.1498 26.7519 32.9042 27.0476 33.5192C27.3467 34.1341 27.7482 34.5995 28.2523 34.9154C28.7597 35.2313 29.3259 35.3892 29.951 35.3892C30.2937 35.3892 30.623 35.3422 30.9389 35.2481C31.2548 35.154 31.5421 35.0145 31.8008 34.8297C32.0629 34.6415 32.2847 34.4113 32.4662 34.1392C32.651 33.8636 32.7804 33.5477 32.8543 33.1915H34.1044C34.0103 33.7191 33.8389 34.1912 33.5902 34.6079C33.3416 35.0246 33.0324 35.3791 32.6628 35.6715C32.2931 35.9605 31.8781 36.1806 31.4178 36.3318C30.9607 36.483 30.4718 36.5586 29.951 36.5586C29.0705 36.5586 28.2876 36.3436 27.6021 35.9134C26.9166 35.4833 26.3772 34.8717 25.9841 34.0787C25.5909 33.2856 25.3943 32.3447 25.3943 31.256C25.3943 30.1672 25.5909 29.2263 25.9841 28.4333C26.3772 27.6402 26.9166 27.0286 27.6021 26.5985C28.2876 26.1684 29.0705 25.9533 29.951 25.9533C30.4718 25.9533 30.9607 26.0289 31.4178 26.1802C31.8781 26.3314 32.2931 26.5532 32.6628 26.8455C33.0324 27.1345 33.3416 27.4873 33.5902 27.904C33.8389 28.3173 34.0103 28.7895 34.1044 29.3204ZM39.1083 36.5788C38.4094 36.5788 37.7961 36.4124 37.2686 36.0798C36.7443 35.7471 36.3344 35.2817 36.0387 34.6835C35.7463 34.0854 35.6001 33.3864 35.6001 32.5867C35.6001 31.7802 35.7463 31.0762 36.0387 30.4747C36.3344 29.8732 36.7443 29.4061 37.2686 29.0734C37.7961 28.7407 38.4094 28.5744 39.1083 28.5744C39.8073 28.5744 40.4189 28.7407 40.9431 29.0734C41.4707 29.4061 41.8806 29.8732 42.173 30.4747C42.4687 31.0762 42.6166 31.7802 42.6166 32.5867C42.6166 33.3864 42.4687 34.0854 42.173 34.6835C41.8806 35.2817 41.4707 35.7471 40.9431 36.0798C40.4189 36.4124 39.8073 36.5788 39.1083 36.5788ZM39.1083 35.5102C39.6393 35.5102 40.0761 35.3741 40.4189 35.1019C40.7616 34.8297 41.0153 34.4718 41.18 34.0283C41.3447 33.5847 41.427 33.1042 41.427 32.5867C41.427 32.0692 41.3447 31.587 41.18 31.14C41.0153 30.6931 40.7616 30.3319 40.4189 30.0563C40.0761 29.7808 39.6393 29.643 39.1083 29.643C38.5774 29.643 38.1406 29.7808 37.7978 30.0563C37.4551 30.3319 37.2013 30.6931 37.0367 31.14C36.872 31.587 36.7897 32.0692 36.7897 32.5867C36.7897 33.1042 36.872 33.5847 37.0367 34.0283C37.2013 34.4718 37.4551 34.8297 37.7978 35.1019C38.1406 35.3741 38.5774 35.5102 39.1083 35.5102ZM45.622 31.76V36.4175H44.4324V28.6752H45.5817V29.8849H45.6825C45.8639 29.4918 46.1395 29.1759 46.5091 28.9373C46.8787 28.6954 47.3559 28.5744 47.9406 28.5744C48.4648 28.5744 48.9235 28.6819 49.3167 28.897C49.7098 29.1087 50.0156 29.4313 50.2341 29.8648C50.4525 30.2949 50.5617 30.8393 50.5617 31.4979V36.4175H49.3721V31.5786C49.3721 30.9703 49.2142 30.4965 48.8983 30.1571C48.5824 29.8144 48.149 29.643 47.5979 29.643C47.2181 29.643 46.8787 29.7253 46.5797 29.89C46.284 30.0546 46.0504 30.2949 45.879 30.6108C45.7077 30.9267 45.622 31.3097 45.622 31.76ZM56.1025 28.6752V29.6833H52.0902V28.6752H56.1025ZM53.2596 26.8203H54.4492V34.1996C54.4492 34.5357 54.4979 34.7877 54.5954 34.9557C54.6962 35.1204 54.8239 35.2313 54.9785 35.2884C55.1364 35.3422 55.3027 35.369 55.4775 35.369C55.6085 35.369 55.7161 35.3623 55.8001 35.3489C55.8841 35.3321 55.9513 35.3186 56.0017 35.3086L56.2436 36.3772C56.163 36.4074 56.0504 36.4376 55.9059 36.4679C55.7614 36.5015 55.5783 36.5183 55.3565 36.5183C55.0205 36.5183 54.6912 36.446 54.3686 36.3015C54.0493 36.1571 53.7839 35.9369 53.5722 35.6412C53.3638 35.3455 53.2596 34.9725 53.2596 34.5222V26.8203ZM57.8919 36.4175V28.6752H59.0411V29.8446H59.1218C59.2629 29.4615 59.5183 29.1507 59.8879 28.9121C60.2576 28.6735 60.6743 28.5542 61.138 28.5542C61.2254 28.5542 61.3346 28.5559 61.4656 28.5593C61.5967 28.5626 61.6958 28.5677 61.763 28.5744V29.7841C61.7227 29.7741 61.6303 29.7589 61.4858 29.7388C61.3447 29.7153 61.1951 29.7035 61.0372 29.7035C60.6608 29.7035 60.3248 29.7825 60.0291 29.9404C59.7367 30.095 59.5049 30.31 59.3335 30.5856C59.1655 30.8578 59.0815 31.1686 59.0815 31.5181V36.4175H57.8919ZM66.0828 36.5788C65.3838 36.5788 64.7705 36.4124 64.243 36.0798C63.7188 35.7471 63.3088 35.2817 63.0131 34.6835C62.7207 34.0854 62.5745 33.3864 62.5745 32.5867C62.5745 31.7802 62.7207 31.0762 63.0131 30.4747C63.3088 29.8732 63.7188 29.4061 64.243 29.0734C64.7705 28.7407 65.3838 28.5744 66.0828 28.5744C66.7817 28.5744 67.3933 28.7407 67.9175 29.0734C68.4451 29.4061 68.8551 29.8732 69.1474 30.4747C69.4431 31.0762 69.591 31.7802 69.591 32.5867C69.591 33.3864 69.4431 34.0854 69.1474 34.6835C68.8551 35.2817 68.4451 35.7471 67.9175 36.0798C67.3933 36.4124 66.7817 36.5788 66.0828 36.5788ZM66.0828 35.5102C66.6137 35.5102 67.0505 35.3741 67.3933 35.1019C67.7361 34.8297 67.9898 34.4718 68.1544 34.0283C68.3191 33.5847 68.4014 33.1042 68.4014 32.5867C68.4014 32.0692 68.3191 31.587 68.1544 31.14C67.9898 30.6931 67.7361 30.3319 67.3933 30.0563C67.0505 29.7808 66.6137 29.643 66.0828 29.643C65.5518 29.643 65.115 29.7808 64.7722 30.0563C64.4295 30.3319 64.1758 30.6931 64.0111 31.14C63.8464 31.587 63.7641 32.0692 63.7641 32.5867C63.7641 33.1042 63.8464 33.5847 64.0111 34.0283C64.1758 34.4718 64.4295 34.8297 64.7722 35.1019C65.115 35.3741 65.5518 35.5102 66.0828 35.5102ZM72.5964 26.0945V36.4175H71.4068V26.0945H72.5964ZM78.9286 36.4175V26.0945H82.4166C83.2265 26.0945 83.8884 26.2406 84.4026 26.533C84.9201 26.822 85.3032 27.2135 85.5518 27.7074C85.8005 28.2014 85.9248 28.7525 85.9248 29.3607C85.9248 29.969 85.8005 30.5217 85.5518 31.0191C85.3065 31.5164 84.9268 31.9129 84.4127 32.2086C83.8985 32.501 83.2399 32.6472 82.4368 32.6472H79.9367V31.5382H82.3964C82.9509 31.5382 83.3961 31.4425 83.7322 31.2509C84.0682 31.0594 84.3118 30.8006 84.4631 30.4747C84.6176 30.1454 84.6949 29.7741 84.6949 29.3607C84.6949 28.9474 84.6176 28.5778 84.4631 28.2518C84.3118 27.9259 84.0665 27.6705 83.7271 27.4857C83.3877 27.2975 82.9375 27.2034 82.3763 27.2034H80.1786V36.4175H78.9286ZM88.9668 26.0945V36.4175H87.7772V26.0945H88.9668ZM93.4239 36.5989C92.9333 36.5989 92.488 36.5065 92.0881 36.3217C91.6882 36.1335 91.3707 35.863 91.1355 35.5102C90.9002 35.154 90.7826 34.7239 90.7826 34.2198C90.7826 33.7762 90.87 33.4167 91.0447 33.1411C91.2195 32.8622 91.453 32.6438 91.7454 32.4859C92.0377 32.3279 92.3603 32.2103 92.7132 32.133C93.0694 32.0524 93.4272 31.9885 93.7868 31.9415C94.2572 31.881 94.6386 31.8356 94.931 31.8054C95.2267 31.7718 95.4418 31.7163 95.5762 31.6391C95.714 31.5618 95.7828 31.4274 95.7828 31.2358V31.1955C95.7828 30.6982 95.6467 30.3117 95.3746 30.0362C95.1057 29.7606 94.6974 29.6228 94.1497 29.6228C93.5818 29.6228 93.1366 29.7472 92.814 29.9958C92.4914 30.2445 92.2645 30.51 92.1335 30.7922L91.0044 30.389C91.206 29.9186 91.4749 29.5523 91.8109 29.2902C92.1503 29.0247 92.5199 28.8399 92.9198 28.7357C93.3231 28.6282 93.7196 28.5744 94.1094 28.5744C94.358 28.5744 94.6437 28.6047 94.9663 28.6651C95.2922 28.7223 95.6064 28.8416 95.9089 29.023C96.2146 29.2045 96.4684 29.4783 96.67 29.8446C96.8716 30.2109 96.9724 30.7015 96.9724 31.3165V36.4175H95.7828V35.369H95.7224C95.6417 35.5371 95.5073 35.7168 95.3191 35.9084C95.1309 36.0999 94.8806 36.2629 94.5681 36.3973C94.2556 36.5317 93.8742 36.5989 93.4239 36.5989ZM93.6053 35.5303C94.0758 35.5303 94.4723 35.4379 94.7949 35.2531C95.1208 35.0683 95.3662 34.8297 95.5308 34.5374C95.6988 34.245 95.7828 33.9375 95.7828 33.6149V32.5262C95.7324 32.5867 95.6215 32.6421 95.4502 32.6925C95.2821 32.7396 95.0872 32.7816 94.8655 32.8185C94.647 32.8521 94.4337 32.8824 94.2253 32.9093C94.0203 32.9328 93.854 32.953 93.7263 32.9698C93.4171 33.0101 93.1282 33.0756 92.8593 33.1663C92.5939 33.2537 92.3788 33.3864 92.2141 33.5645C92.0528 33.7393 91.9722 33.9779 91.9722 34.2803C91.9722 34.6936 92.1251 35.0061 92.4309 35.2178C92.74 35.4262 93.1315 35.5303 93.6053 35.5303ZM100.333 31.76V36.4175H99.1436V28.6752H100.293V29.8849H100.394C100.575 29.4918 100.851 29.1759 101.22 28.9373C101.59 28.6954 102.067 28.5744 102.652 28.5744C103.176 28.5744 103.635 28.6819 104.028 28.897C104.421 29.1087 104.727 29.4313 104.945 29.8648C105.164 30.2949 105.273 30.8393 105.273 31.4979V36.4175H104.083V31.5786C104.083 30.9703 103.925 30.4965 103.61 30.1571C103.294 29.8144 102.86 29.643 102.309 29.643C101.929 29.643 101.59 29.7253 101.291 29.89C100.995 30.0546 100.762 30.2949 100.59 30.6108C100.419 30.9267 100.333 31.3097 100.333 31.76ZM110.693 36.5788C109.947 36.5788 109.303 36.4141 108.762 36.0848C108.225 35.7521 107.81 35.2884 107.517 34.6936C107.228 34.0955 107.084 33.3999 107.084 32.6068C107.084 31.8138 107.228 31.1148 107.517 30.51C107.81 29.9018 108.216 29.4279 108.737 29.0885C109.261 28.7458 109.873 28.5744 110.572 28.5744C110.975 28.5744 111.373 28.6416 111.766 28.776C112.16 28.9104 112.517 29.1289 112.84 29.4313C113.163 29.7304 113.42 30.1269 113.611 30.6209C113.803 31.1148 113.899 31.7231 113.899 32.4455V32.9496H107.931V31.9213H112.689C112.689 31.4845 112.601 31.0947 112.427 30.7519C112.255 30.4092 112.01 30.1387 111.691 29.9404C111.375 29.7421 111.002 29.643 110.572 29.643C110.098 29.643 109.688 29.7606 109.342 29.9958C108.999 30.2277 108.735 30.5301 108.551 30.9031C108.366 31.2761 108.273 31.676 108.273 32.1028V32.7883C108.273 33.373 108.374 33.8687 108.576 34.2753C108.781 34.6785 109.065 34.986 109.428 35.1977C109.79 35.406 110.212 35.5102 110.693 35.5102C111.005 35.5102 111.288 35.4665 111.54 35.3791C111.795 35.2884 112.015 35.154 112.2 34.9759C112.385 34.7944 112.527 34.5693 112.628 34.3005L113.778 34.6231C113.657 35.0129 113.453 35.3556 113.168 35.6513C112.882 35.9437 112.529 36.1722 112.109 36.3368C111.689 36.4981 111.217 36.5788 110.693 36.5788ZM128.047 26.0945V36.4175H126.838L121.212 28.3123H121.112V36.4175H119.861V26.0945H121.071L126.717 34.2198H126.817V26.0945H128.047ZM133.533 36.5788C132.834 36.5788 132.22 36.4124 131.693 36.0798C131.169 35.7471 130.759 35.2817 130.463 34.6835C130.171 34.0854 130.024 33.3864 130.024 32.5867C130.024 31.7802 130.171 31.0762 130.463 30.4747C130.759 29.8732 131.169 29.4061 131.693 29.0734C132.22 28.7407 132.834 28.5744 133.533 28.5744C134.232 28.5744 134.843 28.7407 135.367 29.0734C135.895 29.4061 136.305 29.8732 136.597 30.4747C136.893 31.0762 137.041 31.7802 137.041 32.5867C137.041 33.3864 136.893 34.0854 136.597 34.6835C136.305 35.2817 135.895 35.7471 135.367 36.0798C134.843 36.4124 134.232 36.5788 133.533 36.5788ZM133.533 35.5102C134.064 35.5102 134.5 35.3741 134.843 35.1019C135.186 34.8297 135.44 34.4718 135.604 34.0283C135.769 33.5847 135.851 33.1042 135.851 32.5867C135.851 32.0692 135.769 31.587 135.604 31.14C135.44 30.6931 135.186 30.3319 134.843 30.0563C134.5 29.7808 134.064 29.643 133.533 29.643C133.002 29.643 132.565 29.7808 132.222 30.0563C131.879 30.3319 131.626 30.6931 131.461 31.14C131.296 31.587 131.214 32.0692 131.214 32.5867C131.214 33.1042 131.296 33.5847 131.461 34.0283C131.626 34.4718 131.879 34.8297 132.222 35.1019C132.565 35.3741 133.002 35.5102 133.533 35.5102ZM141.78 36.5788C141.135 36.5788 140.565 36.4158 140.071 36.0898C139.578 35.7605 139.191 35.2968 138.912 34.6987C138.633 34.0972 138.494 33.3864 138.494 32.5665C138.494 31.7533 138.633 31.0476 138.912 30.4495C139.191 29.8513 139.579 29.3893 140.077 29.0633C140.574 28.7374 141.148 28.5744 141.8 28.5744C142.304 28.5744 142.703 28.6584 142.995 28.8264C143.291 28.9911 143.516 29.1793 143.67 29.391C143.828 29.5993 143.951 29.7707 144.038 29.9051H144.139V26.0945H145.329V36.4175H144.18V35.2279H144.038C143.951 35.369 143.827 35.5471 143.665 35.7622C143.504 35.9739 143.274 36.1638 142.975 36.3318C142.676 36.4964 142.278 36.5788 141.78 36.5788ZM141.942 35.5102C142.419 35.5102 142.822 35.3859 143.151 35.1372C143.481 34.8852 143.731 34.5374 143.902 34.0938C144.074 33.6469 144.159 33.1311 144.159 32.5464C144.159 31.9684 144.075 31.4626 143.907 31.0292C143.739 30.5923 143.491 30.2529 143.161 30.011C142.832 29.7657 142.425 29.643 141.942 29.643C141.437 29.643 141.017 29.7724 140.681 30.0311C140.349 30.2865 140.098 30.6343 139.93 31.0745C139.766 31.5114 139.683 32.002 139.683 32.5464C139.683 33.0974 139.767 33.5981 139.935 34.0484C140.107 34.4954 140.359 34.8516 140.691 35.117C141.028 35.3791 141.444 35.5102 141.942 35.5102ZM150.919 36.5788C150.173 36.5788 149.529 36.4141 148.988 36.0848C148.451 35.7521 148.036 35.2884 147.743 34.6936C147.454 34.0955 147.31 33.3999 147.31 32.6068C147.31 31.8138 147.454 31.1148 147.743 30.51C148.036 29.9018 148.442 29.4279 148.963 29.0885C149.487 28.7458 150.099 28.5744 150.798 28.5744C151.201 28.5744 151.599 28.6416 151.992 28.776C152.386 28.9104 152.743 29.1289 153.066 29.4313C153.389 29.7304 153.646 30.1269 153.837 30.6209C154.029 31.1148 154.124 31.7231 154.124 32.4455V32.9496H148.156V31.9213H152.915C152.915 31.4845 152.827 31.0947 152.653 30.7519C152.481 30.4092 152.236 30.1387 151.917 29.9404C151.601 29.7421 151.228 29.643 150.798 29.643C150.324 29.643 149.914 29.7606 149.568 29.9958C149.225 30.2277 148.961 30.5301 148.776 30.9031C148.592 31.2761 148.499 31.676 148.499 32.1028V32.7883C148.499 33.373 148.6 33.8687 148.802 34.2753C149.007 34.6785 149.291 34.986 149.654 35.1977C150.016 35.406 150.438 35.5102 150.919 35.5102C151.231 35.5102 151.513 35.4665 151.766 35.3791C152.021 35.2884 152.241 35.154 152.426 34.9759C152.611 34.7944 152.753 34.5693 152.854 34.3005L154.004 34.6231C153.883 35.0129 153.679 35.3556 153.394 35.6513C153.108 35.9437 152.755 36.1722 152.335 36.3368C151.915 36.4981 151.443 36.5788 150.919 36.5788ZM156.357 32.0625C156.357 30.7922 156.522 29.6245 156.851 28.5593C157.184 27.4907 157.658 26.5078 158.273 25.6106H159.321C159.079 25.9433 158.852 26.3532 158.641 26.8405C158.432 27.3244 158.249 27.857 158.091 28.4383C157.933 29.0163 157.809 29.6144 157.718 30.2327C157.631 30.8511 157.587 31.461 157.587 32.0625C157.587 32.8622 157.665 33.6738 157.819 34.497C157.974 35.3203 158.182 36.0848 158.444 36.7905C158.706 37.4962 158.999 38.0708 159.321 38.5143H158.273C157.658 37.6171 157.184 36.6359 156.851 35.5707C156.522 34.5021 156.357 33.3327 156.357 32.0625ZM166.561 30.4092L165.492 30.7116C165.425 30.5335 165.326 30.3604 165.195 30.1924C165.067 30.021 164.892 29.8799 164.671 29.769C164.449 29.6581 164.165 29.6027 163.819 29.6027C163.345 29.6027 162.95 29.7119 162.634 29.9303C162.322 30.1454 162.165 30.4192 162.165 30.7519C162.165 31.0476 162.273 31.2812 162.488 31.4526C162.703 31.6239 163.039 31.7667 163.496 31.881L164.645 32.1633C165.338 32.3313 165.853 32.5884 166.193 32.9345C166.532 33.2772 166.702 33.7191 166.702 34.2601C166.702 34.7037 166.574 35.1002 166.319 35.4497C166.067 35.7992 165.714 36.0747 165.26 36.2763C164.807 36.478 164.279 36.5788 163.678 36.5788C162.888 36.5788 162.234 36.4074 161.717 36.0646C161.199 35.7219 160.872 35.2212 160.734 34.5626L161.863 34.2803C161.97 34.697 162.174 35.0095 162.473 35.2178C162.775 35.4262 163.17 35.5303 163.657 35.5303C164.212 35.5303 164.652 35.4127 164.978 35.1775C165.307 34.9389 165.472 34.6533 165.472 34.3206C165.472 34.0518 165.378 33.8266 165.19 33.6452C165.002 33.4604 164.713 33.3226 164.323 33.2319L163.032 32.9294C162.323 32.7614 161.802 32.501 161.47 32.1481C161.14 31.792 160.976 31.3467 160.976 30.8124C160.976 30.3756 161.098 29.9891 161.344 29.6531C161.592 29.317 161.93 29.0533 162.357 28.8617C162.787 28.6702 163.274 28.5744 163.819 28.5744C164.585 28.5744 165.186 28.7424 165.623 29.0785C166.063 29.4145 166.376 29.8581 166.561 30.4092ZM171.033 32.0625C171.033 33.3327 170.867 34.5021 170.534 35.5707C170.205 36.6359 169.733 37.6171 169.118 38.5143H168.069C168.311 38.1817 168.536 37.7717 168.745 37.2845C168.956 36.8006 169.141 36.2696 169.299 35.6916C169.457 35.1103 169.58 34.5105 169.667 33.8922C169.758 33.2705 169.803 32.6606 169.803 32.0625C169.803 31.2627 169.726 30.4512 169.571 29.6279C169.417 28.8046 169.208 28.0401 168.946 27.3344C168.684 26.6288 168.392 26.0541 168.069 25.6106H169.118C169.733 26.5078 170.205 27.4907 170.534 28.5593C170.867 29.6245 171.033 30.7922 171.033 32.0625Z" fill="#808080"/>
<path d="M251.112 29.3204H249.862C249.788 28.9609 249.659 28.645 249.474 28.3728C249.293 28.1006 249.071 27.8721 248.809 27.6873C248.55 27.4991 248.263 27.358 247.947 27.2639C247.631 27.1698 247.302 27.1227 246.959 27.1227C246.334 27.1227 245.768 27.2807 245.26 27.5965C244.756 27.9124 244.354 28.3778 244.055 28.9928C243.76 29.6077 243.612 30.3621 243.612 31.256C243.612 32.1498 243.76 32.9042 244.055 33.5192C244.354 34.1341 244.756 34.5995 245.26 34.9154C245.768 35.2313 246.334 35.3892 246.959 35.3892C247.302 35.3892 247.631 35.3422 247.947 35.2481C248.263 35.154 248.55 35.0145 248.809 34.8297C249.071 34.6415 249.293 34.4113 249.474 34.1392C249.659 33.8636 249.788 33.5477 249.862 33.1915H251.112C251.018 33.7191 250.847 34.1912 250.598 34.6079C250.349 35.0246 250.04 35.3791 249.671 35.6715C249.301 35.9605 248.886 36.1806 248.426 36.3318C247.969 36.483 247.48 36.5586 246.959 36.5586C246.078 36.5586 245.295 36.3436 244.61 35.9134C243.924 35.4833 243.385 34.8717 242.992 34.0787C242.599 33.2856 242.402 32.3447 242.402 31.256C242.402 30.1672 242.599 29.2263 242.992 28.4333C243.385 27.6402 243.924 27.0286 244.61 26.5985C245.295 26.1684 246.078 25.9533 246.959 25.9533C247.48 25.9533 247.969 26.0289 248.426 26.1802C248.886 26.3314 249.301 26.5532 249.671 26.8455C250.04 27.1345 250.349 27.4873 250.598 27.904C250.847 28.3173 251.018 28.7895 251.112 29.3204ZM256.116 36.5788C255.417 36.5788 254.804 36.4124 254.276 36.0798C253.752 35.7471 253.342 35.2817 253.046 34.6835C252.754 34.0854 252.608 33.3864 252.608 32.5867C252.608 31.7802 252.754 31.0762 253.046 30.4747C253.342 29.8732 253.752 29.4061 254.276 29.0734C254.804 28.7407 255.417 28.5744 256.116 28.5744C256.815 28.5744 257.427 28.7407 257.951 29.0734C258.478 29.4061 258.888 29.8732 259.181 30.4747C259.477 31.0762 259.624 31.7802 259.624 32.5867C259.624 33.3864 259.477 34.0854 259.181 34.6835C258.888 35.2817 258.478 35.7471 257.951 36.0798C257.427 36.4124 256.815 36.5788 256.116 36.5788ZM256.116 35.5102C256.647 35.5102 257.084 35.3741 257.427 35.1019C257.769 34.8297 258.023 34.4718 258.188 34.0283C258.352 33.5847 258.435 33.1042 258.435 32.5867C258.435 32.0692 258.352 31.587 258.188 31.14C258.023 30.6931 257.769 30.3319 257.427 30.0563C257.084 29.7808 256.647 29.643 256.116 29.643C255.585 29.643 255.148 29.7808 254.806 30.0563C254.463 30.3319 254.209 30.6931 254.045 31.14C253.88 31.587 253.798 32.0692 253.798 32.5867C253.798 33.1042 253.88 33.5847 254.045 34.0283C254.209 34.4718 254.463 34.8297 254.806 35.1019C255.148 35.3741 255.585 35.5102 256.116 35.5102ZM262.63 31.76V36.4175H261.44V28.6752H262.589V29.8849H262.69C262.872 29.4918 263.147 29.1759 263.517 28.9373C263.887 28.6954 264.364 28.5744 264.948 28.5744C265.473 28.5744 265.931 28.6819 266.324 28.897C266.718 29.1087 267.023 29.4313 267.242 29.8648C267.46 30.2949 267.57 30.8393 267.57 31.4979V36.4175H266.38V31.5786C266.38 30.9703 266.222 30.4965 265.906 30.1571C265.59 29.8144 265.157 29.643 264.606 29.643C264.226 29.643 263.887 29.7253 263.587 29.89C263.292 30.0546 263.058 30.2949 262.887 30.6108C262.715 30.9267 262.63 31.3097 262.63 31.76ZM273.11 28.6752V29.6833H269.098V28.6752H273.11ZM270.267 26.8203H271.457V34.1996C271.457 34.5357 271.506 34.7877 271.603 34.9557C271.704 35.1204 271.832 35.2313 271.986 35.2884C272.144 35.3422 272.311 35.369 272.485 35.369C272.616 35.369 272.724 35.3623 272.808 35.3489C272.892 35.3321 272.959 35.3186 273.01 35.3086L273.251 36.3772C273.171 36.4074 273.058 36.4376 272.914 36.4679C272.769 36.5015 272.586 36.5183 272.364 36.5183C272.028 36.5183 271.699 36.446 271.376 36.3015C271.057 36.1571 270.792 35.9369 270.58 35.6412C270.372 35.3455 270.267 34.9725 270.267 34.5222V26.8203ZM274.9 36.4175V28.6752H276.049V29.8446H276.13C276.271 29.4615 276.526 29.1507 276.896 28.9121C277.265 28.6735 277.682 28.5542 278.146 28.5542C278.233 28.5542 278.342 28.5559 278.473 28.5593C278.604 28.5626 278.704 28.5677 278.771 28.5744V29.7841C278.731 29.7741 278.638 29.7589 278.494 29.7388C278.352 29.7153 278.203 29.7035 278.045 29.7035C277.669 29.7035 277.333 29.7825 277.037 29.9404C276.745 30.095 276.513 30.31 276.341 30.5856C276.173 30.8578 276.089 31.1686 276.089 31.5181V36.4175H274.9ZM283.091 36.5788C282.392 36.5788 281.778 36.4124 281.251 36.0798C280.727 35.7471 280.317 35.2817 280.021 34.6835C279.729 34.0854 279.582 33.3864 279.582 32.5867C279.582 31.7802 279.729 31.0762 280.021 30.4747C280.317 29.8732 280.727 29.4061 281.251 29.0734C281.778 28.7407 282.392 28.5744 283.091 28.5744C283.79 28.5744 284.401 28.7407 284.925 29.0734C285.453 29.4061 285.863 29.8732 286.155 30.4747C286.451 31.0762 286.599 31.7802 286.599 32.5867C286.599 33.3864 286.451 34.0854 286.155 34.6835C285.863 35.2817 285.453 35.7471 284.925 36.0798C284.401 36.4124 283.79 36.5788 283.091 36.5788ZM283.091 35.5102C283.622 35.5102 284.058 35.3741 284.401 35.1019C284.744 34.8297 284.998 34.4718 285.162 34.0283C285.327 33.5847 285.409 33.1042 285.409 32.5867C285.409 32.0692 285.327 31.587 285.162 31.14C284.998 30.6931 284.744 30.3319 284.401 30.0563C284.058 29.7808 283.622 29.643 283.091 29.643C282.56 29.643 282.123 29.7808 281.78 30.0563C281.437 30.3319 281.184 30.6931 281.019 31.14C280.854 31.587 280.772 32.0692 280.772 32.5867C280.772 33.1042 280.854 33.5847 281.019 34.0283C281.184 34.4718 281.437 34.8297 281.78 35.1019C282.123 35.3741 282.56 35.5102 283.091 35.5102ZM289.604 26.0945V36.4175H288.415V26.0945H289.604ZM295.936 36.4175V26.0945H299.424C300.234 26.0945 300.896 26.2406 301.41 26.533C301.928 26.822 302.311 27.2135 302.56 27.7074C302.808 28.2014 302.933 28.7525 302.933 29.3607C302.933 29.969 302.808 30.5217 302.56 31.0191C302.314 31.5164 301.935 31.9129 301.42 32.2086C300.906 32.501 300.248 32.6472 299.445 32.6472H296.944V31.5382H299.404C299.959 31.5382 300.404 31.4425 300.74 31.2509C301.076 31.0594 301.32 30.8006 301.471 30.4747C301.625 30.1454 301.703 29.7741 301.703 29.3607C301.703 28.9474 301.625 28.5778 301.471 28.2518C301.32 27.9259 301.074 27.6705 300.735 27.4857C300.396 27.2975 299.945 27.2034 299.384 27.2034H297.186V36.4175H295.936ZM305.975 26.0945V36.4175H304.785V26.0945H305.975ZM310.432 36.5989C309.941 36.5989 309.496 36.5065 309.096 36.3217C308.696 36.1335 308.379 35.863 308.143 35.5102C307.908 35.154 307.79 34.7239 307.79 34.2198C307.79 33.7762 307.878 33.4167 308.053 33.1411C308.227 32.8622 308.461 32.6438 308.753 32.4859C309.046 32.3279 309.368 32.2103 309.721 32.133C310.077 32.0524 310.435 31.9885 310.795 31.9415C311.265 31.881 311.646 31.8356 311.939 31.8054C312.235 31.7718 312.45 31.7163 312.584 31.6391C312.722 31.5618 312.791 31.4274 312.791 31.2358V31.1955C312.791 30.6982 312.655 30.3117 312.382 30.0362C312.114 29.7606 311.705 29.6228 311.158 29.6228C310.59 29.6228 310.144 29.7472 309.822 29.9958C309.499 30.2445 309.272 30.51 309.141 30.7922L308.012 30.389C308.214 29.9186 308.483 29.5523 308.819 29.2902C309.158 29.0247 309.528 28.8399 309.928 28.7357C310.331 28.6282 310.727 28.5744 311.117 28.5744C311.366 28.5744 311.651 28.6047 311.974 28.6651C312.3 28.7223 312.614 28.8416 312.917 29.023C313.222 29.2045 313.476 29.4783 313.678 29.8446C313.879 30.2109 313.98 30.7015 313.98 31.3165V36.4175H312.791V35.369H312.73C312.65 35.5371 312.515 35.7168 312.327 35.9084C312.139 36.0999 311.888 36.2629 311.576 36.3973C311.263 36.5317 310.882 36.5989 310.432 36.5989ZM310.613 35.5303C311.084 35.5303 311.48 35.4379 311.803 35.2531C312.129 35.0683 312.374 34.8297 312.539 34.5374C312.707 34.245 312.791 33.9375 312.791 33.6149V32.5262C312.74 32.5867 312.629 32.6421 312.458 32.6925C312.29 32.7396 312.095 32.7816 311.873 32.8185C311.655 32.8521 311.441 32.8824 311.233 32.9093C311.028 32.9328 310.862 32.953 310.734 32.9698C310.425 33.0101 310.136 33.0756 309.867 33.1663C309.602 33.2537 309.387 33.3864 309.222 33.5645C309.061 33.7393 308.98 33.9779 308.98 34.2803C308.98 34.6936 309.133 35.0061 309.439 35.2178C309.748 35.4262 310.139 35.5303 310.613 35.5303ZM317.341 31.76V36.4175H316.151V28.6752H317.301V29.8849H317.401C317.583 29.4918 317.858 29.1759 318.228 28.9373C318.598 28.6954 319.075 28.5744 319.66 28.5744C320.184 28.5744 320.643 28.6819 321.036 28.897C321.429 29.1087 321.735 29.4313 321.953 29.8648C322.171 30.2949 322.281 30.8393 322.281 31.4979V36.4175H321.091V31.5786C321.091 30.9703 320.933 30.4965 320.617 30.1571C320.301 29.8144 319.868 29.643 319.317 29.643C318.937 29.643 318.598 29.7253 318.299 29.89C318.003 30.0546 317.769 30.2949 317.598 30.6108C317.427 30.9267 317.341 31.3097 317.341 31.76ZM327.701 36.5788C326.955 36.5788 326.311 36.4141 325.77 36.0848C325.232 35.7521 324.817 35.2884 324.525 34.6936C324.236 34.0955 324.092 33.3999 324.092 32.6068C324.092 31.8138 324.236 31.1148 324.525 30.51C324.817 29.9018 325.224 29.4279 325.745 29.0885C326.269 28.7458 326.881 28.5744 327.58 28.5744C327.983 28.5744 328.381 28.6416 328.774 28.776C329.167 28.9104 329.525 29.1289 329.848 29.4313C330.17 29.7304 330.427 30.1269 330.619 30.6209C330.811 31.1148 330.906 31.7231 330.906 32.4455V32.9496H324.938V31.9213H329.697C329.697 31.4845 329.609 31.0947 329.434 30.7519C329.263 30.4092 329.018 30.1387 328.699 29.9404C328.383 29.7421 328.01 29.643 327.58 29.643C327.106 29.643 326.696 29.7606 326.35 29.9958C326.007 30.2277 325.743 30.5301 325.558 30.9031C325.374 31.2761 325.281 31.676 325.281 32.1028V32.7883C325.281 33.373 325.382 33.8687 325.584 34.2753C325.789 34.6785 326.072 34.986 326.435 35.1977C326.798 35.406 327.22 35.5102 327.701 35.5102C328.013 35.5102 328.295 35.4665 328.547 35.3791C328.803 35.2884 329.023 35.154 329.208 34.9759C329.392 34.7944 329.535 34.5693 329.636 34.3005L330.785 34.6231C330.664 35.0129 330.461 35.3556 330.175 35.6513C329.89 35.9437 329.537 36.1722 329.117 36.3368C328.697 36.4981 328.225 36.5788 327.701 36.5788ZM345.055 26.0945V36.4175H343.845L338.22 28.3123H338.119V36.4175H336.869V26.0945H338.079L343.724 34.2198H343.825V26.0945H345.055ZM350.54 36.5788C349.842 36.5788 349.228 36.4124 348.701 36.0798C348.176 35.7471 347.766 35.2817 347.471 34.6835C347.178 34.0854 347.032 33.3864 347.032 32.5867C347.032 31.7802 347.178 31.0762 347.471 30.4747C347.766 29.8732 348.176 29.4061 348.701 29.0734C349.228 28.7407 349.842 28.5744 350.54 28.5744C351.239 28.5744 351.851 28.7407 352.375 29.0734C352.903 29.4061 353.313 29.8732 353.605 30.4747C353.901 31.0762 354.049 31.7802 354.049 32.5867C354.049 33.3864 353.901 34.0854 353.605 34.6835C353.313 35.2817 352.903 35.7471 352.375 36.0798C351.851 36.4124 351.239 36.5788 350.54 36.5788ZM350.54 35.5102C351.071 35.5102 351.508 35.3741 351.851 35.1019C352.194 34.8297 352.447 34.4718 352.612 34.0283C352.777 33.5847 352.859 33.1042 352.859 32.5867C352.859 32.0692 352.777 31.587 352.612 31.14C352.447 30.6931 352.194 30.3319 351.851 30.0563C351.508 29.7808 351.071 29.643 350.54 29.643C350.01 29.643 349.573 29.7808 349.23 30.0563C348.887 30.3319 348.633 30.6931 348.469 31.14C348.304 31.587 348.222 32.0692 348.222 32.5867C348.222 33.1042 348.304 33.5847 348.469 34.0283C348.633 34.4718 348.887 34.8297 349.23 35.1019C349.573 35.3741 350.01 35.5102 350.54 35.5102ZM358.788 36.5788C358.143 36.5788 357.573 36.4158 357.079 36.0898C356.585 35.7605 356.199 35.2968 355.92 34.6987C355.641 34.0972 355.502 33.3864 355.502 32.5665C355.502 31.7533 355.641 31.0476 355.92 30.4495C356.199 29.8513 356.587 29.3893 357.084 29.0633C357.582 28.7374 358.156 28.5744 358.808 28.5744C359.312 28.5744 359.71 28.6584 360.003 28.8264C360.299 28.9911 360.524 29.1793 360.678 29.391C360.836 29.5993 360.959 29.7707 361.046 29.9051H361.147V26.0945H362.337V36.4175H361.187V35.2279H361.046C360.959 35.369 360.834 35.5471 360.673 35.7622C360.512 35.9739 360.282 36.1638 359.983 36.3318C359.684 36.4964 359.285 36.5788 358.788 36.5788ZM358.949 35.5102C359.427 35.5102 359.83 35.3859 360.159 35.1372C360.488 34.8852 360.739 34.5374 360.91 34.0938C361.081 33.6469 361.167 33.1311 361.167 32.5464C361.167 31.9684 361.083 31.4626 360.915 31.0292C360.747 30.5923 360.498 30.2529 360.169 30.011C359.84 29.7657 359.433 29.643 358.949 29.643C358.445 29.643 358.025 29.7724 357.689 30.0311C357.357 30.2865 357.106 30.6343 356.938 31.0745C356.774 31.5114 356.691 32.002 356.691 32.5464C356.691 33.0974 356.775 33.5981 356.943 34.0484C357.115 34.4954 357.367 34.8516 357.699 35.117C358.035 35.3791 358.452 35.5102 358.949 35.5102ZM367.927 36.5788C367.181 36.5788 366.537 36.4141 365.996 36.0848C365.458 35.7521 365.043 35.2884 364.751 34.6936C364.462 34.0955 364.317 33.3999 364.317 32.6068C364.317 31.8138 364.462 31.1148 364.751 30.51C365.043 29.9018 365.45 29.4279 365.971 29.0885C366.495 28.7458 367.107 28.5744 367.806 28.5744C368.209 28.5744 368.607 28.6416 369 28.776C369.393 28.9104 369.751 29.1289 370.074 29.4313C370.396 29.7304 370.653 30.1269 370.845 30.6209C371.037 31.1148 371.132 31.7231 371.132 32.4455V32.9496H365.164V31.9213H369.923C369.923 31.4845 369.835 31.0947 369.66 30.7519C369.489 30.4092 369.244 30.1387 368.925 29.9404C368.609 29.7421 368.236 29.643 367.806 29.643C367.332 29.643 366.922 29.7606 366.576 29.9958C366.233 30.2277 365.969 30.5301 365.784 30.9031C365.599 31.2761 365.507 31.676 365.507 32.1028V32.7883C365.507 33.373 365.608 33.8687 365.809 34.2753C366.014 34.6785 366.298 34.986 366.661 35.1977C367.024 35.406 367.446 35.5102 367.927 35.5102C368.239 35.5102 368.521 35.4665 368.773 35.3791C369.029 35.2884 369.249 35.154 369.434 34.9759C369.618 34.7944 369.761 34.5693 369.862 34.3005L371.011 34.6231C370.89 35.0129 370.687 35.3556 370.401 35.6513C370.116 35.9437 369.763 36.1722 369.343 36.3368C368.923 36.4981 368.451 36.5788 367.927 36.5788ZM373.365 32.0625C373.365 30.7922 373.53 29.6245 373.859 28.5593C374.192 27.4907 374.666 26.5078 375.281 25.6106H376.329C376.087 25.9433 375.86 26.3532 375.649 26.8405C375.44 27.3244 375.257 27.857 375.099 28.4383C374.941 29.0163 374.817 29.6144 374.726 30.2327C374.639 30.8511 374.595 31.461 374.595 32.0625C374.595 32.8622 374.672 33.6738 374.827 34.497C374.982 35.3203 375.19 36.0848 375.452 36.7905C375.714 37.4962 376.006 38.0708 376.329 38.5143H375.281C374.666 37.6171 374.192 36.6359 373.859 35.5707C373.53 34.5021 373.365 33.3327 373.365 32.0625ZM383.569 30.4092L382.5 30.7116C382.433 30.5335 382.334 30.3604 382.203 30.1924C382.075 30.021 381.9 29.8799 381.678 29.769C381.457 29.6581 381.173 29.6027 380.827 29.6027C380.353 29.6027 379.958 29.7119 379.642 29.9303C379.329 30.1454 379.173 30.4192 379.173 30.7519C379.173 31.0476 379.281 31.2812 379.496 31.4526C379.711 31.6239 380.047 31.7667 380.504 31.881L381.653 32.1633C382.345 32.3313 382.861 32.5884 383.201 32.9345C383.54 33.2772 383.71 33.7191 383.71 34.2601C383.71 34.7037 383.582 35.1002 383.327 35.4497C383.075 35.7992 382.722 36.0747 382.268 36.2763C381.814 36.478 381.287 36.5788 380.685 36.5788C379.896 36.5788 379.242 36.4074 378.725 36.0646C378.207 35.7219 377.879 35.2212 377.742 34.5626L378.871 34.2803C378.978 34.697 379.182 35.0095 379.481 35.2178C379.783 35.4262 380.178 35.5303 380.665 35.5303C381.22 35.5303 381.66 35.4127 381.986 35.1775C382.315 34.9389 382.48 34.6533 382.48 34.3206C382.48 34.0518 382.386 33.8266 382.198 33.6452C382.009 33.4604 381.72 33.3226 381.331 33.2319L380.04 32.9294C379.331 32.7614 378.81 32.501 378.478 32.1481C378.148 31.792 377.984 31.3467 377.984 30.8124C377.984 30.3756 378.106 29.9891 378.352 29.6531C378.6 29.317 378.938 29.0533 379.365 28.8617C379.795 28.6702 380.282 28.5744 380.827 28.5744C381.593 28.5744 382.194 28.7424 382.631 29.0785C383.071 29.4145 383.384 29.8581 383.569 30.4092ZM388.041 32.0625C388.041 33.3327 387.874 34.5021 387.542 35.5707C387.212 36.6359 386.74 37.6171 386.125 38.5143H385.077C385.319 38.1817 385.544 37.7717 385.752 37.2845C385.964 36.8006 386.149 36.2696 386.307 35.6916C386.465 35.1103 386.587 34.5105 386.675 33.8922C386.766 33.2705 386.811 32.6606 386.811 32.0625C386.811 31.2627 386.734 30.4512 386.579 29.6279C386.424 28.8046 386.216 28.0401 385.954 27.3344C385.692 26.6288 385.4 26.0541 385.077 25.6106H386.125C386.74 26.5078 387.212 27.4907 387.542 28.5593C387.874 29.6245 388.041 30.7922 388.041 32.0625Z" fill="#808080"/>
<path d="M35 142L41.1545 131.34L28.8455 131.34L35 142ZM35 83L33.934 83L33.934 132.406L35 132.406L36.066 132.406L36.066 83L35 83Z" fill="#9B9DA7"/>
<path d="M181.314 52.6221C184.847 52.6221 187.711 55.4862 187.711 59.0186V80.6475C187.711 84.1798 184.847 87.0439 181.314 87.0439H36.2891V52.6221H181.314Z" fill="#FF6600" stroke="white" stroke-width="1.42132"/>
<path d="M55.873 57.2422V82.0908L34.5 94.5117L13.127 82.0908V57.2422L34.5 44.8213L55.873 57.2422Z" fill="#FF6600" stroke="white" stroke-width="1.42132"/>
<path fill-rule="evenodd" clip-rule="evenodd" d="M43.9636 61.9483L39.7395 69.5055L37.7385 73.0882L35.293 68.7778L38.1276 63.7956C38.1276 63.7397 38.1832 63.6277 38.2388 63.5717C38.9613 62.3402 40.2397 61.5565 41.7404 61.5005C41.796 61.5005 41.8516 61.5005 41.9071 61.5005C41.9627 61.5005 42.0183 61.5005 42.0739 61.5005C42.7408 61.5005 43.4078 61.7244 43.9636 62.0043V61.9483Z" fill="white"/>
<path fill-rule="evenodd" clip-rule="evenodd" d="M36.5761 62.2842L34.1305 66.5946H28.2389C26.8494 66.5946 25.5154 65.8668 24.7373 64.7473C24.7373 64.6913 24.6261 64.5793 24.5705 64.5233C24.2371 63.8516 24.0703 63.1239 24.0703 62.3961H36.6873L36.5761 62.2842Z" fill="white"/>
<path fill-rule="evenodd" clip-rule="evenodd" d="M36.4631 76.1111C36.4631 77.7345 35.5738 79.078 34.2954 79.8617L30.1268 72.4165L28.0703 68.7778H32.9615L35.9073 73.9839C36.0184 74.2078 36.1296 74.4317 36.1852 74.5997C36.3519 75.0475 36.4631 75.5513 36.4631 76.1111Z" fill="white"/>
<path d="M74.3909 66.4698L71.3807 74.6101H70.1088L67.0986 66.4698H68.4553L70.7024 72.9566H70.7872L73.0342 66.4698H74.3909ZM84.9452 67.1482H83.6309C83.5532 66.7701 83.4172 66.438 83.2228 66.1518C83.032 65.8657 82.7989 65.6254 82.5233 65.4311C82.2512 65.2332 81.9492 65.0848 81.617 64.9859C81.2849 64.887 80.9387 64.8375 80.5783 64.8375C79.9211 64.8375 79.3258 65.0036 78.7923 65.3357C78.2624 65.6678 77.8401 66.1571 77.5257 66.8037C77.2148 67.4503 77.0593 68.2434 77.0593 69.1833C77.0593 70.1231 77.2148 70.9162 77.5257 71.5628C77.8401 72.2094 78.2624 72.6987 78.7923 73.0308C79.3258 73.3629 79.9211 73.529 80.5783 73.529C80.9387 73.529 81.2849 73.4795 81.617 73.3806C81.9492 73.2817 82.2512 73.135 82.5233 72.9407C82.7989 72.7429 83.032 72.5008 83.2228 72.2147C83.4172 71.9249 83.5532 71.5928 83.6309 71.2183H84.9452C84.8463 71.773 84.6661 72.2694 84.4047 72.7075C84.1432 73.1456 83.8182 73.5184 83.4295 73.8258C83.0409 74.1296 82.6045 74.361 82.1205 74.52C81.64 74.679 81.1259 74.7585 80.5783 74.7585C79.6526 74.7585 78.8294 74.5324 78.1087 74.0801C77.3879 73.6279 76.8208 72.9849 76.4075 72.1511C75.9941 71.3172 75.7874 70.328 75.7874 69.1833C75.7874 68.0385 75.9941 67.0493 76.4075 66.2154C76.8208 65.3816 77.3879 64.7386 78.1087 64.2864C78.8294 63.8341 79.6526 63.608 80.5783 63.608C81.1259 63.608 81.64 63.6875 82.1205 63.8465C82.6045 64.0055 83.0409 64.2387 83.4295 64.546C83.8182 64.8499 84.1432 65.2209 84.4047 65.659C84.6661 66.0935 84.8463 66.5899 84.9452 67.1482ZM88.1502 63.7564V74.6101H86.8995V63.7564H88.1502ZM95.5711 71.2819V66.4698H96.8218V74.6101H95.5711V73.2322H95.4863C95.2955 73.6456 94.9987 73.9971 94.5959 74.2868C94.1931 74.573 93.6844 74.7161 93.0696 74.7161C92.5608 74.7161 92.1086 74.6048 91.7129 74.3822C91.3172 74.1561 91.0063 73.8169 90.7802 73.3647C90.554 72.9089 90.441 72.3348 90.441 71.6423V66.4698H91.6917V71.5575C91.6917 72.1511 91.8578 72.6245 92.1899 72.9778C92.5255 73.3311 92.953 73.5078 93.4724 73.5078C93.7833 73.5078 94.0995 73.4283 94.421 73.2693C94.7461 73.1103 95.0181 72.8665 95.2372 72.5379C95.4598 72.2094 95.5711 71.7907 95.5711 71.2819ZM104.879 68.2929L103.755 68.6109C103.684 68.4236 103.58 68.2417 103.442 68.065C103.308 67.8848 103.124 67.7364 102.891 67.6199C102.658 67.5033 102.359 67.445 101.996 67.445C101.497 67.445 101.082 67.5598 100.75 67.7894C100.422 68.0156 100.257 68.3035 100.257 68.6533C100.257 68.9642 100.37 69.2098 100.596 69.3899C100.823 69.5701 101.176 69.7203 101.656 69.8404L102.865 70.1372C103.593 70.3138 104.135 70.5841 104.492 70.948C104.849 71.3084 105.027 71.773 105.027 72.3419C105.027 72.8082 104.893 73.2251 104.624 73.5926C104.359 73.96 103.988 74.2497 103.511 74.4617C103.034 74.6737 102.48 74.7797 101.847 74.7797C101.017 74.7797 100.33 74.5995 99.7856 74.2391C99.2415 73.8788 98.897 73.3523 98.7522 72.6598L99.9393 72.3631C100.052 72.8012 100.266 73.1297 100.581 73.3488C100.899 73.5678 101.314 73.6774 101.826 73.6774C102.409 73.6774 102.872 73.5537 103.214 73.3064C103.561 73.0555 103.734 72.7552 103.734 72.4054C103.734 72.1228 103.635 71.8861 103.437 71.6953C103.239 71.501 102.935 71.3561 102.526 71.2607L101.169 70.9427C100.423 70.7661 99.8757 70.4923 99.5259 70.1213C99.1797 69.7468 99.0066 69.2786 99.0066 68.7169C99.0066 68.2576 99.1355 67.8513 99.3934 67.498C99.6549 67.1446 100.01 66.8673 100.459 66.6659C100.911 66.4645 101.423 66.3638 101.996 66.3638C102.801 66.3638 103.434 66.5405 103.893 66.8938C104.356 67.2471 104.684 67.7135 104.879 68.2929ZM110.45 66.4698V67.5298H106.231V66.4698H110.45ZM107.461 64.5195H108.712V72.2783C108.712 72.6316 108.763 72.8965 108.865 73.0732C108.971 73.2463 109.106 73.3629 109.268 73.423C109.434 73.4795 109.609 73.5078 109.793 73.5078C109.93 73.5078 110.044 73.5007 110.132 73.4866C110.22 73.4689 110.291 73.4548 110.344 73.4442L110.598 74.5677C110.513 74.5995 110.395 74.6313 110.243 74.6631C110.091 74.6984 109.899 74.7161 109.666 74.7161C109.312 74.7161 108.966 74.6401 108.627 74.4882C108.291 74.3363 108.012 74.1049 107.789 73.794C107.57 73.483 107.461 73.0909 107.461 72.6174V64.5195ZM115.657 74.7797C114.872 74.7797 114.196 74.6066 113.627 74.2603C113.062 73.9106 112.625 73.423 112.318 72.7976C112.014 72.1687 111.862 71.4374 111.862 70.6036C111.862 69.7697 112.014 69.0349 112.318 68.3989C112.625 67.7594 113.053 67.2612 113.601 66.9044C114.152 66.544 114.795 66.3638 115.53 66.3638C115.954 66.3638 116.372 66.4345 116.786 66.5758C117.199 66.7171 117.575 66.9468 117.914 67.2648C118.254 67.5792 118.524 67.9961 118.725 68.5155C118.927 69.0349 119.027 69.6744 119.027 70.434V70.9639H112.753V69.8828H117.755C117.755 69.4235 117.664 69.0137 117.48 68.6533C117.3 68.2929 117.042 68.0085 116.706 67.8C116.374 67.5916 115.982 67.4874 115.53 67.4874C115.031 67.4874 114.6 67.611 114.236 67.8583C113.876 68.1021 113.599 68.4201 113.404 68.8123C113.21 69.2045 113.113 69.6249 113.113 70.0736V70.7943C113.113 71.4091 113.219 71.9302 113.431 72.3578C113.646 72.7817 113.945 73.105 114.327 73.3276C114.708 73.5466 115.152 73.6562 115.657 73.6562C115.985 73.6562 116.282 73.6102 116.547 73.5184C116.816 73.423 117.047 73.2817 117.241 73.0944C117.436 72.9036 117.586 72.6669 117.692 72.3842L118.9 72.7234C118.773 73.1333 118.559 73.4936 118.259 73.8046C117.959 74.1119 117.588 74.3522 117.146 74.5253C116.704 74.6949 116.208 74.7797 115.657 74.7797ZM120.93 74.6101V66.4698H122.138V67.6993H122.223C122.371 67.2966 122.64 66.9698 123.029 66.7189C123.417 66.4681 123.855 66.3426 124.343 66.3426C124.435 66.3426 124.55 66.3444 124.687 66.3479C124.825 66.3515 124.929 66.3568 125 66.3638V67.6358C124.958 67.6252 124.861 67.6093 124.709 67.5881C124.56 67.5633 124.403 67.551 124.237 67.551C123.841 67.551 123.488 67.634 123.177 67.8C122.87 67.9626 122.626 68.1887 122.446 68.4784C122.269 68.7646 122.181 69.0914 122.181 69.4588V74.6101H120.93ZM130.85 74.6101V63.7564H134.644C135.4 63.7564 136.024 63.8871 136.515 64.1486C137.006 64.4065 137.372 64.7545 137.612 65.1926C137.852 65.6272 137.972 66.1094 137.972 66.6394C137.972 67.1058 137.889 67.4909 137.723 67.7947C137.561 68.0986 137.345 68.3388 137.077 68.5155C136.812 68.6921 136.524 68.8229 136.213 68.9077V69.0137C136.545 69.0349 136.879 69.1515 137.214 69.3634C137.55 69.5754 137.831 69.8793 138.057 70.275C138.283 70.6707 138.396 71.1547 138.396 71.7271C138.396 72.2712 138.273 72.7605 138.025 73.1951C137.778 73.6297 137.388 73.9741 136.854 74.2285C136.321 74.4829 135.626 74.6101 134.771 74.6101H130.85ZM132.164 73.4442H134.771C135.63 73.4442 136.239 73.2781 136.6 72.946C136.964 72.6104 137.146 72.2041 137.146 71.7271C137.146 71.3596 137.052 71.0205 136.865 70.7096C136.677 70.3951 136.411 70.1443 136.064 69.957C135.718 69.7662 135.308 69.6708 134.835 69.6708H132.164V73.4442ZM132.164 68.5261H134.602C134.997 68.5261 135.354 68.4484 135.672 68.2929C135.994 68.1375 136.248 67.9184 136.435 67.6358C136.626 67.3531 136.722 67.021 136.722 66.6394C136.722 66.1624 136.556 65.7579 136.223 65.4258C135.891 65.0901 135.365 64.9223 134.644 64.9223H132.164V68.5261ZM140.386 74.6101V66.4698H141.637V74.6101H140.386ZM141.022 65.1131C140.779 65.1131 140.568 65.0301 140.392 64.864C140.219 64.698 140.132 64.4983 140.132 64.2652C140.132 64.032 140.219 63.8324 140.392 63.6663C140.568 63.5002 140.779 63.4172 141.022 63.4172C141.266 63.4172 141.475 63.5002 141.648 63.6663C141.824 63.8324 141.913 64.032 141.913 64.2652C141.913 64.4983 141.824 64.698 141.648 64.864C141.475 65.0301 141.266 65.1131 141.022 65.1131ZM145.179 69.7132V74.6101H143.928V66.4698H145.136V67.7417H145.242C145.433 67.3284 145.723 66.9963 146.111 66.7454C146.5 66.491 147.002 66.3638 147.616 66.3638C148.168 66.3638 148.65 66.4769 149.063 66.703C149.477 66.9256 149.798 67.2648 150.028 67.7205C150.257 68.1728 150.372 68.7451 150.372 69.4376V74.6101H149.122V69.5224C149.122 68.8829 148.955 68.3848 148.623 68.0279C148.291 67.6675 147.835 67.4874 147.256 67.4874C146.857 67.4874 146.5 67.5739 146.185 67.747C145.875 67.9202 145.629 68.1728 145.449 68.5049C145.269 68.837 145.179 69.2398 145.179 69.7132ZM155.053 74.8009C154.537 74.8009 154.069 74.7037 153.649 74.5094C153.228 74.3116 152.894 74.0271 152.647 73.6562C152.4 73.2817 152.276 72.8294 152.276 72.2995C152.276 71.8331 152.368 71.455 152.552 71.1653C152.735 70.8721 152.981 70.6424 153.288 70.4764C153.596 70.3103 153.935 70.1867 154.306 70.1054C154.68 70.0206 155.057 69.9535 155.435 69.904C155.929 69.8404 156.33 69.7927 156.638 69.7609C156.949 69.7256 157.175 69.6673 157.316 69.586C157.461 69.5048 157.533 69.3634 157.533 69.1621V69.1197C157.533 68.5968 157.39 68.1904 157.104 67.9007C156.821 67.611 156.392 67.4662 155.816 67.4662C155.219 67.4662 154.751 67.5969 154.412 67.8583C154.073 68.1198 153.834 68.3989 153.696 68.6957L152.509 68.2717C152.721 67.7771 153.004 67.392 153.357 67.1164C153.714 66.8373 154.103 66.6429 154.523 66.5334C154.947 66.4204 155.364 66.3638 155.774 66.3638C156.035 66.3638 156.336 66.3956 156.675 66.4592C157.018 66.5193 157.348 66.6447 157.666 66.8355C157.987 67.0263 158.254 67.3142 158.466 67.6993C158.678 68.0845 158.784 68.6003 158.784 69.2468V74.6101H157.533V73.5078H157.47C157.385 73.6844 157.244 73.8735 157.046 74.0748C156.848 74.2762 156.585 74.4476 156.256 74.5889C155.928 74.7302 155.527 74.8009 155.053 74.8009ZM155.244 73.6774C155.739 73.6774 156.155 73.5802 156.495 73.3859C156.837 73.1916 157.095 72.9407 157.268 72.6333C157.445 72.326 157.533 72.0027 157.533 71.6635V70.5188C157.48 70.5824 157.364 70.6407 157.184 70.6937C157.007 70.7431 156.802 70.7873 156.569 70.8261C156.339 70.8615 156.115 70.8933 155.896 70.9215C155.68 70.9463 155.505 70.9675 155.371 70.9851C155.046 71.0275 154.742 71.0964 154.46 71.1918C154.18 71.2837 153.954 71.4232 153.781 71.6105C153.612 71.7942 153.527 72.0451 153.527 72.3631C153.527 72.7976 153.688 73.1262 154.009 73.3488C154.334 73.5678 154.746 73.6774 155.244 73.6774ZM161.067 74.6101V66.4698H162.275V67.6993H162.36C162.508 67.2966 162.777 66.9698 163.166 66.7189C163.554 66.4681 163.992 66.3426 164.48 66.3426C164.572 66.3426 164.687 66.3444 164.824 66.3479C164.962 66.3515 165.066 66.3568 165.137 66.3638V67.6358C165.095 67.6252 164.998 67.6093 164.846 67.5881C164.697 67.5633 164.54 67.551 164.374 67.551C163.978 67.551 163.625 67.634 163.314 67.8C163.007 67.9626 162.763 68.1887 162.583 68.4784C162.406 68.7646 162.318 69.0914 162.318 69.4588V74.6101H161.067ZM167.673 77.6627C167.461 77.6627 167.272 77.645 167.106 77.6097C166.94 77.5779 166.825 77.5461 166.761 77.5143L167.079 76.412C167.383 76.4897 167.652 76.518 167.885 76.4968C168.118 76.4756 168.325 76.3714 168.505 76.1841C168.689 76.0004 168.857 75.7018 169.008 75.2885L169.242 74.6525L166.231 66.4698H167.588L169.835 72.9566H169.92L172.167 66.4698H173.524L170.068 75.7972C169.913 76.2177 169.72 76.5657 169.491 76.8413C169.261 77.1204 168.994 77.3271 168.691 77.4613C168.39 77.5956 168.051 77.6627 167.673 77.6627Z" fill="white"/>
<path d="M249 102.056H247.934V103.122H249V102.056ZM351 102.056H352.066V100.99H351V102.056ZM351 142.5L357.154 131.84L344.846 131.84L351 142.5ZM249 94H247.934V102.056H249H250.066V94H249ZM249 102.056V103.122H351V102.056V100.99H249V102.056ZM351 102.056H349.934L349.934 132.906H351H352.066L352.066 102.056H351Z" fill="#9B9DA7"/>
<path d="M249 102.103H250.066V103.169H249V102.103ZM230 102.103H228.934V101.037H230V102.103ZM230 142.5L223.846 131.84H236.154L230 142.5ZM249 84H250.066V102.103H249H247.934V84H249ZM249 102.103V103.169H230V102.103V101.037H249V102.103ZM230 102.103H231.066V132.906H230H228.934V102.103H230Z" fill="#9B9DA7"/>
<path d="M395.314 52.6221C398.847 52.6221 401.711 55.4862 401.711 59.0186V80.6475C401.711 84.1798 398.847 87.0439 395.314 87.0439H250.289V52.6221H395.314Z" fill="#FF6600" stroke="white" stroke-width="1.42132"/>
<path d="M269.873 57.2422V82.0908L248.5 94.5117L227.127 82.0908V57.2422L248.5 44.8213L269.873 57.2422Z" fill="#FF6600" stroke="white" stroke-width="1.42132"/>
<path fill-rule="evenodd" clip-rule="evenodd" d="M257.964 61.9483L253.739 69.5055L251.739 73.0882L249.293 68.7778L252.128 63.7956C252.128 63.7397 252.183 63.6277 252.239 63.5717C252.961 62.3402 254.24 61.5565 255.74 61.5005C255.796 61.5005 255.852 61.5005 255.907 61.5005C255.963 61.5005 256.018 61.5005 256.074 61.5005C256.741 61.5005 257.408 61.7244 257.964 62.0043V61.9483Z" fill="white"/>
<path fill-rule="evenodd" clip-rule="evenodd" d="M250.576 62.2842L248.131 66.5946H242.239C240.849 66.5946 239.515 65.8668 238.737 64.7473C238.737 64.6913 238.626 64.5793 238.571 64.5233C238.237 63.8516 238.07 63.1239 238.07 62.3961H250.687L250.576 62.2842Z" fill="white"/>
<path fill-rule="evenodd" clip-rule="evenodd" d="M250.463 76.1111C250.463 77.7345 249.574 79.078 248.295 79.8617L244.127 72.4165L242.07 68.7778H246.961L249.907 73.9839C250.018 74.2078 250.13 74.4317 250.185 74.5997C250.352 75.0475 250.463 75.5513 250.463 76.1111Z" fill="white"/>
<path d="M288.391 66.4698L285.381 74.6101H284.109L281.099 66.4698H282.455L284.702 72.9566H284.787L287.034 66.4698H288.391ZM298.945 67.1482H297.631C297.553 66.7701 297.417 66.438 297.223 66.1518C297.032 65.8657 296.799 65.6254 296.523 65.4311C296.251 65.2332 295.949 65.0848 295.617 64.9859C295.285 64.887 294.939 64.8375 294.578 64.8375C293.921 64.8375 293.326 65.0036 292.792 65.3357C292.262 65.6678 291.84 66.1571 291.526 66.8037C291.215 67.4503 291.059 68.2434 291.059 69.1833C291.059 70.1231 291.215 70.9162 291.526 71.5628C291.84 72.2094 292.262 72.6987 292.792 73.0308C293.326 73.3629 293.921 73.529 294.578 73.529C294.939 73.529 295.285 73.4795 295.617 73.3806C295.949 73.2817 296.251 73.135 296.523 72.9407C296.799 72.7429 297.032 72.5008 297.223 72.2147C297.417 71.9249 297.553 71.5928 297.631 71.2183H298.945C298.846 71.773 298.666 72.2694 298.405 72.7075C298.143 73.1456 297.818 73.5184 297.43 73.8258C297.041 74.1296 296.605 74.361 296.121 74.52C295.64 74.679 295.126 74.7585 294.578 74.7585C293.653 74.7585 292.829 74.5324 292.109 74.0801C291.388 73.6279 290.821 72.9849 290.407 72.1511C289.994 71.3172 289.787 70.328 289.787 69.1833C289.787 68.0385 289.994 67.0493 290.407 66.2154C290.821 65.3816 291.388 64.7386 292.109 64.2864C292.829 63.8341 293.653 63.608 294.578 63.608C295.126 63.608 295.64 63.6875 296.121 63.8465C296.605 64.0055 297.041 64.2387 297.43 64.546C297.818 64.8499 298.143 65.2209 298.405 65.659C298.666 66.0935 298.846 66.5899 298.945 67.1482ZM302.15 63.7564V74.6101H300.899V63.7564H302.15ZM309.571 71.2819V66.4698H310.822V74.6101H309.571V73.2322H309.486C309.295 73.6456 308.999 73.9971 308.596 74.2868C308.193 74.573 307.684 74.7161 307.07 74.7161C306.561 74.7161 306.109 74.6048 305.713 74.3822C305.317 74.1561 305.006 73.8169 304.78 73.3647C304.554 72.9089 304.441 72.3348 304.441 71.6423V66.4698H305.692V71.5575C305.692 72.1511 305.858 72.6245 306.19 72.9778C306.526 73.3311 306.953 73.5078 307.472 73.5078C307.783 73.5078 308.1 73.4283 308.421 73.2693C308.746 73.1103 309.018 72.8665 309.237 72.5379C309.46 72.2094 309.571 71.7907 309.571 71.2819ZM318.879 68.2929L317.755 68.6109C317.684 68.4236 317.58 68.2417 317.442 68.065C317.308 67.8848 317.124 67.7364 316.891 67.6199C316.658 67.5033 316.359 67.445 315.996 67.445C315.497 67.445 315.082 67.5598 314.75 67.7894C314.422 68.0156 314.257 68.3035 314.257 68.6533C314.257 68.9642 314.37 69.2098 314.596 69.3899C314.823 69.5701 315.176 69.7203 315.656 69.8404L316.865 70.1372C317.593 70.3138 318.135 70.5841 318.492 70.948C318.849 71.3084 319.027 71.773 319.027 72.3419C319.027 72.8082 318.893 73.2251 318.624 73.5926C318.359 73.96 317.988 74.2497 317.511 74.4617C317.034 74.6737 316.48 74.7797 315.847 74.7797C315.017 74.7797 314.33 74.5995 313.786 74.2391C313.242 73.8788 312.897 73.3523 312.752 72.6598L313.939 72.3631C314.052 72.8012 314.266 73.1297 314.581 73.3488C314.899 73.5678 315.314 73.6774 315.826 73.6774C316.409 73.6774 316.872 73.5537 317.214 73.3064C317.561 73.0555 317.734 72.7552 317.734 72.4054C317.734 72.1228 317.635 71.8861 317.437 71.6953C317.239 71.501 316.935 71.3561 316.526 71.2607L315.169 70.9427C314.423 70.7661 313.876 70.4923 313.526 70.1213C313.18 69.7468 313.007 69.2786 313.007 68.7169C313.007 68.2576 313.136 67.8513 313.393 67.498C313.655 67.1446 314.01 66.8673 314.459 66.6659C314.911 66.4645 315.423 66.3638 315.996 66.3638C316.801 66.3638 317.434 66.5405 317.893 66.8938C318.356 67.2471 318.684 67.7135 318.879 68.2929ZM324.45 66.4698V67.5298H320.231V66.4698H324.45ZM321.461 64.5195H322.712V72.2783C322.712 72.6316 322.763 72.8965 322.865 73.0732C322.971 73.2463 323.106 73.3629 323.268 73.423C323.434 73.4795 323.609 73.5078 323.793 73.5078C323.93 73.5078 324.044 73.5007 324.132 73.4866C324.22 73.4689 324.291 73.4548 324.344 73.4442L324.598 74.5677C324.513 74.5995 324.395 74.6313 324.243 74.6631C324.091 74.6984 323.899 74.7161 323.666 74.7161C323.312 74.7161 322.966 74.6401 322.627 74.4882C322.291 74.3363 322.012 74.1049 321.789 73.794C321.57 73.483 321.461 73.0909 321.461 72.6174V64.5195ZM329.657 74.7797C328.872 74.7797 328.196 74.6066 327.627 74.2603C327.062 73.9106 326.625 73.423 326.318 72.7976C326.014 72.1687 325.862 71.4374 325.862 70.6036C325.862 69.7697 326.014 69.0349 326.318 68.3989C326.625 67.7594 327.053 67.2612 327.601 66.9044C328.152 66.544 328.795 66.3638 329.53 66.3638C329.954 66.3638 330.372 66.4345 330.786 66.5758C331.199 66.7171 331.575 66.9468 331.914 67.2648C332.254 67.5792 332.524 67.9961 332.725 68.5155C332.927 69.0349 333.027 69.6744 333.027 70.434V70.9639H326.753V69.8828H331.755C331.755 69.4235 331.664 69.0137 331.48 68.6533C331.3 68.2929 331.042 68.0085 330.706 67.8C330.374 67.5916 329.982 67.4874 329.53 67.4874C329.031 67.4874 328.6 67.611 328.236 67.8583C327.876 68.1021 327.599 68.4201 327.404 68.8123C327.21 69.2045 327.113 69.6249 327.113 70.0736V70.7943C327.113 71.4091 327.219 71.9302 327.431 72.3578C327.646 72.7817 327.945 73.105 328.327 73.3276C328.708 73.5466 329.152 73.6562 329.657 73.6562C329.985 73.6562 330.282 73.6102 330.547 73.5184C330.816 73.423 331.047 73.2817 331.241 73.0944C331.436 72.9036 331.586 72.6669 331.692 72.3842L332.9 72.7234C332.773 73.1333 332.559 73.4936 332.259 73.8046C331.959 74.1119 331.588 74.3522 331.146 74.5253C330.704 74.6949 330.208 74.7797 329.657 74.7797ZM334.93 74.6101V66.4698H336.138V67.6993H336.223C336.371 67.2966 336.64 66.9698 337.029 66.7189C337.417 66.4681 337.855 66.3426 338.343 66.3426C338.435 66.3426 338.55 66.3444 338.687 66.3479C338.825 66.3515 338.929 66.3568 339 66.3638V67.6358C338.958 67.6252 338.861 67.6093 338.709 67.5881C338.56 67.5633 338.403 67.551 338.237 67.551C337.841 67.551 337.488 67.634 337.177 67.8C336.87 67.9626 336.626 68.1887 336.446 68.4784C336.269 68.7646 336.181 69.0914 336.181 69.4588V74.6101H334.93ZM344.85 74.6101V63.7564H348.644C349.4 63.7564 350.024 63.8871 350.515 64.1486C351.006 64.4065 351.372 64.7545 351.612 65.1926C351.852 65.6272 351.972 66.1094 351.972 66.6394C351.972 67.1058 351.889 67.4909 351.723 67.7947C351.561 68.0986 351.345 68.3388 351.077 68.5155C350.812 68.6921 350.524 68.8229 350.213 68.9077V69.0137C350.545 69.0349 350.879 69.1515 351.214 69.3634C351.55 69.5754 351.831 69.8793 352.057 70.275C352.283 70.6707 352.396 71.1547 352.396 71.7271C352.396 72.2712 352.273 72.7605 352.025 73.1951C351.778 73.6297 351.388 73.9741 350.854 74.2285C350.321 74.4829 349.626 74.6101 348.771 74.6101H344.85ZM346.164 73.4442H348.771C349.63 73.4442 350.239 73.2781 350.6 72.946C350.964 72.6104 351.146 72.2041 351.146 71.7271C351.146 71.3596 351.052 71.0205 350.865 70.7096C350.677 70.3951 350.411 70.1443 350.064 69.957C349.718 69.7662 349.308 69.6708 348.835 69.6708H346.164V73.4442ZM346.164 68.5261H348.602C348.997 68.5261 349.354 68.4484 349.672 68.2929C349.994 68.1375 350.248 67.9184 350.435 67.6358C350.626 67.3531 350.722 67.021 350.722 66.6394C350.722 66.1624 350.556 65.7579 350.223 65.4258C349.891 65.0901 349.365 64.9223 348.644 64.9223H346.164V68.5261ZM354.386 74.6101V66.4698H355.637V74.6101H354.386ZM355.022 65.1131C354.779 65.1131 354.568 65.0301 354.392 64.864C354.219 64.698 354.132 64.4983 354.132 64.2652C354.132 64.032 354.219 63.8324 354.392 63.6663C354.568 63.5002 354.779 63.4172 355.022 63.4172C355.266 63.4172 355.475 63.5002 355.648 63.6663C355.824 63.8324 355.913 64.032 355.913 64.2652C355.913 64.4983 355.824 64.698 355.648 64.864C355.475 65.0301 355.266 65.1131 355.022 65.1131ZM359.179 69.7132V74.6101H357.928V66.4698H359.136V67.7417H359.242C359.433 67.3284 359.723 66.9963 360.111 66.7454C360.5 66.491 361.002 66.3638 361.616 66.3638C362.168 66.3638 362.65 66.4769 363.063 66.703C363.477 66.9256 363.798 67.2648 364.028 67.7205C364.257 68.1728 364.372 68.7451 364.372 69.4376V74.6101H363.122V69.5224C363.122 68.8829 362.955 68.3848 362.623 68.0279C362.291 67.6675 361.835 67.4874 361.256 67.4874C360.857 67.4874 360.5 67.5739 360.185 67.747C359.875 67.9202 359.629 68.1728 359.449 68.5049C359.269 68.837 359.179 69.2398 359.179 69.7132ZM369.053 74.8009C368.537 74.8009 368.069 74.7037 367.649 74.5094C367.228 74.3116 366.894 74.0271 366.647 73.6562C366.4 73.2817 366.276 72.8294 366.276 72.2995C366.276 71.8331 366.368 71.455 366.552 71.1653C366.735 70.8721 366.981 70.6424 367.288 70.4764C367.596 70.3103 367.935 70.1867 368.306 70.1054C368.68 70.0206 369.057 69.9535 369.435 69.904C369.929 69.8404 370.33 69.7927 370.638 69.7609C370.949 69.7256 371.175 69.6673 371.316 69.586C371.461 69.5048 371.533 69.3634 371.533 69.1621V69.1197C371.533 68.5968 371.39 68.1904 371.104 67.9007C370.821 67.611 370.392 67.4662 369.816 67.4662C369.219 67.4662 368.751 67.5969 368.412 67.8583C368.073 68.1198 367.834 68.3989 367.696 68.6957L366.509 68.2717C366.721 67.7771 367.004 67.392 367.357 67.1164C367.714 66.8373 368.103 66.6429 368.523 66.5334C368.947 66.4204 369.364 66.3638 369.774 66.3638C370.035 66.3638 370.336 66.3956 370.675 66.4592C371.018 66.5193 371.348 66.6447 371.666 66.8355C371.987 67.0263 372.254 67.3142 372.466 67.6993C372.678 68.0845 372.784 68.6003 372.784 69.2468V74.6101H371.533V73.5078H371.47C371.385 73.6844 371.244 73.8735 371.046 74.0748C370.848 74.2762 370.585 74.4476 370.256 74.5889C369.928 74.7302 369.527 74.8009 369.053 74.8009ZM369.244 73.6774C369.739 73.6774 370.155 73.5802 370.495 73.3859C370.837 73.1916 371.095 72.9407 371.268 72.6333C371.445 72.326 371.533 72.0027 371.533 71.6635V70.5188C371.48 70.5824 371.364 70.6407 371.184 70.6937C371.007 70.7431 370.802 70.7873 370.569 70.8261C370.339 70.8615 370.115 70.8933 369.896 70.9215C369.68 70.9463 369.505 70.9675 369.371 70.9851C369.046 71.0275 368.742 71.0964 368.46 71.1918C368.18 71.2837 367.954 71.4232 367.781 71.6105C367.612 71.7942 367.527 72.0451 367.527 72.3631C367.527 72.7976 367.688 73.1262 368.009 73.3488C368.334 73.5678 368.746 73.6774 369.244 73.6774ZM375.067 74.6101V66.4698H376.275V67.6993H376.36C376.508 67.2966 376.777 66.9698 377.166 66.7189C377.554 66.4681 377.992 66.3426 378.48 66.3426C378.572 66.3426 378.687 66.3444 378.824 66.3479C378.962 66.3515 379.066 66.3568 379.137 66.3638V67.6358C379.095 67.6252 378.998 67.6093 378.846 67.5881C378.697 67.5633 378.54 67.551 378.374 67.551C377.978 67.551 377.625 67.634 377.314 67.8C377.007 67.9626 376.763 68.1887 376.583 68.4784C376.406 68.7646 376.318 69.0914 376.318 69.4588V74.6101H375.067ZM381.673 77.6627C381.461 77.6627 381.272 77.645 381.106 77.6097C380.94 77.5779 380.825 77.5461 380.761 77.5143L381.079 76.412C381.383 76.4897 381.652 76.518 381.885 76.4968C382.118 76.4756 382.325 76.3714 382.505 76.1841C382.689 76.0004 382.857 75.7018 383.008 75.2885L383.242 74.6525L380.231 66.4698H381.588L383.835 72.9566H383.92L386.167 66.4698H387.524L384.068 75.7972C383.913 76.2177 383.72 76.5657 383.491 76.8413C383.261 77.1204 382.994 77.3271 382.691 77.4613C382.39 77.5956 382.051 77.6627 381.673 77.6627Z" fill="white"/>
</g>
<defs>
<clipPath id="clip0_31154_46738">
<rect width="420" height="187" fill="white"/>
</clipPath>
</defs>
</svg>
