<svg viewBox="0 0 1100 520" xmlns="http://www.w3.org/2000/svg" role="img" aria-label="Fleet monitoring architecture diagram">
  <defs>
    <style><![CDATA[
      @import url('https://fonts.googleapis.com/css2?family=Inter:wght@400;500;600;700&display=swap');
      text { font-family: 'Inter', -apple-system, BlinkMacSystemFont, sans-serif; }
    ]]></style>
    <marker id="arr" viewBox="0 0 10 7" markerWidth="8" markerHeight="6" refX="9" refY="3.5" orient="auto">
      <path d="M0,0 L10,3.5 L0,7 Z" fill="#828592"/>
    </marker>
  </defs>

  <rect width="1100" height="520" fill="#FFFFFF"/>

  <rect x="34" y="62" width="288" height="392" rx="16" fill="#F3F5F9" stroke="#B4B6BD" stroke-width="1.2"/>
  <text x="178" y="88" text-anchor="middle" font-size="13" font-weight="600" fill="#505466" letter-spacing="0.2">
    Edge collectors
  </text>

  <rect x="62" y="128" width="232" height="72" rx="8" fill="#FFFFFF" stroke="#B4B6BD" stroke-width="1.2"/>
  <text x="178" y="154" text-anchor="middle" font-size="13" font-weight="600" fill="#050B24">
    Control Plane Cluster
  </text>
  <text x="178" y="175" text-anchor="middle" font-size="11" fill="#828592">
    OTel collector
  </text>

  <rect x="62" y="228" width="232" height="72" rx="8" fill="#FFFFFF" stroke="#B4B6BD" stroke-width="1.2"/>
  <text x="178" y="254" text-anchor="middle" font-size="13" font-weight="600" fill="#050B24">
    Tenant cluster
  </text>
  <text x="178" y="275" text-anchor="middle" font-size="11" fill="#828592">
    OTel collector
  </text>

  <rect x="62" y="320" width="232" height="72" rx="8" fill="#FFFFFF" stroke="#B4B6BD" stroke-width="1.2"/>
  <text x="178" y="346" text-anchor="middle" font-size="13" font-weight="600" fill="#050B24">
    GPU and custom exporters
  </text>
  <text x="178" y="367" text-anchor="middle" font-size="11" fill="#828592">
    scraped by collectors
  </text>

  <rect x="392" y="62" width="330" height="392" rx="16" fill="#FFF8F3" stroke="#FF6600" stroke-width="1.5" stroke-dasharray="8,5"/>
  <text x="557" y="88" text-anchor="middle" font-size="13" font-weight="600" fill="#FF6600" letter-spacing="0.2">
    vCluster Platform namespace
  </text>

  <rect x="430" y="118" width="254" height="92" rx="8" fill="#FFFFFF" stroke="#B4B6BD" stroke-width="1.2"/>
  <text x="557" y="145" text-anchor="middle" font-size="14" font-weight="700" fill="#050B24">
    Write Gateway
  </text>
  <text x="557" y="167" text-anchor="middle" font-size="11" fill="#828592">
    metrics-writer auth
  </text>
  <text x="557" y="184" text-anchor="middle" font-size="11" fill="#828592">
    platform label stamping
  </text>

  <rect x="430" y="310" width="254" height="92" rx="8" fill="#FFFFFF" stroke="#B4B6BD" stroke-width="1.2"/>
  <text x="557" y="337" text-anchor="middle" font-size="14" font-weight="700" fill="#050B24">
    Query Proxy
  </text>
  <text x="557" y="359" text-anchor="middle" font-size="11" fill="#828592">
    metrics-reader auth
  </text>
  <text x="557" y="376" text-anchor="middle" font-size="11" fill="#828592">
    PromQL scope rewrite
  </text>

  <rect x="452" y="235" width="210" height="52" rx="8" fill="#FFFFFF" stroke="#B4B6BD" stroke-width="1.2"/>
  <text x="557" y="257" text-anchor="middle" font-size="13" font-weight="600" fill="#050B24">
    Platform API
  </text>
  <text x="557" y="275" text-anchor="middle" font-size="11" fill="#828592">
    SSAR authorization
  </text>

  <rect x="802" y="118" width="252" height="92" rx="8" fill="#FFFFFF" stroke="#B4B6BD" stroke-width="1.4"/>
  <text x="928" y="145" text-anchor="middle" font-size="14" font-weight="600" fill="#050B24">
    Metrics backend
  </text>
  <text x="928" y="167" text-anchor="middle" font-size="11" fill="#828592">
    OTLP ingest
  </text>
  <text x="928" y="184" text-anchor="middle" font-size="11" fill="#828592">
    Prometheus HTTP API
  </text>

  <rect x="802" y="310" width="252" height="92" rx="8" fill="#FFFFFF" stroke="#B4B6BD" stroke-width="1.4"/>
  <text x="928" y="337" text-anchor="middle" font-size="14" font-weight="600" fill="#050B24">
    Grafana or PromQL
  </text>
  <text x="928" y="359" text-anchor="middle" font-size="11" fill="#828592">
    scoped read clients
  </text>

  <text x="357" y="150" text-anchor="middle" font-size="11" fill="#828592">
    OTLP
  </text>
  <line x1="294" y1="164" x2="428" y2="164" stroke="#828592" stroke-width="1.6" marker-end="url(#arr)"/>
  <line x1="294" y1="264" x2="428" y2="184" stroke="#828592" stroke-width="1.6" marker-end="url(#arr)"/>

  <line x1="178" y1="320" x2="178" y2="302" stroke="#828592" stroke-width="1.3" marker-end="url(#arr)"/>

  <line x1="684" y1="164" x2="800" y2="164" stroke="#828592" stroke-width="1.6" marker-end="url(#arr)"/>
  <text x="762" y="150" text-anchor="middle" font-size="11" fill="#828592">
    OTLP
  </text>

  <line x1="802" y1="356" x2="686" y2="356" stroke="#828592" stroke-width="1.6" marker-end="url(#arr)"/>

  <polyline points="684,326 746,326 800,190" fill="none" stroke="#828592" stroke-width="1.6" marker-end="url(#arr)"/>

  <line x1="557" y1="210" x2="557" y2="234" stroke="#828592" stroke-width="1.2" stroke-dasharray="5,4" marker-end="url(#arr)"/>
  <line x1="557" y1="310" x2="557" y2="288" stroke="#828592" stroke-width="1.2" stroke-dasharray="5,4" marker-end="url(#arr)"/>
</svg>
