<svg viewBox="0 0 1080 390" xmlns="http://www.w3.org/2000/svg">
  <defs>
    <style><![CDATA[
      text { font-family: 'Inter', -apple-system, BlinkMacSystemFont, sans-serif; }
    ]]></style>

    <marker id="storage-quota-arrow" markerWidth="10" markerHeight="7" refX="9" refY="3.5" orient="auto">
      <polygon points="0 0, 10 3.5, 0 7" fill="#050B24"/>
    </marker>

    <marker id="storage-quota-arrow-muted" markerWidth="10" markerHeight="7" refX="9" refY="3.5" orient="auto">
      <polygon points="0 0, 10 3.5, 0 7" fill="#828592"/>
    </marker>
  </defs>

  <rect x="30" y="30" width="1040" height="330" rx="8" fill="#F8F9FB" stroke="#E6E7E9" stroke-width="1.5"/>
  <text x="50" y="58" font-size="12" font-weight="500" fill="#828592">PVC admission and quota enforcement</text>

  <rect x="65" y="129" width="160" height="64" rx="8" fill="#FFF7F2" stroke="#FF6600" stroke-width="2"/>
  <text x="145" y="154" font-size="13" font-weight="600" fill="#050B24" text-anchor="middle">Tenant creates</text>
  <text x="145" y="173" font-size="13" font-weight="600" fill="#050B24" text-anchor="middle">PVC</text>

  <rect x="260" y="78" width="540" height="210" rx="8" fill="white" stroke="#B4B6BD" stroke-width="1.5"/>
  <text x="280" y="106" font-size="12" font-weight="500" fill="#828592">Tenant cluster</text>

  <rect x="300" y="130" width="145" height="62" rx="8" fill="white" stroke="#B4B6BD" stroke-width="1.5"/>
  <text x="372.5" y="152" font-size="13" font-weight="500" fill="#050B24" text-anchor="middle">Kyverno</text>
  <text x="372.5" y="170" font-size="13" font-weight="500" fill="#050B24" text-anchor="middle">ClusterPolicy</text>
  <text x="372.5" y="185" font-size="10" fill="#828592" text-anchor="middle">Pattern 2</text>

  <rect x="505" y="130" width="125" height="62" rx="8" fill="white" stroke="#B4B6BD" stroke-width="1.5"/>
  <text x="567.5" y="157" font-size="13" font-weight="500" fill="#050B24" text-anchor="middle">ResourceQuota</text>
  <text x="567.5" y="177" font-size="10" fill="#828592" text-anchor="middle">Pattern 1</text>

  <rect x="690" y="130" width="70" height="62" rx="8" fill="#FFF7F2" stroke="#FF6600" stroke-width="2"/>
  <text x="725" y="157" font-size="13" font-weight="600" fill="#050B24" text-anchor="middle">PVC</text>
  <text x="725" y="176" font-size="13" font-weight="600" fill="#050B24" text-anchor="middle">created</text>

  <rect x="322.5" y="230" width="100" height="40" rx="8" fill="#F4F6F8" stroke="#B4B6BD" stroke-width="1.5"/>
  <text x="372.5" y="255" font-size="12" font-weight="500" fill="#050B24" text-anchor="middle">Rejected</text>

  <rect x="517.5" y="230" width="100" height="40" rx="8" fill="#F4F6F8" stroke="#B4B6BD" stroke-width="1.5"/>
  <text x="567.5" y="255" font-size="12" font-weight="500" fill="#050B24" text-anchor="middle">Rejected</text>

  <rect x="910" y="130" width="145" height="62" rx="8" fill="#FFF7F2" stroke="#FF6600" stroke-width="2"/>
  <text x="982.5" y="153" font-size="13" font-weight="600" fill="#050B24" text-anchor="middle">Project quota</text>
  <text x="982.5" y="173" font-size="11" fill="#828592" text-anchor="middle">platform level</text>

  <line x1="225" y1="161" x2="298" y2="161" stroke="#050B24" stroke-width="1.5" marker-end="url(#storage-quota-arrow)"/>

  <line x1="445" y1="161" x2="503" y2="161" stroke="#050B24" stroke-width="1.5" marker-end="url(#storage-quota-arrow)"/>
  <text x="474" y="149" font-size="11" fill="#828592" text-anchor="middle">passes</text>

  <line x1="630" y1="161" x2="688" y2="161" stroke="#050B24" stroke-width="1.5" marker-end="url(#storage-quota-arrow)"/>
  <text x="659" y="149" font-size="11" fill="#828592" text-anchor="middle">passes</text>

  <line x1="372.5" y1="192" x2="372.5" y2="228" stroke="#050B24" stroke-width="1.5" marker-end="url(#storage-quota-arrow)"/>
  <text x="408" y="214" font-size="11" fill="#828592">rejects</text>

  <line x1="567.5" y1="192" x2="567.5" y2="228" stroke="#050B24" stroke-width="1.5" marker-end="url(#storage-quota-arrow)"/>
  <text x="603" y="214" font-size="11" fill="#828592">rejects</text>

  <line x1="760" y1="161" x2="908" y2="161" stroke="#828592" stroke-width="1.5" stroke-dasharray="5 4" marker-end="url(#storage-quota-arrow-muted)"/>
  <text x="855" y="133" font-size="11" fill="#828592" text-anchor="middle">
    <tspan x="855" dy="0">usage</tspan>
    <tspan x="855" dy="13">tracked</tspan>
  </text>
</svg>
