<svg viewBox="0 0 1080 380" xmlns="http://www.w3.org/2000/svg">
  <defs>
    <style><![CDATA[
      text { font-family: 'Inter', -apple-system, BlinkMacSystemFont, sans-serif; }
    ]]></style>

    <marker id="sync-patching-arrow" markerWidth="10" markerHeight="8" refX="9" refY="4" orient="auto">
      <polygon points="0 0, 10 4, 0 8" fill="#050B24"/>
    </marker>

    <marker id="sync-patching-arrow-muted" markerWidth="10" markerHeight="8" refX="9" refY="4" orient="auto">
      <polygon points="0 0, 10 4, 0 8" fill="#828592"/>
    </marker>
  </defs>

  <rect x="30" y="30" width="1020" height="320" rx="8" fill="#F8F9FB" stroke="#E6E7E9" stroke-width="1.5"/>
  <text x="54" y="62" font-size="12" font-weight="500" fill="#828592">Sync patch translation flow</text>

  <rect x="70" y="116" width="245" height="132" rx="8" fill="white" stroke="#326CE3" stroke-width="1.5"/>
  <text x="192.5" y="174" font-size="17" font-weight="650" fill="#050B24" text-anchor="middle">Tenant cluster</text>
  <text x="192.5" y="197" font-size="11" fill="#828592" text-anchor="middle">Tenant-facing values</text>

  <rect x="418" y="92" width="244" height="180" rx="8" fill="#FFF7F2" stroke="#FF6600" stroke-width="2"/>
  <text x="540" y="124" font-size="15" font-weight="650" fill="#050B24" text-anchor="middle">Patch</text>
  <text x="540" y="145" font-size="11" fill="#828592" text-anchor="middle">Runs JavaScript on matched paths</text>

  <rect x="453" y="170" width="174" height="36" rx="8" fill="white" stroke="#FF6600" stroke-width="1.5"/>
  <text x="540" y="192" font-size="12" font-weight="650" fill="#050B24" text-anchor="middle">expression</text>

  <rect x="453" y="218" width="174" height="36" rx="8" fill="white" stroke="#FF6600" stroke-width="1.5"/>
  <text x="540" y="240" font-size="12" font-weight="650" fill="#050B24" text-anchor="middle">reverseExpression</text>

  <rect x="765" y="116" width="245" height="132" rx="8" fill="white" stroke="#326CE3" stroke-width="1.5"/>
  <text x="887.5" y="174" font-size="17" font-weight="650" fill="#050B24" text-anchor="middle">Control plane cluster</text>
  <text x="887.5" y="197" font-size="11" fill="#828592" text-anchor="middle">Control plane cluster values</text>

  <line x1="315" y1="188" x2="418" y2="188" stroke="#050B24" stroke-width="1.5" marker-end="url(#sync-patching-arrow)"/>
  <line x1="662" y1="188" x2="765" y2="188" stroke="#050B24" stroke-width="1.5" marker-end="url(#sync-patching-arrow)"/>
  <text x="366" y="160" font-size="10.5" fill="#828592" text-anchor="middle">
    <tspan x="366" dy="0">tenant to</tspan>
    <tspan x="366" dy="13">control plane</tspan>
  </text>
  <text x="713" y="173" font-size="11" fill="#828592" text-anchor="middle">rewritten value</text>

  <line x1="765" y1="236" x2="662" y2="236" stroke="#828592" stroke-width="1.5" marker-end="url(#sync-patching-arrow-muted)"/>
  <line x1="418" y1="236" x2="315" y2="236" stroke="#828592" stroke-width="1.5" marker-end="url(#sync-patching-arrow-muted)"/>
  <text x="713" y="255" font-size="10.5" fill="#828592" text-anchor="middle">
    <tspan x="713" dy="0">control plane</tspan>
    <tspan x="713" dy="13">to tenant</tspan>
  </text>
  <text x="366" y="255" font-size="11" fill="#828592" text-anchor="middle">transformed value</text>

  <rect x="392" y="294" width="296" height="32" rx="8" fill="white" stroke="#B4B6BD" stroke-width="1.5"/>
  <text x="540" y="315" font-size="12" font-weight="500" fill="#050B24" text-anchor="middle">Patch paths decide which fields are transformed</text>
</svg>
