<svg xmlns="http://www.w3.org/2000/svg" viewBox="0 0 1240 640" role="img" aria-labelledby="title desc" font-family="-apple-system, BlinkMacSystemFont, 'Segoe UI', Inter, Roboto, Helvetica, Arial, sans-serif">
  <title id="title">Three ways to deploy vCluster</title>
  <desc id="desc">Side-by-side comparison of deploying vCluster as a pod on a Kubernetes cluster, as a standalone binary on bare metal or VMs, and as containers on Docker using vind.</desc>

  <defs>
    <!-- vCluster V mark (from brand logo, used as currentColor so it can be tinted) -->
    <symbol id="vmark" viewBox="0 0 400 400">
      <path fill="currentColor" fill-rule="evenodd" clip-rule="evenodd" d="M323.667 97.4801L271.365 189.801L271.046 190.371L246.732 233.282L216.874 180.609L251.627 119.459V119.42C252.131 118.504 252.648 117.602 253.179 116.727C253.179 116.727 253.179 116.727 253.179 116.7L253.206 116.661C262.186 101.937 278.116 91.9355 296.448 91.2192C297.137 91.1927 297.84 91.1794 298.543 91.1794C299.246 91.1794 299.95 91.1794 300.639 91.2192C308.943 91.5376 316.756 93.766 323.653 97.4934L323.667 97.4801Z"/>
      <path fill="currentColor" fill-rule="evenodd" clip-rule="evenodd" d="M232.301 101.499L202.31 154.239H129.58C112.204 154.239 96.0611 145.67 86.3117 131.543C86.2321 131.437 86.1657 131.331 86.0994 131.238C85.9535 131.026 85.8076 130.814 85.675 130.602C85.025 129.62 84.4149 128.612 83.8312 127.591L83.2874 126.622C79.2682 119.207 77 110.731 77 101.712C77 101.645 77 101.579 77 101.513H232.314L232.301 101.499Z"/>
      <path fill="currentColor" fill-rule="evenodd" clip-rule="evenodd" d="M230.842 270.635C230.842 290.16 220.124 307.192 204.246 316.159L152.754 225.217L127.445 180.529H187.427L223.599 244.093C223.626 244.132 223.639 244.159 223.666 244.199L224.024 244.822C225.324 247.09 226.425 249.438 227.353 251.839C227.406 251.972 227.459 252.118 227.512 252.25C229.661 257.967 230.842 264.175 230.842 270.648V270.635Z"/>
    </symbol>

    <!-- Kubernetes heptagonal helm (generic, stroked) -->
    <symbol id="k8s-mark" viewBox="0 0 100 100">
      <polygon points="50,6 86,26 86,74 50,94 14,74 14,26" fill="none" stroke="currentColor" stroke-width="3" stroke-linejoin="round"/>
      <circle cx="50" cy="50" r="10" fill="none" stroke="currentColor" stroke-width="3"/>
      <g stroke="currentColor" stroke-width="3" stroke-linecap="round">
        <line x1="50" y1="40" x2="50" y2="18"/>
        <line x1="58" y1="45" x2="78" y2="34"/>
        <line x1="58" y1="55" x2="78" y2="66"/>
        <line x1="50" y1="60" x2="50" y2="82"/>
        <line x1="42" y1="55" x2="22" y2="66"/>
        <line x1="42" y1="45" x2="22" y2="34"/>
      </g>
    </symbol>

    <!-- Docker-style container stack (containers on a whale back) -->
    <symbol id="docker-mark" viewBox="0 0 120 80">
      <g fill="currentColor">
        <rect x="12" y="30" width="14" height="14" rx="1.5"/>
        <rect x="30" y="30" width="14" height="14" rx="1.5"/>
        <rect x="48" y="30" width="14" height="14" rx="1.5"/>
        <rect x="66" y="30" width="14" height="14" rx="1.5"/>
        <rect x="30" y="14" width="14" height="14" rx="1.5"/>
        <rect x="48" y="14" width="14" height="14" rx="1.5"/>
      </g>
      <path d="M6 48 Q 60 68 114 48 L 114 58 Q 60 78 6 58 Z" fill="currentColor" opacity="0.6"/>
      <circle cx="102" cy="46" r="3" fill="currentColor"/>
    </symbol>

    <!-- 1U server / rack unit -->
    <symbol id="server" viewBox="0 0 120 22">
      <rect x="1" y="1" width="118" height="20" rx="3" fill="none" stroke="currentColor" stroke-width="1.5"/>
      <circle cx="10" cy="11" r="1.8" fill="currentColor"/>
      <circle cx="16" cy="11" r="1.8" fill="currentColor" opacity="0.6"/>
      <rect x="26" y="7" width="34" height="3" rx="1" fill="currentColor" opacity="0.55"/>
      <rect x="26" y="12" width="22" height="3" rx="1" fill="currentColor" opacity="0.35"/>
      <rect x="78" y="5" width="36" height="12" rx="1.5" fill="none" stroke="currentColor" stroke-width="1" opacity="0.6"/>
    </symbol>

    <!-- VM tile -->
    <symbol id="vm" viewBox="0 0 60 44">
      <rect x="1" y="1" width="58" height="42" rx="4" fill="none" stroke="currentColor" stroke-width="1.5"/>
      <rect x="8" y="8" width="44" height="4" rx="1" fill="currentColor" opacity="0.5"/>
      <rect x="8" y="16" width="28" height="3" rx="1" fill="currentColor" opacity="0.3"/>
      <rect x="8" y="22" width="36" height="3" rx="1" fill="currentColor" opacity="0.3"/>
      <rect x="8" y="28" width="20" height="3" rx="1" fill="currentColor" opacity="0.3"/>
      <text x="50" y="38" text-anchor="end" font-size="6" fill="currentColor" opacity="0.7" font-weight="600">VM</text>
    </symbol>

    <!-- Subtle background grid -->
    <pattern id="grid" width="40" height="40" patternUnits="userSpaceOnUse">
      <path d="M 40 0 L 0 0 0 40" fill="none" stroke="#FF6600" stroke-width="0.6" opacity="0.05"/>
    </pattern>

    <!-- Soft orange glow for the vCluster row -->
    <radialGradient id="orangeGlow" cx="50%" cy="50%" r="50%">
      <stop offset="0%" stop-color="#FF6600" stop-opacity="0.28"/>
      <stop offset="100%" stop-color="#FF6600" stop-opacity="0"/>
    </radialGradient>
  </defs>

  <!-- Background -->
  <rect width="1240" height="640" fill="#060B24"/>
  <rect width="1240" height="640" fill="url(#grid)"/>

  <!-- Header -->
  <g>
    <text x="620" y="60" text-anchor="middle" fill="#FFFFFF" font-size="28" font-weight="700" letter-spacing="-0.4">
      Three ways to deploy vCluster
    </text>
    <text x="620" y="90" text-anchor="middle" fill="#9AA3C2" font-size="15" font-weight="400">
      Your infrastructure determines your deployment path
    </text>
  </g>

  <!-- ============================================================= -->
  <!-- PANEL 1 — On Kubernetes                                       -->
  <!-- ============================================================= -->
  <g transform="translate(40, 130)">
    <rect width="380" height="480" rx="14" fill="#0B1230" stroke="#1F2849" stroke-width="1"/>

    <!-- Header -->
    <circle cx="36" cy="42" r="16" fill="#FF6600"/>
    <text x="36" y="48" text-anchor="middle" font-size="14" font-weight="700" fill="#FFFFFF">1</text>
    <text x="64" y="40" fill="#FFFFFF" font-size="16" font-weight="600">On Kubernetes</text>
    <text x="64" y="58" fill="#9AA3C2" font-size="12">Pods on any conformant cluster</text>

    <!-- Stage area -->
    <g transform="translate(30, 92)">
      <!-- Infrastructure base layer -->
      <g transform="translate(0, 276)">
        <rect width="320" height="56" rx="8" fill="#0E1636" stroke="#23305A" stroke-width="1"/>
        <text x="12" y="16" fill="#6E7AA5" font-size="9" font-weight="700" letter-spacing="0.8">INFRASTRUCTURE</text>
        <g transform="translate(14, 22)" color="#6E7AA5">
          <use href="#server" x="0"   y="0" width="96" height="15"/>
          <use href="#server" x="100" y="0" width="96" height="15"/>
          <use href="#server" x="200" y="0" width="96" height="15"/>
        </g>
      </g>

      <!-- Kubernetes host cluster layer -->
      <g transform="translate(0, 120)">
        <rect width="320" height="140" rx="10" fill="#121B42" stroke="#2B3A70" stroke-width="1.2"/>
        <text x="12" y="18" fill="#8FA3D9" font-size="9" font-weight="700" letter-spacing="0.8">HOST KUBERNETES CLUSTER</text>
        <g transform="translate(282, 10)" color="#8FA3D9">
          <use href="#k8s-mark" width="26" height="26"/>
        </g>

        <!-- vCluster pods living inside the host cluster -->
        <g transform="translate(18, 34)">
          <!-- pod 1 -->
          <g>
            <rect width="88" height="92" rx="8" fill="#060B24" stroke="#FF6600" stroke-width="1.4"/>
            <g transform="translate(26, 10)" color="#FF6600">
              <use href="#vmark" width="36" height="36"/>
            </g>
            <text x="44" y="66" text-anchor="middle" fill="#FFFFFF" font-size="9" font-weight="600">tenant-a</text>
            <rect x="14" y="74" width="60" height="10" rx="2" fill="#FF6600" opacity="0.18"/>
            <text x="44" y="82" text-anchor="middle" fill="#FF6600" font-size="7" font-weight="700" letter-spacing="0.4">VCLUSTER POD</text>
          </g>
          <!-- pod 2 -->
          <g transform="translate(98, 0)">
            <rect width="88" height="92" rx="8" fill="#060B24" stroke="#FF6600" stroke-width="1.4"/>
            <g transform="translate(26, 10)" color="#FF6600">
              <use href="#vmark" width="36" height="36"/>
            </g>
            <text x="44" y="66" text-anchor="middle" fill="#FFFFFF" font-size="9" font-weight="600">tenant-b</text>
            <rect x="14" y="74" width="60" height="10" rx="2" fill="#FF6600" opacity="0.18"/>
            <text x="44" y="82" text-anchor="middle" fill="#FF6600" font-size="7" font-weight="700" letter-spacing="0.4">VCLUSTER POD</text>
          </g>
          <!-- pod 3 -->
          <g transform="translate(196, 0)">
            <rect width="88" height="92" rx="8" fill="#060B24" stroke="#FF6600" stroke-width="1.4"/>
            <g transform="translate(26, 10)" color="#FF6600">
              <use href="#vmark" width="36" height="36"/>
            </g>
            <text x="44" y="66" text-anchor="middle" fill="#FFFFFF" font-size="9" font-weight="600">tenant-c</text>
            <rect x="14" y="74" width="60" height="10" rx="2" fill="#FF6600" opacity="0.18"/>
            <text x="44" y="82" text-anchor="middle" fill="#FF6600" font-size="7" font-weight="700" letter-spacing="0.4">VCLUSTER POD</text>
          </g>
        </g>
      </g>

      <!-- Top tag: vCluster tenant clusters -->
      <g transform="translate(0, 0)">
        <ellipse cx="160" cy="60" rx="180" ry="54" fill="url(#orangeGlow)"/>
        <rect x="40" y="38" width="240" height="48" rx="10" fill="#1A0D04" stroke="#FF6600" stroke-width="1.5"/>
        <g transform="translate(52, 48)" color="#FF6600">
          <use href="#vmark" width="28" height="28"/>
        </g>
        <text x="86" y="60" fill="#FFFFFF" font-size="12" font-weight="700">Tenant clusters</text>
        <text x="86" y="76" fill="#FF9A57" font-size="10" font-weight="500">shared or private nodes</text>
      </g>

      <!-- Connector lines from top tag to pods -->
      <g stroke="#FF6600" stroke-width="1" opacity="0.55" stroke-dasharray="3 3">
        <line x1="118" y1="92" x2="80" y2="128"/>
        <line x1="160" y1="92" x2="160" y2="128"/>
        <line x1="202" y1="92" x2="240" y2="128"/>
      </g>
    </g>

    <!-- Caption -->
    <text x="30" y="438" fill="#D8DEF1" font-size="12" font-weight="500">Runs on EKS, GKE, AKS, OpenShift,</text>
    <text x="30" y="456" fill="#D8DEF1" font-size="12" font-weight="500">and self-managed clusters.</text>
    <text x="30" y="472" fill="#6E7AA5" font-size="11">Best for internal platforms and CI/CD.</text>
  </g>

  <!-- ============================================================= -->
  <!-- PANEL 2 — On Bare Metal / VMs (Standalone)                    -->
  <!-- ============================================================= -->
  <g transform="translate(430, 130)">
    <rect width="380" height="480" rx="14" fill="#0B1230" stroke="#1F2849" stroke-width="1"/>

    <!-- Header -->
    <circle cx="36" cy="42" r="16" fill="#FF6600"/>
    <text x="36" y="48" text-anchor="middle" font-size="14" font-weight="700" fill="#FFFFFF">2</text>
    <text x="64" y="40" fill="#FFFFFF" font-size="16" font-weight="600">On bare metal or VMs</text>
    <text x="64" y="58" fill="#9AA3C2" font-size="12">vCluster Standalone, zero dependencies</text>

    <g transform="translate(30, 92)">
      <!-- Infrastructure base layer: mixed bare metal + VMs in a single row -->
      <g transform="translate(0, 276)">
        <rect width="320" height="56" rx="8" fill="#0E1636" stroke="#23305A" stroke-width="1"/>
        <text x="12" y="16" fill="#6E7AA5" font-size="9" font-weight="700" letter-spacing="0.8">BARE METAL &amp; VMS</text>
        <g transform="translate(14, 22)" color="#6E7AA5">
          <use href="#server" x="0"   y="4" width="80" height="14"/>
          <use href="#vm"     x="86"  y="0" width="22" height="22"/>
          <use href="#vm"     x="112" y="0" width="22" height="22"/>
          <use href="#server" x="140" y="4" width="80" height="14"/>
          <use href="#vm"     x="226" y="0" width="22" height="22"/>
          <use href="#vm"     x="252" y="0" width="22" height="22"/>
        </g>
      </g>

      <!-- Standalone binary layer: control plane + workers sit DIRECTLY on hardware -->
      <g transform="translate(0, 120)">
        <!-- Dashed outline marking where a Kubernetes layer would have been -->
        <rect width="320" height="140" rx="10" fill="none" stroke="#2B3A70" stroke-width="1.2" stroke-dasharray="3 4" opacity="0.45"/>
        <text x="12" y="18" fill="#5A6690" font-size="9" font-weight="700" letter-spacing="0.8" opacity="0.8">NO HOST CLUSTER</text>

        <!-- Control plane + workers as orange-bordered cards, styled like panels 1 & 3 -->
        <g transform="translate(18, 34)">
          <!-- Control plane -->
          <g>
            <rect width="88" height="92" rx="8" fill="#060B24" stroke="#FF6600" stroke-width="1.4"/>
            <g transform="translate(26, 10)" color="#FF6600">
              <use href="#vmark" width="36" height="36"/>
            </g>
            <text x="44" y="66" text-anchor="middle" fill="#FFFFFF" font-size="9" font-weight="600">cluster</text>
            <rect x="14" y="74" width="60" height="10" rx="2" fill="#FF6600" opacity="0.18"/>
            <text x="44" y="82" text-anchor="middle" fill="#FF6600" font-size="7" font-weight="700" letter-spacing="0.4">STANDALONE</text>
          </g>
          <!-- Worker 1 -->
          <g transform="translate(98, 0)">
            <rect width="88" height="92" rx="8" fill="#060B24" stroke="#FF9A57" stroke-width="1.2" stroke-dasharray="4 3"/>
            <circle cx="44" cy="28" r="16" fill="none" stroke="#FF9A57" stroke-width="1.5"/>
            <circle cx="44" cy="28" r="5" fill="#FF9A57"/>
            <text x="44" y="66" text-anchor="middle" fill="#FFFFFF" font-size="9" font-weight="600">worker</text>
            <rect x="14" y="74" width="60" height="10" rx="2" fill="#FF9A57" opacity="0.18"/>
            <text x="44" y="82" text-anchor="middle" fill="#FF9A57" font-size="7" font-weight="700" letter-spacing="0.4">NODE</text>
          </g>
          <!-- Worker 2 -->
          <g transform="translate(196, 0)">
            <rect width="88" height="92" rx="8" fill="#060B24" stroke="#FF9A57" stroke-width="1.2" stroke-dasharray="4 3"/>
            <circle cx="44" cy="28" r="16" fill="none" stroke="#FF9A57" stroke-width="1.5"/>
            <circle cx="44" cy="28" r="5" fill="#FF9A57"/>
            <text x="44" y="66" text-anchor="middle" fill="#FFFFFF" font-size="9" font-weight="600">worker</text>
            <rect x="14" y="74" width="60" height="10" rx="2" fill="#FF9A57" opacity="0.18"/>
            <text x="44" y="82" text-anchor="middle" fill="#FF9A57" font-size="7" font-weight="700" letter-spacing="0.4">NODE</text>
          </g>
        </g>
      </g>

      <!-- Top tag: Standalone cluster (matches panels 1 and 3) -->
      <g transform="translate(0, 0)">
        <ellipse cx="160" cy="60" rx="180" ry="54" fill="url(#orangeGlow)"/>
        <rect x="40" y="38" width="240" height="48" rx="10" fill="#1A0D04" stroke="#FF6600" stroke-width="1.5"/>
        <g transform="translate(52, 48)" color="#FF6600">
          <use href="#vmark" width="28" height="28"/>
        </g>
        <text x="86" y="60" fill="#FFFFFF" font-size="12" font-weight="700">Standalone cluster</text>
        <text x="86" y="76" fill="#FF9A57" font-size="10" font-weight="500">single binary, no dependencies</text>
      </g>

      <!-- Connector lines from top tag down to the Standalone control plane + workers -->
      <g stroke="#FF6600" stroke-width="1" opacity="0.55" stroke-dasharray="3 3">
        <line x1="118" y1="92" x2="62"  y2="154"/>
        <line x1="160" y1="92" x2="160" y2="154"/>
        <line x1="202" y1="92" x2="258" y2="154"/>
      </g>
    </g>

    <!-- Caption -->
    <text x="30" y="438" fill="#D8DEF1" font-size="12" font-weight="500">No host cluster, no heavyweight distro.</text>
    <text x="30" y="456" fill="#D8DEF1" font-size="12" font-weight="500">Join remote nodes via bootstrap token.</text>
    <text x="30" y="472" fill="#6E7AA5" font-size="11">Best for GPU, edge, and air-gapped sites.</text>
  </g>

  <!-- ============================================================= -->
  <!-- PANEL 3 — On Docker (vind)                                    -->
  <!-- ============================================================= -->
  <g transform="translate(820, 130)">
    <rect width="380" height="480" rx="14" fill="#0B1230" stroke="#1F2849" stroke-width="1"/>

    <!-- Header -->
    <circle cx="36" cy="42" r="16" fill="#FF6600"/>
    <text x="36" y="48" text-anchor="middle" font-size="14" font-weight="700" fill="#FFFFFF">3</text>
    <text x="64" y="40" fill="#FFFFFF" font-size="16" font-weight="600">On Docker</text>
    <text x="64" y="58" fill="#9AA3C2" font-size="12">vind — vCluster in Docker</text>

    <g transform="translate(30, 92)">
      <!-- Infrastructure base layer: a laptop / dev machine silhouette -->
      <g transform="translate(0, 276)">
        <rect width="320" height="56" rx="8" fill="#0E1636" stroke="#23305A" stroke-width="1"/>
        <text x="12" y="16" fill="#6E7AA5" font-size="9" font-weight="700" letter-spacing="0.8">LAPTOP OR CI RUNNER</text>
        <g transform="translate(122, 20)" fill="none" stroke="#6E7AA5" stroke-width="1.4" stroke-linejoin="round" stroke-linecap="round">
          <rect x="0" y="0" width="76" height="26" rx="2"/>
          <rect x="4" y="4" width="68" height="18" rx="1" fill="#060B24"/>
          <path d="M -6 28 L 82 28 L 78 32 L -2 32 Z" fill="#6E7AA5" opacity="0.25" stroke="none"/>
          <line x1="10" y1="10" x2="22" y2="10" stroke="#FF6600" opacity="0.7"/>
          <line x1="10" y1="15" x2="40" y2="15" stroke="#6E7AA5" opacity="0.5"/>
        </g>
      </g>

      <!-- Docker layer -->
      <g transform="translate(0, 120)">
        <rect width="320" height="140" rx="10" fill="#121B42" stroke="#2B3A70" stroke-width="1.2"/>
        <text x="12" y="18" fill="#8FA3D9" font-size="9" font-weight="700" letter-spacing="0.8">DOCKER HOST</text>
        <g transform="translate(280, 8)" color="#8FA3D9">
          <use href="#docker-mark" width="32" height="22"/>
        </g>

        <!-- Container tiles representing the vind cluster (control plane + workers) -->
        <g transform="translate(18, 34)">
          <!-- Control plane container -->
          <g>
            <rect width="88" height="92" rx="6" fill="#060B24" stroke="#FF6600" stroke-width="1.4"/>
            <g transform="translate(26, 8)" color="#FF6600">
              <use href="#vmark" width="36" height="36"/>
            </g>
            <text x="44" y="62" text-anchor="middle" fill="#FFFFFF" font-size="9" font-weight="600">control plane</text>
            <rect x="10" y="72" width="68" height="12" rx="2" fill="#FF6600" opacity="0.18"/>
            <text x="44" y="80" text-anchor="middle" fill="#FF6600" font-size="7" font-weight="700" letter-spacing="0.4">CONTAINER</text>
          </g>
          <!-- Worker container 1 -->
          <g transform="translate(98, 0)">
            <rect width="88" height="92" rx="6" fill="#060B24" stroke="#FF9A57" stroke-width="1.2" stroke-dasharray="4 3"/>
            <circle cx="44" cy="28" r="16" fill="none" stroke="#FF9A57" stroke-width="1.5"/>
            <circle cx="44" cy="28" r="5" fill="#FF9A57"/>
            <text x="44" y="62" text-anchor="middle" fill="#FFFFFF" font-size="9" font-weight="600">worker</text>
            <rect x="10" y="72" width="68" height="12" rx="2" fill="#FF9A57" opacity="0.18"/>
            <text x="44" y="80" text-anchor="middle" fill="#FF9A57" font-size="7" font-weight="700" letter-spacing="0.4">CONTAINER</text>
          </g>
          <!-- Worker container 2 -->
          <g transform="translate(196, 0)">
            <rect width="88" height="92" rx="6" fill="#060B24" stroke="#FF9A57" stroke-width="1.2" stroke-dasharray="4 3"/>
            <circle cx="44" cy="28" r="16" fill="none" stroke="#FF9A57" stroke-width="1.5"/>
            <circle cx="44" cy="28" r="5" fill="#FF9A57"/>
            <text x="44" y="62" text-anchor="middle" fill="#FFFFFF" font-size="9" font-weight="600">worker</text>
            <rect x="10" y="72" width="68" height="12" rx="2" fill="#FF9A57" opacity="0.18"/>
            <text x="44" y="80" text-anchor="middle" fill="#FF9A57" font-size="7" font-weight="700" letter-spacing="0.4">CONTAINER</text>
          </g>
        </g>
      </g>

      <!-- Top tag: vind cluster -->
      <g transform="translate(0, 0)">
        <ellipse cx="160" cy="60" rx="180" ry="54" fill="url(#orangeGlow)"/>
        <rect x="40" y="38" width="240" height="48" rx="10" fill="#1A0D04" stroke="#FF6600" stroke-width="1.5"/>
        <g transform="translate(52, 48)" color="#FF6600">
          <use href="#vmark" width="28" height="28"/>
        </g>
        <text x="86" y="60" fill="#FFFFFF" font-size="12" font-weight="700">vind cluster</text>
        <text x="86" y="76" fill="#FF9A57" font-size="10" font-weight="500">control plane + workers</text>
      </g>

      <!-- Connector lines from top tag to containers -->
      <g stroke="#FF6600" stroke-width="1" opacity="0.55" stroke-dasharray="3 3">
        <line x1="118" y1="92" x2="80" y2="128"/>
        <line x1="160" y1="92" x2="160" y2="128"/>
        <line x1="202" y1="92" x2="240" y2="128"/>
      </g>
    </g>

    <!-- Caption -->
    <text x="30" y="438" fill="#D8DEF1" font-size="12" font-weight="500">Full Kubernetes in Docker containers.</text>
    <text x="30" y="456" fill="#D8DEF1" font-size="12" font-weight="500">Docker is the only requirement.</text>
    <text x="30" y="472" fill="#6E7AA5" font-size="11">Best for local dev, offline CI, and testing.</text>
  </g>

  <!-- Bottom watermark -->
  <g transform="translate(1180, 610)" opacity="0.35" color="#FF6600">
    <use href="#vmark" width="36" height="36"/>
  </g>
</svg>
