<svg viewBox="0 0 1000 460" xmlns="http://www.w3.org/2000/svg" role="img" aria-label="vCluster Platform management plane connected to two connected clusters">
  <defs>
    <marker id="platform-overview-arrow" viewBox="0 0 10 7" markerWidth="8" markerHeight="6" refX="9" refY="3.5" orient="auto">
      <path d="M0,0 L10,3.5 L0,7 Z" fill="#828592"/>
    </marker>
    <style>
      text { font-family: Inter, -apple-system, BlinkMacSystemFont, "Segoe UI", sans-serif; }
      .label { font-size: 14px; font-weight: 600; fill: #050B24; }
      .small { font-size: 12px; fill: #505466; }
      .caption { font-size: 12px; font-weight: 500; fill: #828592; }
    </style>
  </defs>

  <rect width="1000" height="460" rx="18" fill="#FFFFFF"/>

  <rect x="40" y="185" width="170" height="90" rx="10" fill="#FFF8F3" stroke="#FF6600" stroke-width="1.5"/>
  <text x="125" y="222" text-anchor="middle" class="label">Users</text>
  <text x="125" y="245" text-anchor="middle" class="small">UI, CLI, API</text>

  <rect x="280" y="50" width="310" height="360" rx="16" fill="#F8FBFF" stroke="#6B88A6" stroke-width="1.2"/>
  <text x="435" y="82" text-anchor="middle" font-size="16" font-weight="700" fill="#050B24">vCluster Platform</text>
  <text x="435" y="104" text-anchor="middle" class="caption">Management plane</text>

  <rect x="315" y="130" width="105" height="58" rx="8" fill="#FFFFFF" stroke="#B4B6BD" stroke-width="1.2"/>
  <text x="367.5" y="154" text-anchor="middle" class="label">Web UI</text>
  <text x="367.5" y="173" text-anchor="middle" class="small">Browser</text>

  <rect x="450" y="130" width="105" height="58" rx="8" fill="#FFFFFF" stroke="#B4B6BD" stroke-width="1.2"/>
  <text x="502.5" y="154" text-anchor="middle" class="label">Gateway</text>
  <text x="502.5" y="173" text-anchor="middle" class="small">Auth</text>

  <rect x="315" y="225" width="105" height="58" rx="8" fill="#FFFFFF" stroke="#B4B6BD" stroke-width="1.2"/>
  <text x="367.5" y="249" text-anchor="middle" class="label">API</text>
  <text x="367.5" y="268" text-anchor="middle" class="small">Resources</text>

  <rect x="450" y="225" width="105" height="58" rx="8" fill="#FFFFFF" stroke="#B4B6BD" stroke-width="1.2"/>
  <text x="502.5" y="249" text-anchor="middle" class="label">Controllers</text>
  <text x="502.5" y="268" text-anchor="middle" class="small">Reconcile</text>

  <rect x="355" y="320" width="160" height="58" rx="8" fill="#FFF8F3" stroke="#FF6600" stroke-width="1.5"/>
  <text x="435" y="344" text-anchor="middle" class="label">Backing store</text>
  <text x="435" y="363" text-anchor="middle" class="small">CRDs or database</text>

  <rect x="680" y="55" width="270" height="160" rx="16" fill="#FFFFFF" stroke="#B4B6BD" stroke-width="1.2"/>
  <text x="815" y="84" text-anchor="middle" font-size="15" font-weight="700" fill="#050B24">Connected Cluster</text>
  <rect x="710" y="112" width="95" height="48" rx="7" fill="#FFF8F3" stroke="#FF6600" stroke-width="1.2"/>
  <text x="757.5" y="141" text-anchor="middle" class="small">Agent</text>
  <rect x="825" y="112" width="95" height="48" rx="7" fill="#F3F5F9" stroke="#B4B6BD" stroke-width="1"/>
  <text x="872.5" y="141" text-anchor="middle" class="small">Tenant</text>
  <text x="815" y="188" text-anchor="middle" class="caption">Namespaces, RBAC, Helm releases</text>

  <rect x="680" y="250" width="270" height="160" rx="16" fill="#FFFFFF" stroke="#B4B6BD" stroke-width="1.2"/>
  <text x="815" y="279" text-anchor="middle" font-size="15" font-weight="700" fill="#050B24">Connected Cluster</text>
  <rect x="710" y="307" width="95" height="48" rx="7" fill="#FFF8F3" stroke="#FF6600" stroke-width="1.2"/>
  <text x="757.5" y="336" text-anchor="middle" class="small">Agent</text>
  <rect x="825" y="307" width="95" height="48" rx="7" fill="#F3F5F9" stroke="#B4B6BD" stroke-width="1"/>
  <text x="872.5" y="336" text-anchor="middle" class="small">Tenant</text>

  <line x1="210" y1="230" x2="280" y2="230" stroke="#828592" stroke-width="1.6" marker-end="url(#platform-overview-arrow)"/>
  <text x="245" y="216" text-anchor="middle" class="caption">requests</text>

  <line x1="420" y1="159" x2="450" y2="159" stroke="#828592" stroke-width="1.4" marker-end="url(#platform-overview-arrow)"/>
  <line x1="502" y1="188" x2="385" y2="225" stroke="#828592" stroke-width="1.4" marker-end="url(#platform-overview-arrow)"/>
  <line x1="420" y1="254" x2="450" y2="254" stroke="#828592" stroke-width="1.4" marker-end="url(#platform-overview-arrow)"/>
  <line x1="368" y1="283" x2="395" y2="320" stroke="#828592" stroke-width="1.4" marker-end="url(#platform-overview-arrow)"/>
  <line x1="503" y1="283" x2="475" y2="320" stroke="#828592" stroke-width="1.4" marker-end="url(#platform-overview-arrow)"/>
  <line x1="590" y1="160" x2="680" y2="135" stroke="#828592" stroke-width="1.6" marker-end="url(#platform-overview-arrow)"/>
  <line x1="590" y1="300" x2="680" y2="330" stroke="#828592" stroke-width="1.6" marker-end="url(#platform-overview-arrow)"/>
  <text x="635" y="128" text-anchor="middle" class="caption">reconcile</text>
  <text x="635" y="348" text-anchor="middle" class="caption">reconcile</text>
</svg>
