<svg viewBox="0 0 1000 420" xmlns="http://www.w3.org/2000/svg" role="img" aria-label="Project membership defines who can access a project while project ownership identifies the user or team the project belongs to">
  <defs>
    <marker id="project-arrow" viewBox="0 0 10 7" markerWidth="8" markerHeight="6" refX="9" refY="3.5" orient="auto">
      <path d="M0,0 L10,3.5 L0,7 Z" fill="#828592"/>
    </marker>
    <style>
      text { font-family: Inter, -apple-system, BlinkMacSystemFont, "Segoe UI", sans-serif; }
      .title { font-size: 18px; font-weight: 700; fill: #050B24; }
      .label { font-size: 14px; font-weight: 600; fill: #050B24; }
      .small { font-size: 12px; fill: #505466; }
      .tiny { font-size: 11px; fill: #828592; }
      .code { font-size: 12px; font-family: "SFMono-Regular", Consolas, monospace; fill: #263147; }
    </style>
  </defs>

  <rect width="1000" height="420" rx="18" fill="#FFFFFF"/>

  <text x="500" y="42" text-anchor="middle" class="title">Project members and owners answer different questions</text>
  <text x="500" y="66" text-anchor="middle" class="small">Members define who can access the project. The owner identifies who the project belongs to.</text>

  <rect x="55" y="105" width="250" height="235" rx="16" fill="#FFF8F3" stroke="#FF6600" stroke-width="1.6"/>
  <text x="180" y="138" text-anchor="middle" class="label">Project members</text>
  <text x="180" y="160" text-anchor="middle" class="small">Many users and teams</text>

  <rect x="86" y="190" width="188" height="38" rx="7" fill="#FFFFFF" stroke="#B4B6BD" stroke-width="1"/>
  <text x="180" y="214" text-anchor="middle" class="code">User alice: admin</text>

  <rect x="86" y="242" width="188" height="38" rx="7" fill="#FFFFFF" stroke="#B4B6BD" stroke-width="1"/>
  <text x="180" y="266" text-anchor="middle" class="code">Team devs: edit</text>

  <rect x="86" y="294" width="188" height="38" rx="7" fill="#FFFFFF" stroke="#B4B6BD" stroke-width="1"/>
  <text x="180" y="318" text-anchor="middle" class="code">Team qa: view</text>

  <rect x="408" y="135" width="205" height="175" rx="16" fill="#F8FBFF" stroke="#6B88A6" stroke-width="1.2"/>
  <text x="510.5" y="172" text-anchor="middle" class="label">Project</text>
  <text x="510.5" y="196" text-anchor="middle" class="code">team-alpha</text>
  <rect x="444" y="230" width="133" height="42" rx="7" fill="#FFFFFF" stroke="#B4B6BD" stroke-width="1"/>
  <text x="510.5" y="256" text-anchor="middle" class="small">Policy boundary</text>

  <rect x="725" y="105" width="220" height="122" rx="16" fill="#FFF8F3" stroke="#FF6600" stroke-width="1.6"/>
  <text x="835" y="138" text-anchor="middle" class="label">Project owner</text>
  <text x="835" y="160" text-anchor="middle" class="small">One user or team</text>
  <rect x="766" y="184" width="138" height="34" rx="7" fill="#FFFFFF" stroke="#B4B6BD" stroke-width="1"/>
  <text x="835" y="206" text-anchor="middle" class="code">Team devs</text>

  <rect x="700" y="280" width="270" height="70" rx="10" fill="#F4F6FA"/>
  <text x="835" y="306" text-anchor="middle" class="label">Common pattern</text>
  <text x="835" y="328" text-anchor="middle" class="tiny">Owner and member can be the same team,</text>
  <text x="835" y="343" text-anchor="middle" class="tiny">but they are separate fields.</text>

  <line x1="305" y1="222" x2="408" y2="222" stroke="#828592" stroke-width="1.5" marker-end="url(#project-arrow)"/>
  <text x="356.5" y="210" text-anchor="middle" class="tiny">can access</text>

  <line x1="613" y1="202" x2="725" y2="166" stroke="#828592" stroke-width="1.5" marker-end="url(#project-arrow)"/>
  <text x="671" y="170" text-anchor="middle" class="tiny">belongs to</text>
</svg>
