<svg viewBox="0 0 1000 420" xmlns="http://www.w3.org/2000/svg" role="img" aria-label="Access starts with an authenticated user or team actor, then roles, project membership, and optional access key scope are applied">
  <defs>
    <marker id="access-arrow" viewBox="0 0 10 7" markerWidth="8" markerHeight="6" refX="9" refY="3.5" orient="auto">
      <path d="M0,0 L10,3.5 L0,7 Z" fill="#828592"/>
    </marker>
    <style>
      text { font-family: Inter, -apple-system, BlinkMacSystemFont, "Segoe UI", sans-serif; }
      .title { font-size: 18px; font-weight: 700; fill: #050B24; }
      .label { font-size: 14px; font-weight: 600; fill: #050B24; }
      .small { font-size: 12px; fill: #505466; }
      .tiny { font-size: 11px; fill: #828592; }
      .code { font-size: 12px; font-family: "SFMono-Regular", Consolas, monospace; fill: #263147; }
    </style>
  </defs>

  <rect width="1000" height="420" rx="18" fill="#FFFFFF"/>

  <text x="500" y="42" text-anchor="middle" class="title">Access starts with an actor, then roles and scopes apply</text>
  <text x="500" y="66" text-anchor="middle" class="small">Access keys authenticate as a user or team. Optional key scope can narrow access, but does not add permissions.</text>

  <rect x="45" y="115" width="180" height="86" rx="10" fill="#FFF8F3" stroke="#FF6600" stroke-width="1.6"/>
  <text x="135" y="145" text-anchor="middle" class="label">User actor</text>
  <text x="135" y="168" text-anchor="middle" class="code">login or user key</text>
  <text x="135" y="187" text-anchor="middle" class="code">alice</text>

  <rect x="45" y="275" width="180" height="86" rx="10" fill="#FFF8F3" stroke="#FF6600" stroke-width="1.6"/>
  <text x="135" y="305" text-anchor="middle" class="label">Team actor</text>
  <text x="135" y="328" text-anchor="middle" class="code">team access key</text>
  <text x="135" y="347" text-anchor="middle" class="code">app-team</text>

  <rect x="315" y="190" width="210" height="100" rx="14" fill="#F8FBFF" stroke="#6B88A6" stroke-width="1.2"/>
  <text x="420" y="223" text-anchor="middle" class="label">Authenticated actor</text>
  <text x="420" y="248" text-anchor="middle" class="small">Platform resolves the request</text>
  <text x="420" y="270" text-anchor="middle" class="small">to a user or team identity</text>

  <rect x="590" y="100" width="210" height="238" rx="16" fill="#F8FBFF" stroke="#6B88A6" stroke-width="1.2"/>
  <text x="695" y="135" text-anchor="middle" class="label">Additive grants</text>

  <rect x="610" y="155" width="170" height="42" rx="7" fill="#FFFFFF" stroke="#B4B6BD" stroke-width="1"/>
  <text x="695" y="181" text-anchor="middle" class="small">Direct user roles</text>

  <rect x="610" y="215" width="170" height="42" rx="7" fill="#FFFFFF" stroke="#B4B6BD" stroke-width="1"/>
  <text x="695" y="241" text-anchor="middle" class="small">Team roles</text>

  <rect x="610" y="275" width="170" height="42" rx="7" fill="#FFFFFF" stroke="#B4B6BD" stroke-width="1"/>
  <text x="695" y="301" text-anchor="middle" class="small">Project membership</text>

  <rect x="590" y="358" width="210" height="46" rx="12" fill="#F4F6FA" stroke="#828592" stroke-width="1.2" stroke-dasharray="5 4"/>
  <text x="695" y="386" text-anchor="middle" class="small">Access key scope narrows</text>

  <rect x="870" y="140" width="105" height="180" rx="12" fill="#FFFFFF" stroke="#B4B6BD" stroke-width="1.2"/>
  <text x="922.5" y="176" text-anchor="middle" class="label">Result</text>
  <text x="922.5" y="214" text-anchor="middle" class="small">Can manage</text>
  <text x="922.5" y="252" text-anchor="middle" class="small">Can access</text>
  <text x="922.5" y="290" text-anchor="middle" class="small">Can own</text>

  <line x1="225" y1="158" x2="315" y2="218" stroke="#828592" stroke-width="1.5" marker-end="url(#access-arrow)"/>
  <line x1="225" y1="318" x2="315" y2="262" stroke="#828592" stroke-width="1.5" marker-end="url(#access-arrow)"/>
  <line x1="525" y1="240" x2="590" y2="240" stroke="#828592" stroke-width="1.5" marker-end="url(#access-arrow)"/>
  <line x1="800" y1="240" x2="870" y2="240" stroke="#828592" stroke-width="1.5" marker-end="url(#access-arrow)"/>
  <line x1="800" y1="381" x2="870" y2="292" stroke="#828592" stroke-width="1.5" stroke-dasharray="5 4" marker-end="url(#access-arrow)"/>

  <text x="557.5" y="226" text-anchor="middle" class="tiny">evaluate</text>
  <text x="835" y="226" text-anchor="middle" class="tiny">allows</text>
  <text x="865" y="366" text-anchor="middle" class="tiny">narrows</text>
</svg>
