<svg viewBox="0 0 1000 470" xmlns="http://www.w3.org/2000/svg" role="img" aria-label="User authentication flow where team membership is resolved from explicit team users and matching SSO groups">
  <defs>
    <marker id="membership-arrow" viewBox="0 0 10 7" markerWidth="8" markerHeight="6" refX="9" refY="3.5" orient="auto">
      <path d="M0,0 L10,3.5 L0,7 Z" fill="#828592"/>
    </marker>
    <style>
      text { font-family: Inter, -apple-system, BlinkMacSystemFont, "Segoe UI", sans-serif; }
      .title { font-size: 18px; font-weight: 700; fill: #050B24; }
      .label { font-size: 14px; font-weight: 600; fill: #050B24; }
      .small { font-size: 12px; fill: #505466; }
      .tiny { font-size: 11px; fill: #828592; }
      .code { font-size: 12px; font-family: "SFMono-Regular", Consolas, monospace; fill: #263147; }
    </style>
  </defs>

  <rect width="1000" height="470" rx="18" fill="#FFFFFF"/>

  <text x="500" y="42" text-anchor="middle" class="title">User authentication resolves team membership</text>
  <text x="500" y="66" text-anchor="middle" class="small">For a user login or user access key, Platform adds team groups from direct assignment or matching SSO groups.</text>

  <rect x="55" y="125" width="215" height="105" rx="10" fill="#FFF8F3" stroke="#FF6600" stroke-width="1.6"/>
  <text x="162.5" y="156" text-anchor="middle" class="label">User</text>
  <text x="162.5" y="181" text-anchor="middle" class="code">metadata.name: alice</text>
  <text x="162.5" y="204" text-anchor="middle" class="code">spec.groups: devs</text>

  <rect x="55" y="280" width="215" height="105" rx="10" fill="#FFF8F3" stroke="#FF6600" stroke-width="1.6"/>
  <text x="162.5" y="311" text-anchor="middle" class="label">SSO token</text>
  <text x="162.5" y="336" text-anchor="middle" class="code">subject: alice@example.com</text>
  <text x="162.5" y="359" text-anchor="middle" class="code">groups: devs</text>

  <rect x="392" y="110" width="245" height="290" rx="16" fill="#F8FBFF" stroke="#6B88A6" stroke-width="1.2"/>
  <text x="514.5" y="145" text-anchor="middle" class="label">Team</text>
  <text x="514.5" y="169" text-anchor="middle" class="code">metadata.name: app-team</text>

  <rect x="425" y="205" width="179" height="62" rx="8" fill="#FFFFFF" stroke="#B4B6BD" stroke-width="1"/>
  <text x="514.5" y="230" text-anchor="middle" class="label">Direct members</text>
  <text x="514.5" y="251" text-anchor="middle" class="code">spec.users: alice</text>

  <rect x="425" y="302" width="179" height="62" rx="8" fill="#FFFFFF" stroke="#B4B6BD" stroke-width="1"/>
  <text x="514.5" y="327" text-anchor="middle" class="label">Group members</text>
  <text x="514.5" y="348" text-anchor="middle" class="code">spec.groups: devs</text>

  <rect x="755" y="165" width="190" height="140" rx="12" fill="#FFFFFF" stroke="#B4B6BD" stroke-width="1.2"/>
  <text x="850" y="208" text-anchor="middle" class="label">Effective identity</text>
  <text x="850" y="235" text-anchor="middle" class="code">user: alice@example.com</text>
  <text x="850" y="258" text-anchor="middle" class="code">group: loft:user:alice</text>
  <text x="850" y="281" text-anchor="middle" class="code">group: loft:team:app-team</text>

  <line x1="162.5" y1="280" x2="162.5" y2="230" stroke="#828592" stroke-width="1.5" marker-end="url(#membership-arrow)"/>
  <text x="222" y="258" text-anchor="middle" class="tiny">syncs groups</text>

  <line x1="270" y1="177" x2="392" y2="225" stroke="#828592" stroke-width="1.5" marker-end="url(#membership-arrow)"/>

  <line x1="270" y1="204" x2="392" y2="333" stroke="#828592" stroke-width="1.5" marker-end="url(#membership-arrow)"/>

  <line x1="637" y1="235" x2="755" y2="235" stroke="#828592" stroke-width="1.5" marker-end="url(#membership-arrow)"/>
  <text x="696" y="222" text-anchor="middle" class="tiny">adds team group</text>

  <rect x="340" y="420" width="350" height="30" rx="15" fill="#F4F6FA"/>
  <text x="514.5" y="440" text-anchor="middle" class="tiny">Platform records the resolved team list on user status.</text>
</svg>
