<?xml version="1.0" encoding="utf-8"?>
<!-- Generator: Adobe Illustrator 26.5.0, SVG Export Plug-In . SVG Version: 6.00 Build 0)  -->
<svg version="1.1" id="Layer_1" xmlns="http://www.w3.org/2000/svg" xmlns:xlink="http://www.w3.org/1999/xlink" x="0px" y="0px"
	 viewBox="0 0 684 350" style="enable-background:new 0 0 684 350;" xml:space="preserve">
<style type="text/css">
	.st0{fill:#FFFFFF;}
	.st1{fill-rule:evenodd;clip-rule:evenodd;fill:#FFFFFF;}
</style>
<g>
	<path class="st0" d="M267.9,177.1c-3.5-6.8-7.1-14.8-10.7-24s-7-19.2-10.2-30h16.2c0.7,2.6,1.5,5.6,2.4,8.7s1.9,6.3,2.9,9.4
		c1,3.2,2,6.3,3,9.3c1,3,2,5.7,2.9,8.2c0.9-2.5,1.8-5.2,2.9-8.2s2.1-6.1,3-9.3c1-3.2,2-6.3,2.9-9.4c0.9-3.1,1.7-6,2.4-8.7h15.9
		c-3.2,10.8-6.7,20.8-10.2,30c-3.6,9.2-7.2,17.2-10.6,24L267.9,177.1L267.9,177.1z"/>
	<path class="st0" d="M354.7,162.4c-0.8,0.3-1.6,0.5-2.5,0.8c-1.4,0.4-3.1,0.7-5,1c-1.9,0.3-4,0.4-6.3,0.4c-3.7,0-6.9-0.6-9.5-1.8
		s-4.7-2.8-6.3-4.9c-1.6-2.1-2.8-4.5-3.5-7.4c-0.7-2.9-1.1-4.3-1.1-7.6c0-4.1,0.5-7.6,1.6-10.5s2.6-5.2,4.4-7.1s3.9-3.2,6.3-4
		s4.8-1.2,7.3-1.2c3.7,0,7,0.4,10,1.2c0.4,0.1,0.8,0.2,1.2,0.4l3.5-13.7c-1.8-0.6-3.9-1-6.2-1.5c-2.5-0.4-5.2-0.7-8.2-0.7
		c-5.2,0-10.1,0.8-14.5,2.5c-4.5,1.7-8.3,4.1-11.5,7.3c-3.2,3.2-5.8,7.1-7.6,11.8c-1.9,4.6-2.8,9.9-2.8,15.8c0,11.9,3,19.4,9.1,25.9
		c6.1,6.5,14.9,9.7,26.6,9.7c5.4,0,10.2-0.6,14.3-1.6c2.8-0.7,5.1-1.6,7.1-2.4L354.7,162.4L354.7,162.4z"/>
	<path class="st0" d="M386.9,163.8c-0.5,0.1-0.7,0.1-1.3,0.1c-0.8,0-1.4-0.2-2.2-0.4c-0.2-0.1-0.4-0.1-0.6-0.2
		c-1.1-0.5-2-1.1-2.6-1.9c-0.6-0.8-1-1.7-1.2-2.9c-0.2-1.1-0.3-2.4-0.3-3.8V92.7l-15.7,7.8v57.2c0,3,0.3,5.6,0.9,8
		c0.6,2.4,1.7,4.4,3.4,6c1.7,1.7,3.9,2.9,6.8,3.9c2.3,0.8,5.2,1.2,8.7,1.4l2.2,0.1h0.3c2.9,0,4.7-0.2,7-0.9c0.5-0.2,1-0.3,1.5-0.6
		L386.9,163.8L386.9,163.8z"/>
	<path class="st0" d="M440.3,175.2c-2.6,0.8-6,1.4-10,2.1c-4.1,0.6-8.4,1-12.9,1s-8.4-0.6-11.4-1.8c-3-1.2-5.5-2.9-7.2-5.2
		s-3-4.9-3.8-7.9c-0.8-3.1-1.1-6.5-1.1-10.2v-30.2H409v28.2c0,4.9,0.6,8.5,2,10.7c1.3,2.2,3.7,3.3,7.3,3.3c1.1,0,2.2-0.1,3.5-0.2
		c1.2-0.1,2.3-0.2,3.3-0.3v-41.7h15.3L440.3,175.2L440.3,175.2z"/>
	<path class="st0" d="M537.3,150.5c0-4.8,0.8-9,2.2-12.6c1.5-3.6,3.4-6.6,5.8-9c2.4-2.4,5.2-4.2,8.3-5.5c3.1-1.2,6.3-1.8,9.6-1.8
		c7.6,0,13.7,2.4,18.2,7c4.4,4.7,6.7,11.6,6.7,20.7c0,0.9-0.1,1.8-0.1,2.9c-0.1,1-0.1,2-0.2,2.8h-34.7c0.3,3.2,1.8,5.6,4.4,7.5
		c2.6,1.8,6.1,2.8,10.5,2.8c2.8,0,5.6-0.2,8.3-0.8s4.9-1.1,6.6-1.9l2.1,12.4c-0.8,0.4-1.9,0.8-3.3,1.2c-1.4,0.4-2.9,0.8-4.6,1.1
		c-1.7,0.3-3.5,0.6-5.4,0.8c-1.9,0.2-3.8,0.3-5.7,0.3c-4.9,0-9.1-0.8-12.7-2.2c-3.6-1.4-6.5-3.4-8.9-5.9c-2.4-2.5-4.1-5.5-5.2-8.9
		C537.9,158.1,537.3,154.4,537.3,150.5L537.3,150.5z M573.2,144.6c-0.1-1.3-0.3-2.6-0.7-3.8c-0.4-1.2-1-2.3-1.7-3.3
		c-0.8-1-1.8-1.7-3-2.4c-1.2-0.6-2.7-0.9-4.5-0.9s-3.2,0.3-4.4,0.9c-1.2,0.6-2.2,1.4-3.1,2.3c-0.8,1-1.4,2.1-1.9,3.3s-0.8,2.5-1,3.9
		L573.2,144.6L573.2,144.6z"/>
	<path class="st0" d="M629.2,136.6c-1.4-0.3-3-0.7-4.8-1.1s-3.8-0.6-6-0.6c-1,0-2.1,0.1-3.5,0.2s-2.4,0.3-3,0.6V177h-15.3v-51.1
		c2.8-1,6-1.8,9.7-2.7c3.7-0.9,7.9-1.3,12.5-1.3c0.8,0,1.8,0.1,3,0.2s2.3,0.2,3.5,0.4c1.2,0.2,2.3,0.4,3.5,0.6
		c1.2,0.2,2.2,0.5,3,0.9L629.2,136.6L629.2,136.6z"/>
	<path class="st0" d="M538.2,173l-6.5-10.8c-1.5,0.6-3.1,1-4.9,1.3c-1.8,0.3-3.6,0.5-5.2,0.5c-3.5,0-5.9-1-7-3
		c-1.2-1.9-1.7-4.6-1.7-7.9v-17.5h18.9v-13.1h-18.9v-19.1l-15.7,8.4v41.5c0,3.6,0.3,6.9,1,9.8c0.7,3,1.8,5.5,3.6,7.6
		c1.7,2.1,4,3.7,6.8,4.9c2.8,1.1,6.4,1.7,10.7,1.7c3.4,0,6.3-0.3,8.6-0.9c0.9-0.2,1.8-0.5,2.7-0.8C533,175,537.1,173.8,538.2,173
		L538.2,173z"/>
	<path class="st0" d="M489.5,156.4c-0.5-1.7-1.4-3.3-2.6-4.6c-1.3-1.4-3-2.7-5.2-3.9c-2.2-1.2-4.9-2.4-8.3-3.7
		c-1.7-0.6-3-1.2-4.1-1.7c-1-0.5-1.9-1-2.5-1.4s-1-0.9-1.2-1.4c-0.2-0.5-0.3-1-0.3-1.7c0-2.6,2.4-4,7.2-4c2.6,0,4.9,0.2,7,0.8
		c2.1,0.5,4,1,5.8,1.7l2.6-11.9c-1.8-0.7-4.2-1.3-7.2-1.9s-6.1-0.9-9.4-0.9c-6.5,0-11.7,1.5-15.5,4.4s-5.6,7-5.6,12
		c0,2.6,0.4,4.8,1.1,6.7c0.8,1.8,1.8,3.4,3.2,4.8c1.4,1.3,3,2.5,5,3.4c2,1,4.1,1.9,6.5,2.8c3.1,1.1,5.3,2.2,6.9,3.2
		c1.5,0.9,2.2,2,2.2,3.2c0,1.6-0.6,2.6-1.7,3.2c-1.1,0.6-3.2,0.8-6,0.8c-2.6,0-5.4-0.3-8.1-0.9c-2.8-0.6-5.4-1.4-8-2.4l0,0
		c-0.9-0.4-2-0.9-2.6-1.2v13.6c1.2,0.6,3.5,1.2,6.6,2.1c3.2,0.8,7.2,1.2,12,1.2c7.3,0,13-1.4,17-4.1c4-2.8,6-6.8,6-12.1
		C490.3,160.1,490,158.1,489.5,156.4L489.5,156.4z"/>
</g>
<path class="st0" d="M258.8,204.4h111.4c5.5,0,10,4.5,10,10v39.8c0,5.5-4.5,10-10,10H258.8c-5.5,0-10-4.5-10-10v-39.8
	C248.9,208.9,253.3,204.4,258.8,204.4z"/>
<g>
	<path d="M275.5,246.3c0,1-0.3,1.8-1,2.4s-1.5,0.9-2.4,0.9s-1.8-0.3-2.4-0.9s-1-1.4-1-2.4s0.3-1.8,1-2.4c0.6-0.6,1.5-0.9,2.4-0.9
		s1.7,0.3,2.4,0.9S275.5,245.3,275.5,246.3z"/>
	<path d="M289.5,219.5c4.2,0,7.5,0.8,9.8,2.3c2.3,1.6,3.4,4,3.4,7.3c0,1.7-0.3,3.2-0.9,4.4c-0.6,1.2-1.5,2.2-2.6,3s-2.6,1.4-4.2,1.7
		c-1.7,0.4-3.6,0.6-5.7,0.6h-2.7v10.3h-5.3v-28.9c1.2-0.3,2.6-0.5,4.1-0.6S288.3,219.5,289.5,219.5L289.5,219.5z M289.9,224.1
		c-1.4,0-2.5,0-3.3,0.1v10h2.6c2.6,0,4.5-0.4,5.9-1.1s2.1-2.1,2.1-4.1c0-1-0.2-1.8-0.5-2.4c-0.4-0.6-0.9-1.1-1.5-1.5
		c-0.6-0.4-1.4-0.6-2.3-0.8C291.9,224.2,291,224.1,289.9,224.1L289.9,224.1z"/>
	<path d="M315.7,219.5c4.2,0,7.5,0.8,9.7,2.3c2.2,1.6,3.4,3.9,3.4,7.1c0,4-2,6.7-5.9,8.1c0.5,0.6,1.1,1.4,1.8,2.4s1.4,1.9,2.1,3
		s1.4,2.2,2,3.3s1.2,2.3,1.7,3.4h-6c-0.5-1-1.1-2-1.7-3.1c-0.6-1-1.2-2-1.9-3s-1.3-1.9-1.9-2.8s-1.2-1.6-1.7-2.3c-0.4,0-0.7,0-1,0
		h-3.4v11.1h-5.3v-28.9c1.3-0.3,2.7-0.5,4.1-0.6C313.2,219.5,314.5,219.5,315.7,219.5L315.7,219.5z M316,224.1c-1.1,0-2.2,0-3.1,0.1
		v9.5h2.3c1.3,0,2.4-0.1,3.4-0.2c1-0.1,1.8-0.4,2.5-0.8s1.2-0.9,1.5-1.5s0.5-1.4,0.5-2.4c0-0.9-0.2-1.7-0.5-2.3s-0.8-1.1-1.5-1.5
		s-1.4-0.6-2.3-0.8S317.1,224.1,316,224.1L316,224.1z"/>
	<path d="M361.5,234.4c0,2.5-0.4,4.7-1.1,6.6c-0.8,1.9-1.8,3.5-3,4.8s-2.8,2.2-4.5,2.9c-1.7,0.6-3.5,1-5.5,1s-3.8-0.3-5.5-1
		s-3.2-1.6-4.5-2.9s-2.3-2.9-3.1-4.8s-1.1-4.1-1.1-6.6s0.4-4.7,1.1-6.6s1.8-3.5,3.1-4.8c1.3-1.3,2.8-2.3,4.5-2.9s3.5-1,5.5-1
		s3.7,0.3,5.5,1s3.2,1.6,4.5,2.9s2.3,2.9,3.1,4.8S361.5,231.9,361.5,234.4L361.5,234.4z M338.6,234.4c0,1.6,0.2,3.1,0.6,4.4
		c0.4,1.3,1,2.4,1.7,3.3s1.6,1.6,2.7,2.1c1.1,0.5,2.3,0.8,3.6,0.8s2.5-0.2,3.6-0.8s2-1.2,2.7-2.1c0.8-0.9,1.3-2,1.7-3.3
		c0.4-1.3,0.6-2.8,0.6-4.4s-0.2-3.1-0.6-4.4c-0.4-1.3-1-2.4-1.7-3.3s-1.7-1.6-2.7-2.1c-1.1-0.5-2.3-0.8-3.6-0.8s-2.6,0.2-3.6,0.8
		s-2,1.2-2.7,2.2s-1.3,2-1.7,3.3C338.8,231.4,338.6,232.8,338.6,234.4L338.6,234.4z"/>
</g>
<path class="st1" d="M168.1,196.9l-22.1-38.4l41.4-72.6l43.9,0.2L168.1,196.9L168.1,196.9L168.1,196.9z M138.3,134l21.8-38.6h-82
	c-19.8,0-32.3,21.3-22.5,38.6H138.3L138.3,134z M121.3,153.2l-43.9,0.2l63.1,110.8l22.1-38.4L121.3,153.2L121.3,153.2L121.3,153.2z"
	/>
</svg>
