<svg width="234" height="68" viewBox="0 0 234 68" fill="none" xmlns="http://www.w3.org/2000/svg">
<g clip-path="url(#clip0_2_99)">
<mask id="mask0_2_99" style="mask-type:luminance" maskUnits="userSpaceOnUse" x="0" y="0" width="234" height="68">
<path d="M234 0H0V68H234V0Z" fill="white"/>
</mask>
<g mask="url(#mask0_2_99)">
<path d="M88.3594 28.0095L93.8031 44.6048L99.2469 28.0095C99.9375 25.9857 101.847 24.569 104 24.569H107.534L97.825 50.7167H89.6594L80.0312 24.569H83.5656C85.7187 24.569 87.6281 25.9452 88.3187 28.0095H88.3594Z" fill="black"/>
<path d="M139.669 17.769V50.7167H132.966L117.975 28.1714V50.7167H111.272V17.769H117.975L132.966 40.3548V17.769H139.669Z" fill="black"/>
<path d="M157.991 51.1214C155.472 51.1214 153.197 50.5548 151.206 49.4619C149.216 48.369 147.591 46.7905 146.412 44.7667C145.234 42.7429 144.625 40.3548 144.625 37.6429C144.625 34.931 145.234 32.5429 146.412 30.519C147.631 28.5357 149.256 26.9976 151.287 25.9048C153.359 24.8119 155.634 24.2857 158.153 24.2857C160.672 24.2857 162.947 24.8119 165.019 25.9048C167.05 26.9976 168.675 28.5357 169.894 30.519C171.113 32.5024 171.681 34.8905 171.681 37.6429C171.681 40.3952 171.072 42.7429 169.853 44.7667C168.634 46.7905 167.009 48.3286 164.938 49.4619C162.866 50.5548 160.55 51.1214 157.991 51.1214ZM157.991 45.2929C159.169 45.2929 160.266 45.0095 161.322 44.4833C162.378 43.9167 163.231 43.0667 163.881 41.9333C164.531 40.8 164.897 39.3429 164.897 37.6429C164.897 35.9429 164.572 34.5262 163.922 33.3929C163.272 32.2595 162.419 31.4095 161.403 30.8833C160.387 30.3167 159.291 30.0738 158.113 30.0738C156.934 30.0738 155.878 30.3571 154.863 30.8833C153.847 31.45 153.034 32.2595 152.425 33.3929C151.775 34.5262 151.491 35.9429 151.491 37.6429C151.491 39.3429 151.775 40.7595 152.384 41.9333C152.994 43.0667 153.766 43.9167 154.781 44.4833C155.797 45.05 156.853 45.2929 158.031 45.2929H157.991Z" fill="black"/>
<path d="M186.956 51.081C184.641 51.081 182.609 50.5143 180.822 49.3405C179.034 48.2071 177.653 46.5881 176.638 44.5643C175.622 42.5405 175.134 40.2333 175.134 37.6429C175.134 35.0524 175.622 32.7048 176.638 30.681C177.653 28.6571 179.034 27.0786 180.822 25.9452C182.609 24.8119 184.641 24.2048 186.956 24.2048C189.272 24.2048 190.856 24.731 192.4 25.8238C193.944 26.9167 195.081 28.3738 195.772 30.2762V15.7857H202.516V50.7167H199.306C198.25 50.7167 197.397 50.3929 196.747 49.7452C196.097 49.0976 195.813 48.2476 195.813 47.1548V44.9286C195.122 46.831 193.984 48.3286 192.441 49.4214C190.897 50.4738 189.069 51.0405 186.997 51.0405L186.956 51.081ZM188.866 45.2524C190.084 45.2524 191.222 44.969 192.278 44.3619C193.334 43.7548 194.147 42.9048 194.797 41.7714C195.447 40.6381 195.772 39.2619 195.772 37.6833C195.772 36.1048 195.447 34.6476 194.797 33.5143C194.147 32.381 193.294 31.531 192.278 30.9238C191.222 30.3571 190.084 30.0333 188.866 30.0333C187.647 30.0333 186.591 30.3167 185.534 30.9238C184.478 31.4905 183.625 32.381 182.975 33.5143C182.325 34.6476 182 36.0238 182 37.6833C182 39.3429 182.325 40.6381 182.975 41.7714C183.625 42.9048 184.478 43.7548 185.534 44.3619C186.591 44.969 187.688 45.2524 188.866 45.2524Z" fill="black"/>
<path d="M221.487 51.081C219.456 51.081 217.587 50.7571 215.881 50.15C214.175 49.5024 212.672 48.6119 211.372 47.4786C210.072 46.3048 209.097 44.9286 208.406 43.3095C207.675 41.6905 207.35 39.869 207.35 37.8857C207.35 35.9024 207.716 34 208.447 32.3C209.178 30.6405 210.194 29.1833 211.494 28.0095C212.794 26.7952 214.256 25.9048 215.962 25.2571C217.628 24.6095 219.416 24.2857 221.284 24.2857C223.153 24.2857 224.331 24.4881 225.753 24.9333C227.134 25.3786 228.353 25.9452 229.409 26.7143C230.466 27.4833 231.278 28.4143 231.887 29.4667C232.456 30.519 232.781 31.6929 232.781 32.9476C232.781 34.2024 232.294 35.9429 231.359 37.0357C230.425 38.1286 229.166 39.019 227.581 39.6667C225.997 40.3143 224.291 40.7595 222.422 41.0024C220.553 41.2452 218.725 41.3262 216.937 41.2452C216.653 41.2452 216.328 41.2048 215.922 41.2048C215.516 41.2048 215.191 41.2048 214.906 41.2048C214.622 41.2048 214.419 41.2048 214.297 41.2048C214.5 42.0548 214.947 42.8238 215.637 43.5524C216.369 44.281 217.222 44.8476 218.278 45.2119C219.334 45.6167 220.431 45.819 221.65 45.819C222.869 45.819 223.722 45.6571 224.697 45.2929C225.672 44.9286 226.566 44.4833 227.419 43.8357C228.272 43.2286 228.962 42.5405 229.491 41.8119L234.081 45.2524C233.066 46.5881 231.887 47.681 230.587 48.531C229.247 49.381 227.825 50.0286 226.322 50.4333C224.819 50.8381 223.234 51.0405 221.569 51.0405L221.487 51.081ZM217.059 36.469C218.116 36.469 219.172 36.4286 220.228 36.3071C221.284 36.2262 222.259 36.0238 223.153 35.781C224.047 35.4976 224.778 35.1333 225.347 34.6476C225.916 34.1619 226.159 33.5548 226.159 32.7857C226.159 32.0167 225.956 31.6119 225.509 31.1262C225.062 30.6405 224.494 30.2357 223.803 29.9524C223.072 29.669 222.259 29.5071 221.366 29.5071C219.903 29.5071 218.603 29.831 217.506 30.519C216.369 31.1667 215.516 32.0571 214.866 33.1095C214.216 34.1619 213.891 35.2548 213.809 36.3881C214.175 36.3881 214.662 36.469 215.231 36.469C215.8 36.469 216.409 36.5095 217.019 36.5095L217.059 36.469Z" fill="black"/>
<path d="M60.5312 0H29.9406C29.9406 8.41905 36.8063 15.219 45.2563 15.219V29.75L15.3562 0H15.3156H0V31.5714C0 35.619 1.625 39.5048 4.50938 42.3786L15.3156 53.1048L30.2656 67.9595C36.2375 62.0095 36.2375 52.3762 30.2656 46.4262L15.3156 31.531V21.4524L45.2563 51.2833L46.1906 52.2143L56.0625 42.3786L56.9562 41.4881H56.9156C59.2313 38.6952 60.5312 35.2143 60.5312 31.6119V0Z" fill="#2200AB"/>
</g>
</g>
<defs>
<clipPath id="clip0_2_99">
<rect width="234" height="68" fill="white"/>
</clipPath>
</defs>
</svg>
