<svg width="32" height="32" viewBox="0 0 32 32" fill="none" xmlns="http://www.w3.org/2000/svg">
<path fill-rule="evenodd" clip-rule="evenodd" d="M31.0244 3.06403L24.6532 14.3102L24.6144 14.3797L21.6526 19.607L18.0154 13.1905L22.2488 5.74147V5.73662C22.3102 5.62513 22.3733 5.51526 22.4379 5.40861C22.4379 5.40861 22.4379 5.40861 22.4379 5.40538L22.4411 5.40053C23.535 3.60695 25.4757 2.38861 27.7087 2.30136C27.7927 2.29812 27.8784 2.29651 27.964 2.29651C28.0497 2.29651 28.1353 2.29651 28.2193 2.30136C29.2308 2.34014 30.1826 2.6116 31.0228 3.06565L31.0244 3.06403Z" fill="white"/>
<path fill-rule="evenodd" clip-rule="evenodd" d="M19.8937 3.5542L16.2403 9.97876H7.38072C5.26398 9.97876 3.29753 8.93493 2.1099 7.21407C2.1002 7.20114 2.09212 7.18821 2.08404 7.1769C2.06627 7.15105 2.04849 7.1252 2.03233 7.09934C1.95316 6.97977 1.87884 6.85697 1.80774 6.73255L1.74149 6.61459C1.25189 5.71134 0.975586 4.67882 0.975586 3.58005C0.975586 3.57197 0.975586 3.5639 0.975586 3.55582H19.8953L19.8937 3.5542Z" fill="white"/>
<path fill-rule="evenodd" clip-rule="evenodd" d="M19.717 24.1576C19.717 26.5362 18.4114 28.6109 16.4772 29.7032L10.2046 18.625L7.12158 13.1813H14.4284L18.8347 20.9244C18.8379 20.9292 18.8396 20.9324 18.8428 20.9373L18.8864 21.0132C19.0448 21.2895 19.1789 21.5755 19.292 21.868C19.2985 21.8842 19.3049 21.9019 19.3114 21.9181C19.5732 22.6145 19.717 23.3707 19.717 24.1593V24.1576Z" fill="white"/>
</svg>
