<svg width="400" height="384" viewBox="0 0 400 384" fill="none" xmlns="http://www.w3.org/2000/svg">
<path fill-rule="evenodd" clip-rule="evenodd" d="M317.289 30.97L266.069 121.37L265.759 121.93L241.949 163.95L212.709 112.37L246.739 52.49L246.759 52.45C247.229 51.55 247.739 50.67 248.259 49.81C248.259 49.81 248.259 49.8 248.259 49.79L248.289 49.75C257.079 35.33 272.679 25.53 290.629 24.83C291.309 24.8 291.999 24.79 292.689 24.79C293.379 24.79 294.069 24.79 294.749 24.83C302.879 25.15 310.529 27.33 317.279 30.97H317.289Z" fill="white"/>
<path fill-rule="evenodd" clip-rule="evenodd" d="M227.799 34.9L198.439 86.55H127.219C110.209 86.55 94.3992 78.16 84.8392 64.32C84.7692 64.22 84.6992 64.12 84.6292 64.02C84.4892 63.81 84.3492 63.6 84.2092 63.39C83.5792 62.43 82.9692 61.45 82.3992 60.44L81.8592 59.49C77.9292 52.23 75.6992 43.93 75.6992 35.1V34.91H227.809L227.799 34.9Z" fill="white"/>
<path fill-rule="evenodd" clip-rule="evenodd" d="M226.369 200.54C226.369 219.67 215.879 236.34 200.329 245.12L149.899 156.06L125.119 112.3H183.859L219.279 174.54C219.279 174.54 219.319 174.61 219.339 174.65L219.689 175.27C220.959 177.5 222.039 179.79 222.949 182.14C222.999 182.27 223.049 182.41 223.099 182.54C225.209 188.14 226.359 194.21 226.359 200.55H226.369V200.54Z" fill="white"/>
<path d="M48.04 347.58L38.73 319.16C37.55 315.58 34.21 313.15 30.44 313.15H24.5L40.99 358.14H54.96L71.6 313.15H65.66C61.88 313.15 58.53 315.57 57.37 319.16L48.06 347.58H48.04Z" fill="white"/>
<path d="M194.77 336.7C194.77 339.03 194.36 341.11 193.55 342.95C192.74 344.79 191.57 346.23 190.06 347.3C188.54 348.35 186.76 348.88 184.7 348.88C181.72 348.88 179.31 347.9 177.47 345.92C175.63 343.95 174.71 341.15 174.71 337.52V313.16H163.34V339.47C163.34 343.53 164.04 346.99 165.45 349.87C166.85 352.74 168.87 354.94 171.5 356.45C174.12 357.97 177.22 358.72 180.8 358.72C183.56 358.72 186.09 358.03 188.4 356.65C190.7 355.27 192.6 353.12 194.09 350.19C194.34 349.7 194.57 349.19 194.78 348.65V352.06C194.78 353.9 195.34 355.37 196.44 356.48C197.55 357.59 199.03 358.14 200.87 358.14H206.31V313.15H194.78V336.7H194.77Z" fill="white"/>
<path d="M245.15 334.75C243.23 333.77 241.19 333 239.02 332.43C236.85 331.86 234.81 331.32 232.89 330.81C230.97 330.3 229.4 329.68 228.18 328.94C226.96 328.21 226.36 327.17 226.36 325.81C226.36 324.45 226.9 323.47 227.98 322.68C229.06 321.9 230.63 321.5 232.69 321.5C234.86 321.5 236.54 322.01 237.76 323C238.98 324 239.83 325.45 240.32 327.35L250.72 324.59C250.13 322.15 249.04 320.03 247.47 318.21C245.9 316.39 243.9 315 241.46 314.03C239.02 313.05 236.21 312.57 233.02 312.57C229.34 312.57 226.17 313.17 223.52 314.36C220.87 315.55 218.82 317.17 217.39 319.23C215.96 321.29 215.24 323.53 215.24 325.97C215.24 328.73 215.85 330.94 217.06 332.59C218.28 334.24 219.86 335.54 221.81 336.49C223.76 337.44 225.81 338.19 227.98 338.76C230.15 339.33 232.19 339.84 234.11 340.31C236.03 340.77 237.6 341.36 238.82 342.1C240.04 342.83 240.65 343.87 240.65 345.23C240.65 346.59 240.06 347.61 238.9 348.48C237.74 349.35 236.02 349.78 233.74 349.78C231.79 349.78 230.08 349.25 228.62 348.2C227.16 347.15 226.18 345.72 225.7 343.94L214.98 346.38C215.68 348.71 216.9 350.82 218.63 352.71C220.36 354.61 222.53 356.08 225.13 357.14C227.73 358.19 230.65 358.72 233.9 358.72C237.53 358.72 240.67 358.12 243.32 356.93C245.97 355.74 248.03 354.13 249.49 352.1C250.95 350.07 251.69 347.84 251.69 345.4C251.69 342.64 251.08 340.42 249.87 338.75C248.65 337.08 247.08 335.74 245.16 334.77H245.14V334.75H245.15Z" fill="white"/>
<path d="M325.861 346.24C324.431 347.29 322.871 348.12 321.191 348.72C319.511 349.32 317.781 349.61 316.001 349.61C313.941 349.61 312.021 349.27 310.231 348.59C308.441 347.91 306.941 346.95 305.721 345.71C304.501 344.46 303.731 343.12 303.401 341.65C303.561 341.65 303.901 341.66 304.411 341.69C304.921 341.72 305.511 341.73 306.161 341.73C306.811 341.73 307.381 341.76 307.861 341.82C310.941 341.93 314.091 341.78 317.281 341.37C320.471 340.96 323.411 340.21 326.091 339.1C328.771 337.99 330.921 336.49 332.541 334.6C334.161 332.71 334.981 330.35 334.981 327.53C334.981 325.36 334.471 323.36 333.481 321.52C332.481 319.68 331.071 318.1 329.261 316.77C327.441 315.45 325.351 314.42 322.971 313.69C320.591 312.96 318.041 312.59 315.341 312.59C312.141 312.59 309.111 313.14 306.251 314.25C303.381 315.36 300.831 316.94 298.621 319C296.401 321.06 294.671 323.52 293.431 326.39C292.181 329.26 291.561 332.45 291.561 335.97C291.561 339.49 292.171 342.48 293.381 345.27C294.601 348.06 296.301 350.45 298.501 352.45C300.691 354.45 303.261 356 306.221 357.08C309.171 358.16 312.381 358.7 315.841 358.7C318.651 358.7 321.361 358.35 323.961 357.65C326.551 356.95 328.991 355.85 331.261 354.36C333.531 352.87 335.531 350.99 337.271 348.72L329.391 342.79C328.471 344.04 327.291 345.18 325.861 346.25V346.24ZM304.541 327.73C305.621 325.91 307.131 324.44 309.051 323.3C310.971 322.17 313.171 321.6 315.671 321.6C317.241 321.6 318.631 321.86 319.851 322.37C321.071 322.88 322.051 323.56 322.771 324.4C323.501 325.24 323.871 326.2 323.871 327.28C323.871 328.58 323.391 329.64 322.451 330.49C321.501 331.33 320.251 331.98 318.721 332.44C317.171 332.9 315.501 333.21 313.691 333.37C311.871 333.53 310.081 333.61 308.291 333.61C307.211 333.61 306.181 333.58 305.211 333.52C304.231 333.47 303.421 333.41 302.771 333.36C302.881 331.41 303.481 329.53 304.561 327.72H304.541V327.73Z" fill="white"/>
<path d="M157.9 353.56C158.83 355.45 159.95 357.17 161.26 358.7H149.36C143 358.7 137.85 353.55 137.85 347.19V300.88H149.3V345.71C149.3 347.28 150.57 348.55 152.14 348.55H156.05C156.52 350.32 157.14 351.99 157.91 353.56H157.9Z" fill="white"/>
<path d="M292.819 358.66C289.759 355.87 287.359 352.49 285.669 348.63C285.659 348.6 285.649 348.58 285.639 348.55H278.619C276.979 348.55 275.649 347.22 275.649 345.58V322.49H285.959C287.579 318.94 289.799 315.8 292.569 313.16H270.869C271.169 313.09 271.459 313.01 271.729 312.9C272.069 312.77 272.399 312.61 272.699 312.43C272.939 312.29 273.159 312.12 273.379 311.94C273.789 311.59 274.159 311.21 274.459 310.78C274.679 310.48 274.869 310.17 275.039 309.83C275.099 309.71 275.149 309.59 275.199 309.47C275.489 308.78 275.639 308.09 275.639 307.39V300.89H264.269V309.26C264.269 310.22 264.049 311.01 263.609 311.66C263.499 311.82 263.389 311.97 263.249 312.1C263.149 312.2 263.049 312.29 262.939 312.38C262.299 312.89 261.469 313.16 260.449 313.16H257.039V322.49H264.019V348.55C264.019 351.35 265.159 353.89 266.989 355.73C268.829 357.57 271.359 358.7 274.159 358.7H292.849L292.809 358.66H292.819Z" fill="white"/>
<path d="M118.901 337.74H131.041C130.731 338.99 130.331 340.19 129.861 341.37C128.431 344.91 126.411 347.98 123.811 350.54C121.211 353.11 118.171 355.11 114.681 356.55C111.221 357.97 107.351 358.69 103.271 358.7C99.1909 358.69 95.4309 357.97 91.9609 356.55C88.4709 355.12 85.4209 353.12 82.8309 350.54C80.2309 347.97 78.2109 344.91 76.7809 341.37C75.3409 337.82 74.6309 333.94 74.6309 329.71C74.6309 325.48 75.3609 321.62 76.8209 318.1C78.2809 314.58 80.3109 311.54 82.9109 308.97C85.5109 306.4 88.5509 304.41 92.0409 303C95.5009 301.6 99.2409 300.9 103.271 300.89H103.361C107.391 300.9 111.131 301.6 114.591 303C118.081 304.4 121.131 306.4 123.721 308.97C126.321 311.54 128.341 314.59 129.811 318.1C130.311 319.3 130.731 320.56 131.061 321.84H118.931C118.671 321.16 118.381 320.51 118.051 319.88C116.591 317.12 114.571 314.96 112.001 313.42C109.501 311.92 106.651 311.15 103.451 311.11H103.191C100.001 311.15 97.1409 311.92 94.6409 313.43C92.0709 314.98 90.0509 317.13 88.5909 319.89C87.1309 322.65 86.4009 325.93 86.4009 329.72C86.4009 333.51 87.1209 336.81 88.5509 339.62C89.9809 342.44 91.9709 344.61 94.5209 346.15C97.0609 347.7 99.9809 348.47 103.271 348.47C106.561 348.47 109.581 347.7 112.121 346.15C114.661 344.6 116.651 342.43 118.091 339.62C118.401 339.01 118.671 338.39 118.911 337.74H118.901Z" fill="white"/>
<path d="M374.88 313.28L370.09 323.5C368.79 322.9 367.31 322.61 365.66 322.61C363.57 322.61 361.76 323.14 360.22 324.21C358.68 325.28 357.5 326.75 356.68 328.61C355.85 330.48 355.44 332.59 355.44 334.94V358.8H351.63C347.27 358.8 343.73 355.27 343.73 350.91V313.22H349.25C351.12 313.22 352.61 313.78 353.74 314.91C354.87 316.04 355.43 317.53 355.43 319.39V322.84C355.64 322.3 355.88 321.78 356.13 321.28C357.64 318.32 359.56 316.13 361.9 314.74C364.24 313.34 366.8 312.64 369.6 312.64C371.48 312.64 373.23 312.85 374.86 313.26L374.88 313.28Z" fill="white"/>
</svg>
