<svg width="889" height="463" viewBox="0 0 889 463" fill="none" xmlns="http://www.w3.org/2000/svg">
<rect width="889" height="463" fill="white"/>
<rect x="413" y="24" width="219" height="415" rx="8" fill="#102060"/>
<rect x="180" y="24" width="219" height="395" rx="8" fill="white"/>
<rect x="646" y="24" width="219" height="395" rx="8" fill="white"/>
<g clip-path="url(#clip0_0_68)">
<mask id="mask0_0_68" style="mask-type:luminance" maskUnits="userSpaceOnUse" x="440" y="45" width="154" height="37">
<path d="M594 45H440V81.9138H594V45Z" fill="white"/>
</mask>
<g mask="url(#mask0_0_68)">
<path fill-rule="evenodd" clip-rule="evenodd" d="M480.482 46.0318L471.9 61.181L471.847 61.2734L467.859 68.3134L462.959 59.6718L468.662 49.6376L468.666 49.631C468.745 49.4814 468.829 49.3318 468.919 49.1888C468.919 49.1888 468.919 49.1888 468.919 49.1844L468.923 49.1778C470.395 46.7644 473.011 45.1232 476.018 45.0066C476.133 45.0022 476.249 45 476.364 45C476.478 45 476.593 45 476.709 45.0066C478.071 45.0594 479.354 45.4268 480.484 46.0362L480.482 46.0318Z" fill="#FF6600"/>
<path fill-rule="evenodd" clip-rule="evenodd" d="M465.489 46.6896L460.568 55.3444H448.635C445.786 55.3444 443.135 53.9386 441.533 51.6198C441.522 51.6044 441.509 51.5846 441.498 51.5692C441.474 51.534 441.45 51.4988 441.428 51.4636C441.32 51.303 441.221 51.138 441.124 50.9686L441.034 50.8102C440.374 49.5936 440 48.2032 440 46.7226V46.6896H465.489Z" fill="#FF6600"/>
<path fill-rule="evenodd" clip-rule="evenodd" d="M465.249 74.4426C465.249 77.648 463.492 80.4398 460.885 81.9138L452.437 66.9912L448.283 59.6586H458.128L464.061 70.0866C464.061 70.0866 464.068 70.0998 464.072 70.1042L464.132 70.2076C464.343 70.5816 464.526 70.9644 464.677 71.356C464.686 71.378 464.695 71.4 464.704 71.422C465.058 72.3592 465.252 73.3778 465.252 74.4382L465.249 74.4426Z" fill="#FF6600"/>
<path d="M494.157 68.9228L491.311 60.2416C490.952 59.146 489.929 58.4068 488.776 58.4068H486.963L491.999 72.1502H496.265L501.349 58.4068H499.536C498.384 58.4068 497.361 59.146 497.002 60.2416L494.155 68.9228H494.157Z" fill="white"/>
<path d="M538.978 65.6008C538.978 66.3114 538.853 66.9472 538.606 67.5104C538.358 68.0736 538.003 68.5158 537.539 68.837C537.075 69.1604 536.532 69.321 535.902 69.321C534.994 69.321 534.257 69.0196 533.694 68.4146C533.13 67.8118 532.851 66.956 532.851 65.8472V58.4046H529.377V66.4412C529.377 67.682 529.591 68.7402 530.022 69.6158C530.451 70.4936 531.067 71.1624 531.87 71.6244C532.673 72.0886 533.619 72.3174 534.71 72.3174C535.553 72.3174 536.325 72.1062 537.029 71.6838C537.731 71.2614 538.309 70.6058 538.765 69.7104C538.842 69.5608 538.91 69.4046 538.976 69.2396V70.278C538.976 70.8412 539.145 71.29 539.484 71.6288C539.823 71.9676 540.272 72.137 540.835 72.137H542.496V58.3936H538.974V65.5942L538.978 65.6008Z" fill="white"/>
<path d="M554.367 65.0046C553.78 64.7054 553.157 64.4722 552.493 64.2984C551.83 64.1246 551.208 63.9596 550.62 63.8012C550.033 63.6428 549.553 63.4536 549.179 63.2314C548.808 63.007 548.621 62.6902 548.621 62.2744C548.621 61.8586 548.786 61.5594 549.118 61.3174C549.448 61.0776 549.93 60.9588 550.557 60.9588C551.219 60.9588 551.734 61.1128 552.108 61.4186C552.479 61.7244 552.741 62.1666 552.889 62.7452L556.063 61.9026C555.881 61.159 555.551 60.51 555.071 59.9556C554.591 59.4012 553.98 58.9744 553.236 58.6796C552.493 58.3804 551.632 58.233 550.656 58.233C549.529 58.233 548.563 58.4156 547.754 58.7786C546.944 59.1416 546.319 59.6388 545.879 60.268C545.442 60.8972 545.222 61.5836 545.222 62.3272C545.222 63.1698 545.406 63.843 545.78 64.349C546.152 64.8528 546.636 65.251 547.23 65.5392C547.824 65.8296 548.453 66.0606 549.116 66.2322C549.778 66.406 550.4 66.5622 550.99 66.7052C551.577 66.846 552.057 67.0286 552.429 67.2508C552.801 67.4752 552.988 67.792 552.988 68.2078C552.988 68.6236 552.809 68.936 552.455 69.2C552.101 69.464 551.575 69.5982 550.88 69.5982C550.286 69.5982 549.765 69.4376 549.318 69.1142C548.871 68.7908 548.574 68.3574 548.425 67.8118L545.149 68.5554C545.362 69.266 545.736 69.9106 546.264 70.4892C546.792 71.0678 547.455 71.5188 548.249 71.84C549.041 72.1634 549.934 72.324 550.926 72.324C552.033 72.324 552.994 72.1436 553.802 71.7784C554.611 71.4154 555.24 70.9226 555.687 70.3022C556.134 69.6818 556.356 68.9998 556.356 68.254C556.356 67.4114 556.171 66.7338 555.797 66.2212C555.425 65.7086 554.946 65.3038 554.358 65.0046H554.365H554.367Z" fill="white"/>
<path d="M579.022 68.5136C578.584 68.837 578.109 69.0878 577.597 69.2704C577.084 69.4508 576.554 69.5432 576.01 69.5432C575.381 69.5432 574.794 69.4398 574.25 69.233C573.705 69.024 573.245 68.7336 572.873 68.353C572.501 67.9724 572.266 67.561 572.167 67.1122C572.215 67.1122 572.321 67.1166 572.477 67.1254C572.636 67.1342 572.812 67.1386 573.01 67.1386C573.208 67.1386 573.381 67.1474 573.529 67.1628C574.47 67.198 575.432 67.1496 576.407 67.0264C577.383 66.901 578.281 66.6722 579.099 66.3312C579.918 65.9924 580.575 65.5348 581.073 64.954C581.57 64.3754 581.816 63.656 581.816 62.7958C581.816 62.1336 581.662 61.5242 581.357 60.961C581.051 60.3978 580.619 59.916 580.065 59.5112C579.511 59.1064 578.87 58.7918 578.142 58.5696C577.414 58.3452 576.637 58.2352 575.81 58.2352C574.833 58.2352 573.907 58.4046 573.032 58.7434C572.154 59.0822 571.377 59.5662 570.7 60.1932C570.022 60.8224 569.494 61.5748 569.111 62.4504C568.731 63.3282 568.542 64.3028 568.542 65.3764C568.542 66.45 568.726 67.3652 569.1 68.2166C569.472 69.068 569.991 69.8006 570.662 70.41C571.331 71.0238 572.116 71.4924 573.018 71.8246C573.92 72.1546 574.899 72.3218 575.958 72.3218C576.818 72.3218 577.643 72.214 578.439 71.9984C579.231 71.785 579.977 71.4484 580.672 70.993C581.365 70.5398 581.979 69.9656 582.507 69.2682L580.1 67.4576C579.821 67.8382 579.458 68.1902 579.022 68.5136ZM572.513 62.8596C572.843 62.3052 573.3 61.8542 573.89 61.5088C574.477 61.1612 575.15 60.9874 575.909 60.9874C576.389 60.9874 576.816 61.0666 577.185 61.2228C577.557 61.379 577.854 61.5858 578.076 61.841C578.301 62.0962 578.411 62.391 578.411 62.721C578.411 63.1192 578.265 63.4448 577.977 63.7022C577.689 63.9574 577.308 64.1554 576.835 64.2962C576.362 64.437 575.852 64.5316 575.298 64.58C574.743 64.6284 574.195 64.6548 573.648 64.6548C573.318 64.6548 573.003 64.646 572.706 64.6306C572.407 64.6152 572.161 64.5976 571.963 64.5822C571.996 63.9882 572.176 63.4118 572.508 62.8574L572.513 62.8596Z" fill="white"/>
<path d="M527.716 70.751C528 71.3296 528.343 71.8532 528.741 72.3218H525.107C523.164 72.3218 521.591 70.7466 521.591 68.8062V54.6624H525.089V68.3574C525.089 68.8348 525.477 69.222 525.954 69.222H527.149C527.294 69.7654 527.481 70.2758 527.716 70.7532V70.751Z" fill="white"/>
<path d="M568.931 72.3086C567.998 71.455 567.261 70.4254 566.746 69.244C566.742 69.2352 566.74 69.2286 566.735 69.2198H564.59C564.089 69.2198 563.682 68.8128 563.682 68.3112V61.258H566.832C567.329 60.1712 568.005 59.212 568.852 58.4068H562.223C562.316 58.387 562.404 58.3606 562.485 58.3276C562.591 58.2902 562.69 58.2418 562.782 58.1846C562.855 58.1406 562.925 58.09 562.989 58.035C563.114 57.9272 563.224 57.8084 563.319 57.6808C563.385 57.5906 563.444 57.4938 563.497 57.3904C563.515 57.3552 563.532 57.3178 563.548 57.2826C563.638 57.0714 563.682 56.858 563.682 56.6468V54.6624H560.208V57.2188C560.208 57.5114 560.14 57.7556 560.006 57.9536C559.973 58.002 559.937 58.046 559.898 58.0878C559.867 58.1186 559.836 58.1472 559.803 58.1736C559.607 58.332 559.354 58.409 559.042 58.409H557.999V61.2602H560.131V69.222C560.131 70.0778 560.479 70.8544 561.042 71.4154C561.603 71.9764 562.379 72.3218 563.235 72.3218H568.944C568.944 72.3218 568.933 72.313 568.931 72.3086Z" fill="white"/>
<path d="M515.801 65.9176H519.51C519.413 66.2982 519.292 66.6656 519.147 67.0242C518.709 68.1066 518.093 69.0416 517.299 69.8248C516.505 70.6124 515.574 71.2218 514.507 71.6596C513.449 72.0952 512.268 72.313 511.023 72.3174C509.775 72.313 508.627 72.0952 507.569 71.6596C506.502 71.2218 505.573 70.6102 504.777 69.8248C503.983 69.0394 503.367 68.1044 502.929 67.0242C502.489 65.9418 502.271 64.7538 502.271 63.4646C502.271 62.1754 502.493 60.9918 502.94 59.916C503.386 58.8402 504.007 57.9118 504.799 57.1242C505.593 56.3366 506.524 55.7316 507.591 55.3004C508.647 54.8758 509.791 54.658 511.02 54.658H511.049C512.277 54.6624 513.421 54.8758 514.479 55.3026C515.546 55.7316 516.476 56.341 517.271 57.1264C518.063 57.9118 518.685 58.8402 519.13 59.9182C519.284 60.2878 519.409 60.6684 519.51 61.0622H515.803C515.724 60.8554 515.634 60.6574 515.533 60.4638C515.086 59.6212 514.47 58.9634 513.685 58.4904C512.921 58.0306 512.05 57.7974 511.073 57.7842H510.992C510.015 57.7974 509.144 58.0328 508.38 58.4904C507.593 58.9634 506.979 59.619 506.532 60.4638C506.086 61.3064 505.864 62.3074 505.864 63.4646C505.864 64.6218 506.084 65.6316 506.521 66.4896C506.959 67.3498 507.566 68.0142 508.345 68.4872C509.122 68.958 510.013 69.1934 511.02 69.1956C512.026 69.1956 512.948 68.9602 513.724 68.4872C514.503 68.0142 515.11 67.352 515.548 66.4896C515.64 66.307 515.726 66.1134 515.799 65.9154L515.801 65.9176Z" fill="white"/>
<path d="M593.998 58.4442L592.535 61.5682C592.137 61.3878 591.686 61.2954 591.184 61.2954C590.546 61.2954 589.992 61.4582 589.523 61.786C589.054 62.1138 588.691 62.5604 588.441 63.1302C588.19 63.7 588.064 64.3446 588.064 65.0662V72.3548H586.903C585.57 72.3548 584.492 71.2768 584.492 69.9436V58.4288H586.177C586.747 58.4288 587.204 58.6004 587.547 58.9436C587.893 59.2868 588.064 59.7444 588.064 60.312V61.3658C588.13 61.2008 588.201 61.0402 588.278 60.8906C588.74 59.9842 589.327 59.3198 590.04 58.893C590.753 58.4662 591.538 58.2506 592.394 58.2506C592.968 58.2506 593.505 58.3122 594.002 58.4398L593.998 58.4442Z" fill="white"/>
</g>
</g>
<mask id="path-16-inside-1_0_68" fill="white">
<path d="M24 122H865V187H24V122Z"/>
</mask>
<path d="M24 123H865V121H24V123ZM865 186H24V188H865V186Z" fill="#91ADC8" mask="url(#path-16-inside-1_0_68)"/>
<mask id="path-18-inside-2_0_68" fill="white">
<path d="M24 250H865V315H24V250Z"/>
</mask>
<path d="M24 251H865V249H24V251ZM865 314H24V316H865V314Z" fill="#91ADC8" mask="url(#path-18-inside-2_0_68)"/>
<mask id="path-20-inside-3_0_68" fill="white">
<path d="M24 186H865V251H24V186Z"/>
</mask>
<path d="M24 187H865V185H24V187ZM865 250H24V252H865V250Z" fill="#91ADC8" mask="url(#path-20-inside-3_0_68)"/>
<mask id="path-22-inside-4_0_68" fill="white">
<path d="M24 314H865V379H24V314Z"/>
</mask>
<path d="M24 315H865V313H24V315ZM865 378H24V380H865V378Z" fill="#91ADC8" mask="url(#path-22-inside-4_0_68)"/>
<path d="M85.4561 161V148.317H88.1104V161H85.4561ZM94.7812 161.202C92.1533 161.202 90.6592 160.024 90.4746 158.363L90.4658 158.328H92.9883L93.0059 158.363C93.208 158.961 93.7969 159.392 94.8076 159.392C95.792 159.392 96.46 158.97 96.46 158.328V158.311C96.46 157.792 96.0732 157.467 95.0889 157.247L93.4717 156.904C91.626 156.509 90.7119 155.604 90.7119 154.153V154.145C90.7119 152.325 92.3291 151.112 94.7461 151.112C97.2861 151.112 98.6924 152.378 98.7979 153.934V153.969H96.416L96.4072 153.925C96.2666 153.406 95.6953 152.923 94.7373 152.923C93.8496 152.923 93.2168 153.336 93.2168 153.986V153.995C93.2168 154.514 93.5771 154.812 94.5791 155.032L96.1875 155.375C98.1211 155.788 99.0264 156.597 99.0264 158.029V158.038C99.0264 159.954 97.2598 161.202 94.7812 161.202ZM105.425 161.202C102.445 161.202 100.652 159.312 100.652 156.166V156.148C100.652 153.028 102.472 151.112 105.425 151.112C108.378 151.112 110.197 153.02 110.197 156.148V156.166C110.197 159.321 108.404 161.202 105.425 161.202ZM105.425 159.189C106.787 159.189 107.569 158.073 107.569 156.166V156.148C107.569 154.259 106.778 153.125 105.425 153.125C104.062 153.125 103.28 154.259 103.28 156.148V156.166C103.28 158.073 104.054 159.189 105.425 159.189ZM112.377 161V147.623H114.943V161H112.377ZM120.234 161.149C118.389 161.149 117.079 160.007 117.079 158.249V158.231C117.079 156.491 118.424 155.472 120.832 155.331L123.17 155.19V154.391C123.17 153.556 122.599 153.081 121.544 153.081C120.621 153.081 120.032 153.406 119.83 153.978L119.812 154.013H117.439L117.448 153.934C117.65 152.237 119.25 151.112 121.685 151.112C124.251 151.112 125.701 152.325 125.701 154.391V161H123.17V159.717H123.012C122.52 160.613 121.5 161.149 120.234 161.149ZM119.584 158.091C119.584 158.829 120.208 159.277 121.096 159.277C122.282 159.277 123.17 158.495 123.17 157.476V156.764L121.219 156.887C120.12 156.957 119.584 157.37 119.584 158.073V158.091ZM132.231 161.035C129.876 161.035 128.927 160.271 128.927 158.39V153.257H127.433V151.323H128.927V149.012H131.52V151.323H133.515V153.257H131.52V157.801C131.52 158.671 131.889 159.058 132.759 159.058C133.093 159.058 133.269 159.04 133.515 159.014V160.921C133.198 160.982 132.724 161.035 132.231 161.035ZM136.96 149.838C136.169 149.838 135.51 149.205 135.51 148.414C135.51 147.614 136.169 146.981 136.96 146.981C137.751 146.981 138.401 147.614 138.401 148.414C138.401 149.205 137.751 149.838 136.96 149.838ZM135.668 161V151.323H138.234V161H135.668ZM145.116 161.202C142.137 161.202 140.344 159.312 140.344 156.166V156.148C140.344 153.028 142.163 151.112 145.116 151.112C148.069 151.112 149.889 153.02 149.889 156.148V156.166C149.889 159.321 148.096 161.202 145.116 161.202ZM145.116 159.189C146.479 159.189 147.261 158.073 147.261 156.166V156.148C147.261 154.259 146.47 153.125 145.116 153.125C143.754 153.125 142.972 154.259 142.972 156.148V156.166C142.972 158.073 143.745 159.189 145.116 159.189ZM151.98 161V151.323H154.547V152.817H154.705C155.145 151.771 156.103 151.112 157.482 151.112C159.636 151.112 160.796 152.431 160.796 154.742V161H158.229V155.322C158.229 153.96 157.667 153.239 156.454 153.239C155.268 153.239 154.547 154.092 154.547 155.401V161H151.98Z" fill="#1C3248"/>
<path d="M251.117 160L247.888 150.927H250.096L252.196 157.983H252.337L254.421 150.927H256.596L253.383 160H251.117ZM261.858 160.183C259.161 160.183 257.525 158.373 257.525 155.484V155.476C257.525 152.621 259.177 150.753 261.759 150.753C264.34 150.753 265.934 152.562 265.934 155.302V155.982H259.592C259.617 157.609 260.497 158.556 261.9 158.556C263.021 158.556 263.66 157.991 263.859 157.576L263.884 157.518H265.851L265.826 157.593C265.536 158.763 264.324 160.183 261.858 160.183ZM261.784 152.372C260.63 152.372 259.767 153.152 259.609 154.596H263.917C263.776 153.11 262.938 152.372 261.784 152.372ZM268.001 160V150.927H270.068V152.322H270.209C270.516 151.351 271.346 150.778 272.542 150.778C272.857 150.778 273.181 150.819 273.38 150.877V152.729C273.048 152.662 272.708 152.612 272.351 152.612C270.973 152.612 270.068 153.434 270.068 154.729V160H268.001ZM276.177 163.188C275.928 163.188 275.638 163.179 275.389 163.154V161.569C275.555 161.585 275.787 161.594 276.003 161.594C276.85 161.594 277.356 161.245 277.58 160.423L277.688 160.008L274.442 150.927H276.7L278.817 158.016H278.975L281.083 150.927H283.258L280.004 160.191C279.224 162.465 278.186 163.188 276.177 163.188ZM291.293 160L288.836 150.927H290.911L292.422 157.742H292.563L294.306 150.927H296.273L298.033 157.742H298.174L299.677 150.927H301.727L299.27 160H297.104L295.335 153.426H295.194L293.435 160H291.293ZM307.048 160.183C304.35 160.183 302.715 158.373 302.715 155.484V155.476C302.715 152.621 304.367 150.753 306.948 150.753C309.53 150.753 311.124 152.562 311.124 155.302V155.982H304.782C304.807 157.609 305.687 158.556 307.089 158.556C308.21 158.556 308.849 157.991 309.048 157.576L309.073 157.518H311.041L311.016 157.593C310.725 158.763 309.513 160.183 307.048 160.183ZM306.973 152.372C305.819 152.372 304.956 153.152 304.798 154.596H309.106C308.965 153.11 308.127 152.372 306.973 152.372ZM315.664 160.149C313.938 160.149 312.684 159.087 312.684 157.435V157.418C312.684 155.8 313.921 154.854 316.129 154.721L318.461 154.58V153.799C318.461 152.895 317.872 152.396 316.76 152.396C315.813 152.396 315.199 152.737 314.992 153.334L314.983 153.368H313.033L313.041 153.293C313.24 151.766 314.701 150.753 316.859 150.753C319.192 150.753 320.503 151.882 320.503 153.799V160H318.461V158.755H318.32C317.822 159.635 316.859 160.149 315.664 160.149ZM314.726 157.335C314.726 158.107 315.382 158.564 316.295 158.564C317.54 158.564 318.461 157.75 318.461 156.671V155.941L316.419 156.074C315.266 156.148 314.726 156.572 314.726 157.319V157.335ZM323.068 160V147.416H325.135V154.646H325.276L328.622 150.927H331.012L327.36 154.762L331.261 160H328.771L325.857 156.074L325.135 156.812V160H323.068Z" fill="#C50000"/>
<path d="M500.013 160.183C497.706 160.183 496.311 159.12 496.137 157.584V157.568H498.187L498.195 157.584C498.411 158.215 499.017 158.655 500.046 158.655C501.076 158.655 501.79 158.19 501.79 157.51V157.493C501.79 156.962 501.391 156.613 500.395 156.389L498.926 156.057C497.199 155.675 496.377 154.862 496.377 153.525V153.517C496.377 151.882 497.872 150.753 500.013 150.753C502.221 150.753 503.541 151.849 503.674 153.318V153.334H501.731L501.723 153.31C501.574 152.737 500.976 152.272 500.005 152.272C499.083 152.272 498.419 152.72 498.419 153.401V153.409C498.419 153.94 498.801 154.264 499.781 154.488L501.25 154.812C503.026 155.21 503.865 155.966 503.865 157.286V157.302C503.865 159.029 502.246 160.183 500.013 160.183ZM509.451 160.042C507.368 160.042 506.513 159.344 506.513 157.593V152.529H505.102V150.927H506.513V148.703H508.613V150.927H510.53V152.529H508.613V157.103C508.613 158.008 508.97 158.39 509.833 158.39C510.124 158.39 510.281 158.381 510.53 158.356V159.95C510.231 160.008 509.85 160.042 509.451 160.042ZM512.589 160V150.927H514.656V152.322H514.797C515.104 151.351 515.934 150.778 517.129 150.778C517.445 150.778 517.769 150.819 517.968 150.877V152.729C517.636 152.662 517.295 152.612 516.938 152.612C515.561 152.612 514.656 153.434 514.656 154.729V160H512.589ZM523.347 160.183C520.624 160.183 518.98 158.406 518.98 155.468V155.451C518.98 152.538 520.649 150.753 523.347 150.753C526.053 150.753 527.713 152.529 527.713 155.451V155.468C527.713 158.406 526.061 160.183 523.347 160.183ZM523.347 158.506C524.783 158.506 525.596 157.385 525.596 155.476V155.459C525.596 153.55 524.774 152.421 523.347 152.421C521.911 152.421 521.089 153.55 521.089 155.459V155.476C521.089 157.385 521.911 158.506 523.347 158.506ZM529.788 160V150.927H531.855V152.313H531.996C532.428 151.342 533.299 150.753 534.611 150.753C536.636 150.753 537.74 151.973 537.74 154.131V160H535.673V154.613C535.673 153.202 535.101 152.488 533.847 152.488C532.619 152.488 531.855 153.351 531.855 154.712V160H529.788ZM544.082 163.188C541.691 163.188 540.255 162.167 540.048 160.639L540.056 160.614H542.123L542.131 160.639C542.272 161.22 542.961 161.627 544.115 161.627C545.526 161.627 546.348 160.971 546.348 159.809V158.074H546.207C545.684 159.045 544.696 159.577 543.443 159.577C541.144 159.577 539.716 157.8 539.716 155.227V155.21C539.716 152.587 541.144 150.778 543.484 150.778C544.738 150.778 545.717 151.392 546.232 152.421H546.34V150.927H548.407V159.776C548.407 161.868 546.73 163.188 544.082 163.188ZM544.082 157.933C545.518 157.933 546.381 156.829 546.381 155.227V155.21C546.381 153.608 545.51 152.496 544.082 152.496C542.646 152.496 541.833 153.608 541.833 155.21V155.227C541.833 156.829 542.646 157.933 544.082 157.933Z" fill="white"/>
<path d="M462.724 225L459.495 215.927H461.703L463.803 222.983H463.944L466.028 215.927H468.203L464.99 225H462.724ZM475.159 225.299C471.764 225.299 469.655 222.892 469.655 219.023V219.007C469.655 215.122 471.755 212.723 475.15 212.723C477.873 212.723 479.94 214.45 480.222 216.898V216.965H478.122L478.114 216.932C477.807 215.512 476.661 214.574 475.15 214.574C473.117 214.574 471.847 216.276 471.847 218.999V219.015C471.847 221.746 473.117 223.448 475.159 223.448C476.678 223.448 477.807 222.601 478.114 221.281L478.122 221.24H480.222V221.298C479.907 223.697 477.923 225.299 475.159 225.299ZM482.48 225V212.416H484.547V225H482.48ZM490.167 225.183C488.125 225.183 487.079 223.954 487.079 221.796V215.927H489.146V221.323C489.146 222.726 489.668 223.439 490.914 223.439C492.25 223.439 492.964 222.576 492.964 221.215V215.927H495.031V225H492.964V223.622H492.823C492.399 224.593 491.478 225.183 490.167 225.183ZM500.982 225.183C498.675 225.183 497.28 224.12 497.106 222.584V222.568H499.156L499.165 222.584C499.38 223.215 499.986 223.655 501.016 223.655C502.045 223.655 502.759 223.19 502.759 222.51V222.493C502.759 221.962 502.36 221.613 501.364 221.389L499.895 221.057C498.168 220.675 497.347 219.862 497.347 218.525V218.517C497.347 216.882 498.841 215.753 500.982 215.753C503.19 215.753 504.51 216.849 504.643 218.318V218.334H502.701L502.692 218.31C502.543 217.737 501.945 217.272 500.974 217.272C500.053 217.272 499.389 217.72 499.389 218.401V218.409C499.389 218.94 499.771 219.264 500.75 219.488L502.219 219.812C503.996 220.21 504.834 220.966 504.834 222.286V222.302C504.834 224.029 503.215 225.183 500.982 225.183ZM510.42 225.042C508.337 225.042 507.482 224.344 507.482 222.593V217.529H506.071V215.927H507.482V213.703H509.582V215.927H511.5V217.529H509.582V222.103C509.582 223.008 509.939 223.39 510.802 223.39C511.093 223.39 511.25 223.381 511.5 223.356V224.95C511.201 225.008 510.819 225.042 510.42 225.042ZM517.36 225.183C514.662 225.183 513.027 223.373 513.027 220.484V220.476C513.027 217.621 514.679 215.753 517.26 215.753C519.842 215.753 521.436 217.562 521.436 220.302V220.982H515.094C515.119 222.609 515.999 223.556 517.401 223.556C518.522 223.556 519.161 222.991 519.36 222.576L519.385 222.518H521.353L521.328 222.593C521.037 223.763 519.825 225.183 517.36 225.183ZM517.285 217.372C516.131 217.372 515.268 218.152 515.11 219.596H519.418C519.277 218.11 518.439 217.372 517.285 217.372ZM523.502 225V215.927H525.569V217.322H525.71C526.018 216.351 526.848 215.778 528.043 215.778C528.358 215.778 528.682 215.819 528.881 215.877V217.729C528.549 217.662 528.209 217.612 527.852 217.612C526.474 217.612 525.569 218.434 525.569 219.729V225H523.502ZM537.581 225.149C535.854 225.149 534.601 224.087 534.601 222.435V222.418C534.601 220.8 535.837 219.854 538.045 219.721L540.378 219.58V218.799C540.378 217.895 539.789 217.396 538.676 217.396C537.73 217.396 537.116 217.737 536.908 218.334L536.9 218.368H534.949L534.958 218.293C535.157 216.766 536.618 215.753 538.776 215.753C541.108 215.753 542.42 216.882 542.42 218.799V225H540.378V223.755H540.237C539.739 224.635 538.776 225.149 537.581 225.149ZM536.643 222.335C536.643 223.107 537.298 223.564 538.211 223.564C539.457 223.564 540.378 222.75 540.378 221.671V220.941L538.336 221.074C537.182 221.148 536.643 221.572 536.643 222.319V222.335ZM548.172 225.149C545.898 225.149 544.454 223.348 544.454 220.476V220.459C544.454 217.571 545.873 215.778 548.172 215.778C549.417 215.778 550.455 216.392 550.928 217.372H551.069V212.416H553.145V225H551.069V223.581H550.928C550.43 224.568 549.451 225.149 548.172 225.149ZM548.82 223.406C550.231 223.406 551.103 222.294 551.103 220.476V220.459C551.103 218.642 550.223 217.521 548.82 217.521C547.417 217.521 546.554 218.633 546.554 220.459V220.476C546.554 222.302 547.409 223.406 548.82 223.406ZM555.743 225V215.927H557.81V217.338H557.951C558.341 216.326 559.254 215.753 560.441 215.753C561.669 215.753 562.566 216.384 562.956 217.388H563.097C563.537 216.4 564.583 215.753 565.845 215.753C567.671 215.753 568.767 216.874 568.767 218.758V225H566.7V219.264C566.7 218.085 566.16 217.488 565.056 217.488C563.977 217.488 563.28 218.293 563.28 219.331V225H561.213V219.115C561.213 218.11 560.59 217.488 559.578 217.488C558.557 217.488 557.81 218.351 557.81 219.48V225H555.743ZM572.278 214.408C571.597 214.408 571.041 213.869 571.041 213.188C571.041 212.516 571.597 211.968 572.278 211.968C572.95 211.968 573.506 212.516 573.506 213.188C573.506 213.869 572.95 214.408 572.278 214.408ZM571.24 225V215.927H573.307V225H571.24ZM575.847 225V215.927H577.914V217.313H578.055C578.487 216.342 579.358 215.753 580.67 215.753C582.695 215.753 583.799 216.973 583.799 219.131V225H581.732V219.613C581.732 218.202 581.16 217.488 579.906 217.488C578.678 217.488 577.914 218.351 577.914 219.712V225H575.847Z" fill="white"/>
<path d="M502.213 289.183C499.482 289.183 497.872 287.415 497.872 284.451V284.435C497.872 281.504 499.474 279.753 502.205 279.753C504.537 279.753 505.932 281.048 506.164 282.924V282.957H504.213L504.205 282.932C504.014 282.052 503.342 281.421 502.213 281.421C500.802 281.421 499.972 282.534 499.972 284.435V284.451C499.972 286.377 500.81 287.506 502.213 287.506C503.284 287.506 503.939 287.016 504.197 286.062L504.213 286.028L506.164 286.02L506.147 286.086C505.849 287.946 504.512 289.183 502.213 289.183ZM508.214 289V276.416H510.281V281.313H510.422C510.854 280.342 511.726 279.753 513.037 279.753C515.062 279.753 516.167 280.973 516.167 283.131V289H514.1V283.613C514.1 282.202 513.527 281.488 512.273 281.488C511.045 281.488 510.281 282.351 510.281 283.712V289H508.214ZM522.492 289.183C519.794 289.183 518.159 287.373 518.159 284.484V284.476C518.159 281.621 519.811 279.753 522.392 279.753C524.974 279.753 526.567 281.562 526.567 284.302V284.982H520.226C520.25 286.609 521.13 287.556 522.533 287.556C523.654 287.556 524.293 286.991 524.492 286.576L524.517 286.518H526.484L526.459 286.593C526.169 287.763 524.957 289.183 522.492 289.183ZM522.417 281.372C521.263 281.372 520.4 282.152 520.242 283.596H524.55C524.409 282.11 523.571 281.372 522.417 281.372ZM531.108 289.149C529.381 289.149 528.128 288.087 528.128 286.435V286.418C528.128 284.8 529.365 283.854 531.573 283.721L533.905 283.58V282.799C533.905 281.895 533.316 281.396 532.204 281.396C531.257 281.396 530.643 281.737 530.436 282.334L530.427 282.368H528.477L528.485 282.293C528.684 280.766 530.145 279.753 532.303 279.753C534.636 279.753 535.947 280.882 535.947 282.799V289H533.905V287.755H533.764C533.266 288.635 532.303 289.149 531.108 289.149ZM530.17 286.335C530.17 287.107 530.826 287.564 531.739 287.564C532.984 287.564 533.905 286.75 533.905 285.671V284.941L531.863 285.074C530.709 285.148 530.17 285.572 530.17 286.319V286.335ZM538.429 292.013V279.927H540.496V281.347H540.637C541.135 280.359 542.123 279.778 543.393 279.778C545.667 279.778 547.12 281.587 547.12 284.459V284.476C547.12 287.365 545.692 289.149 543.393 289.149C542.148 289.149 541.11 288.535 540.637 287.556H540.496V292.013H538.429ZM542.746 287.406C544.157 287.406 545.012 286.294 545.012 284.476V284.459C545.012 282.633 544.157 281.521 542.746 281.521C541.343 281.521 540.471 282.633 540.471 284.451V284.468C540.471 286.286 541.343 287.406 542.746 287.406Z" fill="white"/>
<path d="M508.264 352.183C505.566 352.183 503.931 350.373 503.931 347.484V347.476C503.931 344.621 505.583 342.753 508.165 342.753C510.746 342.753 512.34 344.562 512.34 347.302V347.982H505.998C506.023 349.609 506.903 350.556 508.306 350.556C509.426 350.556 510.065 349.991 510.265 349.576L510.29 349.518H512.257L512.232 349.593C511.941 350.763 510.729 352.183 508.264 352.183ZM508.189 344.372C507.036 344.372 506.172 345.152 506.015 346.596H510.323C510.182 345.11 509.343 344.372 508.189 344.372ZM516.88 352.149C515.154 352.149 513.9 351.087 513.9 349.435V349.418C513.9 347.8 515.137 346.854 517.345 346.721L519.678 346.58V345.799C519.678 344.895 519.088 344.396 517.976 344.396C517.03 344.396 516.416 344.737 516.208 345.334L516.2 345.368H514.249L514.257 345.293C514.457 343.766 515.917 342.753 518.076 342.753C520.408 342.753 521.72 343.882 521.72 345.799V352H519.678V350.755H519.537C519.039 351.635 518.076 352.149 516.88 352.149ZM515.942 349.335C515.942 350.107 516.598 350.564 517.511 350.564C518.756 350.564 519.678 349.75 519.678 348.671V347.941L517.636 348.074C516.482 348.148 515.942 348.572 515.942 349.319V349.335ZM527.63 352.183C525.322 352.183 523.928 351.12 523.753 349.584V349.568H525.804L525.812 349.584C526.028 350.215 526.634 350.655 527.663 350.655C528.692 350.655 529.406 350.19 529.406 349.51V349.493C529.406 348.962 529.008 348.613 528.012 348.389L526.542 348.057C524.816 347.675 523.994 346.862 523.994 345.525V345.517C523.994 343.882 525.488 342.753 527.63 342.753C529.838 342.753 531.158 343.849 531.291 345.318V345.334H529.348L529.34 345.31C529.19 344.737 528.593 344.272 527.622 344.272C526.7 344.272 526.036 344.72 526.036 345.401V345.409C526.036 345.94 526.418 346.264 527.397 346.488L528.867 346.812C530.643 347.21 531.481 347.966 531.481 349.286V349.302C531.481 351.029 529.863 352.183 527.63 352.183ZM534.287 355.188C534.038 355.188 533.748 355.179 533.499 355.154V353.569C533.665 353.585 533.897 353.594 534.113 353.594C534.959 353.594 535.466 353.245 535.69 352.423L535.798 352.008L532.552 342.927H534.81L536.927 350.016H537.084L539.193 342.927H541.368L538.114 352.191C537.333 354.465 536.296 355.188 534.287 355.188Z" fill="white"/>
<path d="M490.897 415L487.668 405.927H489.876L491.976 412.983H492.117L494.201 405.927H496.375L493.163 415H490.897ZM501.638 415.183C498.94 415.183 497.305 413.373 497.305 410.484V410.476C497.305 407.621 498.957 405.753 501.539 405.753C504.12 405.753 505.714 407.562 505.714 410.302V410.982H499.372C499.397 412.609 500.277 413.556 501.68 413.556C502.8 413.556 503.439 412.991 503.639 412.576L503.664 412.518H505.631L505.606 412.593C505.315 413.763 504.104 415.183 501.638 415.183ZM501.563 407.372C500.41 407.372 499.546 408.152 499.389 409.596H503.697C503.556 408.11 502.717 407.372 501.563 407.372ZM507.781 415V405.927H509.848V407.322H509.989C510.296 406.351 511.126 405.778 512.321 405.778C512.637 405.778 512.96 405.819 513.16 405.877V407.729C512.828 407.662 512.487 407.612 512.13 407.612C510.752 407.612 509.848 408.434 509.848 409.729V415H507.781ZM515.957 418.188C515.708 418.188 515.417 418.179 515.168 418.154V416.569C515.334 416.585 515.567 416.594 515.783 416.594C516.629 416.594 517.136 416.245 517.36 415.423L517.468 415.008L514.222 405.927H516.48L518.597 413.016H518.754L520.863 405.927H523.038L519.784 415.191C519.003 417.465 517.966 418.188 515.957 418.188ZM529.429 415V402.416H531.496V415H529.429ZM538.029 415.183C535.306 415.183 533.663 413.406 533.663 410.468V410.451C533.663 407.538 535.331 405.753 538.029 405.753C540.735 405.753 542.395 407.529 542.395 410.451V410.468C542.395 413.406 540.743 415.183 538.029 415.183ZM538.029 413.506C539.465 413.506 540.278 412.385 540.278 410.476V410.459C540.278 408.55 539.457 407.421 538.029 407.421C536.593 407.421 535.771 408.55 535.771 410.459V410.476C535.771 412.385 536.593 413.506 538.029 413.506ZM545.832 415L543.375 405.927H545.45L546.96 412.742H547.102L548.845 405.927H550.812L552.572 412.742H552.713L554.215 405.927H556.266L553.809 415H551.642L549.874 408.426H549.733L547.973 415H545.832Z" fill="white"/>
<path d="M712.081 160L708.852 150.927H711.06L713.16 157.983H713.301L715.384 150.927H717.559L714.347 160H712.081ZM722.822 160.183C720.124 160.183 718.489 158.373 718.489 155.484V155.476C718.489 152.621 720.141 150.753 722.722 150.753C725.304 150.753 726.897 152.562 726.897 155.302V155.982H720.556C720.581 157.609 721.46 158.556 722.863 158.556C723.984 158.556 724.623 157.991 724.822 157.576L724.847 157.518H726.814L726.79 157.593C726.499 158.763 725.287 160.183 722.822 160.183ZM722.747 152.372C721.593 152.372 720.73 153.152 720.572 154.596H724.88C724.739 153.11 723.901 152.372 722.747 152.372ZM728.964 160V150.927H731.031V152.322H731.172C731.479 151.351 732.31 150.778 733.505 150.778C733.82 150.778 734.144 150.819 734.343 150.877V152.729C734.011 152.662 733.671 152.612 733.314 152.612C731.936 152.612 731.031 153.434 731.031 154.729V160H728.964ZM737.141 163.188C736.892 163.188 736.601 163.179 736.352 163.154V161.569C736.518 161.585 736.75 161.594 736.966 161.594C737.813 161.594 738.319 161.245 738.543 160.423L738.651 160.008L735.406 150.927H737.664L739.78 158.016H739.938L742.046 150.927H744.221L740.967 160.191C740.187 162.465 739.149 163.188 737.141 163.188ZM753.958 160.183C751.65 160.183 750.256 159.12 750.082 157.584V157.568H752.132L752.14 157.584C752.356 158.215 752.962 158.655 753.991 158.655C755.021 158.655 755.734 158.19 755.734 157.51V157.493C755.734 156.962 755.336 156.613 754.34 156.389L752.871 156.057C751.144 155.675 750.322 154.862 750.322 153.525V153.517C750.322 151.882 751.816 150.753 753.958 150.753C756.166 150.753 757.486 151.849 757.619 153.318V153.334H755.676L755.668 153.31C755.519 152.737 754.921 152.272 753.95 152.272C753.028 152.272 752.364 152.72 752.364 153.401V153.409C752.364 153.94 752.746 154.264 753.726 154.488L755.195 154.812C756.971 155.21 757.81 155.966 757.81 157.286V157.302C757.81 159.029 756.191 160.183 753.958 160.183ZM763.396 160.042C761.312 160.042 760.458 159.344 760.458 157.593V152.529H759.046V150.927H760.458V148.703H762.558V150.927H764.475V152.529H762.558V157.103C762.558 158.008 762.915 158.39 763.778 158.39C764.068 158.39 764.226 158.381 764.475 158.356V159.95C764.176 160.008 763.794 160.042 763.396 160.042ZM766.534 160V150.927H768.601V152.322H768.742C769.049 151.351 769.879 150.778 771.074 150.778C771.39 150.778 771.713 150.819 771.913 150.877V152.729C771.581 152.662 771.24 152.612 770.883 152.612C769.505 152.612 768.601 153.434 768.601 154.729V160H766.534ZM777.292 160.183C774.569 160.183 772.925 158.406 772.925 155.468V155.451C772.925 152.538 774.594 150.753 777.292 150.753C779.998 150.753 781.658 152.529 781.658 155.451V155.468C781.658 158.406 780.006 160.183 777.292 160.183ZM777.292 158.506C778.728 158.506 779.541 157.385 779.541 155.476V155.459C779.541 153.55 778.719 152.421 777.292 152.421C775.855 152.421 775.034 153.55 775.034 155.459V155.476C775.034 157.385 775.855 158.506 777.292 158.506ZM783.733 160V150.927H785.8V152.313H785.941C786.373 151.342 787.244 150.753 788.556 150.753C790.581 150.753 791.685 151.973 791.685 154.131V160H789.618V154.613C789.618 153.202 789.045 152.488 787.792 152.488C786.563 152.488 785.8 153.351 785.8 154.712V160H783.733ZM798.027 163.188C795.636 163.188 794.2 162.167 793.993 160.639L794.001 160.614H796.068L796.076 160.639C796.217 161.22 796.906 161.627 798.06 161.627C799.471 161.627 800.293 160.971 800.293 159.809V158.074H800.152C799.629 159.045 798.641 159.577 797.388 159.577C795.088 159.577 793.661 157.8 793.661 155.227V155.21C793.661 152.587 795.088 150.778 797.429 150.778C798.683 150.778 799.662 151.392 800.177 152.421H800.285V150.927H802.352V159.776C802.352 161.868 800.675 163.188 798.027 163.188ZM798.027 157.933C799.463 157.933 800.326 156.829 800.326 155.227V155.21C800.326 153.608 799.455 152.496 798.027 152.496C796.591 152.496 795.777 153.608 795.777 155.21V155.227C795.777 156.829 796.591 157.933 798.027 157.933Z" fill="#00A338"/>
<path d="M704.328 225.183C701.597 225.183 699.986 223.415 699.986 220.451V220.435C699.986 217.504 701.588 215.753 704.319 215.753C706.652 215.753 708.046 217.048 708.279 218.924V218.957H706.328L706.32 218.932C706.129 218.052 705.457 217.421 704.328 217.421C702.917 217.421 702.086 218.534 702.086 220.435V220.451C702.086 222.377 702.925 223.506 704.328 223.506C705.398 223.506 706.054 223.016 706.312 222.062L706.328 222.028L708.279 222.02L708.262 222.086C707.963 223.946 706.627 225.183 704.328 225.183ZM710.329 225V212.416H712.396V225H710.329ZM718.016 225.183C715.974 225.183 714.928 223.954 714.928 221.796V215.927H716.995V221.323C716.995 222.726 717.518 223.439 718.763 223.439C720.099 223.439 720.813 222.576 720.813 221.215V215.927H722.88V225H720.813V223.622H720.672C720.249 224.593 719.327 225.183 718.016 225.183ZM728.832 225.183C726.524 225.183 725.129 224.12 724.955 222.584V222.568H727.005L727.014 222.584C727.229 223.215 727.835 223.655 728.865 223.655C729.894 223.655 730.608 223.19 730.608 222.51V222.493C730.608 221.962 730.209 221.613 729.213 221.389L727.744 221.057C726.018 220.675 725.196 219.862 725.196 218.525V218.517C725.196 216.882 726.69 215.753 728.832 215.753C731.04 215.753 732.359 216.849 732.492 218.318V218.334H730.55L730.542 218.31C730.392 217.737 729.794 217.272 728.823 217.272C727.902 217.272 727.238 217.72 727.238 218.401V218.409C727.238 218.94 727.62 219.264 728.599 219.488L730.068 219.812C731.845 220.21 732.683 220.966 732.683 222.286V222.302C732.683 224.029 731.064 225.183 728.832 225.183ZM738.27 225.042C736.186 225.042 735.331 224.344 735.331 222.593V217.529H733.92V215.927H735.331V213.703H737.431V215.927H739.349V217.529H737.431V222.103C737.431 223.008 737.788 223.39 738.651 223.39C738.942 223.39 739.1 223.381 739.349 223.356V224.95C739.05 225.008 738.668 225.042 738.27 225.042ZM745.209 225.183C742.511 225.183 740.876 223.373 740.876 220.484V220.476C740.876 217.621 742.528 215.753 745.109 215.753C747.691 215.753 749.285 217.562 749.285 220.302V220.982H742.943C742.968 222.609 743.848 223.556 745.25 223.556C746.371 223.556 747.01 222.991 747.209 222.576L747.234 222.518H749.202L749.177 222.593C748.886 223.763 747.674 225.183 745.209 225.183ZM745.134 217.372C743.98 217.372 743.117 218.152 742.959 219.596H747.268C747.126 218.11 746.288 217.372 745.134 217.372ZM751.352 225V215.927H753.418V217.322H753.56C753.867 216.351 754.697 215.778 755.892 215.778C756.208 215.778 756.531 215.819 756.73 215.877V217.729C756.398 217.662 756.058 217.612 755.701 217.612C754.323 217.612 753.418 218.434 753.418 219.729V225H751.352ZM765.43 225.149C763.703 225.149 762.45 224.087 762.45 222.435V222.418C762.45 220.8 763.687 219.854 765.895 219.721L768.227 219.58V218.799C768.227 217.895 767.638 217.396 766.525 217.396C765.579 217.396 764.965 217.737 764.757 218.334L764.749 218.368H762.798L762.807 218.293C763.006 216.766 764.467 215.753 766.625 215.753C768.958 215.753 770.269 216.882 770.269 218.799V225H768.227V223.755H768.086C767.588 224.635 766.625 225.149 765.43 225.149ZM764.492 222.335C764.492 223.107 765.147 223.564 766.061 223.564C767.306 223.564 768.227 222.75 768.227 221.671V220.941L766.185 221.074C765.031 221.148 764.492 221.572 764.492 222.319V222.335ZM776.021 225.149C773.747 225.149 772.303 223.348 772.303 220.476V220.459C772.303 217.571 773.722 215.778 776.021 215.778C777.267 215.778 778.304 216.392 778.777 217.372H778.918V212.416H780.994V225H778.918V223.581H778.777C778.279 224.568 777.3 225.149 776.021 225.149ZM776.669 223.406C778.08 223.406 778.952 222.294 778.952 220.476V220.459C778.952 218.642 778.072 217.521 776.669 217.521C775.266 217.521 774.403 218.633 774.403 220.459V220.476C774.403 222.302 775.258 223.406 776.669 223.406ZM783.592 225V215.927H785.659V217.338H785.8C786.19 216.326 787.103 215.753 788.29 215.753C789.519 215.753 790.415 216.384 790.805 217.388H790.946C791.386 216.4 792.432 215.753 793.694 215.753C795.52 215.753 796.616 216.874 796.616 218.758V225H794.549V219.264C794.549 218.085 794.009 217.488 792.905 217.488C791.826 217.488 791.129 218.293 791.129 219.331V225H789.062V219.115C789.062 218.11 788.439 217.488 787.427 217.488C786.406 217.488 785.659 218.351 785.659 219.48V225H783.592ZM800.127 214.408C799.446 214.408 798.89 213.869 798.89 213.188C798.89 212.516 799.446 211.968 800.127 211.968C800.799 211.968 801.355 212.516 801.355 213.188C801.355 213.869 800.799 214.408 800.127 214.408ZM799.089 225V215.927H801.156V225H799.089ZM803.696 225V215.927H805.763V217.313H805.904C806.336 216.342 807.208 215.753 808.519 215.753C810.544 215.753 811.648 216.973 811.648 219.131V225H809.582V219.613C809.582 218.202 809.009 217.488 807.755 217.488C806.527 217.488 805.763 218.351 805.763 219.712V225H803.696Z" fill="#00A338"/>
<path d="M247.815 289L244.586 279.927H246.794L248.895 286.983H249.036L251.119 279.927H253.294L250.082 289H247.815ZM258.557 289.183C255.859 289.183 254.224 287.373 254.224 284.484V284.476C254.224 281.621 255.875 279.753 258.457 279.753C261.039 279.753 262.632 281.562 262.632 284.302V284.982H256.291C256.315 286.609 257.195 287.556 258.598 287.556C259.719 287.556 260.358 286.991 260.557 286.576L260.582 286.518H262.549L262.524 286.593C262.234 287.763 261.022 289.183 258.557 289.183ZM258.482 281.372C257.328 281.372 256.465 282.152 256.307 283.596H260.615C260.474 282.11 259.636 281.372 258.482 281.372ZM264.699 289V279.927H266.766V281.322H266.907C267.214 280.351 268.044 279.778 269.24 279.778C269.555 279.778 269.879 279.819 270.078 279.877V281.729C269.746 281.662 269.406 281.612 269.049 281.612C267.671 281.612 266.766 282.434 266.766 283.729V289H264.699ZM272.875 292.188C272.626 292.188 272.336 292.179 272.087 292.154V290.569C272.253 290.585 272.485 290.594 272.701 290.594C273.548 290.594 274.054 290.245 274.278 289.423L274.386 289.008L271.141 279.927H273.398L275.515 287.016H275.673L277.781 279.927H279.956L276.702 289.191C275.922 291.465 274.884 292.188 272.875 292.188ZM290.158 289.183C287.427 289.183 285.816 287.415 285.816 284.451V284.435C285.816 281.504 287.418 279.753 290.149 279.753C292.482 279.753 293.876 281.048 294.109 282.924V282.957H292.158L292.15 282.932C291.959 282.052 291.287 281.421 290.158 281.421C288.747 281.421 287.917 282.534 287.917 284.435V284.451C287.917 286.377 288.755 287.506 290.158 287.506C291.229 287.506 291.884 287.016 292.142 286.062L292.158 286.028L294.109 286.02L294.092 286.086C293.793 287.946 292.457 289.183 290.158 289.183ZM296.159 289V276.416H298.226V281.313H298.367C298.799 280.342 299.67 279.753 300.982 279.753C303.007 279.753 304.111 280.973 304.111 283.131V289H302.044V283.613C302.044 282.202 301.472 281.488 300.218 281.488C298.99 281.488 298.226 282.351 298.226 283.712V289H296.159ZM310.437 289.183C307.739 289.183 306.104 287.373 306.104 284.484V284.476C306.104 281.621 307.755 279.753 310.337 279.753C312.918 279.753 314.512 281.562 314.512 284.302V284.982H308.17C308.195 286.609 309.075 287.556 310.478 287.556C311.599 287.556 312.238 286.991 312.437 286.576L312.462 286.518H314.429L314.404 286.593C314.114 287.763 312.902 289.183 310.437 289.183ZM310.362 281.372C309.208 281.372 308.345 282.152 308.187 283.596H312.495C312.354 282.11 311.516 281.372 310.362 281.372ZM319.053 289.149C317.326 289.149 316.073 288.087 316.073 286.435V286.418C316.073 284.8 317.31 283.854 319.518 283.721L321.85 283.58V282.799C321.85 281.895 321.261 281.396 320.148 281.396C319.202 281.396 318.588 281.737 318.38 282.334L318.372 282.368H316.421L316.43 282.293C316.629 280.766 318.09 279.753 320.248 279.753C322.581 279.753 323.892 280.882 323.892 282.799V289H321.85V287.755H321.709C321.211 288.635 320.248 289.149 319.053 289.149ZM318.115 286.335C318.115 287.107 318.771 287.564 319.684 287.564C320.929 287.564 321.85 286.75 321.85 285.671V284.941L319.808 285.074C318.654 285.148 318.115 285.572 318.115 286.319V286.335ZM326.374 292.013V279.927H328.441V281.347H328.582C329.08 280.359 330.068 279.778 331.338 279.778C333.612 279.778 335.065 281.587 335.065 284.459V284.476C335.065 287.365 333.637 289.149 331.338 289.149C330.093 289.149 329.055 288.535 328.582 287.556H328.441V292.013H326.374ZM330.69 287.406C332.102 287.406 332.957 286.294 332.957 284.476V284.459C332.957 282.633 332.102 281.521 330.69 281.521C329.288 281.521 328.416 282.633 328.416 284.451V284.468C328.416 286.286 329.288 287.406 330.69 287.406Z" fill="#00A338"/>
<path d="M275.264 352.183C272.566 352.183 270.931 350.373 270.931 347.484V347.476C270.931 344.621 272.583 342.753 275.165 342.753C277.746 342.753 279.34 344.562 279.34 347.302V347.982H272.998C273.023 349.609 273.903 350.556 275.306 350.556C276.426 350.556 277.065 349.991 277.265 349.576L277.29 349.518H279.257L279.232 349.593C278.941 350.763 277.729 352.183 275.264 352.183ZM275.189 344.372C274.036 344.372 273.172 345.152 273.015 346.596H277.323C277.182 345.11 276.343 344.372 275.189 344.372ZM283.88 352.149C282.154 352.149 280.9 351.087 280.9 349.435V349.418C280.9 347.8 282.137 346.854 284.345 346.721L286.678 346.58V345.799C286.678 344.895 286.088 344.396 284.976 344.396C284.03 344.396 283.416 344.737 283.208 345.334L283.2 345.368H281.249L281.257 345.293C281.457 343.766 282.917 342.753 285.076 342.753C287.408 342.753 288.72 343.882 288.72 345.799V352H286.678V350.755H286.537C286.039 351.635 285.076 352.149 283.88 352.149ZM282.942 349.335C282.942 350.107 283.598 350.564 284.511 350.564C285.756 350.564 286.678 349.75 286.678 348.671V347.941L284.636 348.074C283.482 348.148 282.942 348.572 282.942 349.319V349.335ZM294.63 352.183C292.322 352.183 290.928 351.12 290.753 349.584V349.568H292.804L292.812 349.584C293.028 350.215 293.634 350.655 294.663 350.655C295.692 350.655 296.406 350.19 296.406 349.51V349.493C296.406 348.962 296.008 348.613 295.012 348.389L293.542 348.057C291.816 347.675 290.994 346.862 290.994 345.525V345.517C290.994 343.882 292.488 342.753 294.63 342.753C296.838 342.753 298.158 343.849 298.291 345.318V345.334H296.348L296.34 345.31C296.19 344.737 295.593 344.272 294.622 344.272C293.7 344.272 293.036 344.72 293.036 345.401V345.409C293.036 345.94 293.418 346.264 294.397 346.488L295.867 346.812C297.643 347.21 298.481 347.966 298.481 349.286V349.302C298.481 351.029 296.863 352.183 294.63 352.183ZM301.287 355.188C301.038 355.188 300.748 355.179 300.499 355.154V353.569C300.665 353.585 300.897 353.594 301.113 353.594C301.959 353.594 302.466 353.245 302.69 352.423L302.798 352.008L299.552 342.927H301.81L303.927 350.016H304.084L306.193 342.927H308.368L305.114 352.191C304.333 354.465 303.296 355.188 301.287 355.188Z" fill="#00A338"/>
<path d="M258.897 415L255.668 405.927H257.876L259.976 412.983H260.117L262.201 405.927H264.375L261.163 415H258.897ZM269.638 415.183C266.94 415.183 265.305 413.373 265.305 410.484V410.476C265.305 407.621 266.957 405.753 269.539 405.753C272.12 405.753 273.714 407.562 273.714 410.302V410.982H267.372C267.397 412.609 268.277 413.556 269.68 413.556C270.8 413.556 271.439 412.991 271.639 412.576L271.664 412.518H273.631L273.606 412.593C273.315 413.763 272.104 415.183 269.638 415.183ZM269.563 407.372C268.41 407.372 267.546 408.152 267.389 409.596H271.697C271.556 408.11 270.717 407.372 269.563 407.372ZM275.781 415V405.927H277.848V407.322H277.989C278.296 406.351 279.126 405.778 280.321 405.778C280.637 405.778 280.96 405.819 281.16 405.877V407.729C280.828 407.662 280.487 407.612 280.13 407.612C278.752 407.612 277.848 408.434 277.848 409.729V415H275.781ZM283.957 418.188C283.708 418.188 283.417 418.179 283.168 418.154V416.569C283.334 416.585 283.567 416.594 283.783 416.594C284.629 416.594 285.136 416.245 285.36 415.423L285.468 415.008L282.222 405.927H284.48L286.597 413.016H286.754L288.863 405.927H291.038L287.784 415.191C287.003 417.465 285.966 418.188 283.957 418.188ZM297.429 415V402.416H299.496V415H297.429ZM306.029 415.183C303.306 415.183 301.663 413.406 301.663 410.468V410.451C301.663 407.538 303.331 405.753 306.029 405.753C308.735 405.753 310.395 407.529 310.395 410.451V410.468C310.395 413.406 308.743 415.183 306.029 415.183ZM306.029 413.506C307.465 413.506 308.278 412.385 308.278 410.476V410.459C308.278 408.55 307.457 407.421 306.029 407.421C304.593 407.421 303.771 408.55 303.771 410.459V410.476C303.771 412.385 304.593 413.506 306.029 413.506ZM313.832 415L311.375 405.927H313.45L314.96 412.742H315.102L316.845 405.927H318.812L320.572 412.742H320.713L322.215 405.927H324.266L321.809 415H319.642L317.874 408.426H317.733L315.973 415H313.832Z" fill="#00A338"/>
<path d="M231.76 225L228.531 215.927H230.739L232.839 222.983H232.98L235.063 215.927H237.238L234.026 225H231.76ZM242.501 225.183C239.803 225.183 238.168 223.373 238.168 220.484V220.476C238.168 217.621 239.82 215.753 242.401 215.753C244.983 215.753 246.577 217.562 246.577 220.302V220.982H240.235C240.26 222.609 241.14 223.556 242.542 223.556C243.663 223.556 244.302 222.991 244.501 222.576L244.526 222.518H246.494L246.469 222.593C246.178 223.763 244.966 225.183 242.501 225.183ZM242.426 217.372C241.272 217.372 240.409 218.152 240.251 219.596H244.56C244.418 218.11 243.58 217.372 242.426 217.372ZM248.644 225V215.927H250.71V217.322H250.852C251.159 216.351 251.989 215.778 253.184 215.778C253.5 215.778 253.823 215.819 254.022 215.877V217.729C253.69 217.662 253.35 217.612 252.993 217.612C251.615 217.612 250.71 218.434 250.71 219.729V225H248.644ZM256.82 228.188C256.571 228.188 256.28 228.179 256.031 228.154V226.569C256.197 226.585 256.43 226.594 256.646 226.594C257.492 226.594 257.999 226.245 258.223 225.423L258.331 225.008L255.085 215.927H257.343L259.459 223.016H259.617L261.726 215.927H263.9L260.646 225.191C259.866 227.465 258.829 228.188 256.82 228.188ZM270.209 225V215.927H272.276V217.322H272.417C272.724 216.351 273.554 215.778 274.75 215.778C275.065 215.778 275.389 215.819 275.588 215.877V217.729C275.256 217.662 274.916 217.612 274.559 217.612C273.181 217.612 272.276 218.434 272.276 219.729V225H270.209ZM280.934 225.183C278.236 225.183 276.601 223.373 276.601 220.484V220.476C276.601 217.621 278.252 215.753 280.834 215.753C283.416 215.753 285.009 217.562 285.009 220.302V220.982H278.667C278.692 222.609 279.572 223.556 280.975 223.556C282.096 223.556 282.735 222.991 282.934 222.576L282.959 222.518H284.926L284.901 222.593C284.611 223.763 283.399 225.183 280.934 225.183ZM280.859 217.372C279.705 217.372 278.842 218.152 278.684 219.596H282.992C282.851 218.11 282.013 217.372 280.859 217.372ZM290.504 225.183C288.197 225.183 286.802 224.12 286.628 222.584V222.568H288.678L288.687 222.584C288.902 223.215 289.508 223.655 290.538 223.655C291.567 223.655 292.281 223.19 292.281 222.51V222.493C292.281 221.962 291.882 221.613 290.886 221.389L289.417 221.057C287.69 220.675 286.869 219.862 286.869 218.525V218.517C286.869 216.882 288.363 215.753 290.504 215.753C292.712 215.753 294.032 216.849 294.165 218.318V218.334H292.223L292.214 218.31C292.065 217.737 291.467 217.272 290.496 217.272C289.575 217.272 288.911 217.72 288.911 218.401V218.409C288.911 218.94 289.292 219.264 290.272 219.488L291.741 219.812C293.518 220.21 294.356 220.966 294.356 222.286V222.302C294.356 224.029 292.737 225.183 290.504 225.183ZM299.942 225.042C297.859 225.042 297.004 224.344 297.004 222.593V217.529H295.593V215.927H297.004V213.703H299.104V215.927H301.021V217.529H299.104V222.103C299.104 223.008 299.461 223.39 300.324 223.39C300.615 223.39 300.772 223.381 301.021 223.356V224.95C300.723 225.008 300.341 225.042 299.942 225.042ZM303.08 225V215.927H305.147V217.322H305.288C305.595 216.351 306.425 215.778 307.621 215.778C307.936 215.778 308.26 215.819 308.459 215.877V217.729C308.127 217.662 307.787 217.612 307.43 217.612C306.052 217.612 305.147 218.434 305.147 219.729V225H303.08ZM311.215 214.408C310.534 214.408 309.978 213.869 309.978 213.188C309.978 212.516 310.534 211.968 311.215 211.968C311.887 211.968 312.443 212.516 312.443 213.188C312.443 213.869 311.887 214.408 311.215 214.408ZM310.177 225V215.927H312.244V225H310.177ZM318.677 225.183C315.946 225.183 314.336 223.415 314.336 220.451V220.435C314.336 217.504 315.938 215.753 318.669 215.753C321.001 215.753 322.396 217.048 322.628 218.924V218.957H320.678L320.669 218.932C320.479 218.052 319.806 217.421 318.677 217.421C317.266 217.421 316.436 218.534 316.436 220.435V220.451C316.436 222.377 317.274 223.506 318.677 223.506C319.748 223.506 320.404 223.016 320.661 222.062L320.678 222.028L322.628 222.02L322.612 222.086C322.313 223.946 320.977 225.183 318.677 225.183ZM328.281 225.042C326.198 225.042 325.343 224.344 325.343 222.593V217.529H323.932V215.927H325.343V213.703H327.443V215.927H329.36V217.529H327.443V222.103C327.443 223.008 327.8 223.39 328.663 223.39C328.954 223.39 329.111 223.381 329.36 223.356V224.95C329.062 225.008 328.68 225.042 328.281 225.042ZM335.221 225.183C332.523 225.183 330.888 223.373 330.888 220.484V220.476C330.888 217.621 332.54 215.753 335.121 215.753C337.703 215.753 339.296 217.562 339.296 220.302V220.982H332.955C332.979 222.609 333.859 223.556 335.262 223.556C336.383 223.556 337.022 222.991 337.221 222.576L337.246 222.518H339.213L339.188 222.593C338.898 223.763 337.686 225.183 335.221 225.183ZM335.146 217.372C333.992 217.372 333.129 218.152 332.971 219.596H337.279C337.138 218.11 336.3 217.372 335.146 217.372ZM344.634 225.149C342.359 225.149 340.915 223.348 340.915 220.476V220.459C340.915 217.571 342.334 215.778 344.634 215.778C345.879 215.778 346.917 216.392 347.39 217.372H347.531V212.416H349.606V225H347.531V223.581H347.39C346.892 224.568 345.912 225.149 344.634 225.149ZM345.281 223.406C346.692 223.406 347.564 222.294 347.564 220.476V220.459C347.564 218.642 346.684 217.521 345.281 217.521C343.878 217.521 343.015 218.633 343.015 220.459V220.476C343.015 222.302 343.87 223.406 345.281 223.406Z" fill="#C50000"/>
<path d="M719.294 289.183C716.596 289.183 714.961 287.373 714.961 284.484V284.476C714.961 281.621 716.613 279.753 719.194 279.753C721.776 279.753 723.37 281.562 723.37 284.302V284.982H717.028C717.053 286.609 717.933 287.556 719.335 287.556C720.456 287.556 721.095 286.991 721.294 286.576L721.319 286.518H723.287L723.262 286.593C722.971 287.763 721.759 289.183 719.294 289.183ZM719.219 281.372C718.065 281.372 717.202 282.152 717.044 283.596H721.353C721.211 282.11 720.373 281.372 719.219 281.372ZM724.382 289L727.321 284.501L724.357 279.927H726.748L728.549 283.073H728.69L730.483 279.927H732.75L729.819 284.41L732.783 289H730.458L728.599 285.846H728.458L726.607 289H724.382ZM734.601 292.013V279.927H736.667V281.347H736.809C737.307 280.359 738.294 279.778 739.564 279.778C741.839 279.778 743.292 281.587 743.292 284.459V284.476C743.292 287.365 741.864 289.149 739.564 289.149C738.319 289.149 737.282 288.535 736.809 287.556H736.667V292.013H734.601ZM738.917 287.406C740.328 287.406 741.183 286.294 741.183 284.476V284.459C741.183 282.633 740.328 281.521 738.917 281.521C737.514 281.521 736.643 282.633 736.643 284.451V284.468C736.643 286.286 737.514 287.406 738.917 287.406ZM749.26 289.183C746.562 289.183 744.927 287.373 744.927 284.484V284.476C744.927 281.621 746.579 279.753 749.16 279.753C751.742 279.753 753.335 281.562 753.335 284.302V284.982H746.994C747.019 286.609 747.898 287.556 749.301 287.556C750.422 287.556 751.061 286.991 751.26 286.576L751.285 286.518H753.252L753.228 286.593C752.937 287.763 751.725 289.183 749.26 289.183ZM749.185 281.372C748.031 281.372 747.168 282.152 747.01 283.596H751.318C751.177 282.11 750.339 281.372 749.185 281.372ZM755.402 289V279.927H757.469V281.313H757.61C758.042 280.342 758.914 279.753 760.225 279.753C762.25 279.753 763.354 280.973 763.354 283.131V289H761.288V283.613C761.288 282.202 760.715 281.488 759.461 281.488C758.233 281.488 757.469 282.351 757.469 283.712V289H755.402ZM769.223 289.183C766.916 289.183 765.521 288.12 765.347 286.584V286.568H767.397L767.405 286.584C767.621 287.215 768.227 287.655 769.256 287.655C770.286 287.655 771 287.19 771 286.51V286.493C771 285.962 770.601 285.613 769.605 285.389L768.136 285.057C766.409 284.675 765.587 283.862 765.587 282.525V282.517C765.587 280.882 767.082 279.753 769.223 279.753C771.431 279.753 772.751 280.849 772.884 282.318V282.334H770.941L770.933 282.31C770.784 281.737 770.186 281.272 769.215 281.272C768.293 281.272 767.629 281.72 767.629 282.401V282.409C767.629 282.94 768.011 283.264 768.991 283.488L770.46 283.812C772.236 284.21 773.075 284.966 773.075 286.286V286.302C773.075 288.029 771.456 289.183 769.223 289.183ZM776.221 278.408C775.54 278.408 774.984 277.869 774.984 277.188C774.984 276.516 775.54 275.968 776.221 275.968C776.893 275.968 777.449 276.516 777.449 277.188C777.449 277.869 776.893 278.408 776.221 278.408ZM775.183 289V279.927H777.25V289H775.183ZM782.23 289L779.001 279.927H781.209L783.31 286.983H783.451L785.534 279.927H787.709L784.497 289H782.23ZM792.972 289.183C790.274 289.183 788.639 287.373 788.639 284.484V284.476C788.639 281.621 790.291 279.753 792.872 279.753C795.454 279.753 797.047 281.562 797.047 284.302V284.982H790.706C790.73 286.609 791.61 287.556 793.013 287.556C794.134 287.556 794.773 286.991 794.972 286.576L794.997 286.518H796.964L796.939 286.593C796.649 287.763 795.437 289.183 792.972 289.183ZM792.897 281.372C791.743 281.372 790.88 282.152 790.722 283.596H795.03C794.889 282.11 794.051 281.372 792.897 281.372Z" fill="#C50000"/>
<path d="M719.782 352L716.553 342.927H718.761L720.861 349.983H721.002L723.085 342.927H725.26L722.048 352H719.782ZM730.523 352.183C727.825 352.183 726.19 350.373 726.19 347.484V347.476C726.19 344.621 727.842 342.753 730.423 342.753C733.005 342.753 734.599 344.562 734.599 347.302V347.982H728.257C728.282 349.609 729.162 350.556 730.564 350.556C731.685 350.556 732.324 349.991 732.523 349.576L732.548 349.518H734.516L734.491 349.593C734.2 350.763 732.988 352.183 730.523 352.183ZM730.448 344.372C729.294 344.372 728.431 345.152 728.273 346.596H732.582C732.44 345.11 731.602 344.372 730.448 344.372ZM736.666 352V342.927H738.732V344.322H738.874C739.181 343.351 740.011 342.778 741.206 342.778C741.521 342.778 741.845 342.819 742.044 342.877V344.729C741.712 344.662 741.372 344.612 741.015 344.612C739.637 344.612 738.732 345.434 738.732 346.729V352H736.666ZM744.842 355.188C744.593 355.188 744.302 355.179 744.053 355.154V353.569C744.219 353.585 744.452 353.594 744.667 353.594C745.514 353.594 746.021 353.245 746.245 352.423L746.353 352.008L743.107 342.927H745.365L747.481 350.016H747.639L749.748 342.927H751.922L748.668 352.191C747.888 354.465 746.851 355.188 744.842 355.188ZM758.314 352V339.416H760.381V344.313H760.522C760.954 343.342 761.825 342.753 763.137 342.753C765.162 342.753 766.266 343.973 766.266 346.131V352H764.199V346.613C764.199 345.202 763.626 344.488 762.373 344.488C761.145 344.488 760.381 345.351 760.381 346.712V352H758.314ZM771.18 352.149C769.454 352.149 768.2 351.087 768.2 349.435V349.418C768.2 347.8 769.437 346.854 771.645 346.721L773.978 346.58V345.799C773.978 344.895 773.388 344.396 772.276 344.396C771.33 344.396 770.715 344.737 770.508 345.334L770.5 345.368H768.549L768.557 345.293C768.756 343.766 770.217 342.753 772.375 342.753C774.708 342.753 776.02 343.882 776.02 345.799V352H773.978V350.755H773.836C773.338 351.635 772.375 352.149 771.18 352.149ZM770.242 349.335C770.242 350.107 770.898 350.564 771.811 350.564C773.056 350.564 773.978 349.75 773.978 348.671V347.941L771.936 348.074C770.782 348.148 770.242 348.572 770.242 349.319V349.335ZM778.501 352V342.927H780.568V344.322H780.709C781.017 343.351 781.847 342.778 783.042 342.778C783.357 342.778 783.681 342.819 783.88 342.877V344.729C783.548 344.662 783.208 344.612 782.851 344.612C781.473 344.612 780.568 345.434 780.568 346.729V352H778.501ZM788.612 352.149C786.337 352.149 784.893 350.348 784.893 347.476V347.459C784.893 344.571 786.312 342.778 788.612 342.778C789.857 342.778 790.895 343.392 791.368 344.372H791.509V339.416H793.584V352H791.509V350.581H791.368C790.87 351.568 789.89 352.149 788.612 352.149ZM789.259 350.406C790.67 350.406 791.542 349.294 791.542 347.476V347.459C791.542 345.642 790.662 344.521 789.259 344.521C787.856 344.521 786.993 345.633 786.993 347.459V347.476C786.993 349.302 787.848 350.406 789.259 350.406Z" fill="#C50000"/>
<path d="M721.087 415L717.858 405.927H720.066L722.166 412.983H722.307L724.391 405.927H726.565L723.353 415H721.087ZM731.828 415.183C729.13 415.183 727.495 413.373 727.495 410.484V410.476C727.495 407.621 729.147 405.753 731.729 405.753C734.31 405.753 735.904 407.562 735.904 410.302V410.982H729.562C729.587 412.609 730.467 413.556 731.87 413.556C732.99 413.556 733.629 412.991 733.829 412.576L733.854 412.518H735.821L735.796 412.593C735.505 413.763 734.293 415.183 731.828 415.183ZM731.753 407.372C730.6 407.372 729.736 408.152 729.579 409.596H733.887C733.746 408.11 732.907 407.372 731.753 407.372ZM737.971 415V405.927H740.038V407.322H740.179C740.486 406.351 741.316 405.778 742.511 405.778C742.827 405.778 743.15 405.819 743.35 405.877V407.729C743.018 407.662 742.677 407.612 742.32 407.612C740.942 407.612 740.038 408.434 740.038 409.729V415H737.971ZM746.147 418.188C745.898 418.188 745.607 418.179 745.358 418.154V416.569C745.524 416.585 745.757 416.594 745.973 416.594C746.819 416.594 747.326 416.245 747.55 415.423L747.658 415.008L744.412 405.927H746.67L748.787 413.016H748.944L751.053 405.927H753.228L749.974 415.191C749.193 417.465 748.156 418.188 746.147 418.188ZM759.619 415V402.416H761.686V407.313H761.827C762.259 406.342 763.13 405.753 764.442 405.753C766.467 405.753 767.571 406.973 767.571 409.131V415H765.504V409.613C765.504 408.202 764.932 407.488 763.678 407.488C762.45 407.488 761.686 408.351 761.686 409.712V415H759.619ZM771.074 404.408C770.394 404.408 769.837 403.869 769.837 403.188C769.837 402.516 770.394 401.968 771.074 401.968C771.747 401.968 772.303 402.516 772.303 403.188C772.303 403.869 771.747 404.408 771.074 404.408ZM770.037 415V405.927H772.104V415H770.037ZM778.545 418.188C776.154 418.188 774.718 417.167 774.511 415.639L774.519 415.614H776.586L776.594 415.639C776.735 416.22 777.424 416.627 778.578 416.627C779.989 416.627 780.811 415.971 780.811 414.809V413.074H780.67C780.147 414.045 779.159 414.577 777.906 414.577C775.606 414.577 774.179 412.8 774.179 410.227V410.21C774.179 407.587 775.606 405.778 777.947 405.778C779.201 405.778 780.18 406.392 780.695 407.421H780.803V405.927H782.87V414.776C782.87 416.868 781.193 418.188 778.545 418.188ZM778.545 412.933C779.981 412.933 780.844 411.829 780.844 410.227V410.21C780.844 408.608 779.973 407.496 778.545 407.496C777.109 407.496 776.295 408.608 776.295 410.21V410.227C776.295 411.829 777.109 412.933 778.545 412.933ZM785.484 415V402.416H787.551V407.313H787.692C788.124 406.342 788.996 405.753 790.307 405.753C792.333 405.753 793.437 406.973 793.437 409.131V415H791.37V409.613C791.37 408.202 790.797 407.488 789.543 407.488C788.315 407.488 787.551 408.351 787.551 409.712V415H785.484Z" fill="#C50000"/>
<path d="M232.852 69V54.9082H235.312L241.816 63.8828H241.973V54.9082H244.795V69H242.354L235.83 59.9863H235.674V69H232.852ZM250.869 69.166C248.818 69.166 247.363 67.8965 247.363 65.9434V65.9238C247.363 63.9902 248.857 62.8574 251.533 62.7012L254.131 62.5449V61.6562C254.131 60.7285 253.496 60.2012 252.324 60.2012C251.299 60.2012 250.645 60.5625 250.42 61.1973L250.4 61.2363H247.764L247.773 61.1484C247.998 59.2637 249.775 58.0137 252.48 58.0137C255.332 58.0137 256.943 59.3613 256.943 61.6562V69H254.131V67.5742H253.955C253.408 68.5703 252.275 69.166 250.869 69.166ZM250.146 65.7676C250.146 66.5879 250.84 67.0859 251.826 67.0859C253.145 67.0859 254.131 66.2168 254.131 65.084V64.293L251.963 64.4297C250.742 64.5078 250.146 64.9668 250.146 65.748V65.7676ZM259.736 69V58.248H262.588V59.9277H262.764C263.223 58.7168 264.336 58.0137 265.742 58.0137C267.207 58.0137 268.291 58.7559 268.73 59.9961H268.906C269.395 58.8047 270.645 58.0137 272.148 58.0137C274.287 58.0137 275.625 59.4004 275.625 61.6172V69H272.773V62.3301C272.773 61.0312 272.188 60.377 270.996 60.377C269.844 60.377 269.102 61.2266 269.102 62.3887V69H266.25V62.2031C266.25 61.0508 265.596 60.377 264.482 60.377C263.369 60.377 262.588 61.2852 262.588 62.5156V69H259.736ZM283.115 69.2246C279.844 69.2246 277.861 67.0859 277.861 63.6387V63.6289C277.861 60.2109 279.863 58.0137 282.998 58.0137C286.133 58.0137 288.086 60.1621 288.086 63.4141V64.3027H280.684C280.713 66.0703 281.66 67.0957 283.174 67.0957C284.424 67.0957 285.117 66.4316 285.312 66.0215L285.342 65.9629H287.998L287.979 66.0605C287.646 67.4082 286.26 69.2246 283.115 69.2246ZM283.047 60.1523C281.807 60.1523 280.889 60.9922 280.713 62.5156H285.352C285.176 60.9531 284.287 60.1523 283.047 60.1523ZM294.697 69.2246C291.777 69.2246 290.117 67.916 289.912 66.0703L289.902 66.0312H292.705L292.725 66.0703C292.949 66.7344 293.604 67.2129 294.727 67.2129C295.82 67.2129 296.562 66.7441 296.562 66.0312V66.0117C296.562 65.4355 296.133 65.0742 295.039 64.8301L293.242 64.4492C291.191 64.0098 290.176 63.0039 290.176 61.3926V61.3828C290.176 59.3613 291.973 58.0137 294.658 58.0137C297.48 58.0137 299.043 59.4199 299.16 61.1484V61.1875H296.514L296.504 61.1387C296.348 60.5625 295.713 60.0254 294.648 60.0254C293.662 60.0254 292.959 60.4844 292.959 61.207V61.2168C292.959 61.793 293.359 62.125 294.473 62.3691L296.26 62.75C298.408 63.209 299.414 64.1074 299.414 65.6992V65.709C299.414 67.8379 297.451 69.2246 294.697 69.2246ZM301.748 72.5645V58.248H304.6V59.9082H304.775C305.332 58.7559 306.475 58.0723 307.998 58.0723C310.684 58.0723 312.363 60.1816 312.363 63.6094V63.6289C312.363 67.0859 310.723 69.166 307.998 69.166C306.523 69.166 305.322 68.4531 304.775 67.2812H304.6V72.5645H301.748ZM307.021 66.8027C308.525 66.8027 309.463 65.6016 309.463 63.6289V63.6094C309.463 61.6367 308.535 60.4355 307.021 60.4355C305.518 60.4355 304.57 61.6367 304.57 63.6094V63.6289C304.57 65.6016 305.527 66.8027 307.021 66.8027ZM317.627 69.166C315.576 69.166 314.121 67.8965 314.121 65.9434V65.9238C314.121 63.9902 315.615 62.8574 318.291 62.7012L320.889 62.5449V61.6562C320.889 60.7285 320.254 60.2012 319.082 60.2012C318.057 60.2012 317.402 60.5625 317.178 61.1973L317.158 61.2363H314.521L314.531 61.1484C314.756 59.2637 316.533 58.0137 319.238 58.0137C322.09 58.0137 323.701 59.3613 323.701 61.6562V69H320.889V67.5742H320.713C320.166 68.5703 319.033 69.166 317.627 69.166ZM316.904 65.7676C316.904 66.5879 317.598 67.0859 318.584 67.0859C319.902 67.0859 320.889 66.2168 320.889 65.084V64.293L318.721 64.4297C317.5 64.5078 316.904 64.9668 316.904 65.748V65.7676ZM331.23 69.2246C327.871 69.2246 325.967 67.1836 325.967 63.6094V63.5898C325.967 60.0547 327.861 58.0137 331.23 58.0137C334.082 58.0137 335.771 59.5664 336.025 61.9688V61.998H333.369L333.359 61.9785C333.174 60.9336 332.461 60.25 331.24 60.25C329.707 60.25 328.867 61.4414 328.867 63.5898V63.6094C328.867 65.7871 329.717 66.9883 331.24 66.9883C332.412 66.9883 333.105 66.4316 333.359 65.3574L333.379 65.3184H336.016L336.006 65.377C335.713 67.7207 334.033 69.2246 331.23 69.2246ZM342.979 69.2246C339.707 69.2246 337.725 67.0859 337.725 63.6387V63.6289C337.725 60.2109 339.727 58.0137 342.861 58.0137C345.996 58.0137 347.949 60.1621 347.949 63.4141V64.3027H340.547C340.576 66.0703 341.523 67.0957 343.037 67.0957C344.287 67.0957 344.98 66.4316 345.176 66.0215L345.205 65.9629H347.861L347.842 66.0605C347.51 67.4082 346.123 69.2246 342.979 69.2246ZM342.91 60.1523C341.67 60.1523 340.752 60.9922 340.576 62.5156H345.215C345.039 60.9531 344.15 60.1523 342.91 60.1523Z" fill="#0401A3"/>
<path d="M252.581 98V87.4312H256.697C258.77 87.4312 260.205 88.8228 260.205 90.8955V90.9102C260.205 92.9756 258.77 94.3892 256.697 94.3892H254.221V98H252.581ZM256.287 88.8154H254.221V93.0122H256.287C257.708 93.0122 258.535 92.2432 258.535 90.9175V90.9028C258.535 89.5845 257.708 88.8154 256.287 88.8154ZM265.259 98.1538C262.93 98.1538 261.523 96.5645 261.523 94.0449V94.0376C261.523 91.5547 262.959 89.8921 265.178 89.8921C267.397 89.8921 268.76 91.4961 268.76 93.8838V94.4404H263.12C263.149 95.9639 263.984 96.8501 265.295 96.8501C266.313 96.8501 266.921 96.3447 267.112 95.9346L267.141 95.876L268.672 95.8687L268.657 95.9346C268.394 96.9819 267.295 98.1538 265.259 98.1538ZM265.186 91.1958C264.102 91.1958 263.281 91.9355 263.142 93.3052H267.185C267.061 91.8843 266.262 91.1958 265.186 91.1958ZM270.649 98V90.0459H272.239V91.2471H272.356C272.642 90.4048 273.381 89.9067 274.443 89.9067C274.7 89.9067 274.978 89.9434 275.139 89.98V91.4448C274.854 91.3862 274.583 91.3496 274.282 91.3496C273.066 91.3496 272.239 92.0967 272.239 93.2466V98H270.649ZM283.621 98V88.8447H280.295V87.4312H288.579V88.8447H285.261V98H283.621ZM292.314 98.1538C289.985 98.1538 288.579 96.5645 288.579 94.0449V94.0376C288.579 91.5547 290.015 89.8921 292.234 89.8921C294.453 89.8921 295.815 91.4961 295.815 93.8838V94.4404H290.176C290.205 95.9639 291.04 96.8501 292.351 96.8501C293.369 96.8501 293.977 96.3447 294.167 95.9346L294.197 95.876L295.728 95.8687L295.713 95.9346C295.449 96.9819 294.351 98.1538 292.314 98.1538ZM292.241 91.1958C291.157 91.1958 290.337 91.9355 290.198 93.3052H294.241C294.116 91.8843 293.318 91.1958 292.241 91.1958ZM297.705 98V90.0459H299.294V91.2544H299.412C299.8 90.4048 300.562 89.8921 301.719 89.8921C303.499 89.8921 304.48 90.9541 304.48 92.8511V98H302.898V93.2246C302.898 91.9062 302.349 91.2544 301.184 91.2544C300.02 91.2544 299.294 92.0527 299.294 93.3345V98H297.705ZM308.882 98.1318C307.366 98.1318 306.245 97.209 306.245 95.7661V95.7515C306.245 94.3306 307.314 93.5029 309.211 93.3857L311.365 93.2612V92.5581C311.365 91.6865 310.815 91.2031 309.739 91.2031C308.86 91.2031 308.281 91.5254 308.091 92.0894L308.083 92.1187H306.553L306.56 92.0674C306.75 90.7637 308.003 89.8921 309.812 89.8921C311.812 89.8921 312.939 90.8882 312.939 92.5581V98H311.365V96.8721H311.24C310.771 97.6777 309.937 98.1318 308.882 98.1318ZM307.827 95.7002C307.827 96.4326 308.45 96.8647 309.307 96.8647C310.493 96.8647 311.365 96.0884 311.365 95.063V94.3818L309.424 94.5063C308.325 94.5723 307.827 94.9678 307.827 95.6855V95.7002ZM315.181 98V90.0459H316.77V91.2544H316.887C317.275 90.4048 318.037 89.8921 319.194 89.8921C320.974 89.8921 321.956 90.9541 321.956 92.8511V98H320.374V93.2246C320.374 91.9062 319.824 91.2544 318.66 91.2544C317.495 91.2544 316.77 92.0527 316.77 93.3345V98H315.181ZM327.178 98.0513C325.427 98.0513 324.709 97.436 324.709 95.9053V91.2983H323.464V90.0459H324.709V88.0391H326.328V90.0459H328.035V91.2983H326.328V95.5244C326.328 96.3813 326.65 96.7329 327.434 96.7329C327.676 96.7329 327.815 96.7256 328.035 96.7036V97.9707C327.778 98.0146 327.485 98.0513 327.178 98.0513Z" fill="#465E75"/>
<path d="M726.957 69.3613C722.875 69.3613 720.346 66.5293 720.346 61.959V61.9395C720.346 57.3691 722.865 54.5469 726.957 54.5469C730.297 54.5469 732.797 56.6758 733.07 59.6543V59.7715H730.199V59.7031C729.896 58.1211 728.637 57.0469 726.957 57.0469C724.74 57.0469 723.363 58.9121 723.363 61.9395V61.959C723.363 64.9863 724.74 66.8613 726.967 66.8613C728.656 66.8613 729.877 65.875 730.189 64.3711L730.209 64.293H733.08L733.07 64.4004C732.768 67.3496 730.355 69.3613 726.957 69.3613ZM735.609 69V54.1367H738.461V69H735.609ZM744.965 69.2246C742.553 69.2246 741.312 67.7598 741.312 65.2012V58.248H744.164V64.5469C744.164 66.0703 744.74 66.8613 746.088 66.8613C747.494 66.8613 748.256 65.9141 748.256 64.459V58.248H751.107V69H748.256V67.3398H748.08C747.592 68.5117 746.498 69.2246 744.965 69.2246ZM758.246 69.2246C755.326 69.2246 753.666 67.916 753.461 66.0703L753.451 66.0312H756.254L756.273 66.0703C756.498 66.7344 757.152 67.2129 758.275 67.2129C759.369 67.2129 760.111 66.7441 760.111 66.0312V66.0117C760.111 65.4355 759.682 65.0742 758.588 64.8301L756.791 64.4492C754.74 64.0098 753.725 63.0039 753.725 61.3926V61.3828C753.725 59.3613 755.521 58.0137 758.207 58.0137C761.029 58.0137 762.592 59.4199 762.709 61.1484V61.1875H760.062L760.053 61.1387C759.896 60.5625 759.262 60.0254 758.197 60.0254C757.211 60.0254 756.508 60.4844 756.508 61.207V61.2168C756.508 61.793 756.908 62.125 758.021 62.3691L759.809 62.75C761.957 63.209 762.963 64.1074 762.963 65.6992V65.709C762.963 67.8379 761 69.2246 758.246 69.2246ZM769.701 69.0391C767.084 69.0391 766.029 68.1895 766.029 66.0996V60.3965H764.369V58.248H766.029V55.6797H768.91V58.248H771.127V60.3965H768.91V65.4453C768.91 66.4121 769.32 66.8418 770.287 66.8418C770.658 66.8418 770.854 66.8223 771.127 66.793V68.9121C770.775 68.9805 770.248 69.0391 769.701 69.0391ZM778.148 69.2246C774.877 69.2246 772.895 67.0859 772.895 63.6387V63.6289C772.895 60.2109 774.896 58.0137 778.031 58.0137C781.166 58.0137 783.119 60.1621 783.119 63.4141V64.3027H775.717C775.746 66.0703 776.693 67.0957 778.207 67.0957C779.457 67.0957 780.15 66.4316 780.346 66.0215L780.375 65.9629H783.031L783.012 66.0605C782.68 67.4082 781.293 69.2246 778.148 69.2246ZM778.08 60.1523C776.84 60.1523 775.922 60.9922 775.746 62.5156H780.385C780.209 60.9531 779.32 60.1523 778.08 60.1523ZM785.453 69V58.248H788.305V59.918H788.48C788.822 58.7559 789.799 58.0723 791.195 58.0723C791.576 58.0723 791.977 58.1309 792.26 58.209V60.6992C791.83 60.6016 791.391 60.5332 790.951 60.5332C789.33 60.5332 788.305 61.4609 788.305 62.9844V69H785.453Z" fill="#0401A3"/>
<path d="M718.581 98V87.4312H722.697C724.77 87.4312 726.205 88.8228 726.205 90.8955V90.9102C726.205 92.9756 724.77 94.3892 722.697 94.3892H720.221V98H718.581ZM722.287 88.8154H720.221V93.0122H722.287C723.708 93.0122 724.535 92.2432 724.535 90.9175V90.9028C724.535 89.5845 723.708 88.8154 722.287 88.8154ZM731.259 98.1538C728.93 98.1538 727.523 96.5645 727.523 94.0449V94.0376C727.523 91.5547 728.959 89.8921 731.178 89.8921C733.397 89.8921 734.76 91.4961 734.76 93.8838V94.4404H729.12C729.149 95.9639 729.984 96.8501 731.295 96.8501C732.313 96.8501 732.921 96.3447 733.112 95.9346L733.141 95.876L734.672 95.8687L734.657 95.9346C734.394 96.9819 733.295 98.1538 731.259 98.1538ZM731.186 91.1958C730.102 91.1958 729.281 91.9355 729.142 93.3052H733.185C733.061 91.8843 732.262 91.1958 731.186 91.1958ZM736.649 98V90.0459H738.239V91.2471H738.356C738.642 90.4048 739.381 89.9067 740.443 89.9067C740.7 89.9067 740.978 89.9434 741.139 89.98V91.4448C740.854 91.3862 740.583 91.3496 740.282 91.3496C739.066 91.3496 738.239 92.0967 738.239 93.2466V98H736.649ZM749.621 98V88.8447H746.295V87.4312H754.579V88.8447H751.261V98H749.621ZM758.314 98.1538C755.985 98.1538 754.579 96.5645 754.579 94.0449V94.0376C754.579 91.5547 756.015 89.8921 758.234 89.8921C760.453 89.8921 761.815 91.4961 761.815 93.8838V94.4404H756.176C756.205 95.9639 757.04 96.8501 758.351 96.8501C759.369 96.8501 759.977 96.3447 760.167 95.9346L760.197 95.876L761.728 95.8687L761.713 95.9346C761.449 96.9819 760.351 98.1538 758.314 98.1538ZM758.241 91.1958C757.157 91.1958 756.337 91.9355 756.198 93.3052H760.241C760.116 91.8843 759.318 91.1958 758.241 91.1958ZM763.705 98V90.0459H765.294V91.2544H765.412C765.8 90.4048 766.562 89.8921 767.719 89.8921C769.499 89.8921 770.48 90.9541 770.48 92.8511V98H768.898V93.2246C768.898 91.9062 768.349 91.2544 767.184 91.2544C766.02 91.2544 765.294 92.0527 765.294 93.3345V98H763.705ZM774.882 98.1318C773.366 98.1318 772.245 97.209 772.245 95.7661V95.7515C772.245 94.3306 773.314 93.5029 775.211 93.3857L777.365 93.2612V92.5581C777.365 91.6865 776.815 91.2031 775.739 91.2031C774.86 91.2031 774.281 91.5254 774.091 92.0894L774.083 92.1187H772.553L772.56 92.0674C772.75 90.7637 774.003 89.8921 775.812 89.8921C777.812 89.8921 778.939 90.8882 778.939 92.5581V98H777.365V96.8721H777.24C776.771 97.6777 775.937 98.1318 774.882 98.1318ZM773.827 95.7002C773.827 96.4326 774.45 96.8647 775.307 96.8647C776.493 96.8647 777.365 96.0884 777.365 95.063V94.3818L775.424 94.5063C774.325 94.5723 773.827 94.9678 773.827 95.6855V95.7002ZM781.181 98V90.0459H782.77V91.2544H782.887C783.275 90.4048 784.037 89.8921 785.194 89.8921C786.974 89.8921 787.956 90.9541 787.956 92.8511V98H786.374V93.2246C786.374 91.9062 785.824 91.2544 784.66 91.2544C783.495 91.2544 782.77 92.0527 782.77 93.3345V98H781.181ZM793.178 98.0513C791.427 98.0513 790.709 97.436 790.709 95.9053V91.2983H789.464V90.0459H790.709V88.0391H792.328V90.0459H794.035V91.2983H792.328V95.5244C792.328 96.3813 792.65 96.7329 793.434 96.7329C793.676 96.7329 793.815 96.7256 794.035 96.7036V97.9707C793.778 98.0146 793.485 98.0513 793.178 98.0513Z" fill="#465E75"/>
<path d="M485.581 99V88.4312H489.697C491.77 88.4312 493.205 89.8228 493.205 91.8955V91.9102C493.205 93.9756 491.77 95.3892 489.697 95.3892H487.221V99H485.581ZM489.287 89.8154H487.221V94.0122H489.287C490.708 94.0122 491.535 93.2432 491.535 91.9175V91.9028C491.535 90.5845 490.708 89.8154 489.287 89.8154ZM498.259 99.1538C495.93 99.1538 494.523 97.5645 494.523 95.0449V95.0376C494.523 92.5547 495.959 90.8921 498.178 90.8921C500.397 90.8921 501.76 92.4961 501.76 94.8838V95.4404H496.12C496.149 96.9639 496.984 97.8501 498.295 97.8501C499.313 97.8501 499.921 97.3447 500.112 96.9346L500.141 96.876L501.672 96.8687L501.657 96.9346C501.394 97.9819 500.295 99.1538 498.259 99.1538ZM498.186 92.1958C497.102 92.1958 496.281 92.9355 496.142 94.3052H500.185C500.061 92.8843 499.262 92.1958 498.186 92.1958ZM503.649 99V91.0459H505.239V92.2471H505.356C505.642 91.4048 506.381 90.9067 507.443 90.9067C507.7 90.9067 507.978 90.9434 508.139 90.98V92.4448C507.854 92.3862 507.583 92.3496 507.282 92.3496C506.066 92.3496 505.239 93.0967 505.239 94.2466V99H503.649ZM516.621 99V89.8447H513.295V88.4312H521.579V89.8447H518.261V99H516.621ZM525.314 99.1538C522.985 99.1538 521.579 97.5645 521.579 95.0449V95.0376C521.579 92.5547 523.015 90.8921 525.234 90.8921C527.453 90.8921 528.815 92.4961 528.815 94.8838V95.4404H523.176C523.205 96.9639 524.04 97.8501 525.351 97.8501C526.369 97.8501 526.977 97.3447 527.167 96.9346L527.197 96.876L528.728 96.8687L528.713 96.9346C528.449 97.9819 527.351 99.1538 525.314 99.1538ZM525.241 92.1958C524.157 92.1958 523.337 92.9355 523.198 94.3052H527.241C527.116 92.8843 526.318 92.1958 525.241 92.1958ZM530.705 99V91.0459H532.294V92.2544H532.412C532.8 91.4048 533.562 90.8921 534.719 90.8921C536.499 90.8921 537.48 91.9541 537.48 93.8511V99H535.898V94.2246C535.898 92.9062 535.349 92.2544 534.184 92.2544C533.02 92.2544 532.294 93.0527 532.294 94.3345V99H530.705ZM541.882 99.1318C540.366 99.1318 539.245 98.209 539.245 96.7661V96.7515C539.245 95.3306 540.314 94.5029 542.211 94.3857L544.365 94.2612V93.5581C544.365 92.6865 543.815 92.2031 542.739 92.2031C541.86 92.2031 541.281 92.5254 541.091 93.0894L541.083 93.1187H539.553L539.56 93.0674C539.75 91.7637 541.003 90.8921 542.812 90.8921C544.812 90.8921 545.939 91.8882 545.939 93.5581V99H544.365V97.8721H544.24C543.771 98.6777 542.937 99.1318 541.882 99.1318ZM540.827 96.7002C540.827 97.4326 541.45 97.8647 542.307 97.8647C543.493 97.8647 544.365 97.0884 544.365 96.063V95.3818L542.424 95.5063C541.325 95.5723 540.827 95.9678 540.827 96.6855V96.7002ZM548.181 99V91.0459H549.77V92.2544H549.887C550.275 91.4048 551.037 90.8921 552.194 90.8921C553.974 90.8921 554.956 91.9541 554.956 93.8511V99H553.374V94.2246C553.374 92.9062 552.824 92.2544 551.66 92.2544C550.495 92.2544 549.77 93.0527 549.77 94.3345V99H548.181ZM560.178 99.0513C558.427 99.0513 557.709 98.436 557.709 96.9053V92.2983H556.464V91.0459H557.709V89.0391H559.328V91.0459H561.035V92.2983H559.328V96.5244C559.328 97.3813 559.65 97.7329 560.434 97.7329C560.676 97.7329 560.815 97.7256 561.035 97.7036V98.9707C560.778 99.0146 560.485 99.0513 560.178 99.0513Z" fill="white"/>
<path d="M67.1133 214L71.5166 201.317H74.6367L79.0488 214H76.2539L75.3135 210.924H70.8398L69.8994 214H67.1133ZM73.002 203.849L71.4463 208.938H74.707L73.1602 203.849H73.002ZM84.6826 214.202C81.6592 214.202 79.9453 212.365 79.9453 209.148V209.131C79.9453 205.949 81.6504 204.112 84.6826 204.112C87.249 204.112 88.7695 205.51 88.998 207.672V207.698H86.6074L86.5986 207.681C86.4316 206.74 85.79 206.125 84.6914 206.125C83.3115 206.125 82.5557 207.197 82.5557 209.131V209.148C82.5557 211.108 83.3203 212.189 84.6914 212.189C85.7461 212.189 86.3701 211.688 86.5986 210.722L86.6162 210.687H88.9893L88.9805 210.739C88.7168 212.849 87.2051 214.202 84.6826 214.202ZM95.2646 214.202C92.2412 214.202 90.5273 212.365 90.5273 209.148V209.131C90.5273 205.949 92.2324 204.112 95.2646 204.112C97.8311 204.112 99.3516 205.51 99.5801 207.672V207.698H97.1895L97.1807 207.681C97.0137 206.74 96.3721 206.125 95.2734 206.125C93.8936 206.125 93.1377 207.197 93.1377 209.131V209.148C93.1377 211.108 93.9023 212.189 95.2734 212.189C96.3281 212.189 96.9521 211.688 97.1807 210.722L97.1982 210.687H99.5713L99.5625 210.739C99.2988 212.849 97.7871 214.202 95.2646 214.202ZM105.838 214.202C102.894 214.202 101.109 212.277 101.109 209.175V209.166C101.109 206.09 102.911 204.112 105.732 204.112C108.554 204.112 110.312 206.046 110.312 208.973V209.772H103.649C103.676 211.363 104.528 212.286 105.891 212.286C107.016 212.286 107.64 211.688 107.815 211.319L107.842 211.267H110.232L110.215 211.354C109.916 212.567 108.668 214.202 105.838 214.202ZM105.776 206.037C104.66 206.037 103.834 206.793 103.676 208.164H107.851C107.692 206.758 106.893 206.037 105.776 206.037ZM116.262 214.202C113.634 214.202 112.14 213.024 111.955 211.363L111.946 211.328H114.469L114.486 211.363C114.688 211.961 115.277 212.392 116.288 212.392C117.272 212.392 117.94 211.97 117.94 211.328V211.311C117.94 210.792 117.554 210.467 116.569 210.247L114.952 209.904C113.106 209.509 112.192 208.604 112.192 207.153V207.145C112.192 205.325 113.81 204.112 116.227 204.112C118.767 204.112 120.173 205.378 120.278 206.934V206.969H117.896L117.888 206.925C117.747 206.406 117.176 205.923 116.218 205.923C115.33 205.923 114.697 206.336 114.697 206.986V206.995C114.697 207.514 115.058 207.812 116.06 208.032L117.668 208.375C119.602 208.788 120.507 209.597 120.507 211.029V211.038C120.507 212.954 118.74 214.202 116.262 214.202ZM126.281 214.202C123.653 214.202 122.159 213.024 121.975 211.363L121.966 211.328H124.488L124.506 211.363C124.708 211.961 125.297 212.392 126.308 212.392C127.292 212.392 127.96 211.97 127.96 211.328V211.311C127.96 210.792 127.573 210.467 126.589 210.247L124.972 209.904C123.126 209.509 122.212 208.604 122.212 207.153V207.145C122.212 205.325 123.829 204.112 126.246 204.112C128.786 204.112 130.192 205.378 130.298 206.934V206.969H127.916L127.907 206.925C127.767 206.406 127.195 205.923 126.237 205.923C125.35 205.923 124.717 206.336 124.717 206.986V206.995C124.717 207.514 125.077 207.812 126.079 208.032L127.688 208.375C129.621 208.788 130.526 209.597 130.526 211.029V211.038C130.526 212.954 128.76 214.202 126.281 214.202ZM138.015 214V206.257H136.45V204.323H138.015V203.418C138.015 201.493 138.999 200.526 141.337 200.526C141.855 200.526 142.286 200.562 142.655 200.623V202.337C142.497 202.311 142.225 202.284 141.891 202.284C140.897 202.284 140.528 202.75 140.528 203.594V204.323H142.576V206.257H140.581V214H138.015ZM148.579 214.202C145.6 214.202 143.807 212.312 143.807 209.166V209.148C143.807 206.028 145.626 204.112 148.579 204.112C151.532 204.112 153.352 206.02 153.352 209.148V209.166C153.352 212.321 151.559 214.202 148.579 214.202ZM148.579 212.189C149.941 212.189 150.724 211.073 150.724 209.166V209.148C150.724 207.259 149.933 206.125 148.579 206.125C147.217 206.125 146.435 207.259 146.435 209.148V209.166C146.435 211.073 147.208 212.189 148.579 212.189ZM155.443 214V204.323H158.01V205.826H158.168C158.476 204.78 159.354 204.165 160.611 204.165C160.954 204.165 161.314 204.218 161.569 204.288V206.529C161.183 206.441 160.787 206.38 160.392 206.38C158.933 206.38 158.01 207.215 158.01 208.586V214H155.443ZM94.8076 234V223.506H91.002V221.317H101.268V223.506H97.4619V234H94.8076ZM105.943 234.202C102.999 234.202 101.215 232.277 101.215 229.175V229.166C101.215 226.09 103.017 224.112 105.838 224.112C108.659 224.112 110.417 226.046 110.417 228.973V229.772H103.755C103.781 231.363 104.634 232.286 105.996 232.286C107.121 232.286 107.745 231.688 107.921 231.319L107.947 231.267H110.338L110.32 231.354C110.021 232.567 108.773 234.202 105.943 234.202ZM105.882 226.037C104.766 226.037 103.939 226.793 103.781 228.164H107.956C107.798 226.758 106.998 226.037 105.882 226.037ZM112.518 234V224.323H115.084V225.817H115.242C115.682 224.771 116.64 224.112 118.02 224.112C120.173 224.112 121.333 225.431 121.333 227.742V234H118.767V228.322C118.767 226.96 118.204 226.239 116.991 226.239C115.805 226.239 115.084 227.092 115.084 228.401V234H112.518ZM126.457 234.149C124.611 234.149 123.302 233.007 123.302 231.249V231.231C123.302 229.491 124.646 228.472 127.055 228.331L129.393 228.19V227.391C129.393 226.556 128.821 226.081 127.767 226.081C126.844 226.081 126.255 226.406 126.053 226.978L126.035 227.013H123.662L123.671 226.934C123.873 225.237 125.473 224.112 127.907 224.112C130.474 224.112 131.924 225.325 131.924 227.391V234H129.393V232.717H129.234C128.742 233.613 127.723 234.149 126.457 234.149ZM125.807 231.091C125.807 231.829 126.431 232.277 127.318 232.277C128.505 232.277 129.393 231.495 129.393 230.476V229.764L127.441 229.887C126.343 229.957 125.807 230.37 125.807 231.073V231.091ZM134.438 234V224.323H137.004V225.817H137.162C137.602 224.771 138.56 224.112 139.939 224.112C142.093 224.112 143.253 225.431 143.253 227.742V234H140.687V228.322C140.687 226.96 140.124 226.239 138.911 226.239C137.725 226.239 137.004 227.092 137.004 228.401V234H134.438ZM149.757 234.035C147.401 234.035 146.452 233.271 146.452 231.39V226.257H144.958V224.323H146.452V222.012H149.045V224.323H151.04V226.257H149.045V230.801C149.045 231.671 149.414 232.058 150.284 232.058C150.618 232.058 150.794 232.04 151.04 232.014V233.921C150.724 233.982 150.249 234.035 149.757 234.035ZM156.938 234.202C154.31 234.202 152.815 233.024 152.631 231.363L152.622 231.328H155.145L155.162 231.363C155.364 231.961 155.953 232.392 156.964 232.392C157.948 232.392 158.616 231.97 158.616 231.328V231.311C158.616 230.792 158.229 230.467 157.245 230.247L155.628 229.904C153.782 229.509 152.868 228.604 152.868 227.153V227.145C152.868 225.325 154.485 224.112 156.902 224.112C159.442 224.112 160.849 225.378 160.954 226.934V226.969H158.572L158.563 226.925C158.423 226.406 157.852 225.923 156.894 225.923C156.006 225.923 155.373 226.336 155.373 226.986V226.995C155.373 227.514 155.733 227.812 156.735 228.032L158.344 228.375C160.277 228.788 161.183 229.597 161.183 231.029V231.038C161.183 232.954 159.416 234.202 156.938 234.202Z" fill="#1C3248"/>
<path d="M78.8467 342V329.317H84.1289C87.0117 329.317 88.6641 330.855 88.6641 333.352V333.369C88.6641 334.995 87.8203 336.393 86.3701 336.964L89.042 342H86.0361L83.6719 337.359H81.501V342H78.8467ZM81.501 335.426H83.8389C85.166 335.426 85.9482 334.67 85.9482 333.422V333.404C85.9482 332.183 85.1309 331.392 83.8037 331.392H81.501V335.426ZM95.0273 342.202C92.083 342.202 90.2988 340.277 90.2988 337.175V337.166C90.2988 334.09 92.1006 332.112 94.9219 332.112C97.7432 332.112 99.501 334.046 99.501 336.973V337.772H92.8389C92.8652 339.363 93.7178 340.286 95.0801 340.286C96.2051 340.286 96.8291 339.688 97.0049 339.319L97.0312 339.267H99.4219L99.4043 339.354C99.1055 340.567 97.8574 342.202 95.0273 342.202ZM94.9658 334.037C93.8496 334.037 93.0234 334.793 92.8652 336.164H97.04C96.8818 334.758 96.082 334.037 94.9658 334.037ZM105.451 342.202C102.823 342.202 101.329 341.024 101.145 339.363L101.136 339.328H103.658L103.676 339.363C103.878 339.961 104.467 340.392 105.478 340.392C106.462 340.392 107.13 339.97 107.13 339.328V339.311C107.13 338.792 106.743 338.467 105.759 338.247L104.142 337.904C102.296 337.509 101.382 336.604 101.382 335.153V335.145C101.382 333.325 102.999 332.112 105.416 332.112C107.956 332.112 109.362 333.378 109.468 334.934V334.969H107.086L107.077 334.925C106.937 334.406 106.365 333.923 105.407 333.923C104.52 333.923 103.887 334.336 103.887 334.986V334.995C103.887 335.514 104.247 335.812 105.249 336.032L106.857 336.375C108.791 336.788 109.696 337.597 109.696 339.029V339.038C109.696 340.954 107.93 342.202 105.451 342.202ZM116.095 342.202C113.115 342.202 111.322 340.312 111.322 337.166V337.148C111.322 334.028 113.142 332.112 116.095 332.112C119.048 332.112 120.867 334.02 120.867 337.148V337.166C120.867 340.321 119.074 342.202 116.095 342.202ZM116.095 340.189C117.457 340.189 118.239 339.073 118.239 337.166V337.148C118.239 335.259 117.448 334.125 116.095 334.125C114.732 334.125 113.95 335.259 113.95 337.148V337.166C113.95 339.073 114.724 340.189 116.095 340.189ZM126.158 342.202C123.987 342.202 122.871 340.884 122.871 338.581V332.323H125.438V337.992C125.438 339.363 125.956 340.075 127.169 340.075C128.435 340.075 129.12 339.223 129.12 337.913V332.323H131.687V342H129.12V340.506H128.962C128.522 341.561 127.538 342.202 126.158 342.202ZM134.262 342V332.323H136.828V333.826H136.986C137.294 332.78 138.173 332.165 139.43 332.165C139.772 332.165 140.133 332.218 140.388 332.288V334.529C140.001 334.441 139.605 334.38 139.21 334.38C137.751 334.38 136.828 335.215 136.828 336.586V342H134.262ZM146.136 342.202C143.112 342.202 141.398 340.365 141.398 337.148V337.131C141.398 333.949 143.104 332.112 146.136 332.112C148.702 332.112 150.223 333.51 150.451 335.672V335.698H148.061L148.052 335.681C147.885 334.74 147.243 334.125 146.145 334.125C144.765 334.125 144.009 335.197 144.009 337.131V337.148C144.009 339.108 144.773 340.189 146.145 340.189C147.199 340.189 147.823 339.688 148.052 338.722L148.069 338.687H150.442L150.434 338.739C150.17 340.849 148.658 342.202 146.136 342.202ZM156.709 342.202C153.765 342.202 151.98 340.277 151.98 337.175V337.166C151.98 334.09 153.782 332.112 156.604 332.112C159.425 332.112 161.183 334.046 161.183 336.973V337.772H154.521C154.547 339.363 155.399 340.286 156.762 340.286C157.887 340.286 158.511 339.688 158.687 339.319L158.713 339.267H161.104L161.086 339.354C160.787 340.567 159.539 342.202 156.709 342.202ZM156.647 334.037C155.531 334.037 154.705 334.793 154.547 336.164H158.722C158.563 334.758 157.764 334.037 156.647 334.037ZM97.9717 362.325C94.9395 362.325 93.0234 360.875 92.874 358.625L92.8652 358.484H95.4229L95.4316 358.572C95.5283 359.521 96.5566 360.163 98.042 360.163C99.457 360.163 100.433 359.486 100.433 358.511V358.502C100.433 357.667 99.8086 357.201 98.2354 356.876L96.8994 356.604C94.2627 356.067 93.1289 354.837 93.1289 352.912V352.903C93.1289 350.548 95.1504 348.992 97.9629 348.992C100.925 348.992 102.665 350.557 102.832 352.675L102.841 352.789H100.345L100.327 352.684C100.178 351.778 99.2988 351.146 97.9629 351.146C96.6533 351.154 95.7832 351.752 95.7832 352.701V352.71C95.7832 353.536 96.3984 354.028 97.8926 354.336L99.2373 354.608C101.918 355.162 103.087 356.234 103.087 358.212V358.221C103.087 360.734 101.136 362.325 97.9717 362.325ZM105.434 362V348.623H108V353.817H108.158C108.598 352.771 109.556 352.112 110.936 352.112C113.089 352.112 114.249 353.431 114.249 355.742V362H111.683V356.322C111.683 354.96 111.12 354.239 109.907 354.239C108.721 354.239 108 355.092 108 356.401V362H105.434ZM119.373 362.149C117.527 362.149 116.218 361.007 116.218 359.249V359.231C116.218 357.491 117.562 356.472 119.971 356.331L122.309 356.19V355.391C122.309 354.556 121.737 354.081 120.683 354.081C119.76 354.081 119.171 354.406 118.969 354.978L118.951 355.013H116.578L116.587 354.934C116.789 353.237 118.389 352.112 120.823 352.112C123.39 352.112 124.84 353.325 124.84 355.391V362H122.309V360.717H122.15C121.658 361.613 120.639 362.149 119.373 362.149ZM118.723 359.091C118.723 359.829 119.347 360.277 120.234 360.277C121.421 360.277 122.309 359.495 122.309 358.476V357.764L120.357 357.887C119.259 357.957 118.723 358.37 118.723 359.073V359.091ZM127.354 362V352.323H129.92V353.826H130.078C130.386 352.78 131.265 352.165 132.521 352.165C132.864 352.165 133.225 352.218 133.479 352.288V354.529C133.093 354.441 132.697 354.38 132.302 354.38C130.843 354.38 129.92 355.215 129.92 356.586V362H127.354ZM136.503 350.838C135.712 350.838 135.053 350.205 135.053 349.414C135.053 348.614 135.712 347.981 136.503 347.981C137.294 347.981 137.944 348.614 137.944 349.414C137.944 350.205 137.294 350.838 136.503 350.838ZM135.211 362V352.323H137.777V362H135.211ZM140.361 362V352.323H142.928V353.817H143.086C143.525 352.771 144.483 352.112 145.863 352.112C148.017 352.112 149.177 353.431 149.177 355.742V362H146.61V356.322C146.61 354.96 146.048 354.239 144.835 354.239C143.648 354.239 142.928 355.092 142.928 356.401V362H140.361ZM155.936 365.401C153.255 365.401 151.699 364.276 151.488 362.633V362.589H154.028L154.037 362.624C154.178 363.187 154.846 363.573 155.988 363.573C157.359 363.573 158.159 362.932 158.159 361.807V360.005H158.001C157.465 361.024 156.445 361.578 155.101 361.578C152.666 361.578 151.163 359.697 151.163 356.946V356.929C151.163 354.081 152.666 352.165 155.145 352.165C156.472 352.165 157.509 352.815 158.027 353.905H158.15V352.323H160.717V361.701C160.717 363.969 158.862 365.401 155.936 365.401ZM155.971 359.609C157.359 359.609 158.186 358.528 158.186 356.938V356.92C158.186 355.329 157.351 354.248 155.971 354.248C154.591 354.248 153.791 355.329 153.791 356.92V356.938C153.791 358.528 154.582 359.609 155.971 359.609Z" fill="#1C3248"/>
<path d="M126.844 289.325C123.17 289.325 120.894 286.776 120.894 282.663V282.646C120.894 278.532 123.161 275.992 126.844 275.992C129.85 275.992 132.1 277.908 132.346 280.589V280.694H129.762V280.633C129.489 279.209 128.355 278.242 126.844 278.242C124.849 278.242 123.609 279.921 123.609 282.646V282.663C123.609 285.388 124.849 287.075 126.853 287.075C128.373 287.075 129.472 286.188 129.753 284.834L129.771 284.764H132.354L132.346 284.86C132.073 287.515 129.902 289.325 126.844 289.325ZM138.841 289.202C135.861 289.202 134.068 287.312 134.068 284.166V284.148C134.068 281.028 135.888 279.112 138.841 279.112C141.794 279.112 143.613 281.02 143.613 284.148V284.166C143.613 287.321 141.82 289.202 138.841 289.202ZM138.841 287.189C140.203 287.189 140.985 286.073 140.985 284.166V284.148C140.985 282.259 140.194 281.125 138.841 281.125C137.479 281.125 136.696 282.259 136.696 284.148V284.166C136.696 286.073 137.47 287.189 138.841 287.189ZM149.555 289.202C146.927 289.202 145.433 288.024 145.248 286.363L145.239 286.328H147.762L147.779 286.363C147.981 286.961 148.57 287.392 149.581 287.392C150.565 287.392 151.233 286.97 151.233 286.328V286.311C151.233 285.792 150.847 285.467 149.862 285.247L148.245 284.904C146.399 284.509 145.485 283.604 145.485 282.153V282.145C145.485 280.325 147.103 279.112 149.52 279.112C152.06 279.112 153.466 280.378 153.571 281.934V281.969H151.189L151.181 281.925C151.04 281.406 150.469 280.923 149.511 280.923C148.623 280.923 147.99 281.336 147.99 281.986V281.995C147.99 282.514 148.351 282.812 149.353 283.032L150.961 283.375C152.895 283.788 153.8 284.597 153.8 286.029V286.038C153.8 287.954 152.033 289.202 149.555 289.202ZM159.864 289.035C157.509 289.035 156.56 288.271 156.56 286.39V281.257H155.065V279.323H156.56V277.012H159.152V279.323H161.147V281.257H159.152V285.801C159.152 286.671 159.521 287.058 160.392 287.058C160.726 287.058 160.901 287.04 161.147 287.014V288.921C160.831 288.982 160.356 289.035 159.864 289.035Z" fill="#1C3248"/>
<path d="M81.5977 416.325C77.8271 416.325 75.4893 413.759 75.4893 409.663V409.646C75.4893 405.541 77.8623 402.992 81.5977 402.992C85.333 402.992 87.6973 405.55 87.6973 409.646V409.663C87.6973 413.759 85.3418 416.325 81.5977 416.325ZM81.5977 414.075C83.6631 414.075 84.9902 412.344 84.9902 409.663V409.646C84.9902 406.956 83.6543 405.242 81.5977 405.242C79.5322 405.242 78.1963 406.956 78.1963 409.646V409.663C78.1963 412.344 79.5059 414.075 81.5977 414.075ZM92.4961 416L89.1299 406.323H91.8809L93.8848 413.601H94.043L96.0293 406.323H98.7275L95.3789 416H92.4961ZM104.309 416.202C101.364 416.202 99.5801 414.277 99.5801 411.175V411.166C99.5801 408.09 101.382 406.112 104.203 406.112C107.024 406.112 108.782 408.046 108.782 410.973V411.772H102.12C102.146 413.363 102.999 414.286 104.361 414.286C105.486 414.286 106.11 413.688 106.286 413.319L106.312 413.267H108.703L108.686 413.354C108.387 414.567 107.139 416.202 104.309 416.202ZM104.247 408.037C103.131 408.037 102.305 408.793 102.146 410.164H106.321C106.163 408.758 105.363 408.037 104.247 408.037ZM110.883 416V406.323H113.449V407.826H113.607C113.915 406.78 114.794 406.165 116.051 406.165C116.394 406.165 116.754 406.218 117.009 406.288V408.529C116.622 408.441 116.227 408.38 115.831 408.38C114.372 408.38 113.449 409.215 113.449 410.586V416H110.883ZM118.811 416V402.623H121.377V407.817H121.535C121.975 406.771 122.933 406.112 124.312 406.112C126.466 406.112 127.626 407.431 127.626 409.742V416H125.06V410.322C125.06 408.96 124.497 408.239 123.284 408.239C122.098 408.239 121.377 409.092 121.377 410.401V416H118.811ZM134.367 416.202C131.423 416.202 129.639 414.277 129.639 411.175V411.166C129.639 408.09 131.44 406.112 134.262 406.112C137.083 406.112 138.841 408.046 138.841 410.973V411.772H132.179C132.205 413.363 133.058 414.286 134.42 414.286C135.545 414.286 136.169 413.688 136.345 413.319L136.371 413.267H138.762L138.744 413.354C138.445 414.567 137.197 416.202 134.367 416.202ZM134.306 408.037C133.189 408.037 132.363 408.793 132.205 410.164H136.38C136.222 408.758 135.422 408.037 134.306 408.037ZM143.578 416.149C141.732 416.149 140.423 415.007 140.423 413.249V413.231C140.423 411.491 141.768 410.472 144.176 410.331L146.514 410.19V409.391C146.514 408.556 145.942 408.081 144.888 408.081C143.965 408.081 143.376 408.406 143.174 408.978L143.156 409.013H140.783L140.792 408.934C140.994 407.237 142.594 406.112 145.028 406.112C147.595 406.112 149.045 407.325 149.045 409.391V416H146.514V414.717H146.355C145.863 415.613 144.844 416.149 143.578 416.149ZM142.928 413.091C142.928 413.829 143.552 414.277 144.439 414.277C145.626 414.277 146.514 413.495 146.514 412.476V411.764L144.562 411.887C143.464 411.957 142.928 412.37 142.928 413.073V413.091ZM155.013 416.149C152.596 416.149 151.084 414.26 151.084 411.166V411.148C151.084 408.037 152.561 406.165 155.013 406.165C156.34 406.165 157.421 406.815 157.904 407.87H158.062V402.623H160.629V416H158.062V414.497H157.904C157.403 415.543 156.375 416.149 155.013 416.149ZM155.883 414.022C157.245 414.022 158.089 412.95 158.089 411.175V411.157C158.089 409.382 157.236 408.292 155.883 408.292C154.529 408.292 153.694 409.382 153.694 411.148V411.166C153.694 412.95 154.529 414.022 155.883 414.022Z" fill="#1C3248"/>
<line x1="180.5" y1="36" x2="180.5" y2="439" stroke="#91ADC8"/>
<defs>
<clipPath id="clip0_0_68">
<rect width="154" height="36.96" fill="white" transform="translate(440 45)"/>
</clipPath>
</defs>
</svg>
