<svg width="400" height="400" viewBox="0 0 400 400" fill="none" xmlns="http://www.w3.org/2000/svg">
<path fill-rule="evenodd" clip-rule="evenodd" d="M323.667 97.4801L271.365 189.801L271.046 190.371L246.732 233.282L216.874 180.609L251.627 119.459V119.42C252.131 118.504 252.648 117.602 253.179 116.727C253.179 116.727 253.179 116.727 253.179 116.7L253.206 116.661C262.186 101.937 278.116 91.9355 296.448 91.2192C297.137 91.1927 297.84 91.1794 298.543 91.1794C299.246 91.1794 299.95 91.1794 300.639 91.2192C308.943 91.5376 316.756 93.766 323.653 97.4934L323.667 97.4801Z" fill="#FF6600"/>
<path fill-rule="evenodd" clip-rule="evenodd" d="M232.301 101.499L202.31 154.239H129.58C112.204 154.239 96.0611 145.67 86.3117 131.543C86.2321 131.437 86.1657 131.331 86.0994 131.238C85.9535 131.026 85.8076 130.814 85.675 130.602C85.025 129.62 84.4149 128.612 83.8312 127.591L83.2874 126.622C79.2682 119.207 77 110.731 77 101.712C77 101.645 77 101.579 77 101.513H232.314L232.301 101.499Z" fill="#FF6600"/>
<path fill-rule="evenodd" clip-rule="evenodd" d="M230.842 270.635C230.842 290.16 220.124 307.192 204.246 316.159L152.754 225.217L127.445 180.529H187.427L223.599 244.093C223.626 244.132 223.639 244.159 223.666 244.199L224.024 244.822C225.324 247.09 226.425 249.438 227.353 251.839C227.406 251.972 227.459 252.118 227.512 252.25C229.661 257.967 230.842 264.175 230.842 270.648V270.635Z" fill="#FF6600"/>
</svg>
