<svg width="24" height="24" viewBox="0 0 24 24" fill="none" xmlns="http://www.w3.org/2000/svg">
<path fill-rule="evenodd" clip-rule="evenodd" d="M22 2.56085L17.5477 10.7667L17.5208 10.8176L15.4511 14.6318L12.9095 9.94977L15.8675 4.51429L15.8692 4.51066C15.9101 4.42896 15.9544 4.34908 15.9996 4.27102L16.0005 4.2692L16.0031 4.26557C16.7672 2.95662 18.1232 2.06705 19.6835 2.00351C19.7426 2.00079 19.8026 1.99988 19.8625 1.99988C19.9225 1.99988 19.9825 2.00079 20.0416 2.00351C20.7483 2.03256 21.4133 2.23044 22 2.56085Z" fill="#1C3248"/>
<path fill-rule="evenodd" clip-rule="evenodd" d="M14.2212 2.91759L11.6691 7.60601H5.47833C3.99975 7.60601 2.62548 6.84443 1.79449 5.58813C1.7884 5.57905 1.78232 5.56998 1.77623 5.5609C1.76406 5.54184 1.75189 5.52278 1.73972 5.50371C1.68496 5.41657 1.63194 5.32761 1.58239 5.23593L1.53545 5.1497C1.19384 4.49069 1 3.73727 1 2.93575V2.9185H14.222L14.2212 2.91759Z" fill="#1C3248"/>
<path fill-rule="evenodd" clip-rule="evenodd" d="M14.0969 17.9532C14.0969 19.6897 13.185 21.2029 11.8334 21.9999L5.29579 9.94342H10.4017L13.4806 15.5931C13.4823 15.5968 13.484 15.5995 13.4858 15.6031L13.5162 15.6594C13.6266 15.8618 13.7205 16.0697 13.7996 16.283C13.8039 16.2948 13.8083 16.3075 13.8126 16.3193C13.996 16.8276 14.096 17.3786 14.096 17.9541L14.0969 17.9532Z" fill="#1C3248"/>
</svg>
