<svg width="758" height="182" viewBox="0 0 758 182" fill="none" xmlns="http://www.w3.org/2000/svg">
<g clip-path="url(#clip0_197_3063)">
<g clip-path="url(#clip1_197_3063)">
<mask id="mask0_197_3063" style="mask-type:luminance" maskUnits="userSpaceOnUse" x="0" y="0" width="758" height="182">
<path d="M758 0.043335H0V181.816H758V0.043335Z" fill="white"/>
</mask>
<g mask="url(#mask0_197_3063)">
<path fill-rule="evenodd" clip-rule="evenodd" d="M199.257 5.12417L157.015 79.7225L156.755 80.1775L137.123 114.844L113.008 72.2908L141.075 22.88L141.097 22.8475C141.487 22.1108 141.898 21.3742 142.342 20.67C142.342 20.67 142.342 20.67 142.342 20.6483L142.364 20.6158C149.608 8.73167 162.484 0.650002 177.286 0.075835C177.849 0.0541683 178.423 0.043335 178.986 0.043335C179.549 0.043335 180.112 0.043335 180.686 0.075835C187.389 0.335835 193.702 2.145 199.268 5.14584L199.257 5.12417Z" fill="#FF6600"/>
<path fill-rule="evenodd" clip-rule="evenodd" d="M125.46 8.36334L101.236 50.9817H42.5021C28.4791 50.9817 15.4307 44.0592 7.54751 32.6408C7.49337 32.565 7.4284 32.4675 7.37426 32.3917C7.25514 32.2183 7.13603 32.045 7.02774 31.8717C6.49714 31.0808 6.00986 30.2683 5.5334 29.4342L5.08943 28.6542C1.84086 22.6633 0 15.8167 0 8.52584V8.36334H125.46Z" fill="#FF6600"/>
<path fill-rule="evenodd" clip-rule="evenodd" d="M124.279 145.026C124.279 160.81 115.627 174.558 102.796 181.816L61.2139 108.333L40.7695 72.2258H89.2274L118.432 123.576C118.432 123.576 118.465 123.641 118.486 123.663L118.779 124.172C119.818 126.013 120.717 127.898 121.464 129.837C121.507 129.946 121.551 130.054 121.594 130.163C123.337 134.778 124.29 139.793 124.29 145.026H124.279Z" fill="#FF6600"/>
<path d="M266.568 117.845L252.555 75.0966C250.79 69.7016 245.755 66.0616 240.081 66.0616H231.158L255.945 133.737H276.941L301.966 66.0616H293.043C287.369 66.0616 282.334 69.7016 280.569 75.0966L266.557 117.845H266.568Z" fill="#050B24"/>
<path d="M487.178 101.476C487.178 104.975 486.561 108.106 485.348 110.879C484.124 113.652 482.381 115.819 480.096 117.412C477.811 119.004 475.136 119.795 472.039 119.795C467.567 119.795 463.94 118.311 461.168 115.332C458.395 112.363 457.02 108.149 457.02 102.689V66.04H439.922V105.614C439.922 111.724 440.972 116.935 443.095 121.247C445.206 125.569 448.238 128.862 452.191 131.137C456.143 133.423 460.799 134.55 466.17 134.55C470.318 134.55 474.119 133.51 477.584 131.43C481.038 129.35 483.886 126.122 486.127 121.723C486.506 120.987 486.842 120.217 487.167 119.405V124.518C487.167 127.292 488.001 129.502 489.668 131.17C491.336 132.838 493.545 133.672 496.317 133.672H504.493V65.9966H487.156V101.454L487.178 101.476Z" fill="#050B24"/>
<path d="M562.922 98.5508C560.031 97.0775 556.967 95.9291 553.697 95.0733C550.437 94.2175 547.373 93.405 544.481 92.625C541.59 91.8558 539.23 90.9133 537.389 89.8192C535.559 88.7142 534.638 87.1541 534.638 85.1066C534.638 83.0591 535.45 81.5858 537.086 80.3941C538.71 79.2133 541.081 78.6283 544.167 78.6283C547.427 78.6283 549.961 79.3866 551.802 80.8925C553.632 82.3983 554.92 84.5758 555.646 87.425L571.271 83.2758C570.373 79.6141 568.748 76.4183 566.388 73.6883C564.027 70.9583 561.017 68.8566 557.357 67.405C553.697 65.9316 549.463 65.2058 544.655 65.2058C539.11 65.2058 534.357 66.105 530.372 67.8925C526.387 69.68 523.312 72.1283 521.146 75.2266C518.991 78.325 517.908 81.705 517.908 85.3666C517.908 89.5158 518.818 92.8308 520.659 95.3225C522.489 97.8033 524.871 99.7641 527.795 101.183C530.718 102.613 533.815 103.751 537.075 104.596C540.334 105.452 543.399 106.221 546.301 106.925C549.192 107.618 551.553 108.517 553.383 109.612C555.213 110.717 556.133 112.277 556.133 114.324C556.133 116.372 555.256 117.91 553.512 119.21C551.769 120.51 549.181 121.171 545.759 121.171C542.835 121.171 540.269 120.38 538.071 118.787C535.873 117.195 534.411 115.061 533.675 112.374L517.551 116.036C518.601 119.535 520.442 122.709 523.041 125.558C525.64 128.407 528.899 130.628 532.808 132.21C536.707 133.802 541.103 134.593 545.987 134.593C551.433 134.593 556.166 133.694 560.14 131.907C564.125 130.119 567.221 127.692 569.42 124.637C571.618 121.593 572.712 118.224 572.712 114.562C572.712 110.413 571.802 107.077 569.961 104.552C568.131 102.028 565.77 100.035 562.879 98.5617H562.912L562.922 98.5508Z" fill="#050B24"/>
<path d="M684.279 115.83C682.124 117.422 679.785 118.657 677.262 119.557C674.739 120.445 672.129 120.9 669.454 120.9C666.357 120.9 663.466 120.391 660.791 119.372C658.106 118.354 655.843 116.913 654.013 115.039C652.183 113.165 651.024 111.139 650.537 108.929C650.775 108.929 651.295 108.951 652.064 108.983C652.843 109.027 653.71 109.048 654.684 109.048C655.659 109.048 656.514 109.092 657.24 109.167C661.874 109.341 666.606 109.102 671.404 108.496C676.211 107.878 680.629 106.752 684.658 105.072C688.686 103.404 691.924 101.151 694.371 98.2908C696.818 95.4416 698.031 91.8991 698.031 87.6633C698.031 84.4025 697.273 81.4016 695.768 78.6283C694.263 75.855 692.14 73.4825 689.411 71.4891C686.683 69.4958 683.531 67.9466 679.947 66.8525C676.363 65.7475 672.541 65.2058 668.469 65.2058C663.661 65.2058 659.102 66.04 654.792 67.7083C650.472 69.3766 646.649 71.76 643.314 74.8475C639.979 77.9458 637.38 81.6508 635.496 85.9625C633.623 90.285 632.691 95.0841 632.691 100.371C632.691 105.657 633.601 110.164 635.442 114.357C637.272 118.549 639.827 122.157 643.13 125.157C646.422 128.18 650.288 130.487 654.728 132.123C659.167 133.748 663.986 134.561 669.194 134.561C673.428 134.561 677.489 134.03 681.409 132.968C685.307 131.917 688.978 130.26 692.4 128.017C695.811 125.786 698.832 122.947 701.431 119.524L689.585 110.608C688.209 112.482 686.423 114.216 684.279 115.797V115.83ZM652.237 87.9775C653.861 85.2475 656.114 83.0266 659.016 81.3258C661.907 79.6141 665.22 78.7583 668.956 78.7583C671.317 78.7583 673.418 79.1483 675.237 79.9175C677.067 80.6975 678.529 81.705 679.622 82.9616C680.727 84.2183 681.268 85.67 681.268 87.295C681.268 89.2558 680.554 90.8591 679.135 92.1266C677.717 93.3833 675.843 94.3583 673.515 95.0516C671.187 95.745 668.675 96.2108 665.946 96.4491C663.217 96.6875 660.521 96.8175 657.824 96.8175C656.2 96.8175 654.652 96.7741 653.19 96.6983C651.717 96.6225 650.504 96.5358 649.53 96.46C649.692 93.535 650.58 90.6966 652.215 87.9666L652.237 87.9775Z" fill="#050B24"/>
<path d="M431.746 126.848C433.143 129.697 434.833 132.275 436.792 134.583H418.904C409.342 134.583 401.6 126.826 401.6 117.271V47.6234H418.817V115.061C418.817 117.412 420.723 119.318 423.073 119.318H428.953C429.667 121.994 430.588 124.497 431.746 126.858V126.848Z" fill="#050B24"/>
<path d="M634.608 134.507C630.017 130.303 626.389 125.233 623.855 119.416C623.834 119.373 623.823 119.34 623.801 119.297H613.243C610.774 119.297 608.771 117.293 608.771 114.823V80.0909H624.278C626.725 74.7392 630.049 70.0159 634.218 66.0509H601.592C602.046 65.9534 602.48 65.8234 602.88 65.6609C603.4 65.4767 603.887 65.2384 604.342 64.9567C604.699 64.74 605.046 64.4909 605.36 64.22C605.977 63.6892 606.519 63.1042 606.984 62.4758C607.309 62.0317 607.601 61.555 607.861 61.0459C607.948 60.8617 608.035 60.6884 608.11 60.5042C608.554 59.4642 608.771 58.4134 608.771 57.3734V47.6017H591.673V60.19C591.673 61.6309 591.337 62.8334 590.676 63.8084C590.514 64.0467 590.341 64.2633 590.146 64.4692C589.994 64.6208 589.843 64.7617 589.68 64.8917C588.716 65.6717 587.471 66.0509 585.934 66.0509H580.801V80.0909H591.294V119.297C591.294 123.511 593.005 127.335 595.777 130.087C598.538 132.849 602.36 134.55 606.573 134.55H634.673C634.673 134.55 634.619 134.507 634.608 134.485V134.507Z" fill="#050B24"/>
<path d="M373.098 103.047H391.355C390.878 104.921 390.283 106.73 389.568 108.496C387.413 113.826 384.381 118.43 380.472 122.287C376.563 126.154 371.982 129.166 366.73 131.322C361.522 133.467 355.707 134.539 349.578 134.561C343.438 134.539 337.786 133.467 332.577 131.322C327.325 129.166 322.756 126.154 318.836 122.287C314.927 118.419 311.895 113.815 309.74 108.496C307.574 103.166 306.502 97.3159 306.502 90.9675C306.502 84.6192 307.596 78.7908 309.794 73.4933C311.992 68.1958 315.046 63.6242 318.944 59.7459C322.853 55.8675 327.434 52.8884 332.685 50.765C337.883 48.6742 343.514 47.6017 349.567 47.6017H349.708C355.75 47.6234 361.381 48.6742 366.59 50.7759C371.842 52.8884 376.422 55.8892 380.331 59.7567C384.229 63.6242 387.294 68.1958 389.481 73.5042C390.239 75.3242 390.857 77.1984 391.355 79.1375H373.108C372.719 78.1192 372.275 77.1442 371.777 76.1909C369.578 72.0417 366.546 68.8025 362.681 66.4734C358.923 64.2092 354.635 63.0609 349.827 62.9959H349.426C344.619 63.0609 340.33 64.22 336.573 66.4734C332.696 68.8025 329.675 72.0309 327.477 76.1909C325.279 80.34 324.185 85.2692 324.185 90.9675C324.185 96.6659 325.268 101.638 327.423 105.863C329.578 110.088 332.566 113.371 336.4 115.7C340.222 118.018 344.608 119.178 349.567 119.188C354.516 119.188 359.053 118.029 362.875 115.7C366.709 113.371 369.697 110.11 371.852 105.863C372.307 104.964 372.73 104.011 373.087 103.036L373.098 103.047Z" fill="#050B24"/>
<path d="M757.989 66.2458L750.788 81.6291C748.828 80.73 746.609 80.2858 744.14 80.2858C740.999 80.2858 738.271 81.0875 735.964 82.7016C733.658 84.3158 731.871 86.515 730.636 89.3208C729.402 92.1266 728.785 95.3008 728.785 98.8541V134.745H723.067C716.505 134.745 711.199 129.426 711.199 122.872V66.17H719.494C722.298 66.17 724.551 67.015 726.24 68.705C727.94 70.395 728.785 72.6483 728.785 75.4433V80.6325C729.11 79.82 729.456 79.0291 729.835 78.2925C732.109 73.8291 735 70.5575 738.509 68.4558C742.017 66.3541 745.883 65.2925 750.095 65.2925C752.922 65.2925 755.564 65.5958 758.011 66.2241L757.989 66.2458Z" fill="#050B24"/>
</g>
</g>
</g>
<defs>
<clipPath id="clip0_197_3063">
<rect width="758" height="182" fill="white"/>
</clipPath>
<clipPath id="clip1_197_3063">
<rect width="758" height="182" fill="white"/>
</clipPath>
</defs>
</svg>
