<svg width="33" height="32" viewBox="0 0 33 32" fill="none" xmlns="http://www.w3.org/2000/svg">
<path fill-rule="evenodd" clip-rule="evenodd" d="M31.5824 2.76465L24.9752 14.4328L24.9345 14.504L21.8638 19.9263L18.0919 13.2704L22.482 5.54189L22.4854 5.53681C22.5464 5.42158 22.6108 5.30636 22.6802 5.19622C22.6802 5.19622 22.6802 5.19622 22.6802 5.19283L22.6836 5.18774C23.8167 3.32891 25.8305 2.06483 28.1459 1.97502C28.2339 1.97163 28.3237 1.96994 28.4118 1.96994C28.4998 1.96994 28.5879 1.96994 28.6777 1.97502C29.7261 2.01569 30.7136 2.29867 31.5841 2.76804L31.5824 2.76465Z" fill="#0C112C"/>
<path fill-rule="evenodd" clip-rule="evenodd" d="M20.0395 3.2713L16.2507 9.93735H7.0639C4.87052 9.93735 2.82958 8.85458 1.59654 7.06861C1.58808 7.05675 1.57791 7.0415 1.56944 7.02964C1.55081 7.00252 1.53218 6.97541 1.51524 6.9483C1.43225 6.82461 1.35603 6.69752 1.28151 6.56705L1.21207 6.44504C0.703949 5.508 0.416016 4.43709 0.416016 3.29671V3.2713H20.0395Z" fill="#0C112C"/>
<path fill-rule="evenodd" clip-rule="evenodd" d="M19.8549 24.6471C19.8549 27.1159 18.5016 29.2662 16.4946 30.4015L6.79289 13.2602H14.3723L18.9403 21.292C18.9403 21.292 18.9454 21.3022 18.9488 21.3056L18.9945 21.3852C19.1571 21.6733 19.2977 21.9681 19.4146 22.2714C19.4213 22.2884 19.4281 22.3053 19.4349 22.3223C19.7076 23.0441 19.8566 23.8286 19.8566 24.6471H19.8549Z" fill="#0C112C"/>
<path fill-rule="evenodd" clip-rule="evenodd" d="M31.5824 2.76465L24.9752 14.4328L24.9345 14.504L21.8638 19.9263L18.0919 13.2704L22.482 5.54189L22.4854 5.53681C22.5464 5.42158 22.6108 5.30636 22.6802 5.19622C22.6802 5.19622 22.6802 5.19622 22.6802 5.19283L22.6836 5.18774C23.8167 3.32891 25.8305 2.06483 28.1459 1.97502C28.2339 1.97163 28.3237 1.96994 28.4118 1.96994C28.4998 1.96994 28.5879 1.96994 28.6777 1.97502C29.7261 2.01569 30.7136 2.29867 31.5841 2.76804L31.5824 2.76465Z" stroke="white" stroke-width="0.4"/>
<path fill-rule="evenodd" clip-rule="evenodd" d="M20.0395 3.2713L16.2507 9.93735H7.0639C4.87052 9.93735 2.82958 8.85458 1.59654 7.06861C1.58808 7.05675 1.57791 7.0415 1.56944 7.02964C1.55081 7.00252 1.53218 6.97541 1.51524 6.9483C1.43225 6.82461 1.35603 6.69752 1.28151 6.56705L1.21207 6.44504C0.703949 5.508 0.416016 4.43709 0.416016 3.29671V3.2713H20.0395Z" stroke="white" stroke-width="0.4"/>
<path fill-rule="evenodd" clip-rule="evenodd" d="M19.8549 24.6471C19.8549 27.1159 18.5016 29.2662 16.4946 30.4015L6.79289 13.2602H14.3723L18.9403 21.292C18.9403 21.292 18.9454 21.3022 18.9488 21.3056L18.9945 21.3852C19.1571 21.6733 19.2977 21.9681 19.4146 22.2714C19.4213 22.2884 19.4281 22.3053 19.4349 22.3223C19.7076 23.0441 19.8566 23.8286 19.8566 24.6471H19.8549Z" stroke="white" stroke-width="0.4"/>
</svg>
