<svg width="33" height="32" viewBox="0 0 33 32" fill="none" xmlns="http://www.w3.org/2000/svg">
<path fill-rule="evenodd" clip-rule="evenodd" d="M31.7519 3.06562L25.3807 14.3118L25.342 14.3813L22.3801 19.6085L18.7429 13.1921L22.9764 5.74306V5.73821C23.0378 5.62672 23.1008 5.51684 23.1654 5.4102C23.1654 5.4102 23.1654 5.4102 23.1654 5.40696L23.1687 5.40212C24.2626 3.60854 26.2032 2.3902 28.4363 2.30294C28.5203 2.29971 28.6059 2.2981 28.6916 2.2981C28.7772 2.2981 28.8628 2.2981 28.9469 2.30294C29.9584 2.34172 30.9101 2.61319 31.7503 3.06724L31.7519 3.06562Z" fill="#FF6600"/>
<path fill-rule="evenodd" clip-rule="evenodd" d="M20.621 3.55615L16.9676 9.98072H8.10801C5.99128 9.98072 4.02483 8.93689 2.83719 7.21602C2.8275 7.20309 2.81941 7.19017 2.81134 7.17886C2.79356 7.153 2.77579 7.12715 2.75963 7.1013C2.68045 6.98172 2.60613 6.85892 2.53504 6.7345L2.46878 6.61654C1.97919 5.71329 1.70288 4.68077 1.70288 3.58201C1.70288 3.57393 1.70288 3.56585 1.70288 3.55777H20.6226L20.621 3.55615Z" fill="#FF6600"/>
<path fill-rule="evenodd" clip-rule="evenodd" d="M20.4445 24.1596C20.4445 26.5381 19.1389 28.6128 17.2048 29.7051L10.9321 18.627L7.84912 13.1832H15.1559L19.5622 20.9263C19.5655 20.9312 19.5671 20.9344 19.5703 20.9392L19.614 21.0152C19.7723 21.2915 19.9064 21.5775 20.0195 21.87C20.026 21.8861 20.0325 21.9039 20.0389 21.9201C20.3007 22.6165 20.4445 23.3727 20.4445 24.1612V24.1596Z" fill="#FF6600"/>
</svg>